<svg width="60" height="52" viewBox="0 0 60 52" fill="none" xmlns="http://www.w3.org/2000/svg">
<rect width="60" height="40.9091" rx="2" fill="#EDBD58"/>
<g filter="url(#filter0_d_691_11447)">
<path d="M24.75 16.3325C24.75 16.3884 25.7406 16.91 25.7786 16.9474C25.9044 17.0631 27.0124 16.5561 27.0124 16.5561L26.7128 15.002H25.7764L25.1972 15.8165L24.75 16.3325Z" fill="#373737"/>
<path d="M34.2616 16.7223C34.2616 16.7223 33.617 16.9594 33.508 16.9493C33.399 16.9393 32.3262 16.5239 32.3262 16.5239L32.6655 15.1855L33.5974 15.2778L34.0927 16.1443L34.2616 16.7223Z" fill="#373737"/>
<path d="M33.1525 16.96C33.1525 16.96 31.7286 15.9772 29.7507 15.9207C27.8696 15.8648 26.1762 16.9393 26.1639 16.9354C25.308 16.6899 24.3577 16.3159 24.1564 15.8877C24.1184 15.8061 23.9434 15.5339 24.1564 15.4327C24.1564 15.4327 27.2708 14.0949 29.4047 13.0696C29.5601 12.9947 30.0442 12.983 30.213 13.0618C30.3819 13.1406 33.735 14.8216 35.146 15.4919C35.3003 15.5657 35.1169 15.8469 34.7262 16.1164C34.3354 16.3858 34.2862 16.463 33.6204 16.766L33.1525 16.96Z" fill="#373737"/>
<path d="M30.4328 15.6576C30.4328 15.6576 28.8496 15.9187 29.8128 15.9058C31.694 15.8796 33.3024 16.9937 33.3152 16.9904C34.1778 16.7617 35.1969 16.409 35.4066 15.9841C35.4463 15.9036 35.6274 15.6448 35.4161 15.5369C35.3982 15.5369 32.3162 14.0744 30.1896 13.0531C30.0337 12.9782 29.5702 12.9815 29.407 13.0698C29.2437 13.1582 27.9675 15.6414 29.5238 15.7532C32.2681 15.9561 29.4238 15.3915 29.8089 15.6682C30.1941 15.945 29.6088 15.3524 30.2685 15.6682L30.4328 15.6576Z" fill="#373737"/>
<path d="M27.0883 15.2626C27.0609 15.2749 26.8971 15.3509 26.9004 15.3805C26.9262 15.5862 27.1537 16.3555 26.9563 17.3327C26.8255 17.984 27.2459 18.2417 29.8153 18.2881C30.6164 18.3026 31.9268 18.264 32.3986 17.8319C32.6183 17.6312 32.384 17.2634 32.3248 16.5461C32.2611 15.778 32.4925 15.2972 32.3773 15.2788C32.3527 15.2749 30.0937 13.9348 27.0883 15.2626Z" fill="#47474A"/>
<path d="M26.9316 16.2328C26.9316 16.2328 27.186 17.101 26.9574 18.2336C26.8265 18.8843 27.2469 19.1421 29.8163 19.1885C30.6174 19.203 31.9278 19.1644 32.3996 18.7328C32.6193 18.5321 32.3851 18.1637 32.3258 17.4471C32.2848 17.0244 32.3025 16.5981 32.3784 16.1803C32.3789 16.1557 29.9605 14.8699 26.9316 16.2328Z" fill="#DA9633"/>
<path d="M36.2788 29.6283L23.1934 30.5742L26.7332 19.8652L32.574 19.8731L36.2788 29.6283Z" fill="#B6394A"/>
<path d="M35.6348 31.3636C35.639 30.7268 35.8636 30.111 36.2705 29.6211H24.8191C23.8128 29.6211 23 30.3769 23 31.3105C23 32.2441 23.8145 32.9999 24.8191 32.9999H36.1888C35.8332 32.5282 35.6389 31.9544 35.6348 31.3636Z" fill="#B6394A"/>
<path d="M35.636 31.3639C35.6369 30.967 35.7259 30.5752 35.8965 30.2168H24.0566V32.4233H35.8574C35.7121 32.089 35.6367 31.7285 35.636 31.3639Z" fill="white"/>
<path d="M35.7646 30.5527H24.0566V30.574H35.7579L35.7646 30.5527Z" fill="#939498"/>
<path d="M35.7243 30.6914H24.0566V30.7132H35.7182C35.7204 30.7059 35.7221 30.6987 35.7243 30.6914Z" fill="#939498"/>
<path d="M35.6913 30.8301H24.0566V30.8496H35.6874C35.6891 30.8435 35.6902 30.8368 35.6913 30.8301Z" fill="#939498"/>
<path d="M35.6668 30.9707H24.0566V30.9925H35.664C35.6651 30.9852 35.6656 30.978 35.6668 30.9707Z" fill="#939498"/>
<path d="M35.6528 31.1074H24.0566V31.1298H35.6477C35.6483 31.122 35.6489 31.1147 35.6528 31.1074Z" fill="#939498"/>
<path d="M35.6399 31.248H24.0566V31.2699H35.6394C35.6394 31.2626 35.6394 31.2553 35.6399 31.248Z" fill="#939498"/>
<path d="M35.6371 31.3848H24.0566V31.4094H35.6377C35.6377 31.3993 35.6371 31.3926 35.6371 31.3848Z" fill="#939498"/>
<path d="M35.6416 31.5254H24.0566V31.5466H35.6433C35.6433 31.5394 35.6422 31.5321 35.6416 31.5254Z" fill="#939498"/>
<path d="M35.6528 31.6621H24.0566V31.6834H35.6572C35.6552 31.6764 35.6537 31.6693 35.6528 31.6621Z" fill="#939498"/>
<path d="M35.6729 31.8027H24.0566V31.8245H35.6774C35.6757 31.8178 35.6746 31.8111 35.6729 31.8027Z" fill="#939498"/>
<path d="M35.7003 31.9414H24.0566V31.9632H35.7053C35.704 31.9559 35.7024 31.9486 35.7003 31.9414Z" fill="#939498"/>
<path d="M35.7355 32.0801H24.0566V32.1013H35.7405C35.7394 32.0935 35.7377 32.0857 35.7355 32.0801Z" fill="#939498"/>
<path d="M35.7786 32.2188H24.0566V32.2394H35.7853C35.783 32.2322 35.7802 32.2255 35.7786 32.2188Z" fill="#939498"/>
<path d="M35.8093 30.4258H24.0566V30.447H35.8009C35.8037 30.4398 35.806 30.4325 35.8093 30.4258Z" fill="#939498"/>
<path d="M27.5756 17.8807C27.5756 17.8807 27.2151 17.8086 27.4801 17.6408C27.745 17.4731 28.8961 17.2568 30.0684 17.2859C31.2407 17.3149 33.1079 17.4765 32.2973 17.9276" fill="#47474A"/>
<path d="M27.5757 17.8812C27.5535 17.8788 27.5314 17.8749 27.5098 17.8694C27.4835 17.863 27.458 17.8538 27.4337 17.842C27.4169 17.8348 27.4014 17.8248 27.3879 17.8124C27.3794 17.8048 27.3725 17.7956 27.3676 17.7853C27.3628 17.7751 27.3599 17.7639 27.3594 17.7526C27.3595 17.7276 27.3679 17.7034 27.3834 17.6838C27.3982 17.6631 27.4155 17.6444 27.4348 17.6279L27.4499 17.6156L27.4572 17.61L27.4673 17.6033L27.4991 17.5838C27.5229 17.5694 27.5475 17.5567 27.5729 17.5457C27.6907 17.4931 27.8124 17.4497 27.9369 17.416C28.0716 17.3786 28.2164 17.3406 28.3768 17.3115C28.5373 17.2824 28.7005 17.2517 28.8749 17.231L29.0069 17.2148L29.141 17.2025C29.2305 17.193 29.3222 17.1874 29.4138 17.1812C29.5983 17.1712 29.7856 17.1656 29.9729 17.1689C30.1602 17.1723 30.3463 17.179 30.5319 17.1902C30.7175 17.2014 30.8947 17.2165 31.0692 17.2349C31.2436 17.2534 31.4102 17.2768 31.5684 17.3031C31.7178 17.3268 31.866 17.3581 32.0123 17.397C32.1383 17.4274 32.2603 17.4726 32.3756 17.5318C32.4269 17.5573 32.4714 17.5945 32.5059 17.6402C32.5204 17.6612 32.5282 17.6862 32.5282 17.7118C32.5282 17.7373 32.5204 17.7623 32.5059 17.7833C32.4849 17.8138 32.4581 17.8399 32.4271 17.8599C32.4008 17.8772 32.3773 17.8901 32.3583 17.9002C32.3393 17.9102 32.3242 17.9164 32.3136 17.9214L32.2985 17.9281L32.3119 17.9181L32.3499 17.8895C32.3695 17.874 32.3881 17.8574 32.4058 17.8398C32.429 17.8182 32.448 17.7924 32.4617 17.7638C32.4683 17.7494 32.4702 17.7334 32.4671 17.7179C32.464 17.7024 32.456 17.6883 32.4444 17.6777C32.4111 17.6477 32.3721 17.6247 32.3298 17.61C32.2153 17.571 32.0974 17.5427 31.9776 17.5256C31.844 17.5044 31.6981 17.4887 31.541 17.4731C31.3839 17.4574 31.219 17.4485 31.0479 17.4378C30.8768 17.4272 30.6985 17.4205 30.5179 17.4132C30.3374 17.406 30.1534 17.3998 29.9718 17.3987C29.7901 17.3976 29.6078 17.3987 29.4284 17.4037C29.2489 17.4088 29.0723 17.4194 28.9018 17.4334C28.7313 17.4473 28.5663 17.4613 28.4109 17.4803L28.2958 17.4949L28.184 17.5105C28.1107 17.5195 28.0414 17.5329 27.9738 17.5435C27.9061 17.5541 27.8435 17.5687 27.7837 17.5826L27.7384 17.5921L27.6959 17.6033C27.6685 17.6106 27.64 17.6173 27.6165 17.6257C27.5922 17.6329 27.5683 17.6417 27.545 17.652L27.5103 17.6676H27.5058L27.498 17.6721L27.4835 17.6799C27.4466 17.7017 27.4164 17.728 27.413 17.7515C27.4097 17.7749 27.4315 17.8001 27.4539 17.8169C27.4743 17.8315 27.4962 17.8439 27.5193 17.8538C27.5376 17.8639 27.5564 17.8731 27.5757 17.8812Z" fill="#0F100E"/>
<path opacity="0.25" d="M27.1481 16.5119C27.1475 16.51 27.1476 16.508 27.1484 16.5062C27.1492 16.5044 27.1508 16.5031 27.1526 16.5024C27.1545 16.5017 27.1565 16.5018 27.1583 16.5027C27.1601 16.5035 27.1614 16.505 27.1621 16.5069C27.2622 16.6964 27.739 17.3957 29.2652 17.2252C29.2652 17.2252 26.5757 17.4488 27.6295 18.1018C27.6295 18.1018 27.0425 18.009 27.0777 17.5143C27.1124 17.0363 27.2175 16.9977 27.1481 16.5119Z" fill="#0F100E"/>
<path opacity="0.25" d="M29.5622 18.3292C28.3636 18.3292 27.3926 18.0872 27.3926 17.7886C27.3926 17.4901 28.3636 17.248 29.5622 17.248C29.5622 17.248 27.6816 18.0866 29.6572 18.3102L29.5622 18.3292Z" fill="#0F100E"/>
<path opacity="0.25" d="M30.3821 17.2383C31.5863 17.2383 32.5624 17.4803 32.5624 17.7789C32.5624 18.0774 31.5858 18.32 30.3821 18.32C30.3821 18.32 32.2728 17.4815 30.2871 17.2578L30.3821 17.2383Z" fill="#0F100E"/>
<path opacity="0.5" d="M29.9457 18.3292C31.3558 18.3292 32.4988 18.0872 32.4988 17.7886C32.4988 17.4901 31.3558 17.248 29.9457 17.248C28.5357 17.248 27.3926 17.4901 27.3926 17.7886C27.3926 18.0872 28.5357 18.3292 29.9457 18.3292Z" fill="#0F100E"/>
<path d="M34.1093 17.2193C34.1093 17.2193 33.562 16.052 33.3266 16.0665C33.0913 16.0811 33.0605 16.8352 33.0605 16.8352L34.1093 17.2193Z" fill="#675139"/>
<path d="M34.6545 17.3278L34.6707 17.3568C34.9567 17.3729 35.2436 17.3629 35.5278 17.3272C35.7392 17.2989 35.9473 17.2495 36.1488 17.1796C36.1488 17.1796 35.8034 17.8505 35.5082 18.1652C35.213 18.4799 35.0844 18.5688 35.0844 18.5688C35.0844 18.5688 35.1532 19.0121 35.1728 19.1698C35.1897 19.2892 35.2127 19.4077 35.2415 19.5248C35.3611 19.5375 35.476 19.578 35.577 19.6433C35.6791 19.7116 35.7555 19.8122 35.7939 19.929L35.6066 19.9195C35.6066 19.9195 35.8721 20.1554 35.9219 20.3527C35.9716 20.5501 35.9314 20.6484 35.9314 20.6484C35.9314 20.6484 35.6362 20.4707 35.5278 20.5003C35.5278 20.5003 35.7542 21.1309 35.6066 21.4266L35.3405 21.3282C35.3405 21.3282 35.4584 21.6234 35.4098 21.7319L35.2617 21.676C35.2617 21.676 35.4685 21.9616 35.3701 22.1981L35.2717 22.4346L34.986 22.1685C34.986 22.1685 35.0151 22.5822 34.8877 22.7991C34.8262 22.9108 34.7498 23.0136 34.6607 23.1049L34.4337 22.8186C34.2802 23.0271 34.1089 23.2218 33.9216 23.4006C33.7553 23.5411 33.581 23.6717 33.3995 23.7919C33.3995 23.7919 34.3353 23.9691 34.3158 24.048L33.9803 24.2352C33.9803 24.2352 34.6311 24.4521 34.6311 24.7769L34.2274 24.7674C34.2274 24.7674 35.0939 25.3992 35.3405 25.8425C35.587 26.2858 35.7145 26.7291 35.577 26.946C35.4394 27.1629 34.8379 26.8079 34.8379 26.8079C34.8379 26.8079 35.577 28.513 35.1431 28.5818C34.7093 28.6505 34.2369 27.9909 34.2369 27.9909C34.2369 27.9909 34.3158 29.2319 33.9608 29.1928C33.8606 29.1832 33.7652 29.1459 33.6852 29.0849C33.6051 29.024 33.5438 28.9419 33.5079 28.8479C33.5079 28.8479 33.4386 29.2811 33.3995 29.2716C33.3604 29.2621 33.3106 29.0748 33.3106 29.0748C33.3106 29.0748 33.1133 29.8536 32.9265 29.8139C32.7398 29.7742 32.779 29.3801 32.779 29.3801C32.779 29.3801 32.5028 29.8832 32.2462 29.9218L31.9902 29.9615L31.9807 29.597C31.9807 29.597 31.7738 29.7049 31.7341 29.7049C31.6944 29.7049 30.5601 29.9318 29.8893 29.9318H29.337C28.7092 29.9318 27.6481 29.7049 27.6107 29.7049C27.5732 29.7049 27.3798 29.597 27.3798 29.597L27.3708 29.9615L27.131 29.9218C26.8906 29.8826 26.6323 29.3801 26.6323 29.3801C26.6323 29.3801 26.6692 29.7742 26.4937 29.8139C26.3182 29.8536 26.1337 29.0748 26.1337 29.0748C26.1337 29.0748 26.0873 29.2616 26.0504 29.2716C26.0135 29.2817 25.9492 28.8479 25.9492 28.8479C25.9176 28.9392 25.861 29.02 25.7859 29.0809C25.7109 29.1419 25.6202 29.1806 25.5243 29.1928C25.1889 29.2319 25.2655 27.9909 25.2655 27.9909C25.2655 27.9909 24.8227 28.6511 24.4163 28.5818C24.0099 28.5124 24.7025 26.8079 24.7025 26.8079C24.7025 26.8079 24.1413 27.1612 24.0127 26.946C23.8841 26.7308 24.0026 26.2858 24.2363 25.8425C24.47 25.3992 25.2795 24.7674 25.2795 24.7674L24.901 24.7769C24.901 24.4521 25.5098 24.2352 25.5098 24.2352L25.1962 24.048C25.1777 23.9691 26.0548 23.7919 26.0548 23.7919C25.8842 23.6713 25.7208 23.5406 25.5657 23.4006C25.389 23.2199 25.2284 23.0242 25.0855 22.8158L24.873 23.1021C24.7889 23.0101 24.7175 22.9072 24.6606 22.7963C24.541 22.5794 24.5684 22.1657 24.5684 22.1657L24.3006 22.4318L24.2083 22.1953C24.1155 21.9588 24.3101 21.6732 24.3101 21.6732L24.1714 21.7291C24.125 21.6206 24.2363 21.3254 24.2363 21.3254L23.987 21.4238C23.8483 21.1281 24.0608 20.4975 24.0608 20.4975C23.959 20.4679 23.6817 20.6457 23.6817 20.6457C23.6817 20.6457 23.6454 20.5467 23.6912 20.3499C23.7371 20.1531 23.987 19.9167 23.987 19.9167L23.8114 19.9262C23.8463 19.8113 23.9177 19.711 24.0149 19.6405C24.108 19.5757 24.2158 19.5349 24.3285 19.522C24.3285 19.522 24.3744 19.3246 24.3928 19.167C24.4113 19.0093 24.4761 18.566 24.4761 18.566C24.4761 18.566 24.3559 18.4777 24.0792 18.1624C23.8025 17.8471 23.4766 17.1796 23.4766 17.1796C23.6648 17.2493 23.8598 17.2988 24.0585 17.3272C24.2738 17.3579 24.4913 17.3698 24.7087 17.363L24.735 17.2959C24.735 17.2959 25.4489 16.0783 25.9699 16.0425C26.4909 16.0068 27.0002 16.5619 27.0002 16.5619C27.0002 16.5619 27.2098 16.4109 27.8248 16.2332C28.1373 16.1432 29.0284 15.8798 29.8994 15.9039C30.7301 15.9257 31.5413 16.2304 31.8157 16.3125C32.3748 16.4803 32.3278 16.5222 32.3278 16.5222C32.3278 16.5222 32.8723 15.8379 33.4146 15.9464C33.9121 16.0459 34.5394 17.1142 34.6573 17.3278" fill="#6E543C"/>
<path d="M29.1062 22.4133C29.1062 22.4133 29.3795 23.2558 29.7865 23.2407C30.1935 23.2256 30.4367 22.3909 30.4367 22.3909C30.4367 22.3909 31.0292 21.0548 29.7138 21.0845C28.3984 21.1141 29.1062 22.4133 29.1062 22.4133Z" fill="#B2773A"/>
<path d="M25.4138 29.1031L25.5944 28.5402C25.5944 28.5402 24.9191 27.7296 25.2679 26.1637C25.6168 24.5979 27.5091 23.8219 27.5091 23.8219C27.5091 23.8219 27.1474 23.4524 25.5709 23.3965L25.52 23.4054C25.52 23.4054 24.5177 23.6084 24.5389 23.6984L24.8978 23.9125C24.8978 23.9125 24.2013 24.1601 24.2013 24.5336L24.634 24.5224C24.634 24.5224 23.7054 25.2441 23.4415 25.7523C23.1777 26.2604 23.0407 26.7625 23.1861 27.0107C23.3314 27.2589 23.9771 26.853 23.9771 26.853C23.9771 26.853 23.1861 28.8013 23.6523 28.8807C24.1185 28.96 24.4305 28.6229 24.4305 28.6229C24.4305 28.6229 24.5389 29.6236 24.9191 29.5783C25.0287 29.5645 25.1322 29.5202 25.218 29.4505C25.3037 29.3809 25.3683 29.2886 25.4043 29.1842L25.4138 29.1031Z" fill="#5E4525"/>
<path d="M34.0634 29.1037L33.875 28.5408C33.875 28.5408 34.5805 27.7301 34.216 26.1643C33.8515 24.5984 31.877 23.8225 31.877 23.8225C31.877 23.8225 32.2515 23.4569 33.8973 23.4004L33.9532 23.406C33.9532 23.406 34.9997 23.6089 34.9779 23.6989L34.6034 23.913C34.6034 23.913 35.3301 24.1607 35.3301 24.5324L34.8784 24.5213C34.8784 24.5213 35.8478 25.243 36.1234 25.7511C36.399 26.2593 36.5416 26.7647 36.3873 27.0129C36.233 27.2611 35.5616 26.8552 35.5616 26.8552C35.5616 26.8552 36.3873 28.8035 35.9026 28.8829C35.4179 28.9623 34.9707 28.6006 34.9707 28.6006C34.9707 28.6006 34.9779 29.6258 34.5793 29.5806C34.4665 29.5687 34.3592 29.5255 34.2696 29.4559C34.18 29.3862 34.1116 29.2929 34.0723 29.1864L34.0634 29.1037Z" fill="#5E4525"/>
<path d="M29.8274 26.3847C29.2813 26.3847 28.8374 26.122 28.8105 25.791C28.8105 25.8022 28.8105 25.8139 28.8105 25.8251C28.8105 26.2075 29.2673 26.5172 29.8302 26.5172C30.3932 26.5172 30.8505 26.2075 30.8505 25.8251C30.8505 25.8139 30.8505 25.8022 30.8505 25.791C30.8181 26.122 30.3736 26.3847 29.8274 26.3847Z" fill="#583F25"/>
<path d="M28.5581 25.3536C28.0751 25.3536 27.6827 25.1205 27.6586 24.8281C27.6581 24.8384 27.6581 24.8486 27.6586 24.8589C27.6586 25.1943 28.0623 25.4705 28.5604 25.4705C29.0585 25.4705 29.4615 25.1965 29.4615 24.8589C29.4621 24.8486 29.4621 24.8384 29.4615 24.8281C29.4336 25.1205 29.0406 25.3536 28.5581 25.3536Z" fill="#583F25"/>
<path d="M27.2992 26.4786C26.8257 26.5613 26.3902 26.3992 26.3047 26.1163C26.3047 26.1264 26.3047 26.1365 26.3092 26.1465C26.3813 26.478 26.8352 26.6782 27.3244 26.5938C27.8135 26.5093 28.1512 26.1717 28.0796 25.8402C28.0796 25.8301 28.0735 25.8201 28.0707 25.8105C28.1098 26.1007 27.7733 26.397 27.2992 26.4786Z" fill="#583F25"/>
<path d="M31.0671 25.3256C30.5863 25.2881 30.2174 25.0259 30.2218 24.7324C30.2218 24.7425 30.2179 24.7525 30.2168 24.7626C30.1844 25.098 30.56 25.4033 31.0554 25.4418C31.5507 25.4804 31.98 25.2395 32.0124 24.9029C32.013 24.8927 32.013 24.8824 32.0124 24.8722C31.9616 25.1618 31.5495 25.363 31.0671 25.3256Z" fill="#583F25"/>
<path d="M32.2756 26.5248C31.7948 26.4873 31.4258 26.2246 31.4309 25.9316C31.4309 25.9417 31.427 25.9512 31.4258 25.9618C31.3929 26.2973 31.7685 26.6025 32.2644 26.6411C32.7603 26.6796 33.1891 26.4387 33.222 26.1016C33.2226 26.0913 33.2226 26.0811 33.222 26.0708C33.1706 26.361 32.7564 26.5622 32.2756 26.5248Z" fill="#583F25"/>
<path d="M31.1851 27.6893C30.7026 27.6776 30.3175 27.435 30.3029 27.1426C30.301 27.1526 30.2997 27.1626 30.299 27.1728C30.289 27.5082 30.6836 27.7939 31.1817 27.8062C31.6798 27.8185 32.0913 27.5557 32.1019 27.218C32.1019 27.2069 32.1019 27.1974 32.1019 27.1873C32.0678 27.4786 31.6675 27.7016 31.1851 27.6893Z" fill="#583F25"/>
<path d="M29.776 28.7719C29.2941 28.7926 28.8894 28.5768 28.8502 28.2856C28.8494 28.2958 28.8494 28.3061 28.8502 28.3163C28.8676 28.6517 29.2857 28.91 29.7833 28.8888C30.2808 28.8675 30.6688 28.5774 30.6509 28.2392C30.6509 28.2291 30.6509 28.219 30.6475 28.209C30.6386 28.5019 30.2585 28.7518 29.776 28.7719Z" fill="#583F25"/>
<path d="M28.5451 27.6504C28.0677 27.7147 27.6406 27.5386 27.569 27.2496C27.5681 27.2598 27.5681 27.2701 27.569 27.2803C27.6249 27.6158 28.0688 27.8316 28.5613 27.7667C29.0538 27.7019 29.4082 27.3754 29.3523 27.04C29.3523 27.0299 29.3473 27.0198 29.3451 27.0098C29.3725 27.3055 29.0225 27.5878 28.5451 27.6504Z" fill="#583F25"/>
<path d="M29.2792 29.5645C29.1601 29.5645 29.0556 29.6561 28.9935 29.797C28.9315 29.6561 28.8258 29.5645 28.7078 29.5645C28.5899 29.5645 28.4842 29.6561 28.4216 29.797C28.3601 29.6561 28.2539 29.5645 28.1365 29.5645C27.9453 29.5645 27.791 29.8004 27.791 30.0927C27.791 30.3851 27.9453 30.621 28.1365 30.621C28.255 30.621 28.3601 30.5294 28.4216 30.3885C28.4842 30.5294 28.5893 30.621 28.7078 30.621C28.8264 30.621 28.9315 30.5294 28.9935 30.3885C29.0556 30.5294 29.1612 30.621 29.2792 30.621C29.4698 30.621 29.6241 30.3846 29.6241 30.0927C29.6241 29.8009 29.472 29.5645 29.2792 29.5645Z" fill="#B2773A"/>
<path d="M31.3528 29.5645C31.2343 29.5645 31.1292 29.6561 31.0672 29.797C31.0051 29.6561 30.8995 29.5645 30.7815 29.5645C30.6635 29.5645 30.5579 29.6561 30.4958 29.797C30.4338 29.6561 30.3281 29.5645 30.2102 29.5645C30.0195 29.5645 29.8652 29.8004 29.8652 30.0927C29.8652 30.3851 30.0195 30.621 30.2102 30.621C30.3287 30.621 30.4338 30.5294 30.4958 30.3885C30.5579 30.5294 30.6635 30.621 30.7815 30.621C30.8995 30.621 31.0051 30.5294 31.0672 30.3885C31.1292 30.5294 31.2349 30.621 31.3528 30.621C31.5435 30.621 31.6978 30.3846 31.6978 30.0927C31.6978 29.8009 31.5435 29.5645 31.3528 29.5645Z" fill="#B2773A"/>
<path d="M24.996 19.0684C24.996 19.0684 24.9401 18.7945 24.679 18.7492C24.4179 18.7039 23.3178 17.0615 23.4765 17.1839C23.6353 17.3063 24.9099 17.3885 24.9099 17.3885C24.9099 17.3885 24.9395 17.3997 27.1343 17.5981C29.3101 17.7955 29.7193 19.3815 29.7193 19.3815L29.7484 19.3373C29.7484 19.3373 30.1626 17.7111 32.3937 17.578C34.6249 17.445 34.6707 17.3712 34.6707 17.3712C34.6707 17.3712 36.0303 17.2823 36.1924 17.1643C36.3545 17.0464 35.1727 18.6737 34.9066 18.7162C34.6405 18.7587 34.4868 19.0964 34.4868 19.0964L29.7037 20.6617L25.0402 19.0488" fill="#674F36"/>
<path d="M29.7635 20.5948C29.7635 22.1182 28.5985 23.3525 27.1618 23.3525C25.725 23.3525 24.5605 22.1182 24.5605 20.5948C24.5605 19.0714 25.7256 17.8359 27.1618 17.8359C28.5979 17.8359 29.7635 19.0709 29.7635 20.5948Z" fill="#B18D6D"/>
<path d="M29.4984 20.4688C29.4984 21.4416 28.6878 22.2298 27.6877 22.2298C26.6876 22.2298 25.877 21.4416 25.877 20.4688C25.877 19.4961 26.6876 18.709 27.6877 18.709C28.6878 18.709 29.4984 19.4972 29.4984 20.4688Z" fill="white"/>
<path d="M29.2961 20.4749C29.2961 21.2391 28.6594 21.8579 27.8739 21.8579C27.0885 21.8579 26.4512 21.2391 26.4512 20.4749C26.4512 19.7107 27.0885 19.0918 27.8739 19.0918C28.6594 19.0918 29.2961 19.7112 29.2961 20.4749Z" fill="#674F36"/>
<path d="M27.5776 19.9161C27.5777 19.9615 27.5643 20.0059 27.5392 20.0436C27.5141 20.0814 27.4783 20.1109 27.4364 20.1283C27.3946 20.1457 27.3485 20.1504 27.304 20.1416C27.2595 20.1328 27.2186 20.111 27.1865 20.079C27.1544 20.0469 27.1325 20.0061 27.1236 19.9616C27.1147 19.9172 27.1192 19.871 27.1365 19.8291C27.1539 19.7872 27.1832 19.7514 27.2209 19.7262C27.2587 19.701 27.303 19.6875 27.3483 19.6875C27.409 19.6875 27.4673 19.7116 27.5102 19.7544C27.5532 19.7973 27.5774 19.8555 27.5776 19.9161Z" fill="white"/>
<path d="M29.6895 20.5948C29.6895 22.1182 30.8545 23.3525 32.2912 23.3525C33.7279 23.3525 34.8924 22.1182 34.8924 20.5948C34.8924 19.0714 33.7279 17.8359 32.2912 17.8359C30.8545 17.8359 29.6895 19.0709 29.6895 20.5948Z" fill="#B18D6D"/>
<path d="M29.9551 20.4688C29.9551 21.4416 30.7662 22.2298 31.7658 22.2298C32.7654 22.2298 33.5765 21.4416 33.5765 20.4688C33.5765 19.4961 32.7659 18.709 31.7658 18.709C30.7657 18.709 29.9551 19.4972 29.9551 20.4688Z" fill="white"/>
<path d="M30.1543 20.4749C30.1543 21.2391 30.791 21.8579 31.5765 21.8579C32.3619 21.8579 32.9992 21.2391 32.9992 20.4749C32.9992 19.7107 32.3625 19.0918 31.5765 19.0918C30.7905 19.0918 30.1543 19.7112 30.1543 20.4749Z" fill="#674F36"/>
<path d="M31.877 19.9161C31.8768 19.9615 31.8902 20.0059 31.9153 20.0436C31.9404 20.0814 31.9762 20.1109 32.0181 20.1283C32.0599 20.1457 32.106 20.1504 32.1505 20.1416C32.195 20.1328 32.2359 20.111 32.268 20.079C32.3001 20.0469 32.322 20.0061 32.3309 19.9616C32.3398 19.9172 32.3353 19.871 32.318 19.8291C32.3006 19.7872 32.2713 19.7514 32.2336 19.7262C32.1959 19.701 32.1515 19.6875 32.1062 19.6875C32.0455 19.6875 31.9873 19.7116 31.9443 19.7544C31.9013 19.7973 31.8771 19.8555 31.877 19.9161Z" fill="white"/>
<path d="M34.3535 17.25L34.3697 17.2791L34.3535 17.25Z" fill="#6E543C"/>
<path d="M33.7676 14.7619C33.7676 14.7619 35.192 14.3913 34.4943 16.7146L34.3495 16.652C34.3495 16.652 34.8734 14.9526 34.0281 14.924" fill="#DA9633"/>
<path d="M33.7676 14.7625C33.8327 14.7416 33.8997 14.7274 33.9677 14.72C34.0271 14.7145 34.087 14.716 34.146 14.7245C34.2066 14.7323 34.2657 14.7487 34.3216 14.7731C34.4322 14.8219 34.5258 14.9024 34.5905 15.0046C34.6212 15.0527 34.6465 15.1041 34.666 15.1578C34.7016 15.2612 34.7205 15.3698 34.7219 15.4792C34.7232 15.5856 34.7167 15.6919 34.7023 15.7973C34.69 15.9013 34.6738 16.0053 34.6564 16.1087C34.6201 16.3155 34.5804 16.5218 34.5301 16.7236L34.5206 16.7633L34.4753 16.746L34.33 16.6901L34.2948 16.6761L34.3043 16.6409C34.3244 16.5632 34.3434 16.4844 34.3602 16.4055C34.3769 16.3267 34.392 16.2468 34.4043 16.1674C34.4166 16.088 34.4284 16.0081 34.4367 15.9281C34.4451 15.8482 34.4524 15.7682 34.4546 15.6883C34.4653 15.5293 34.4464 15.3697 34.3987 15.2176C34.3726 15.1415 34.3264 15.0739 34.2651 15.0219C34.2319 14.9945 34.194 14.9733 34.1533 14.9593C34.1119 14.9443 34.069 14.9342 34.0253 14.9291L34.0169 14.9168C34.066 14.9157 34.1151 14.9209 34.1628 14.9325C34.2088 14.9439 34.2526 14.9628 34.2925 14.9884C34.3314 15.0142 34.3663 15.0457 34.3959 15.0817C34.4238 15.1162 34.4476 15.1537 34.4669 15.1935C34.5028 15.2721 34.5279 15.3553 34.5413 15.4406C34.5542 15.5237 34.5607 15.6076 34.5609 15.6916C34.5612 15.7747 34.5571 15.8578 34.5486 15.9404C34.5391 16.0226 34.5279 16.1042 34.5117 16.1853C34.4954 16.2663 34.4787 16.3463 34.4585 16.4262C34.4384 16.5062 34.4161 16.585 34.3903 16.6644L34.3652 16.6146L34.5061 16.6811L34.4502 16.7029C34.4848 16.6046 34.5184 16.5056 34.548 16.4055C34.562 16.3552 34.5771 16.3055 34.5888 16.254C34.6005 16.2026 34.6117 16.1528 34.6212 16.1014C34.6307 16.05 34.6374 15.9986 34.6442 15.9466C34.6509 15.8946 34.6537 15.8431 34.6553 15.7912C34.6587 15.6873 34.6537 15.5834 34.6402 15.4803C34.6335 15.4289 34.6246 15.3786 34.614 15.3283C34.6029 15.2785 34.5889 15.2294 34.572 15.1812C34.5551 15.133 34.5334 15.0865 34.5072 15.0426C34.4807 14.9989 34.4487 14.9587 34.4121 14.923C34.3741 14.8868 34.3312 14.8561 34.2847 14.8318C34.2362 14.8069 34.1847 14.7881 34.1315 14.7759C34.0765 14.763 34.0203 14.7555 33.9638 14.7536C33.9078 14.7515 33.8517 14.7541 33.7961 14.7614L33.7676 14.7625Z" fill="#996633"/>
<path d="M34.1926 16.8984C33.9075 17.6939 33.3691 18.5526 33.3691 18.5526L33.6705 18.2966L33.6425 18.3933L33.6146 18.5152L33.5782 18.7293L33.8052 18.4442L33.7951 18.6997C33.7951 18.6997 33.9925 18.3782 34.0109 18.3245L33.955 18.6991C33.955 18.6991 34.329 18.3709 34.556 16.9454" fill="#B87A32"/>
<path d="M33.5237 18.8562L33.583 18.509L33.6092 18.3972L33.2246 18.7204L33.3409 18.5353C33.3465 18.5264 33.8809 17.6705 34.1627 16.8867L34.2292 16.9085C34.0224 17.4838 33.6808 18.097 33.5086 18.3911L33.7389 18.1954L33.6797 18.4017L33.6517 18.5219L33.6383 18.6007L33.8474 18.3385L33.8384 18.5622C33.9044 18.4503 33.9709 18.3385 33.9804 18.31L34.0481 18.3257L34.0134 18.5733C34.1336 18.395 34.3678 17.9377 34.5272 16.9359L34.5965 16.9471C34.3729 18.3671 34.0011 18.7042 33.9855 18.7181L33.9128 18.7813L33.9519 18.5074C33.896 18.5991 33.8401 18.6941 33.8289 18.712L33.7579 18.8322L33.7691 18.5493L33.5237 18.8562Z" fill="#996633"/>
<path d="M34.1387 16.9479C34.1387 16.9479 34.2354 16.5303 34.4808 16.6421C34.6893 16.7382 34.5468 17.0943 34.5468 17.0943C34.5468 17.0943 34.2236 17.0362 34.1387 16.9479Z" fill="#DA9633"/>
<path d="M34.1309 16.9479C34.1273 16.9257 34.1261 16.9032 34.1275 16.8808C34.128 16.8584 34.1304 16.8362 34.1348 16.8143C34.1433 16.7689 34.1594 16.7252 34.1823 16.6851C34.1952 16.6629 34.211 16.6424 34.2293 16.6242C34.2503 16.603 34.2752 16.5859 34.3025 16.5739C34.3343 16.5606 34.3687 16.5549 34.4031 16.5571C34.4358 16.5594 34.4677 16.5681 34.497 16.5828L34.5065 16.5879H34.5116H34.5144H34.5177L34.5256 16.5923L34.5339 16.5979L34.5552 16.6136L34.572 16.6298C34.5919 16.6505 34.6068 16.6756 34.6156 16.703C34.6282 16.7495 34.6301 16.7982 34.6211 16.8456C34.6144 16.8892 34.6077 16.9311 34.6033 16.9736C34.6005 16.9948 34.5993 17.0166 34.5982 17.0384C34.5971 17.0602 34.5982 17.0826 34.5926 17.1061L34.5882 17.134H34.5373C34.5187 17.1351 34.5 17.1351 34.4814 17.134C34.4626 17.1322 34.4439 17.1292 34.4255 17.1251C34.3885 17.116 34.3523 17.1042 34.317 17.0899C34.2811 17.0747 34.2469 17.056 34.2147 17.034C34.1983 17.0227 34.183 17.01 34.1689 16.996C34.1545 16.9823 34.1429 16.966 34.1348 16.9479H34.1309ZM34.1476 16.9479C34.1633 16.9535 34.1784 16.9585 34.194 16.9624C34.2097 16.9663 34.2287 16.9702 34.246 16.9736L34.3489 16.9943C34.3836 17.0015 34.4182 17.0088 34.4523 17.0172C34.4868 17.0265 34.5206 17.0381 34.5535 17.0519L34.4976 17.0798C34.5098 17.0635 34.5208 17.0463 34.5306 17.0284C34.5413 17.0108 34.5499 16.992 34.5563 16.9725C34.568 16.9335 34.5703 16.8923 34.563 16.8523C34.5562 16.8145 34.54 16.7789 34.516 16.7489C34.5061 16.7368 34.4947 16.7261 34.4819 16.717L34.4764 16.7086L34.4691 16.7047H34.4635L34.4557 16.7013H34.4518H34.4551H34.449C34.436 16.697 34.4223 16.6955 34.4087 16.6969C34.3976 16.6977 34.3867 16.7001 34.3763 16.7041C34.3479 16.7179 34.3223 16.7369 34.3008 16.76C34.274 16.7889 34.249 16.8193 34.2259 16.8512L34.1885 16.902L34.1476 16.9479Z" fill="#996633"/>
<path d="M34.375 16.557C34.3834 16.5417 34.3931 16.5271 34.4041 16.5134C34.4265 16.4854 34.4512 16.4592 34.4779 16.4352C34.5069 16.4095 34.5366 16.3854 34.56 16.367C34.5712 16.358 34.5813 16.3502 34.588 16.3435L34.5997 16.334C34.5997 16.334 34.5997 16.3396 34.5997 16.3485C34.6005 16.3543 34.6005 16.3601 34.5997 16.3658C34.5986 16.3729 34.5967 16.3799 34.5941 16.3865C34.5877 16.4034 34.579 16.4194 34.5684 16.4341C34.5562 16.4505 34.5423 16.4656 34.5271 16.4793C34.4987 16.5056 34.4657 16.5264 34.4298 16.5408C34.4122 16.5484 34.3938 16.5539 34.375 16.557Z" fill="#996633"/>
<path d="M34.4238 16.2655C34.4321 16.2504 34.4418 16.2362 34.4529 16.223C34.4752 16.1945 34.5001 16.1681 34.5272 16.1442C34.5558 16.1184 34.5832 16.0944 34.6089 16.0765C34.6201 16.067 34.6307 16.0592 34.6374 16.053L34.6486 16.043C34.649 16.048 34.649 16.053 34.6486 16.0581C34.6493 16.0636 34.6493 16.0693 34.6486 16.0748C34.6477 16.082 34.6458 16.0889 34.643 16.0955C34.6364 16.1123 34.6277 16.1283 34.6173 16.143C34.6055 16.1597 34.5918 16.1749 34.5764 16.1883C34.5477 16.2142 34.5148 16.2349 34.4792 16.2498C34.4615 16.2575 34.4429 16.2627 34.4238 16.2655Z" fill="#996633"/>
<path d="M34.4668 15.9477C34.4751 15.9324 34.4846 15.9178 34.4953 15.9041C34.5181 15.8762 34.543 15.85 34.5697 15.8258C34.5987 15.8001 34.6284 15.776 34.6518 15.7582C34.663 15.7486 34.6736 15.7408 34.6798 15.7347L34.6915 15.7246C34.6915 15.7246 34.6915 15.7302 34.6915 15.7397C34.6923 15.7453 34.6923 15.7509 34.6915 15.7565C34.6901 15.7637 34.6881 15.7708 34.6854 15.7777C34.6793 15.7945 34.6708 15.8103 34.6602 15.8247C34.6483 15.8412 34.6346 15.8564 34.6194 15.87C34.5905 15.896 34.5574 15.9169 34.5216 15.932C34.504 15.9394 34.4856 15.9446 34.4668 15.9477Z" fill="#996633"/>
<path d="M34.5266 15.6299L34.4863 15.5796C34.5266 15.5533 34.6373 15.4678 34.6613 15.3984L34.7172 15.4258C34.6822 15.5158 34.614 15.5889 34.5266 15.6299Z" fill="#996633"/>
<path d="M34.4942 15.3454L34.4707 15.2895C34.5266 15.2707 34.5729 15.2305 34.5993 15.1777L34.6636 15.1979C34.6471 15.2328 34.6235 15.264 34.5944 15.2894C34.5652 15.3148 34.5311 15.3339 34.4942 15.3454Z" fill="#996633"/>
<path d="M34.3656 15.1251L34.332 15.0876C34.37 15.0597 34.474 14.9758 34.4936 14.916L34.5361 14.9395C34.5065 15.0228 34.3695 15.1206 34.3656 15.1251Z" fill="#996633"/>
<path d="M34.2654 14.9825L34.2129 14.9434C34.2414 14.8956 34.2557 14.8407 34.2543 14.7852H34.3213C34.3234 14.8551 34.3039 14.924 34.2654 14.9825Z" fill="#996633"/>
<path d="M34.068 14.9343C34.052 14.8684 34.0199 14.8075 33.9746 14.757L34.0232 14.7168C34.0777 14.7752 34.1163 14.8466 34.1351 14.9242L34.068 14.9343Z" fill="#996633"/>
<path d="M34.3714 17.0478L34.3479 17.0987C34.3334 17.1311 34.3116 17.1769 34.2847 17.2317C34.2579 17.2865 34.2288 17.3502 34.193 17.4184C34.1573 17.4866 34.1204 17.5582 34.0812 17.6303C34.0611 17.6661 34.0415 17.7019 34.0225 17.7371C34.0035 17.7723 33.984 17.807 33.9666 17.84L33.8599 18.0194C33.7928 18.1217 33.748 18.1871 33.748 18.1871C33.748 18.1871 33.7849 18.115 33.8408 18.0077L33.9264 17.8193C33.9415 17.7852 33.956 17.7488 33.9717 17.7125C33.9873 17.6762 34.0024 17.6387 34.0181 17.6007C34.0466 17.5258 34.0768 17.4514 34.103 17.381C34.1293 17.3105 34.1534 17.2446 34.1729 17.1876C34.1925 17.1305 34.2093 17.0836 34.2199 17.05L34.2372 16.998L34.3714 17.0478Z" fill="#996633"/>
<path d="M34.4787 17.1047L34.4658 17.1432C34.458 17.1678 34.4457 17.2025 34.4306 17.2433C34.4155 17.2841 34.3965 17.3322 34.3747 17.3831C34.3529 17.4339 34.3344 17.4899 34.3109 17.5402C34.2983 17.5663 34.286 17.5925 34.274 17.619C34.2617 17.6453 34.2489 17.6704 34.2366 17.6945C34.2103 17.7431 34.1885 17.7889 34.1661 17.8264L34.0918 17.9527C34.0918 17.9527 34.1158 17.8968 34.1477 17.8202C34.1661 17.7811 34.1824 17.7325 34.2036 17.6827C34.2131 17.657 34.2237 17.6313 34.2321 17.6039C34.2405 17.5765 34.2506 17.548 34.2595 17.5228C34.2785 17.4669 34.2925 17.411 34.3087 17.3613C34.3249 17.3115 34.3355 17.2606 34.3456 17.2193C34.3557 17.1779 34.3635 17.1427 34.3685 17.1187C34.3736 17.0946 34.3769 17.0801 34.3769 17.0801L34.4787 17.1047Z" fill="#996633"/>
</g>
<path d="M0 2C0 0.895429 0.895431 0 2 0H58C59.1046 0 60 0.895431 60 2V8.18182H0V2Z" fill="#339B96"/>
<defs>
<filter id="filter0_d_691_11447" x="8" y="2" width="43.4512" height="50" filterUnits="userSpaceOnUse" color-interpolation-filters="sRGB">
<feFlood flood-opacity="0" result="BackgroundImageFix"/>
<feColorMatrix in="SourceAlpha" type="matrix" values="0 0 0 0 0 0 0 0 0 0 0 0 0 0 0 0 0 0 127 0" result="hardAlpha"/>
<feOffset dy="4"/>
<feGaussianBlur stdDeviation="7.5"/>
<feComposite in2="hardAlpha" operator="out"/>
<feColorMatrix type="matrix" values="0 0 0 0 0 0 0 0 0 0 0 0 0 0 0 0 0 0 0.15 0"/>
<feBlend mode="normal" in2="BackgroundImageFix" result="effect1_dropShadow_691_11447"/>
<feBlend mode="normal" in="SourceGraphic" in2="effect1_dropShadow_691_11447" result="shape"/>
</filter>
</defs>
</svg>
