<svg width="80" height="54" viewBox="0 0 80 54" fill="none" xmlns="http://www.w3.org/2000/svg">
<g opacity="0.25">
<path d="M15.5975 15.0931H1.50943C0.684277 15.0931 0 14.4088 0 13.5837C0 12.7585 0.684277 12.0742 1.50943 12.0742H15.5975C16.4226 12.0742 17.1069 12.7585 17.1069 13.5837C17.1069 14.4088 16.4226 15.0931 15.5975 15.0931Z" fill="#674F35"/>
<path d="M13.5849 36.2259H1.50943C0.684277 36.2259 0 35.5416 0 34.7165C0 33.8913 0.684277 33.207 1.50943 33.207H13.5849C14.4101 33.207 15.0943 33.8913 15.0943 34.7165C15.0943 35.5416 14.4101 36.2259 13.5849 36.2259Z" fill="#674F35"/>
<path d="M7.54717 25.6595H1.50943C0.684277 25.6595 0 24.9752 0 24.1501C0 23.3249 0.684277 22.6406 1.50943 22.6406H7.54717C8.37233 22.6406 9.0566 23.3249 9.0566 24.1501C9.0566 24.9752 8.37233 25.6595 7.54717 25.6595Z" fill="#674F35"/>
</g>
<rect x="13.584" width="65.8662" height="45.283" rx="2" fill="#EDBD58"/>
<g filter="url(#filter0_d_691_11357)">
<path d="M41.75 18.3325C41.75 18.3884 42.7406 18.91 42.7786 18.9474C42.9044 19.0631 44.0124 18.5561 44.0124 18.5561L43.7128 17.002H42.7764L42.1972 17.8165L41.75 18.3325Z" fill="#373737"/>
<path d="M51.2616 18.7223C51.2616 18.7223 50.617 18.9594 50.508 18.9493C50.399 18.9393 49.3262 18.5239 49.3262 18.5239L49.6655 17.1855L50.5974 17.2778L51.0927 18.1443L51.2616 18.7223Z" fill="#373737"/>
<path d="M50.1525 18.96C50.1525 18.96 48.7286 17.9772 46.7507 17.9207C44.8696 17.8648 43.1762 18.9393 43.1639 18.9354C42.308 18.6899 41.3577 18.3159 41.1564 17.8877C41.1184 17.8061 40.9434 17.5339 41.1564 17.4327C41.1564 17.4327 44.2708 16.0949 46.4047 15.0696C46.5601 14.9947 47.0442 14.983 47.213 15.0618C47.3819 15.1406 50.735 16.8216 52.146 17.4919C52.3003 17.5657 52.1169 17.8469 51.7262 18.1164C51.3354 18.3858 51.2862 18.463 50.6204 18.766L50.1525 18.96Z" fill="#373737"/>
<path d="M47.4328 17.6576C47.4328 17.6576 45.8496 17.9187 46.8128 17.9058C48.694 17.8796 50.3024 18.9937 50.3152 18.9904C51.1778 18.7617 52.1969 18.409 52.4066 17.9841C52.4463 17.9036 52.6274 17.6448 52.4161 17.5369C52.3982 17.5369 49.3162 16.0744 47.1896 15.0531C47.0337 14.9782 46.5702 14.9815 46.407 15.0698C46.2437 15.1582 44.9675 17.6414 46.5238 17.7532C49.2681 17.9561 46.4238 17.3915 46.8089 17.6682C47.1941 17.945 46.6088 17.3524 47.2685 17.6682L47.4328 17.6576Z" fill="#373737"/>
<path d="M44.0883 17.2626C44.0609 17.2749 43.8971 17.3509 43.9004 17.3805C43.9262 17.5862 44.1537 18.3555 43.9563 19.3327C43.8255 19.984 44.2459 20.2417 46.8153 20.2881C47.6164 20.3026 48.9268 20.264 49.3986 19.8319C49.6183 19.6312 49.384 19.2634 49.3248 18.5461C49.2611 17.778 49.4925 17.2972 49.3773 17.2788C49.3527 17.2749 47.0937 15.9348 44.0883 17.2626Z" fill="#47474A"/>
<path d="M43.9316 18.2328C43.9316 18.2328 44.186 19.101 43.9574 20.2336C43.8265 20.8843 44.2469 21.1421 46.8163 21.1885C47.6174 21.203 48.9278 21.1644 49.3996 20.7328C49.6193 20.5321 49.3851 20.1637 49.3258 19.4471C49.2848 19.0244 49.3025 18.5981 49.3784 18.1803C49.3789 18.1557 46.9605 16.8699 43.9316 18.2328Z" fill="#DA9633"/>
<path d="M53.2788 31.6283L40.1934 32.5742L43.7332 21.8652L49.574 21.8731L53.2788 31.6283Z" fill="#B6394A"/>
<path d="M52.6348 33.3636C52.639 32.7268 52.8636 32.111 53.2705 31.6211H41.8191C40.8128 31.6211 40 32.3769 40 33.3105C40 34.2441 40.8145 34.9999 41.8191 34.9999H53.1888C52.8332 34.5282 52.6389 33.9544 52.6348 33.3636Z" fill="#B6394A"/>
<path d="M52.636 33.3639C52.6369 32.967 52.7259 32.5752 52.8965 32.2168H41.0566V34.4233H52.8574C52.7121 34.089 52.6367 33.7285 52.636 33.3639Z" fill="white"/>
<path d="M52.7646 32.5527H41.0566V32.574H52.7579L52.7646 32.5527Z" fill="#939498"/>
<path d="M52.7243 32.6914H41.0566V32.7132H52.7182C52.7204 32.7059 52.7221 32.6987 52.7243 32.6914Z" fill="#939498"/>
<path d="M52.6913 32.8301H41.0566V32.8496H52.6874C52.6891 32.8435 52.6902 32.8368 52.6913 32.8301Z" fill="#939498"/>
<path d="M52.6668 32.9707H41.0566V32.9925H52.664C52.6651 32.9852 52.6656 32.978 52.6668 32.9707Z" fill="#939498"/>
<path d="M52.6528 33.1074H41.0566V33.1298H52.6477C52.6483 33.122 52.6489 33.1147 52.6528 33.1074Z" fill="#939498"/>
<path d="M52.6399 33.248H41.0566V33.2699H52.6394C52.6394 33.2626 52.6394 33.2553 52.6399 33.248Z" fill="#939498"/>
<path d="M52.6371 33.3848H41.0566V33.4094H52.6377C52.6377 33.3993 52.6371 33.3926 52.6371 33.3848Z" fill="#939498"/>
<path d="M52.6416 33.5254H41.0566V33.5466H52.6433C52.6433 33.5394 52.6422 33.5321 52.6416 33.5254Z" fill="#939498"/>
<path d="M52.6528 33.6621H41.0566V33.6834H52.6572C52.6552 33.6764 52.6537 33.6693 52.6528 33.6621Z" fill="#939498"/>
<path d="M52.6729 33.8027H41.0566V33.8245H52.6774C52.6757 33.8178 52.6746 33.8111 52.6729 33.8027Z" fill="#939498"/>
<path d="M52.7003 33.9414H41.0566V33.9632H52.7053C52.704 33.9559 52.7024 33.9486 52.7003 33.9414Z" fill="#939498"/>
<path d="M52.7355 34.0801H41.0566V34.1013H52.7405C52.7394 34.0935 52.7377 34.0857 52.7355 34.0801Z" fill="#939498"/>
<path d="M52.7786 34.2188H41.0566V34.2394H52.7853C52.783 34.2322 52.7802 34.2255 52.7786 34.2188Z" fill="#939498"/>
<path d="M52.8093 32.4258H41.0566V32.447H52.8009C52.8037 32.4398 52.806 32.4325 52.8093 32.4258Z" fill="#939498"/>
<path d="M44.5756 19.8807C44.5756 19.8807 44.2151 19.8086 44.4801 19.6408C44.745 19.4731 45.8961 19.2568 47.0684 19.2859C48.2407 19.3149 50.1079 19.4765 49.2973 19.9276" fill="#47474A"/>
<path d="M44.5757 19.8812C44.5535 19.8788 44.5314 19.8749 44.5098 19.8694C44.4835 19.863 44.458 19.8538 44.4337 19.842C44.4169 19.8348 44.4014 19.8248 44.3879 19.8124C44.3794 19.8048 44.3725 19.7956 44.3676 19.7853C44.3628 19.7751 44.3599 19.7639 44.3594 19.7526C44.3595 19.7276 44.3679 19.7034 44.3834 19.6838C44.3982 19.6631 44.4155 19.6444 44.4348 19.6279L44.4499 19.6156L44.4572 19.61L44.4673 19.6033L44.4991 19.5838C44.5229 19.5694 44.5475 19.5567 44.5729 19.5457C44.6907 19.4931 44.8124 19.4497 44.9369 19.416C45.0716 19.3786 45.2164 19.3406 45.3768 19.3115C45.5373 19.2824 45.7005 19.2517 45.8749 19.231L46.0069 19.2148L46.141 19.2025C46.2305 19.193 46.3222 19.1874 46.4138 19.1812C46.5983 19.1712 46.7856 19.1656 46.9729 19.1689C47.1602 19.1723 47.3463 19.179 47.5319 19.1902C47.7175 19.2014 47.8947 19.2165 48.0692 19.2349C48.2436 19.2534 48.4102 19.2768 48.5684 19.3031C48.7178 19.3268 48.866 19.3581 49.0123 19.397C49.1383 19.4274 49.2603 19.4726 49.3756 19.5318C49.4269 19.5573 49.4714 19.5945 49.5059 19.6402C49.5204 19.6612 49.5282 19.6862 49.5282 19.7118C49.5282 19.7373 49.5204 19.7623 49.5059 19.7833C49.4849 19.8138 49.4581 19.8399 49.4271 19.8599C49.4008 19.8772 49.3773 19.8901 49.3583 19.9002C49.3393 19.9102 49.3242 19.9164 49.3136 19.9214L49.2985 19.9281L49.3119 19.9181L49.3499 19.8895C49.3695 19.874 49.3881 19.8574 49.4058 19.8398C49.429 19.8182 49.448 19.7924 49.4617 19.7638C49.4683 19.7494 49.4702 19.7334 49.4671 19.7179C49.464 19.7024 49.456 19.6883 49.4444 19.6777C49.4111 19.6477 49.3721 19.6247 49.3298 19.61C49.2153 19.571 49.0974 19.5427 48.9776 19.5256C48.844 19.5044 48.6981 19.4887 48.541 19.4731C48.3839 19.4574 48.219 19.4485 48.0479 19.4378C47.8768 19.4272 47.6985 19.4205 47.5179 19.4132C47.3374 19.406 47.1534 19.3998 46.9718 19.3987C46.7901 19.3976 46.6078 19.3987 46.4284 19.4037C46.2489 19.4088 46.0723 19.4194 45.9018 19.4334C45.7313 19.4473 45.5663 19.4613 45.4109 19.4803L45.2958 19.4949L45.184 19.5105C45.1107 19.5195 45.0414 19.5329 44.9738 19.5435C44.9061 19.5541 44.8435 19.5687 44.7837 19.5826L44.7384 19.5921L44.6959 19.6033C44.6685 19.6106 44.64 19.6173 44.6165 19.6257C44.5922 19.6329 44.5683 19.6417 44.545 19.652L44.5103 19.6676H44.5058L44.498 19.6721L44.4835 19.6799C44.4466 19.7017 44.4164 19.728 44.413 19.7515C44.4097 19.7749 44.4315 19.8001 44.4539 19.8169C44.4743 19.8315 44.4962 19.8439 44.5193 19.8538C44.5376 19.8639 44.5564 19.8731 44.5757 19.8812Z" fill="#0F100E"/>
<path opacity="0.25" d="M44.1481 18.5119C44.1475 18.51 44.1476 18.508 44.1484 18.5062C44.1492 18.5044 44.1508 18.5031 44.1526 18.5024C44.1545 18.5017 44.1565 18.5018 44.1583 18.5027C44.1601 18.5035 44.1614 18.505 44.1621 18.5069C44.2622 18.6964 44.739 19.3957 46.2652 19.2252C46.2652 19.2252 43.5757 19.4488 44.6295 20.1018C44.6295 20.1018 44.0425 20.009 44.0777 19.5143C44.1124 19.0363 44.2175 18.9977 44.1481 18.5119Z" fill="#0F100E"/>
<path opacity="0.25" d="M46.5622 20.3292C45.3636 20.3292 44.3926 20.0872 44.3926 19.7886C44.3926 19.4901 45.3636 19.248 46.5622 19.248C46.5622 19.248 44.6816 20.0866 46.6572 20.3102L46.5622 20.3292Z" fill="#0F100E"/>
<path opacity="0.25" d="M47.3821 19.2383C48.5863 19.2383 49.5624 19.4803 49.5624 19.7789C49.5624 20.0774 48.5858 20.32 47.3821 20.32C47.3821 20.32 49.2728 19.4815 47.2871 19.2578L47.3821 19.2383Z" fill="#0F100E"/>
<path opacity="0.5" d="M46.9457 20.3292C48.3558 20.3292 49.4988 20.0872 49.4988 19.7886C49.4988 19.4901 48.3558 19.248 46.9457 19.248C45.5357 19.248 44.3926 19.4901 44.3926 19.7886C44.3926 20.0872 45.5357 20.3292 46.9457 20.3292Z" fill="#0F100E"/>
<path d="M51.1093 19.2193C51.1093 19.2193 50.562 18.052 50.3266 18.0665C50.0913 18.0811 50.0605 18.8352 50.0605 18.8352L51.1093 19.2193Z" fill="#675139"/>
<path d="M51.6545 19.3278L51.6707 19.3568C51.9567 19.3729 52.2436 19.3629 52.5278 19.3272C52.7392 19.2989 52.9473 19.2495 53.1488 19.1796C53.1488 19.1796 52.8034 19.8505 52.5082 20.1652C52.213 20.4799 52.0844 20.5688 52.0844 20.5688C52.0844 20.5688 52.1532 21.0121 52.1728 21.1698C52.1897 21.2892 52.2127 21.4077 52.2415 21.5248C52.3611 21.5375 52.476 21.578 52.577 21.6433C52.6791 21.7116 52.7555 21.8122 52.7939 21.929L52.6066 21.9195C52.6066 21.9195 52.8721 22.1554 52.9219 22.3527C52.9716 22.5501 52.9314 22.6484 52.9314 22.6484C52.9314 22.6484 52.6362 22.4707 52.5278 22.5003C52.5278 22.5003 52.7542 23.1309 52.6066 23.4266L52.3405 23.3282C52.3405 23.3282 52.4584 23.6234 52.4098 23.7319L52.2617 23.676C52.2617 23.676 52.4685 23.9616 52.3701 24.1981L52.2717 24.4346L51.986 24.1685C51.986 24.1685 52.0151 24.5822 51.8877 24.7991C51.8262 24.9108 51.7498 25.0136 51.6607 25.1049L51.4337 24.8186C51.2802 25.0271 51.1089 25.2218 50.9216 25.4006C50.7553 25.5411 50.581 25.6717 50.3995 25.7919C50.3995 25.7919 51.3353 25.9691 51.3158 26.048L50.9803 26.2352C50.9803 26.2352 51.6311 26.4521 51.6311 26.7769L51.2274 26.7674C51.2274 26.7674 52.0939 27.3992 52.3405 27.8425C52.587 28.2858 52.7145 28.7291 52.577 28.946C52.4394 29.1629 51.8379 28.8079 51.8379 28.8079C51.8379 28.8079 52.577 30.513 52.1431 30.5818C51.7093 30.6505 51.2369 29.9909 51.2369 29.9909C51.2369 29.9909 51.3158 31.2319 50.9608 31.1928C50.8606 31.1832 50.7652 31.1459 50.6852 31.0849C50.6051 31.024 50.5438 30.9419 50.5079 30.8479C50.5079 30.8479 50.4386 31.2811 50.3995 31.2716C50.3604 31.2621 50.3106 31.0748 50.3106 31.0748C50.3106 31.0748 50.1133 31.8536 49.9265 31.8139C49.7398 31.7742 49.779 31.3801 49.779 31.3801C49.779 31.3801 49.5028 31.8832 49.2462 31.9218L48.9902 31.9615L48.9807 31.597C48.9807 31.597 48.7738 31.7049 48.7341 31.7049C48.6944 31.7049 47.5601 31.9318 46.8893 31.9318H46.337C45.7092 31.9318 44.6481 31.7049 44.6107 31.7049C44.5732 31.7049 44.3798 31.597 44.3798 31.597L44.3708 31.9615L44.131 31.9218C43.8906 31.8826 43.6323 31.3801 43.6323 31.3801C43.6323 31.3801 43.6692 31.7742 43.4937 31.8139C43.3182 31.8536 43.1337 31.0748 43.1337 31.0748C43.1337 31.0748 43.0873 31.2616 43.0504 31.2716C43.0135 31.2817 42.9492 30.8479 42.9492 30.8479C42.9176 30.9392 42.861 31.02 42.7859 31.0809C42.7109 31.1419 42.6202 31.1806 42.5243 31.1928C42.1889 31.2319 42.2655 29.9909 42.2655 29.9909C42.2655 29.9909 41.8227 30.6511 41.4163 30.5818C41.0099 30.5124 41.7025 28.8079 41.7025 28.8079C41.7025 28.8079 41.1413 29.1612 41.0127 28.946C40.8841 28.7308 41.0026 28.2858 41.2363 27.8425C41.47 27.3992 42.2795 26.7674 42.2795 26.7674L41.901 26.7769C41.901 26.4521 42.5098 26.2352 42.5098 26.2352L42.1962 26.048C42.1777 25.9691 43.0548 25.7919 43.0548 25.7919C42.8842 25.6713 42.7208 25.5406 42.5657 25.4006C42.389 25.2199 42.2284 25.0242 42.0855 24.8158L41.873 25.1021C41.7889 25.0101 41.7175 24.9072 41.6606 24.7963C41.541 24.5794 41.5684 24.1657 41.5684 24.1657L41.3006 24.4318L41.2083 24.1953C41.1155 23.9588 41.3101 23.6732 41.3101 23.6732L41.1714 23.7291C41.125 23.6206 41.2363 23.3254 41.2363 23.3254L40.987 23.4238C40.8483 23.1281 41.0608 22.4975 41.0608 22.4975C40.959 22.4679 40.6817 22.6457 40.6817 22.6457C40.6817 22.6457 40.6454 22.5467 40.6912 22.3499C40.7371 22.1531 40.987 21.9167 40.987 21.9167L40.8114 21.9262C40.8463 21.8113 40.9177 21.711 41.0149 21.6405C41.108 21.5757 41.2158 21.5349 41.3285 21.522C41.3285 21.522 41.3744 21.3246 41.3928 21.167C41.4113 21.0093 41.4761 20.566 41.4761 20.566C41.4761 20.566 41.3559 20.4777 41.0792 20.1624C40.8025 19.8471 40.4766 19.1796 40.4766 19.1796C40.6648 19.2493 40.8598 19.2988 41.0585 19.3272C41.2738 19.3579 41.4913 19.3698 41.7087 19.363L41.735 19.2959C41.735 19.2959 42.4489 18.0783 42.9699 18.0425C43.4909 18.0068 44.0002 18.5619 44.0002 18.5619C44.0002 18.5619 44.2098 18.4109 44.8248 18.2332C45.1373 18.1432 46.0284 17.8798 46.8994 17.9039C47.7301 17.9257 48.5413 18.2304 48.8157 18.3125C49.3748 18.4803 49.3278 18.5222 49.3278 18.5222C49.3278 18.5222 49.8723 17.8379 50.4146 17.9464C50.9121 18.0459 51.5394 19.1142 51.6573 19.3278" fill="#6E543C"/>
<path d="M46.1062 24.4133C46.1062 24.4133 46.3795 25.2558 46.7865 25.2407C47.1935 25.2256 47.4367 24.3909 47.4367 24.3909C47.4367 24.3909 48.0292 23.0548 46.7138 23.0845C45.3984 23.1141 46.1062 24.4133 46.1062 24.4133Z" fill="#B2773A"/>
<path d="M42.4138 31.1031L42.5944 30.5402C42.5944 30.5402 41.9191 29.7296 42.2679 28.1637C42.6168 26.5979 44.5091 25.8219 44.5091 25.8219C44.5091 25.8219 44.1474 25.4524 42.5709 25.3965L42.52 25.4054C42.52 25.4054 41.5177 25.6084 41.5389 25.6984L41.8978 25.9125C41.8978 25.9125 41.2013 26.1601 41.2013 26.5336L41.634 26.5224C41.634 26.5224 40.7054 27.2441 40.4415 27.7523C40.1777 28.2604 40.0407 28.7625 40.1861 29.0107C40.3314 29.2589 40.9771 28.853 40.9771 28.853C40.9771 28.853 40.1861 30.8013 40.6523 30.8807C41.1185 30.96 41.4305 30.6229 41.4305 30.6229C41.4305 30.6229 41.5389 31.6236 41.9191 31.5783C42.0287 31.5645 42.1322 31.5202 42.218 31.4505C42.3037 31.3809 42.3683 31.2886 42.4043 31.1842L42.4138 31.1031Z" fill="#5E4525"/>
<path d="M51.0634 31.1037L50.875 30.5408C50.875 30.5408 51.5805 29.7301 51.216 28.1643C50.8515 26.5984 48.877 25.8225 48.877 25.8225C48.877 25.8225 49.2515 25.4569 50.8973 25.4004L50.9532 25.406C50.9532 25.406 51.9997 25.6089 51.9779 25.6989L51.6034 25.913C51.6034 25.913 52.3301 26.1607 52.3301 26.5324L51.8784 26.5213C51.8784 26.5213 52.8478 27.243 53.1234 27.7511C53.399 28.2593 53.5416 28.7647 53.3873 29.0129C53.233 29.2611 52.5616 28.8552 52.5616 28.8552C52.5616 28.8552 53.3873 30.8035 52.9026 30.8829C52.4179 30.9623 51.9707 30.6006 51.9707 30.6006C51.9707 30.6006 51.9779 31.6258 51.5793 31.5806C51.4665 31.5687 51.3592 31.5255 51.2696 31.4559C51.18 31.3862 51.1116 31.2929 51.0723 31.1864L51.0634 31.1037Z" fill="#5E4525"/>
<path d="M46.8274 28.3847C46.2813 28.3847 45.8374 28.122 45.8105 27.791C45.8105 27.8022 45.8105 27.8139 45.8105 27.8251C45.8105 28.2075 46.2673 28.5172 46.8302 28.5172C47.3932 28.5172 47.8505 28.2075 47.8505 27.8251C47.8505 27.8139 47.8505 27.8022 47.8505 27.791C47.8181 28.122 47.3736 28.3847 46.8274 28.3847Z" fill="#583F25"/>
<path d="M45.5581 27.3536C45.0751 27.3536 44.6827 27.1205 44.6586 26.8281C44.6581 26.8384 44.6581 26.8486 44.6586 26.8589C44.6586 27.1943 45.0623 27.4705 45.5604 27.4705C46.0585 27.4705 46.4615 27.1965 46.4615 26.8589C46.4621 26.8486 46.4621 26.8384 46.4615 26.8281C46.4336 27.1205 46.0406 27.3536 45.5581 27.3536Z" fill="#583F25"/>
<path d="M44.2992 28.4786C43.8257 28.5613 43.3902 28.3992 43.3047 28.1163C43.3047 28.1264 43.3047 28.1365 43.3092 28.1465C43.3813 28.478 43.8352 28.6782 44.3244 28.5938C44.8135 28.5093 45.1512 28.1717 45.0796 27.8402C45.0796 27.8301 45.0735 27.8201 45.0707 27.8105C45.1098 28.1007 44.7733 28.397 44.2992 28.4786Z" fill="#583F25"/>
<path d="M48.0671 27.3256C47.5863 27.2881 47.2174 27.0259 47.2218 26.7324C47.2218 26.7425 47.2179 26.7525 47.2168 26.7626C47.1844 27.098 47.56 27.4033 48.0554 27.4418C48.5507 27.4804 48.98 27.2395 49.0124 26.9029C49.013 26.8927 49.013 26.8824 49.0124 26.8722C48.9616 27.1618 48.5495 27.363 48.0671 27.3256Z" fill="#583F25"/>
<path d="M49.2756 28.5248C48.7948 28.4873 48.4258 28.2246 48.4309 27.9316C48.4309 27.9417 48.427 27.9512 48.4258 27.9618C48.3929 28.2973 48.7685 28.6025 49.2644 28.6411C49.7603 28.6796 50.1891 28.4387 50.222 28.1016C50.2226 28.0913 50.2226 28.0811 50.222 28.0708C50.1706 28.361 49.7564 28.5622 49.2756 28.5248Z" fill="#583F25"/>
<path d="M48.1851 29.6893C47.7026 29.6776 47.3175 29.435 47.3029 29.1426C47.301 29.1526 47.2997 29.1626 47.299 29.1728C47.289 29.5082 47.6836 29.7939 48.1817 29.8062C48.6798 29.8185 49.0913 29.5557 49.1019 29.218C49.1019 29.2069 49.1019 29.1974 49.1019 29.1873C49.0678 29.4786 48.6675 29.7016 48.1851 29.6893Z" fill="#583F25"/>
<path d="M46.776 30.7719C46.2941 30.7926 45.8894 30.5768 45.8502 30.2856C45.8494 30.2958 45.8494 30.3061 45.8502 30.3163C45.8676 30.6517 46.2857 30.91 46.7833 30.8888C47.2808 30.8675 47.6688 30.5774 47.6509 30.2392C47.6509 30.2291 47.6509 30.219 47.6475 30.209C47.6386 30.5019 47.2585 30.7518 46.776 30.7719Z" fill="#583F25"/>
<path d="M45.5451 29.6504C45.0677 29.7147 44.6406 29.5386 44.569 29.2496C44.5681 29.2598 44.5681 29.2701 44.569 29.2803C44.6249 29.6158 45.0688 29.8316 45.5613 29.7667C46.0538 29.7019 46.4082 29.3754 46.3523 29.04C46.3523 29.0299 46.3473 29.0198 46.3451 29.0098C46.3725 29.3055 46.0225 29.5878 45.5451 29.6504Z" fill="#583F25"/>
<path d="M46.2792 31.5645C46.1601 31.5645 46.0556 31.6561 45.9935 31.797C45.9315 31.6561 45.8258 31.5645 45.7078 31.5645C45.5899 31.5645 45.4842 31.6561 45.4216 31.797C45.3601 31.6561 45.2539 31.5645 45.1365 31.5645C44.9453 31.5645 44.791 31.8004 44.791 32.0927C44.791 32.3851 44.9453 32.621 45.1365 32.621C45.255 32.621 45.3601 32.5294 45.4216 32.3885C45.4842 32.5294 45.5893 32.621 45.7078 32.621C45.8264 32.621 45.9315 32.5294 45.9935 32.3885C46.0556 32.5294 46.1612 32.621 46.2792 32.621C46.4698 32.621 46.6241 32.3846 46.6241 32.0927C46.6241 31.8009 46.472 31.5645 46.2792 31.5645Z" fill="#B2773A"/>
<path d="M48.3528 31.5645C48.2343 31.5645 48.1292 31.6561 48.0672 31.797C48.0051 31.6561 47.8995 31.5645 47.7815 31.5645C47.6635 31.5645 47.5579 31.6561 47.4958 31.797C47.4338 31.6561 47.3281 31.5645 47.2102 31.5645C47.0195 31.5645 46.8652 31.8004 46.8652 32.0927C46.8652 32.3851 47.0195 32.621 47.2102 32.621C47.3287 32.621 47.4338 32.5294 47.4958 32.3885C47.5579 32.5294 47.6635 32.621 47.7815 32.621C47.8995 32.621 48.0051 32.5294 48.0672 32.3885C48.1292 32.5294 48.2349 32.621 48.3528 32.621C48.5435 32.621 48.6978 32.3846 48.6978 32.0927C48.6978 31.8009 48.5435 31.5645 48.3528 31.5645Z" fill="#B2773A"/>
<path d="M41.996 21.0684C41.996 21.0684 41.9401 20.7945 41.679 20.7492C41.4179 20.7039 40.3178 19.0615 40.4765 19.1839C40.6353 19.3063 41.9099 19.3885 41.9099 19.3885C41.9099 19.3885 41.9395 19.3997 44.1343 19.5981C46.3101 19.7955 46.7193 21.3815 46.7193 21.3815L46.7484 21.3373C46.7484 21.3373 47.1626 19.7111 49.3937 19.578C51.6249 19.445 51.6707 19.3712 51.6707 19.3712C51.6707 19.3712 53.0303 19.2823 53.1924 19.1643C53.3545 19.0464 52.1727 20.6737 51.9066 20.7162C51.6405 20.7587 51.4868 21.0964 51.4868 21.0964L46.7037 22.6617L42.0402 21.0488" fill="#674F36"/>
<path d="M46.7635 22.5948C46.7635 24.1182 45.5985 25.3525 44.1618 25.3525C42.725 25.3525 41.5605 24.1182 41.5605 22.5948C41.5605 21.0714 42.7256 19.8359 44.1618 19.8359C45.5979 19.8359 46.7635 21.0709 46.7635 22.5948Z" fill="#B18D6D"/>
<path d="M46.4984 22.4688C46.4984 23.4416 45.6878 24.2298 44.6877 24.2298C43.6876 24.2298 42.877 23.4416 42.877 22.4688C42.877 21.4961 43.6876 20.709 44.6877 20.709C45.6878 20.709 46.4984 21.4972 46.4984 22.4688Z" fill="white"/>
<path d="M46.2961 22.4749C46.2961 23.2391 45.6594 23.8579 44.8739 23.8579C44.0885 23.8579 43.4512 23.2391 43.4512 22.4749C43.4512 21.7107 44.0885 21.0918 44.8739 21.0918C45.6594 21.0918 46.2961 21.7112 46.2961 22.4749Z" fill="#674F36"/>
<path d="M44.5776 21.9161C44.5777 21.9615 44.5643 22.0059 44.5392 22.0436C44.5141 22.0814 44.4783 22.1109 44.4364 22.1283C44.3946 22.1457 44.3485 22.1504 44.304 22.1416C44.2595 22.1328 44.2186 22.111 44.1865 22.079C44.1544 22.0469 44.1325 22.0061 44.1236 21.9616C44.1147 21.9172 44.1192 21.871 44.1365 21.8291C44.1539 21.7872 44.1832 21.7514 44.2209 21.7262C44.2587 21.701 44.303 21.6875 44.3483 21.6875C44.409 21.6875 44.4673 21.7116 44.5102 21.7544C44.5532 21.7973 44.5774 21.8555 44.5776 21.9161Z" fill="white"/>
<path d="M46.6895 22.5948C46.6895 24.1182 47.8545 25.3525 49.2912 25.3525C50.7279 25.3525 51.8924 24.1182 51.8924 22.5948C51.8924 21.0714 50.7279 19.8359 49.2912 19.8359C47.8545 19.8359 46.6895 21.0709 46.6895 22.5948Z" fill="#B18D6D"/>
<path d="M46.9551 22.4688C46.9551 23.4416 47.7662 24.2298 48.7658 24.2298C49.7654 24.2298 50.5765 23.4416 50.5765 22.4688C50.5765 21.4961 49.7659 20.709 48.7658 20.709C47.7657 20.709 46.9551 21.4972 46.9551 22.4688Z" fill="white"/>
<path d="M47.1543 22.4749C47.1543 23.2391 47.791 23.8579 48.5765 23.8579C49.3619 23.8579 49.9992 23.2391 49.9992 22.4749C49.9992 21.7107 49.3625 21.0918 48.5765 21.0918C47.7905 21.0918 47.1543 21.7112 47.1543 22.4749Z" fill="#674F36"/>
<path d="M48.877 21.9161C48.8768 21.9615 48.8902 22.0059 48.9153 22.0436C48.9404 22.0814 48.9762 22.1109 49.0181 22.1283C49.0599 22.1457 49.106 22.1504 49.1505 22.1416C49.195 22.1328 49.2359 22.111 49.268 22.079C49.3001 22.0469 49.322 22.0061 49.3309 21.9616C49.3398 21.9172 49.3353 21.871 49.318 21.8291C49.3006 21.7872 49.2713 21.7514 49.2336 21.7262C49.1959 21.701 49.1515 21.6875 49.1062 21.6875C49.0455 21.6875 48.9873 21.7116 48.9443 21.7544C48.9013 21.7973 48.8771 21.8555 48.877 21.9161Z" fill="white"/>
<path d="M51.3535 19.25L51.3697 19.2791L51.3535 19.25Z" fill="#6E543C"/>
<path d="M50.7676 16.7619C50.7676 16.7619 52.192 16.3913 51.4943 18.7146L51.3495 18.652C51.3495 18.652 51.8734 16.9526 51.0281 16.924" fill="#DA9633"/>
<path d="M50.7676 16.7625C50.8327 16.7416 50.8997 16.7274 50.9677 16.72C51.0271 16.7145 51.087 16.716 51.146 16.7245C51.2066 16.7323 51.2657 16.7487 51.3216 16.7731C51.4322 16.8219 51.5258 16.9024 51.5905 17.0046C51.6212 17.0527 51.6465 17.1041 51.666 17.1578C51.7016 17.2612 51.7205 17.3698 51.7219 17.4792C51.7232 17.5856 51.7167 17.6919 51.7023 17.7973C51.69 17.9013 51.6738 18.0053 51.6564 18.1087C51.6201 18.3155 51.5804 18.5218 51.5301 18.7236L51.5206 18.7633L51.4753 18.746L51.33 18.6901L51.2948 18.6761L51.3043 18.6409C51.3244 18.5632 51.3434 18.4844 51.3602 18.4055C51.3769 18.3267 51.392 18.2468 51.4043 18.1674C51.4166 18.088 51.4284 18.0081 51.4367 17.9281C51.4451 17.8482 51.4524 17.7682 51.4546 17.6883C51.4653 17.5293 51.4464 17.3697 51.3987 17.2176C51.3726 17.1415 51.3264 17.0739 51.2651 17.0219C51.2319 16.9945 51.194 16.9733 51.1533 16.9593C51.1119 16.9443 51.069 16.9342 51.0253 16.9291L51.0169 16.9168C51.066 16.9157 51.1151 16.9209 51.1628 16.9325C51.2088 16.9439 51.2526 16.9628 51.2925 16.9884C51.3314 17.0142 51.3663 17.0457 51.3959 17.0817C51.4238 17.1162 51.4476 17.1537 51.4669 17.1935C51.5028 17.2721 51.5279 17.3553 51.5413 17.4406C51.5542 17.5237 51.5607 17.6076 51.5609 17.6916C51.5612 17.7747 51.5571 17.8578 51.5486 17.9404C51.5391 18.0226 51.5279 18.1042 51.5117 18.1853C51.4954 18.2663 51.4787 18.3463 51.4585 18.4262C51.4384 18.5062 51.4161 18.585 51.3903 18.6644L51.3652 18.6146L51.5061 18.6811L51.4502 18.7029C51.4848 18.6046 51.5184 18.5056 51.548 18.4055C51.562 18.3552 51.5771 18.3055 51.5888 18.254C51.6005 18.2026 51.6117 18.1528 51.6212 18.1014C51.6307 18.05 51.6374 17.9986 51.6442 17.9466C51.6509 17.8946 51.6537 17.8431 51.6553 17.7912C51.6587 17.6873 51.6537 17.5834 51.6402 17.4803C51.6335 17.4289 51.6246 17.3786 51.614 17.3283C51.6029 17.2785 51.5889 17.2294 51.572 17.1812C51.5551 17.133 51.5334 17.0865 51.5072 17.0426C51.4807 16.9989 51.4487 16.9587 51.4121 16.923C51.3741 16.8868 51.3312 16.8561 51.2847 16.8318C51.2362 16.8069 51.1847 16.7881 51.1315 16.7759C51.0765 16.763 51.0203 16.7555 50.9638 16.7536C50.9078 16.7515 50.8517 16.7541 50.7961 16.7614L50.7676 16.7625Z" fill="#996633"/>
<path d="M51.1926 18.8984C50.9075 19.6939 50.3691 20.5526 50.3691 20.5526L50.6705 20.2966L50.6425 20.3933L50.6146 20.5152L50.5782 20.7293L50.8052 20.4442L50.7951 20.6997C50.7951 20.6997 50.9925 20.3782 51.0109 20.3245L50.955 20.6991C50.955 20.6991 51.329 20.3709 51.556 18.9454" fill="#B87A32"/>
<path d="M50.5237 20.8562L50.583 20.509L50.6092 20.3972L50.2246 20.7204L50.3409 20.5353C50.3465 20.5264 50.8809 19.6705 51.1627 18.8867L51.2292 18.9085C51.0224 19.4838 50.6808 20.097 50.5086 20.3911L50.7389 20.1954L50.6797 20.4017L50.6517 20.5219L50.6383 20.6007L50.8474 20.3385L50.8384 20.5622C50.9044 20.4503 50.9709 20.3385 50.9804 20.31L51.0481 20.3257L51.0134 20.5733C51.1336 20.395 51.3678 19.9377 51.5272 18.9359L51.5965 18.9471C51.3729 20.3671 51.0011 20.7042 50.9855 20.7181L50.9128 20.7813L50.9519 20.5074C50.896 20.5991 50.8401 20.6941 50.8289 20.712L50.7579 20.8322L50.7691 20.5493L50.5237 20.8562Z" fill="#996633"/>
<path d="M51.1387 18.9479C51.1387 18.9479 51.2354 18.5303 51.4808 18.6421C51.6893 18.7382 51.5468 19.0943 51.5468 19.0943C51.5468 19.0943 51.2236 19.0362 51.1387 18.9479Z" fill="#DA9633"/>
<path d="M51.1309 18.9479C51.1273 18.9257 51.1261 18.9032 51.1275 18.8808C51.128 18.8584 51.1304 18.8362 51.1348 18.8143C51.1433 18.7689 51.1594 18.7252 51.1823 18.6851C51.1952 18.6629 51.211 18.6424 51.2293 18.6242C51.2503 18.603 51.2752 18.5859 51.3025 18.5739C51.3343 18.5606 51.3687 18.5549 51.4031 18.5571C51.4358 18.5594 51.4677 18.5681 51.497 18.5828L51.5065 18.5879H51.5116H51.5144H51.5177L51.5256 18.5923L51.5339 18.5979L51.5552 18.6136L51.572 18.6298C51.5919 18.6505 51.6068 18.6756 51.6156 18.703C51.6282 18.7495 51.6301 18.7982 51.6211 18.8456C51.6144 18.8892 51.6077 18.9311 51.6033 18.9736C51.6005 18.9948 51.5993 19.0166 51.5982 19.0384C51.5971 19.0602 51.5982 19.0826 51.5926 19.1061L51.5882 19.134H51.5373C51.5187 19.1351 51.5 19.1351 51.4814 19.134C51.4626 19.1322 51.4439 19.1292 51.4255 19.1251C51.3885 19.116 51.3523 19.1042 51.317 19.0899C51.2811 19.0747 51.2469 19.056 51.2147 19.034C51.1983 19.0227 51.183 19.01 51.1689 18.996C51.1545 18.9823 51.1429 18.966 51.1348 18.9479H51.1309ZM51.1476 18.9479C51.1633 18.9535 51.1784 18.9585 51.194 18.9624C51.2097 18.9663 51.2287 18.9702 51.246 18.9736L51.3489 18.9943C51.3836 19.0015 51.4182 19.0088 51.4523 19.0172C51.4868 19.0265 51.5206 19.0381 51.5535 19.0519L51.4976 19.0798C51.5098 19.0635 51.5208 19.0463 51.5306 19.0284C51.5413 19.0108 51.5499 18.992 51.5563 18.9725C51.568 18.9335 51.5703 18.8923 51.563 18.8523C51.5562 18.8145 51.54 18.7789 51.516 18.7489C51.5061 18.7368 51.4947 18.7261 51.4819 18.717L51.4764 18.7086L51.4691 18.7047H51.4635L51.4557 18.7013H51.4518H51.4551H51.449C51.436 18.697 51.4223 18.6955 51.4087 18.6969C51.3976 18.6977 51.3867 18.7001 51.3763 18.7041C51.3479 18.7179 51.3223 18.7369 51.3008 18.76C51.274 18.7889 51.249 18.8193 51.2259 18.8512L51.1885 18.902L51.1476 18.9479Z" fill="#996633"/>
<path d="M51.375 18.557C51.3834 18.5417 51.3931 18.5271 51.4041 18.5134C51.4265 18.4854 51.4512 18.4592 51.4779 18.4352C51.5069 18.4095 51.5366 18.3854 51.56 18.367C51.5712 18.358 51.5813 18.3502 51.588 18.3435L51.5997 18.334C51.5997 18.334 51.5997 18.3396 51.5997 18.3485C51.6005 18.3543 51.6005 18.3601 51.5997 18.3658C51.5986 18.3729 51.5967 18.3799 51.5941 18.3865C51.5877 18.4034 51.579 18.4194 51.5684 18.4341C51.5562 18.4505 51.5423 18.4656 51.5271 18.4793C51.4987 18.5056 51.4657 18.5264 51.4298 18.5408C51.4122 18.5484 51.3938 18.5539 51.375 18.557Z" fill="#996633"/>
<path d="M51.4238 18.2655C51.4321 18.2504 51.4418 18.2362 51.4529 18.223C51.4752 18.1945 51.5001 18.1681 51.5272 18.1442C51.5558 18.1184 51.5832 18.0944 51.6089 18.0765C51.6201 18.067 51.6307 18.0592 51.6374 18.053L51.6486 18.043C51.649 18.048 51.649 18.053 51.6486 18.0581C51.6493 18.0636 51.6493 18.0693 51.6486 18.0748C51.6477 18.082 51.6458 18.0889 51.643 18.0955C51.6364 18.1123 51.6277 18.1283 51.6173 18.143C51.6055 18.1597 51.5918 18.1749 51.5764 18.1883C51.5477 18.2142 51.5148 18.2349 51.4792 18.2498C51.4615 18.2575 51.4429 18.2627 51.4238 18.2655Z" fill="#996633"/>
<path d="M51.4668 17.9477C51.4751 17.9324 51.4846 17.9178 51.4953 17.9041C51.5181 17.8762 51.543 17.85 51.5697 17.8258C51.5987 17.8001 51.6284 17.776 51.6518 17.7582C51.663 17.7486 51.6736 17.7408 51.6798 17.7347L51.6915 17.7246C51.6915 17.7246 51.6915 17.7302 51.6915 17.7397C51.6923 17.7453 51.6923 17.7509 51.6915 17.7565C51.6901 17.7637 51.6881 17.7708 51.6854 17.7777C51.6793 17.7945 51.6708 17.8103 51.6602 17.8247C51.6483 17.8412 51.6346 17.8564 51.6194 17.87C51.5905 17.896 51.5574 17.9169 51.5216 17.932C51.504 17.9394 51.4856 17.9446 51.4668 17.9477Z" fill="#996633"/>
<path d="M51.5266 17.6299L51.4863 17.5796C51.5266 17.5533 51.6373 17.4678 51.6613 17.3984L51.7172 17.4258C51.6822 17.5158 51.614 17.5889 51.5266 17.6299Z" fill="#996633"/>
<path d="M51.4942 17.3454L51.4707 17.2895C51.5266 17.2707 51.5729 17.2305 51.5993 17.1777L51.6636 17.1979C51.6471 17.2328 51.6235 17.264 51.5944 17.2894C51.5652 17.3148 51.5311 17.3339 51.4942 17.3454Z" fill="#996633"/>
<path d="M51.3656 17.1251L51.332 17.0876C51.37 17.0597 51.474 16.9758 51.4936 16.916L51.5361 16.9395C51.5065 17.0228 51.3695 17.1206 51.3656 17.1251Z" fill="#996633"/>
<path d="M51.2654 16.9825L51.2129 16.9434C51.2414 16.8956 51.2557 16.8407 51.2543 16.7852H51.3213C51.3234 16.8551 51.3039 16.924 51.2654 16.9825Z" fill="#996633"/>
<path d="M51.068 16.9343C51.052 16.8684 51.0199 16.8075 50.9746 16.757L51.0232 16.7168C51.0777 16.7752 51.1163 16.8466 51.1351 16.9242L51.068 16.9343Z" fill="#996633"/>
<path d="M51.3714 19.0478L51.3479 19.0987C51.3334 19.1311 51.3116 19.1769 51.2847 19.2317C51.2579 19.2865 51.2288 19.3502 51.193 19.4184C51.1573 19.4866 51.1204 19.5582 51.0812 19.6303C51.0611 19.6661 51.0415 19.7019 51.0225 19.7371C51.0035 19.7723 50.984 19.807 50.9666 19.84L50.8599 20.0194C50.7928 20.1217 50.748 20.1871 50.748 20.1871C50.748 20.1871 50.7849 20.115 50.8408 20.0077L50.9264 19.8193C50.9415 19.7852 50.956 19.7488 50.9717 19.7125C50.9873 19.6762 51.0024 19.6387 51.0181 19.6007C51.0466 19.5258 51.0768 19.4514 51.103 19.381C51.1293 19.3105 51.1534 19.2446 51.1729 19.1876C51.1925 19.1305 51.2093 19.0836 51.2199 19.05L51.2372 18.998L51.3714 19.0478Z" fill="#996633"/>
<path d="M51.4787 19.1047L51.4658 19.1432C51.458 19.1678 51.4457 19.2025 51.4306 19.2433C51.4155 19.2841 51.3965 19.3322 51.3747 19.3831C51.3529 19.4339 51.3344 19.4899 51.3109 19.5402C51.2983 19.5663 51.286 19.5925 51.274 19.619C51.2617 19.6453 51.2489 19.6704 51.2366 19.6945C51.2103 19.7431 51.1885 19.7889 51.1661 19.8264L51.0918 19.9527C51.0918 19.9527 51.1158 19.8968 51.1477 19.8202C51.1661 19.7811 51.1824 19.7325 51.2036 19.6827C51.2131 19.657 51.2237 19.6313 51.2321 19.6039C51.2405 19.5765 51.2506 19.548 51.2595 19.5228C51.2785 19.4669 51.2925 19.411 51.3087 19.3613C51.3249 19.3115 51.3355 19.2606 51.3456 19.2193C51.3557 19.1779 51.3635 19.1427 51.3685 19.1187C51.3736 19.0946 51.3769 19.0801 51.3769 19.0801L51.4787 19.1047Z" fill="#996633"/>
</g>
<g opacity="0.5">
<path d="M68.6355 16.893C68.6355 16.549 68.6915 16.281 68.8035 16.089C68.9155 15.895 69.1115 15.798 69.3915 15.798C69.6695 15.798 69.8645 15.895 69.9765 16.089C70.0885 16.281 70.1445 16.549 70.1445 16.893C70.1445 17.243 70.0885 17.515 69.9765 17.709C69.8645 17.903 69.6695 18 69.3915 18C69.1115 18 68.9155 17.903 68.8035 17.709C68.6915 17.515 68.6355 17.243 68.6355 16.893ZM69.8745 16.893C69.8745 16.719 69.8625 16.572 69.8385 16.452C69.8165 16.33 69.7695 16.232 69.6975 16.158C69.6275 16.084 69.5255 16.047 69.3915 16.047C69.2555 16.047 69.1515 16.084 69.0795 16.158C69.0095 16.232 68.9625 16.33 68.9385 16.452C68.9165 16.572 68.9055 16.719 68.9055 16.893C68.9055 17.073 68.9165 17.224 68.9385 17.346C68.9625 17.468 69.0095 17.566 69.0795 17.64C69.1515 17.714 69.2555 17.751 69.3915 17.751C69.5255 17.751 69.6275 17.714 69.6975 17.64C69.7695 17.566 69.8165 17.468 69.8385 17.346C69.8625 17.224 69.8745 17.073 69.8745 16.893ZM70.5193 16.893C70.5193 16.549 70.5753 16.281 70.6873 16.089C70.7993 15.895 70.9953 15.798 71.2753 15.798C71.5533 15.798 71.7483 15.895 71.8603 16.089C71.9723 16.281 72.0283 16.549 72.0283 16.893C72.0283 17.243 71.9723 17.515 71.8603 17.709C71.7483 17.903 71.5533 18 71.2753 18C70.9953 18 70.7993 17.903 70.6873 17.709C70.5753 17.515 70.5193 17.243 70.5193 16.893ZM71.7583 16.893C71.7583 16.719 71.7463 16.572 71.7223 16.452C71.7003 16.33 71.6533 16.232 71.5813 16.158C71.5113 16.084 71.4093 16.047 71.2753 16.047C71.1393 16.047 71.0353 16.084 70.9633 16.158C70.8933 16.232 70.8463 16.33 70.8223 16.452C70.8003 16.572 70.7893 16.719 70.7893 16.893C70.7893 17.073 70.8003 17.224 70.8223 17.346C70.8463 17.468 70.8933 17.566 70.9633 17.64C71.0353 17.714 71.1393 17.751 71.2753 17.751C71.4093 17.751 71.5113 17.714 71.5813 17.64C71.6533 17.566 71.7003 17.468 71.7223 17.346C71.7463 17.224 71.7583 17.073 71.7583 16.893Z" fill="white"/>
<path d="M67.283 12.001C67.2736 12.0027 67.2643 12.0052 67.2558 12.0078C67.1548 12.0307 67.0836 12.1215 67.0861 12.225V14.18H69.0411C69.1192 14.1808 69.1922 14.1401 69.232 14.0722C69.2711 14.0043 69.2711 13.9212 69.232 13.8533C69.1922 13.7854 69.1192 13.7447 69.0411 13.7455H67.8057C68.6287 12.9403 69.753 12.4422 70.9961 12.4422C73.5179 12.4422 75.5578 14.4821 75.5578 17.0039C75.5578 19.5257 73.5179 21.5656 70.9961 21.5656C68.4743 21.5656 66.4344 19.5257 66.4344 17.0039C66.4344 16.2495 66.6203 15.5393 66.9436 14.9131L66.5566 14.7163C66.2019 15.4019 66 16.18 66 17.0039C66 19.7607 68.2393 22 70.9961 22C73.753 22 75.9922 19.7607 75.9922 17.0039C75.9922 14.247 73.753 12.0078 70.9961 12.0078C69.6436 12.0078 68.42 12.5517 67.5206 13.4265V12.225C67.5231 12.1622 67.4976 12.102 67.4527 12.0595C67.4069 12.0163 67.3449 11.995 67.283 12.001ZM70.9961 12.6594C70.8765 12.6594 70.7789 12.757 70.7789 12.8767C70.7789 12.9963 70.8765 13.0939 70.9961 13.0939C71.1158 13.0939 71.2133 12.9963 71.2133 12.8767C71.2133 12.757 71.1158 12.6594 70.9961 12.6594ZM73.0258 13.2161C72.9638 13.2246 72.9036 13.2593 72.8697 13.3179C72.8094 13.4214 72.8476 13.5563 72.9511 13.6166C73.0546 13.6768 73.1896 13.6386 73.2498 13.5351C73.31 13.4316 73.2719 13.3035 73.1683 13.2432C73.142 13.2279 73.1149 13.2195 73.0869 13.2161C73.0657 13.2135 73.0462 13.2135 73.0258 13.2161ZM74.5463 14.723C74.5183 14.7264 74.4844 14.7349 74.4581 14.7502C74.3546 14.8104 74.3232 14.9454 74.3834 15.0489C74.4437 15.1524 74.5718 15.1906 74.6753 15.1303C74.7788 15.0701 74.817 14.9352 74.7568 14.8317C74.7118 14.7536 74.6303 14.7129 74.5463 14.723ZM73.5145 16.6916C73.1751 16.6916 72.9375 16.8808 72.9375 17.1464C72.9375 17.3696 73.0665 17.4926 73.3516 17.5605L73.6164 17.6216C73.7665 17.6572 73.8336 17.7149 73.8336 17.8049C73.8336 17.9245 73.7063 18.0085 73.5213 18.0085C73.3423 18.0085 73.226 17.9407 73.1887 17.8253H72.8968C72.9231 18.0917 73.1573 18.2529 73.5145 18.2529C73.8735 18.2529 74.1323 18.0603 74.1323 17.7777C74.1323 17.5571 73.9965 17.4366 73.7114 17.3704L73.467 17.3094C73.3041 17.272 73.2294 17.216 73.2294 17.1261C73.2294 17.009 73.3491 16.9292 73.5145 16.9292C73.6825 16.9292 73.792 17.0022 73.82 17.1125H74.1051C74.0763 16.8478 73.8523 16.6916 73.5145 16.6916ZM66.8689 16.7867C66.7492 16.7867 66.6517 16.8842 66.6517 17.0039C66.6517 17.1235 66.7492 17.2211 66.8689 17.2211C66.9885 17.2211 67.0861 17.1235 67.0861 17.0039C67.0861 16.8842 66.9885 16.7867 66.8689 16.7867ZM75.1233 16.7867C75.0037 16.7867 74.9061 16.8842 74.9061 17.0039C74.9061 17.1235 75.0037 17.2211 75.1233 17.2211C75.243 17.2211 75.3406 17.1235 75.3406 17.0039C75.3406 16.8842 75.243 16.7867 75.1233 16.7867ZM67.3984 18.8503C67.3704 18.8537 67.3364 18.8622 67.3101 18.8774C67.2066 18.9377 67.1752 19.0726 67.2355 19.1761C67.2957 19.2796 67.4238 19.3178 67.5273 19.2576C67.6309 19.1973 67.669 19.0624 67.6088 18.9589C67.5638 18.8808 67.4824 18.8401 67.3984 18.8503ZM74.5328 18.8503C74.4725 18.8613 74.4174 18.9003 74.3834 18.9589C74.3232 19.0624 74.3614 19.1973 74.4649 19.2576C74.5684 19.3178 74.6965 19.2796 74.7568 19.1761C74.817 19.0726 74.7856 18.9377 74.6821 18.8774C74.6558 18.8622 74.6219 18.8537 74.5939 18.8503C74.5726 18.8477 74.5531 18.8469 74.5328 18.8503ZM68.8986 20.364C68.8366 20.3751 68.7764 20.4141 68.7424 20.4727C68.6822 20.5762 68.7204 20.7043 68.8239 20.7645C68.9274 20.8248 69.0623 20.7934 69.1226 20.6899C69.1828 20.5864 69.1446 20.4514 69.0411 20.3912C69.0148 20.3759 68.9877 20.3674 68.9597 20.364C68.9384 20.3615 68.9189 20.3607 68.8986 20.364ZM73.0326 20.364C73.0046 20.3674 72.9774 20.3759 72.9511 20.3912C72.8476 20.4514 72.8094 20.5864 72.8697 20.6899C72.9299 20.7934 73.0648 20.8248 73.1683 20.7645C73.2719 20.7043 73.31 20.5762 73.2498 20.4727C73.2048 20.3946 73.1166 20.3539 73.0326 20.364ZM70.9961 20.9139C70.8765 20.9139 70.7789 21.0115 70.7789 21.1311C70.7789 21.2508 70.8765 21.3483 70.9961 21.3483C71.1158 21.3483 71.2133 21.2508 71.2133 21.1311C71.2133 21.0115 71.1158 20.9139 70.9961 20.9139Z" fill="white"/>
</g>
<path d="M13.584 2C13.584 0.89543 14.4794 0 15.584 0H77.9991C79.1036 0 79.9991 0.895431 79.9991 2V9.0566H13.584V2Z" fill="#339B96"/>
<defs>
<filter id="filter0_d_691_11357" x="25" y="4" width="43.4512" height="50" filterUnits="userSpaceOnUse" color-interpolation-filters="sRGB">
<feFlood flood-opacity="0" result="BackgroundImageFix"/>
<feColorMatrix in="SourceAlpha" type="matrix" values="0 0 0 0 0 0 0 0 0 0 0 0 0 0 0 0 0 0 127 0" result="hardAlpha"/>
<feOffset dy="4"/>
<feGaussianBlur stdDeviation="7.5"/>
<feComposite in2="hardAlpha" operator="out"/>
<feColorMatrix type="matrix" values="0 0 0 0 0 0 0 0 0 0 0 0 0 0 0 0 0 0 0.15 0"/>
<feBlend mode="normal" in2="BackgroundImageFix" result="effect1_dropShadow_691_11357"/>
<feBlend mode="normal" in="SourceGraphic" in2="effect1_dropShadow_691_11357" result="shape"/>
</filter>
</defs>
</svg>
