<svg width="84" height="86" viewBox="0 0 84 86" fill="none" xmlns="http://www.w3.org/2000/svg">
<path d="M40.4121 66.0439C40.7633 65.1207 41.0859 64.1802 41.4744 63.2785C41.7769 62.5731 42.1683 61.9065 42.5038 61.2155C42.9988 60.2014 43.4848 59.1841 43.9618 58.1633C44.3785 57.2716 44.788 56.3761 45.1904 55.4767C45.7437 54.2395 46.2713 52.9908 46.8362 51.7593C47.2935 50.7558 47.7953 49.7824 48.2698 48.7903C49.1457 46.9538 50.0288 45.1202 50.8804 43.2709C51.3248 42.3046 51.6832 41.2982 52.1262 40.3291C52.671 39.1377 53.2631 37.9679 53.8365 36.7895C54.2752 35.8877 54.7297 34.9946 55.1569 34.0885C55.5841 33.1825 57.4091 32.6377 58.3395 33.1767C59.5237 33.8634 60.8541 34.2921 62.0985 34.8785C63.5665 35.5695 64.9973 36.335 66.4667 37.0289C67.4703 37.4977 68.5154 37.8618 69.5232 38.3191C70.435 38.732 71.3152 39.2166 72.2213 39.6467C72.9381 39.985 73.6549 40.2832 74.3717 40.6101C75.2792 41.0258 76.1824 41.4516 77.0841 41.8788C77.5242 42.0881 77.9443 42.3376 78.3959 42.5225C79.732 43.0673 80.3556 44.4235 79.7908 45.7453C79.1801 47.1789 78.5005 48.5781 77.8597 50.0003C77.183 51.5185 76.5508 53.0582 75.8526 54.5664C75.1545 56.0745 74.4018 57.5268 73.7022 59.0192C73.1116 60.2793 72.5768 61.5653 71.9976 62.8298C71.4758 63.9867 70.9153 65.1436 70.3676 66.2905C69.9146 67.2496 69.4687 68.2101 69.01 69.1664C68.5182 70.1885 67.9935 71.1964 67.5233 72.2286C67.0803 73.1991 66.7449 74.2213 66.2546 75.1661C65.8159 76.0133 65.6008 77.0298 64.7407 77.6032C64.1328 78.0104 63.2798 78.4003 62.3193 77.9387C61.039 77.3222 59.7015 76.8248 58.4112 76.2284C56.9116 75.5359 55.4408 74.7761 53.9455 74.0779C52.9936 73.6292 52.0101 73.2493 51.0582 72.8006C50.0848 72.3404 49.1472 71.8085 48.1709 71.3541C46.9566 70.7892 45.7093 70.2946 44.4965 69.7269C43.5374 69.2767 42.6041 68.7721 41.668 68.2747C40.8006 67.8145 40.4838 67.0604 40.5956 66.0984L40.4121 66.0439Z" fill="#EDBD58"/>
<g filter="url(#filter0_d_556_541)">
<path d="M58.9677 46.7644C58.9429 46.8145 59.5989 47.7217 59.6163 47.7722C59.6776 47.9317 60.8955 47.9694 60.8955 47.9694L61.3172 46.4439L60.4782 46.0281L59.5976 46.5007L58.9677 46.7644Z" fill="#373737"/>
<path d="M67.3172 51.336C67.3172 51.336 66.6345 51.2622 66.5413 51.2047C66.448 51.1473 65.6713 50.2987 65.6713 50.2987L66.5697 49.2503L67.3637 49.7468L67.4227 50.7431L67.3172 51.336Z" fill="#373737"/>
<path d="M66.2185 51.0567C66.2185 51.0567 65.3791 49.5438 63.6321 48.6149C61.9714 47.7294 59.977 47.9402 59.9678 47.9312C59.3099 47.3312 58.6245 46.5741 58.6343 46.101C58.6365 46.011 58.6006 45.6894 58.8364 45.6933C58.8364 45.6933 62.2209 45.8777 64.5881 45.9067C64.7607 45.9086 65.1996 46.113 65.3159 46.2586C65.4322 46.4042 67.69 49.3995 68.6566 50.6267C68.7621 50.7613 68.4729 50.9318 68.0031 50.9997C67.5333 51.0676 67.455 51.1149 66.7239 51.0907L66.2185 51.0567Z" fill="#373737"/>
<path d="M64.3598 48.6808C64.3598 48.6808 62.8254 48.2117 63.6941 48.6279C65.3913 49.4397 66.3376 51.1522 66.3506 51.155C67.225 51.3331 68.2948 51.4697 68.6713 51.1821C68.7426 51.1276 69.0198 50.9761 68.8784 50.7856C68.8624 50.7776 66.7504 48.0987 65.2986 46.2392C65.1921 46.1028 64.7754 45.9 64.5899 45.9066C64.4044 45.9133 62.1581 47.5715 63.5029 48.3628C65.8717 49.7633 63.5739 47.9943 63.7961 48.4133C64.0184 48.8323 63.7571 48.0414 64.2079 48.6173L64.3598 48.6808Z" fill="#373737"/>
<path d="M61.5406 46.8436C61.5106 46.8424 61.33 46.8378 61.3199 46.8658C61.2516 47.0616 61.1138 47.8518 60.5031 48.6398C60.0966 49.1652 60.3589 49.5828 62.6403 50.7654C63.3517 51.1342 64.5429 51.6815 65.1575 51.5039C65.4435 51.4216 65.397 50.988 65.6624 50.319C65.9464 49.6025 66.3673 49.2745 66.2723 49.2069C66.252 49.1924 64.823 46.9886 61.5406 46.8436Z" fill="#47474A"/>
<path d="M60.9664 47.6424C60.9664 47.6424 60.8088 48.5332 60.1009 49.4465C59.6948 49.9714 59.957 50.389 62.2385 51.5716C62.9498 51.9404 64.141 52.4877 64.7554 52.3106C65.0414 52.2283 64.9951 51.7942 65.2603 51.1258C65.4113 50.7289 65.6164 50.3548 65.8699 50.0141C65.8814 49.9923 64.2855 47.7663 60.9664 47.6424Z" fill="#DA9633"/>
<path d="M63.3946 63.7949L51.2502 58.8314L59.1775 50.8083L64.4073 53.4091L63.3946 63.7949Z" fill="#B6394A"/>
<path d="M62.0468 65.0648C62.3333 64.496 62.808 64.044 63.3901 63.7857L53.1299 58.7004C52.2283 58.2535 51.1644 58.5698 50.7498 59.4063C50.3352 60.2428 50.7293 61.2817 51.6294 61.7278L61.8165 66.7769C61.7073 66.1963 61.7881 65.5959 62.0468 65.0648Z" fill="#B6394A"/>
<path d="M62.0472 65.0645C62.2243 64.7093 62.478 64.3978 62.79 64.1524L52.1816 58.8945L51.2018 60.8715L61.7751 66.112C61.7933 65.748 61.8859 65.3915 62.0472 65.0645Z" fill="white"/>
<path d="M62.5214 64.3965L52.0312 59.1973L52.0218 59.2163L62.506 64.4126L62.5214 64.3965Z" fill="#939498"/>
<path d="M62.4248 64.5017L51.9707 59.3203L51.961 59.3398L62.4096 64.5185C62.4148 64.513 62.4196 64.5072 62.4248 64.5017Z" fill="#939498"/>
<path d="M62.3327 64.6121L51.9082 59.4453L51.8995 59.4628L62.3205 64.6279C62.3248 64.6231 62.3288 64.6176 62.3327 64.6121Z" fill="#939498"/>
<path d="M62.2502 64.7261L51.8477 59.5703L51.838 59.5898L62.238 64.7444C62.2422 64.7384 62.2459 64.7322 62.2502 64.7261Z" fill="#939498"/>
<path d="M62.1751 64.843L51.7852 59.6934L51.7752 59.7134L62.1607 64.8608C62.1647 64.854 62.1684 64.8478 62.1751 64.843Z" fill="#939498"/>
<path d="M62.1031 64.9623L51.7246 59.8184L51.7149 59.8379L62.0929 64.9816C62.0961 64.9751 62.0993 64.9685 62.1031 64.9623Z" fill="#939498"/>
<path d="M62.0381 65.0841L51.6621 59.9414L51.6512 59.9634L62.0276 65.1064C62.0321 65.0974 62.0346 65.0911 62.0381 65.0841Z" fill="#939498"/>
<path d="M61.9796 65.2111L51.5996 60.0664L51.5902 60.0854L61.9716 65.2308C61.9749 65.2243 61.9771 65.2173 61.9796 65.2111Z" fill="#939498"/>
<path d="M61.929 65.341L51.5391 60.1914L51.5296 60.2104L61.9236 65.3621C61.9248 65.3549 61.9266 65.3479 61.929 65.341Z" fill="#939498"/>
<path d="M61.8846 65.475L51.4766 60.3164L51.4669 60.3359L61.8789 65.4965C61.8804 65.4897 61.8824 65.4832 61.8846 65.475Z" fill="#939498"/>
<path d="M61.8486 65.6102L51.416 60.4395L51.4063 60.459L61.8434 65.632C61.8455 65.6248 61.8472 65.6175 61.8486 65.6102Z" fill="#939498"/>
<path d="M61.8176 65.7508L51.3535 60.5645L51.3441 60.5835L61.8127 65.7721C61.8152 65.7646 61.8171 65.7568 61.8176 65.7508Z" fill="#939498"/>
<path d="M61.7956 65.8949L51.293 60.6895L51.2838 60.708L61.7925 65.9165C61.7937 65.9089 61.7942 65.9017 61.7956 65.8949Z" fill="#939498"/>
<path d="M62.6181 64.3012L52.0879 59.082L52.0785 59.1011L62.6012 64.3165C62.6069 64.3112 62.6121 64.3057 62.6181 64.3012Z" fill="#939498"/>
<path d="M60.8137 49.4061C60.8137 49.4061 60.5227 49.1814 60.8346 49.1488C61.1465 49.1162 62.2739 49.4335 63.3113 49.9801C64.3488 50.5268 65.95 51.5007 65.0234 51.545" fill="#47474A"/>
<path d="M60.8127 49.405C60.7938 49.3931 60.7758 49.3797 60.7588 49.3652C60.7381 49.3478 60.7194 49.3282 60.7028 49.3069C60.691 49.2929 60.6815 49.2771 60.6749 49.26C60.6707 49.2494 60.6686 49.2381 60.6688 49.2268C60.669 49.2154 60.6714 49.2042 60.6759 49.1937C60.6871 49.1714 60.7054 49.1535 60.728 49.1428C60.7504 49.1308 60.7743 49.1217 60.7989 49.1155L60.8179 49.1112L60.8269 49.1094L60.8389 49.1079L60.8761 49.1045C60.9037 49.1022 60.9315 49.1018 60.9591 49.1032C61.088 49.1084 61.2163 49.1236 61.3428 49.1486C61.4802 49.1749 61.6268 49.2051 61.7834 49.2504C61.9401 49.2956 62.1 49.3405 62.2655 49.3994L62.3909 49.4435L62.5166 49.492C62.6009 49.5233 62.6855 49.559 62.7704 49.5942C62.9402 49.6671 63.1105 49.7452 63.2768 49.8314C63.4431 49.9176 63.6069 50.0063 63.7682 50.0987C63.9296 50.1911 64.0816 50.2834 64.2297 50.3773C64.3778 50.4713 64.5167 50.5664 64.6467 50.6601C64.7702 50.7477 64.889 50.8416 65.0027 50.9414C65.1022 51.0246 65.1914 51.1193 65.2685 51.2235C65.303 51.2692 65.3265 51.3222 65.337 51.3785C65.3407 51.4038 65.3366 51.4296 65.3253 51.4525C65.3139 51.4755 65.2958 51.4944 65.2735 51.5067C65.2412 51.5248 65.2056 51.5362 65.1688 51.5404C65.1376 51.5442 65.1109 51.5453 65.0894 51.5459C65.0679 51.5465 65.0516 51.5453 65.0399 51.5451L65.0233 51.5444L65.0398 51.5413L65.0866 51.5326C65.111 51.5274 65.1351 51.5208 65.1587 51.5129C65.1892 51.5038 65.2176 51.4892 65.2426 51.4696C65.2549 51.4597 65.2637 51.4461 65.2678 51.4309C65.2719 51.4156 65.271 51.3995 65.2653 51.3848C65.2488 51.3431 65.2241 51.3052 65.1927 51.2733C65.1074 51.1874 65.0143 51.1097 64.9146 51.0412C64.8043 50.9629 64.6805 50.884 64.5467 50.8003C64.4129 50.7165 64.2691 50.6352 64.1206 50.5497C63.972 50.4643 63.8152 50.379 63.6567 50.2923C63.4981 50.2056 63.336 50.1185 63.1737 50.0368C63.0114 49.9551 62.8477 49.8752 62.6846 49.8C62.5216 49.7248 62.3586 49.6559 62.1996 49.5927C62.0407 49.5295 61.8867 49.4688 61.739 49.4168L61.6294 49.3786L61.5222 49.343C61.4527 49.3185 61.3846 49.2998 61.3193 49.2792C61.2539 49.2587 61.1914 49.2439 61.1316 49.2299L61.0868 49.2183L61.0438 49.2094C61.016 49.2038 60.9875 49.1971 60.9627 49.1942C60.9376 49.1899 60.9123 49.1872 60.8869 49.186L60.8489 49.1846L60.8449 49.1826L60.8359 49.1832L60.8194 49.1837C60.7767 49.1869 60.7379 49.197 60.7245 49.2166C60.7111 49.2361 60.7194 49.2683 60.732 49.2933C60.7438 49.3154 60.758 49.3363 60.7743 49.3554C60.7861 49.3726 60.7989 49.3892 60.8127 49.405Z" fill="#0F100E"/>
<path opacity="0.25" d="M61.0386 47.9881C61.0388 47.9862 61.0398 47.9844 61.0413 47.9832C61.0429 47.9819 61.0448 47.9814 61.0468 47.9816C61.0488 47.9818 61.0505 47.9828 61.0518 47.9844C61.053 47.9859 61.0536 47.9879 61.0533 47.9898C61.0588 48.2041 61.1755 49.0424 62.6187 49.5674C62.6187 49.5674 60.1096 48.5734 60.7638 49.6264C60.7638 49.6264 60.2791 49.2826 60.5303 48.8549C60.7737 48.4421 60.885 48.4542 61.0386 47.9881Z" fill="#0F100E"/>
<path opacity="0.25" d="M62.3935 50.6881C61.3196 50.1558 60.5571 49.5077 60.6896 49.2402C60.8222 48.9727 61.7997 49.1871 62.8736 49.7194C62.8736 49.7194 60.8163 49.6355 62.4871 50.7132L62.3935 50.6881Z" fill="#0F100E"/>
<path opacity="0.25" d="M63.6144 50.0754C64.6934 50.6102 65.4604 51.2605 65.3279 51.528C65.1953 51.7955 64.2125 51.5791 63.1341 51.0446C63.1341 51.0446 65.2005 51.1329 63.5206 50.0507L63.6144 50.0754Z" fill="#0F100E"/>
<path opacity="0.5" d="M62.7371 50.8584C64.0005 51.4846 65.1322 51.7753 65.2648 51.5078C65.3973 51.2403 64.4806 50.5158 63.2173 49.8897C61.9539 49.2635 60.8222 48.9727 60.6896 49.2402C60.557 49.5077 61.4737 50.2322 62.7371 50.8584Z" fill="#0F100E"/>
<path d="M66.9609 51.7135C66.9609 51.7135 66.9889 50.4246 66.7716 50.3331C66.5542 50.2416 66.1918 50.9037 66.1918 50.9037L66.9609 51.7135Z" fill="#675139"/>
<path d="M67.4018 52.0536L67.4035 52.0868C67.6526 52.2282 67.914 52.3467 68.1845 52.4409C68.3865 52.5094 68.5949 52.5575 68.8065 52.5844C68.8065 52.5844 68.1991 53.0321 67.7948 53.183C67.3906 53.3339 67.2359 53.3565 67.2359 53.3565C67.2359 53.3565 67.1006 53.7842 67.0482 53.9342C67.0103 54.0487 66.9783 54.165 66.9521 54.2828C67.0536 54.3472 67.1385 54.4346 67.2 54.5379C67.2612 54.6445 67.285 54.7685 67.2675 54.8902L67.1039 54.7985C67.1039 54.7985 67.2371 55.1278 67.194 55.3267C67.151 55.5256 67.0712 55.5959 67.0712 55.5959C67.0712 55.5959 66.8857 55.3055 66.7754 55.2839C66.7754 55.2839 66.6982 55.9495 66.4346 56.1489L66.2399 55.9426C66.2399 55.9426 66.2145 56.2594 66.1228 56.335L66.0149 56.2191C66.0149 56.2191 66.0733 56.5669 65.8802 56.7351L65.687 56.9033L65.5492 56.538C65.5492 56.538 65.3915 56.9216 65.181 57.0593C65.0763 57.1321 64.9622 57.1904 64.8418 57.2325L64.7656 56.8753C64.5355 56.9939 64.2955 57.0923 64.0483 57.1693C63.837 57.2213 63.6227 57.2609 63.4067 57.288C63.4067 57.288 64.1665 57.8624 64.114 57.9243L63.7303 57.9432C63.7303 57.9432 64.217 58.4265 64.0728 58.7175L63.7153 58.5298C63.7153 58.5298 64.2112 59.4806 64.2352 59.9873C64.2592 60.494 64.1766 60.9478 63.957 61.081C63.7375 61.2143 63.3562 60.6291 63.3562 60.6291C63.3562 60.6291 63.2612 62.485 62.8419 62.354C62.4227 62.223 62.2924 61.4221 62.2924 61.4221C62.2924 61.4221 61.8119 62.5691 61.5112 62.3764C61.4257 62.3234 61.3568 62.2475 61.3122 62.1574C61.2675 62.0672 61.249 61.9664 61.2587 61.8663C61.2587 61.8663 61.0041 62.2237 60.9733 62.1978C60.9425 62.1719 60.981 61.982 60.981 61.982C60.981 61.982 60.4584 62.5921 60.3087 62.4736C60.1591 62.3551 60.3691 62.0194 60.3691 62.0194C60.3691 62.0194 59.8983 62.3475 59.6512 62.2682L59.4042 62.19L59.5575 61.8592C59.5575 61.8592 59.3243 61.864 59.2887 61.8464C59.2532 61.8288 58.1361 61.5284 57.535 61.2305L57.0401 60.9852C56.4776 60.7064 55.6277 60.0319 55.5942 60.0152C55.5606 59.9986 55.4352 59.816 55.4352 59.816L55.2653 60.1387L55.0681 59.9966C54.8701 59.8548 54.8619 59.2898 54.8619 59.2898C54.8619 59.2898 54.7199 59.6593 54.545 59.6169C54.3701 59.5745 54.5506 58.7948 54.5506 58.7948C54.5506 58.7948 54.4261 58.9415 54.3886 58.9342C54.3511 58.9268 54.4861 58.5096 54.4861 58.5096C54.4172 58.5774 54.3307 58.6246 54.2363 58.6459C54.142 58.6671 54.0436 58.6616 53.9523 58.6299C53.6343 58.516 54.2541 57.4381 54.2541 57.4381C54.2541 57.4381 53.5642 57.833 53.2308 57.5904C52.8975 57.3478 54.275 56.1282 54.275 56.1282C54.275 56.1282 53.6152 56.1955 53.5956 55.9456C53.576 55.6956 53.8798 55.3495 54.286 55.0561C54.6923 54.7627 55.6981 54.5561 55.6981 54.5561L55.3548 54.3966C55.499 54.1056 56.1408 54.1816 56.1408 54.1816L55.943 53.8745C55.9614 53.7957 56.826 54.0264 56.826 54.0264C56.7267 53.8425 56.6384 53.6529 56.5615 53.4586C56.4835 53.2182 56.4264 52.9716 56.3909 52.7214L56.0735 52.8835C56.039 52.7637 56.0206 52.6398 56.019 52.5152C56.0081 52.2677 56.2163 51.9092 56.2163 51.9092L55.8582 52.0287L55.8806 51.7759C55.9025 51.5228 56.2036 51.3532 56.2036 51.3532L56.0546 51.3418C56.0612 51.224 56.2919 51.0089 56.2919 51.0089L56.0249 50.9863C56.032 50.6598 56.5023 50.1891 56.5023 50.1891C56.4243 50.1174 56.0969 50.1535 56.0969 50.1535C56.0969 50.1535 56.1083 50.0488 56.2368 49.8928C56.3652 49.7368 56.6942 49.6359 56.6942 49.6359L56.5327 49.5665C56.6149 49.479 56.7235 49.4209 56.8418 49.4009C56.9541 49.3842 57.0687 49.3955 57.1755 49.434C57.1755 49.434 57.3042 49.2775 57.3907 49.1445C57.4773 49.0114 57.7322 48.643 57.7322 48.643C57.7322 48.643 57.6638 48.5105 57.5558 48.1051C57.4479 47.6997 57.4523 46.9569 57.4523 46.9569C57.59 47.1029 57.7428 47.2339 57.9082 47.3476C58.0875 47.4707 58.2771 47.578 58.4749 47.6684L58.5282 47.6199C58.5282 47.6199 59.7085 46.846 60.1913 47.0453C60.674 47.2447 60.8838 47.9682 60.8838 47.9682C60.8838 47.9682 61.1386 47.9261 61.7686 48.0399C62.0885 48.098 63.0039 48.2578 63.7736 48.6661C64.5082 49.0546 65.0997 49.6878 65.3092 49.8833C65.7356 50.2818 65.6749 50.2985 65.6749 50.2985C65.6749 50.2985 66.4666 49.9273 66.9043 50.2652C67.3059 50.5754 67.3935 51.8111 67.4043 52.0548" fill="#6E543C"/>
<path d="M60.1699 54.1466C60.1699 54.1466 60.0407 55.0228 60.412 55.19C60.7834 55.3572 61.3719 54.7174 61.3719 54.7174C61.3719 54.7174 62.4962 53.7834 61.3045 53.2258C60.1127 52.6682 60.1699 54.1466 60.1699 54.1466Z" fill="#B2773A"/>
<path d="M53.8917 58.4997L54.3035 58.0755C54.3035 58.0755 54.0584 57.0493 55.0663 55.8013C56.0743 54.5532 58.1144 54.6983 58.1144 54.6983C58.1144 54.6983 57.9544 54.2066 56.5667 53.4564L56.5172 53.4418C56.5172 53.4418 55.5289 53.1785 55.508 53.2686L55.7345 53.6198C55.7345 53.6198 55.0004 53.5324 54.8346 53.867L55.2272 54.0491C55.2272 54.0491 54.0747 54.2834 53.6127 54.6215C53.1506 54.9597 52.8049 55.3487 52.8249 55.6356C52.8449 55.9225 53.6037 55.8456 53.6037 55.8456C53.6037 55.8456 52.0297 57.24 52.4122 57.5181C52.7947 57.7963 53.2239 57.6328 53.2239 57.6328C53.2239 57.6328 52.8767 58.5776 53.2374 58.7058C53.3418 58.742 53.4542 58.7483 53.562 58.724C53.6697 58.6997 53.7685 58.6457 53.8472 58.5682L53.8917 58.4997Z" fill="#5E4525"/>
<path d="M61.643 62.3408L61.7242 61.7527C61.7242 61.7527 62.7163 61.3397 63.0851 59.7749C63.4539 58.21 62.0294 56.6379 62.0294 56.6379C62.0294 56.6379 62.5273 56.4767 64.027 57.157L64.0746 57.1868C64.0746 57.1868 64.9222 57.8334 64.8627 57.9043L64.432 57.9298C64.432 57.9298 64.9732 58.4745 64.8081 58.8076L64.4083 58.597C64.4083 58.597 64.9564 59.6741 64.9776 60.2518C64.9989 60.8295 64.9022 61.3456 64.6537 61.4995C64.4053 61.6533 63.9839 60.9915 63.9839 60.9915C63.9839 60.9915 63.8586 63.1038 63.389 62.9597C62.9195 62.8156 62.6794 62.2929 62.6794 62.2929C62.6794 62.2929 62.2306 63.2148 61.8936 62.9972C61.7977 62.9365 61.7208 62.8501 61.6714 62.7479C61.6221 62.6457 61.6023 62.5317 61.6143 62.4189L61.643 62.3408Z" fill="#5E4525"/>
<path d="M59.0557 58.0245C58.5663 57.782 58.2853 57.3495 58.4082 57.041C58.4032 57.051 58.398 57.0616 58.3931 57.0716C58.2233 57.4142 58.4949 57.8945 58.9993 58.1445C59.5037 58.3945 60.051 58.3201 60.2208 57.9775C60.2258 57.9674 60.231 57.9569 60.236 57.9469C60.0599 58.229 59.545 58.2671 59.0557 58.0245Z" fill="#583F25"/>
<path d="M58.3737 56.5365C57.941 56.322 57.6929 55.9388 57.8012 55.6662C57.7961 55.6751 57.7915 55.6843 57.7875 55.6938C57.6386 55.9943 57.8776 56.421 58.3239 56.6422C58.7701 56.8634 59.2529 56.7969 59.4029 56.4944C59.4079 56.4855 59.4125 56.4763 59.4165 56.4668C59.2617 56.7164 58.806 56.7507 58.3737 56.5365Z" fill="#583F25"/>
<path d="M56.7468 56.9855C56.2858 56.8494 55.9676 56.5107 56.0165 56.2193C56.0121 56.2283 56.0076 56.2373 56.0071 56.2483C55.9245 56.5774 56.2424 56.9583 56.7182 57.0999C57.1939 57.2415 57.6464 57.0889 57.7295 56.7601C57.734 56.7511 57.7329 56.7393 57.7347 56.7296C57.6409 57.0069 57.2078 57.1229 56.7468 56.9855Z" fill="#583F25"/>
<path d="M60.635 57.6267C60.2208 57.3796 60.0067 56.9809 60.141 56.7199C60.1366 56.7289 60.1286 56.7362 60.1231 56.7447C59.9451 57.0308 60.1461 57.4712 60.5728 57.7257C60.9995 57.9802 61.4912 57.955 61.6697 57.6678C61.6747 57.6589 61.6793 57.6497 61.6833 57.6403C61.5091 57.8772 61.0506 57.8745 60.635 57.6267Z" fill="#583F25"/>
<path d="M61.1853 59.2378C60.7712 58.9908 60.5573 58.5915 60.6919 58.3313C60.6874 58.3403 60.6797 58.347 60.6739 58.3561C60.4954 58.642 60.6965 59.0823 61.1236 59.337C61.5508 59.5918 62.042 59.5663 62.2212 59.2789C62.2263 59.27 62.2309 59.2608 62.2349 59.2514C62.06 59.4885 61.5994 59.4849 61.1853 59.2378Z" fill="#583F25"/>
<path d="M59.6919 59.7956C59.2649 59.5708 59.0275 59.1824 59.1443 58.9139C59.1382 58.922 59.1325 58.9305 59.1274 58.9392C58.9694 59.2353 59.1962 59.6665 59.637 59.8988C60.0778 60.131 60.5632 60.0783 60.7227 59.7804C60.7276 59.7704 60.7318 59.7619 60.7363 59.7529C60.5764 59.9987 60.1187 60.0208 59.6919 59.7956Z" fill="#583F25"/>
<path d="M57.9472 60.1404C57.5063 59.9449 57.2395 59.5719 57.3337 59.2935C57.3284 59.3023 57.3239 59.3115 57.3201 59.3211C57.1867 59.6293 57.4466 60.0464 57.9019 60.2483C58.3571 60.4502 58.8335 60.3626 58.9677 60.0516C58.9722 60.0426 58.9767 60.0335 58.9781 60.023C58.84 60.2815 58.3884 60.3366 57.9472 60.1404Z" fill="#583F25"/>
<path d="M57.3426 58.5898C56.8863 58.4354 56.5818 58.0879 56.646 57.7972C56.6407 57.806 56.6361 57.8152 56.6324 57.8247C56.5335 58.1501 56.8354 58.5406 57.3055 58.7012C57.7755 58.8618 58.2381 58.7267 58.337 58.4013C58.3414 58.3923 58.3414 58.381 58.3439 58.371C58.2371 58.6482 57.7981 58.7457 57.3426 58.5898Z" fill="#583F25"/>
<path d="M57.1498 60.6296C57.0431 60.5767 56.9087 60.6125 56.7905 60.7111C56.7975 60.5573 56.7436 60.4283 56.6379 60.3759C56.5322 60.3235 56.3968 60.3587 56.2781 60.4572C56.2856 60.3036 56.2311 60.1743 56.126 60.1222C55.9547 60.0373 55.7116 60.1801 55.5818 60.4421C55.452 60.7041 55.4854 60.984 55.6567 61.0689C55.7629 61.1215 55.8978 61.086 56.0155 60.9871C56.009 61.1411 56.0625 61.2699 56.1687 61.3226C56.2748 61.3752 56.4097 61.3397 56.5279 61.2411C56.5209 61.3948 56.5749 61.5239 56.6806 61.5763C56.8514 61.661 57.0946 61.5176 57.2242 61.2561C57.3538 60.9947 57.3226 60.7153 57.1498 60.6296Z" fill="#B2773A"/>
<path d="M59.0087 61.5512C58.9025 61.4986 58.7676 61.5341 58.6494 61.6328C58.6564 61.479 58.6024 61.3499 58.4967 61.2975C58.3911 61.2451 58.2557 61.2804 58.1375 61.379C58.1445 61.2253 58.0905 61.0962 57.9848 61.0438C57.814 60.9591 57.571 61.102 57.4412 61.364C57.3113 61.6259 57.3448 61.9058 57.5156 61.9905C57.6218 62.0431 57.7567 62.0076 57.8749 61.909C57.8679 62.0628 57.9218 62.1918 58.0275 62.2442C58.1332 62.2966 58.2686 62.2614 58.3868 62.1627C58.3798 62.3165 58.4338 62.4455 58.5394 62.4979C58.7102 62.5826 58.9535 62.4392 59.0831 62.1778C59.2127 61.9163 59.1795 61.6359 59.0087 61.5512Z" fill="#B2773A"/>
<path d="M57.9744 49.3229C57.9744 49.3229 58.0459 49.0526 57.8321 48.8961C57.6183 48.7396 57.3619 46.7794 57.4498 46.9596C57.5377 47.1398 58.6433 47.7795 58.6433 47.7795C58.6433 47.7795 58.6648 47.8027 60.5432 48.9551C62.405 50.0982 62.0674 51.7009 62.0674 51.7009L62.113 51.6743C62.113 51.6743 63.2064 50.4011 65.2645 51.2727C67.3227 52.1443 67.3965 52.0985 67.3965 52.0985C67.3965 52.0985 68.6541 52.6227 68.8518 52.589C69.0494 52.5553 67.2679 53.4886 67.0106 53.4085C66.7533 53.3284 66.4656 53.5626 66.4656 53.5626L61.4848 52.841L58.0226 49.325" fill="#674F36"/>
<path d="M61.5694 52.8078C60.8929 54.1728 59.3009 54.7614 58.0136 54.1233C56.7264 53.4853 56.2312 51.8622 56.9077 50.4973C57.5842 49.1324 59.1767 48.5428 60.4635 49.1805C61.7502 49.8183 62.2462 51.4424 61.5694 52.8078Z" fill="#B18D6D"/>
<path d="M61.3871 52.5776C60.9551 53.4492 59.8788 53.7954 58.9827 53.3513C58.0866 52.9072 57.7103 51.8409 58.1423 50.9694C58.5743 50.0978 59.6501 49.7526 60.5462 50.1967C61.4423 50.6408 61.8186 51.7071 61.3871 52.5776Z" fill="white"/>
<path d="M61.2024 52.4948C60.8631 53.1795 60.0177 53.4512 59.314 53.1024C58.6102 52.7536 58.314 51.9161 58.6534 51.2314C58.9928 50.5467 59.8386 50.2752 60.5423 50.624C61.2461 50.9728 61.5415 51.8106 61.2024 52.4948Z" fill="#674F36"/>
<path d="M59.9108 51.2287C59.8907 51.2694 59.859 51.3033 59.8198 51.3259C59.7805 51.3486 59.7354 51.3592 59.6901 51.3562C59.6449 51.3532 59.6015 51.3369 59.5655 51.3092C59.5296 51.2816 59.5026 51.2439 59.488 51.201C59.4735 51.158 59.472 51.1117 59.4838 51.0679C59.4956 51.0241 59.5201 50.9848 59.5543 50.9549C59.5884 50.9251 59.6306 50.906 59.6756 50.9002C59.7206 50.8943 59.7663 50.902 59.8069 50.9221C59.8613 50.9491 59.9028 50.9965 59.9222 51.054C59.9417 51.1114 59.9376 51.1743 59.9108 51.2287Z" fill="white"/>
<path d="M61.5014 52.7746C60.8249 54.1396 61.3206 55.7629 62.6079 56.4009C63.8952 57.0389 65.4867 56.4501 66.1632 55.0852C66.8397 53.7202 66.345 52.0962 65.0577 51.4581C63.7704 50.8201 62.1782 51.4092 61.5014 52.7746Z" fill="#B18D6D"/>
<path d="M61.7966 52.7799C61.3646 53.6515 61.7414 54.718 62.637 55.1618C63.5326 55.6057 64.6094 55.2597 65.0414 54.3881C65.4733 53.5166 65.0966 52.4514 64.2005 52.0072C63.3044 51.5631 62.2281 51.9094 61.7966 52.7799Z" fill="white"/>
<path d="M61.9717 52.8759C61.6324 53.5606 61.9281 54.3979 62.6318 54.7467C63.3356 55.0955 64.1814 54.824 64.5208 54.1393C64.8601 53.4546 64.5645 52.6173 63.8602 52.2683C63.156 51.9192 62.3109 52.1917 61.9717 52.8759Z" fill="#674F36"/>
<path d="M63.7637 53.1385C63.7435 53.179 63.7357 53.2247 63.7414 53.2697C63.7472 53.3147 63.7661 53.357 63.7959 53.3912C63.8257 53.4254 63.8649 53.45 63.9087 53.4619C63.9525 53.4738 63.9988 53.4725 64.0418 53.458C64.0848 53.4436 64.1225 53.4167 64.1502 53.3808C64.178 53.3449 64.1944 53.3016 64.1975 53.2563C64.2006 53.2111 64.1902 53.1659 64.1676 53.1266C64.145 53.0873 64.1112 53.0555 64.0706 53.0354C64.0162 53.0084 63.9534 53.0041 63.8958 53.0235C63.8383 53.0428 63.7908 53.0841 63.7637 53.1385Z" fill="white"/>
<path d="M67.166 51.8496L67.1676 51.8829L67.166 51.8496Z" fill="#6E543C"/>
<path d="M67.7462 49.3593C67.7462 49.3593 69.1871 49.6597 67.5302 51.4316L67.4283 51.3112C67.4283 51.3112 68.6523 50.0211 67.9076 49.6202" fill="#DA9633"/>
<path d="M67.7453 49.3593C67.8129 49.3695 67.8793 49.3865 67.9435 49.4101C67.9992 49.4316 68.0521 49.4595 68.1013 49.4933C68.1521 49.5272 68.1978 49.5681 68.237 49.6149C68.3145 49.7076 68.3626 49.8214 68.3751 49.9416C68.3813 49.9984 68.3811 50.0557 68.3747 50.1124C68.3608 50.221 68.3295 50.3266 68.2821 50.4252C68.236 50.5212 68.183 50.6135 68.1233 50.7016C68.0661 50.7893 68.0054 50.8752 67.9439 50.9602C67.8195 51.1294 67.6923 51.2966 67.5576 51.4551L67.5315 51.4864L67.4986 51.4508L67.3932 51.3361L67.3679 51.308L67.392 51.2806C67.4446 51.22 67.4966 51.1578 67.5466 51.0946C67.5967 51.0314 67.6457 50.9665 67.692 50.9008C67.7382 50.8352 67.7843 50.7688 67.8273 50.7008C67.8703 50.6329 67.9123 50.5645 67.9498 50.4939C68.03 50.3562 68.0839 50.2048 68.1087 50.0473C68.1191 49.9676 68.1078 49.8865 68.0759 49.8127C68.0583 49.7734 68.0338 49.7376 68.0035 49.7069C67.9731 49.6752 67.9391 49.647 67.9022 49.623L67.9002 49.6083C67.9447 49.6291 67.9863 49.6556 68.024 49.6871C68.0601 49.7178 68.091 49.7541 68.1154 49.7948C68.1387 49.8352 68.156 49.8789 68.1666 49.9244C68.1762 49.9676 68.1809 50.0118 68.1805 50.0561C68.1778 50.1425 68.1633 50.228 68.1374 50.3105C68.1121 50.3906 68.0807 50.4687 68.0435 50.5441C68.0069 50.6187 67.9664 50.6913 67.922 50.7615C67.877 50.8309 67.8307 50.8991 67.7802 50.9645C67.7297 51.03 67.6791 51.0941 67.6256 51.1568C67.5721 51.2195 67.517 51.2802 67.4587 51.3399L67.4583 51.2842L67.555 51.4063L67.4952 51.401C67.57 51.3283 67.6439 51.2545 67.7149 51.178C67.7498 51.1391 67.7854 51.1013 67.8188 51.0604C67.8521 51.0195 67.8842 50.9799 67.9156 50.9381C67.947 50.8962 67.9758 50.8531 68.0049 50.8095C68.034 50.7659 68.0593 50.721 68.0839 50.6752C68.1331 50.5837 68.1747 50.4883 68.2084 50.39C68.2253 50.3409 68.2396 50.2919 68.2524 50.2421C68.2646 50.1926 68.2739 50.1424 68.2802 50.0917C68.2864 50.041 68.2876 49.9897 68.2836 49.9387C68.2793 49.8878 68.2685 49.8376 68.2516 49.7893C68.2336 49.74 68.2088 49.6935 68.1779 49.6511C68.1455 49.6072 68.1077 49.5675 68.0654 49.533C68.0219 49.4969 67.9749 49.4653 67.9251 49.4385C67.8758 49.4117 67.8244 49.3892 67.7714 49.371L67.7453 49.3593Z" fill="#996633"/>
<path d="M67.1792 51.4633C66.5705 52.0495 65.7068 52.5798 65.7068 52.5798L66.0905 52.4842L66.0225 52.5584L65.9433 52.6552L65.8157 52.8309L66.1457 52.6763L66.0232 52.9007C66.0232 52.9007 66.3428 52.7003 66.3831 52.6604L66.1667 52.9712C66.1667 52.9712 66.6475 52.8433 67.4839 51.6668" fill="#B87A32"/>
<path d="M65.7078 52.9209L65.9151 52.6362L65.9883 52.5476L65.5002 52.6664L65.6865 52.5522C65.6955 52.5467 66.5544 52.0171 67.1549 51.44L67.2049 51.4891C66.7641 51.9127 66.1857 52.3104 65.9008 52.4975L66.1941 52.4244L66.0494 52.5829L65.971 52.6782L65.924 52.7429L66.2277 52.6008L66.1204 52.7972C66.2292 52.7263 66.3384 52.6557 66.3596 52.6344L66.4132 52.6784L66.2722 52.8849C66.4591 52.7785 66.872 52.4728 67.4597 51.646L67.5168 51.6868C66.6859 52.8597 66.2031 52.9967 66.1829 53.0022L66.0897 53.0266L66.2464 52.7985C66.1556 52.8558 66.0633 52.9162 66.0454 52.9272L65.9284 53.0034L66.064 52.7549L65.7078 52.9209Z" fill="#996633"/>
<path d="M67.1077 51.4844C67.1077 51.4844 67.3798 51.1532 67.5501 51.3623C67.6942 51.5411 67.4083 51.7969 67.4083 51.7969C67.4083 51.7969 67.1446 51.6013 67.1077 51.4844Z" fill="#DA9633"/>
<path d="M67.1013 51.4792C67.1079 51.4578 67.1169 51.4371 67.128 51.4176C67.1384 51.3978 67.1504 51.379 67.1641 51.3613C67.1919 51.3244 67.2257 51.2924 67.264 51.2667C67.2855 51.2525 67.3087 51.2411 67.3332 51.2329C67.3614 51.2233 67.3913 51.219 67.4211 51.2204C67.4555 51.2226 67.4889 51.2327 67.5187 51.25C67.547 51.2666 67.5717 51.2886 67.5914 51.3148L67.5977 51.3235L67.6022 51.3257L67.6047 51.327L67.6077 51.3285L67.6128 51.3359L67.6178 51.3447L67.6299 51.3681L67.6377 51.3901C67.6464 51.4176 67.6486 51.4466 67.6443 51.4751C67.6349 51.5223 67.615 51.5668 67.586 51.6053C67.5606 51.6414 67.536 51.676 67.5131 51.7121C67.5011 51.7299 67.4905 51.7489 67.4798 51.7679C67.4691 51.787 67.4602 51.8075 67.4447 51.8261L67.4283 51.8491L67.3827 51.8265C67.3656 51.8192 67.3488 51.8109 67.3326 51.8017C67.3166 51.7917 67.3012 51.7807 67.2865 51.7689C67.2575 51.7443 67.2302 51.7176 67.205 51.6891C67.1795 51.6596 67.1571 51.6276 67.1382 51.5936C67.1285 51.5762 67.1204 51.558 67.114 51.5392C67.1071 51.5206 67.104 51.5008 67.1048 51.481L67.1013 51.4792ZM67.1163 51.4867C67.1278 51.4986 67.1391 51.5099 67.1514 51.5203C67.1637 51.5308 67.179 51.5427 67.193 51.5534L67.276 51.6176C67.3038 51.6395 67.3316 51.6614 67.3585 51.6841C67.3852 51.7077 67.4104 51.7331 67.4337 51.7601L67.3712 51.7603C67.3894 51.7511 67.4069 51.7406 67.4236 51.7289C67.441 51.7178 67.4571 51.7049 67.4715 51.6902C67.4993 51.6605 67.5196 51.6246 67.5309 51.5855C67.5416 51.5486 67.5429 51.5095 67.5347 51.472C67.5312 51.4568 67.5257 51.4421 67.5183 51.4283L67.5171 51.4183L67.5123 51.4115L67.5073 51.4091L67.5018 51.4026L67.4982 51.4008L67.5013 51.4023L67.4957 51.3996C67.486 51.39 67.4744 51.3825 67.4617 51.3777C67.4514 51.3735 67.4405 51.3708 67.4294 51.3698C67.3978 51.3695 67.3664 51.3752 67.3369 51.3864C67.3001 51.4003 67.2642 51.4165 67.2294 51.4348L67.1732 51.4637L67.1163 51.4867Z" fill="#996633"/>
<path d="M67.4927 51.2389C67.5071 51.2289 67.5223 51.2201 67.5382 51.2128C67.5707 51.1976 67.6044 51.1851 67.639 51.1754C67.6765 51.1653 67.7137 51.1569 67.7429 51.1508C67.7569 51.1477 67.7694 51.1452 67.7784 51.1422L67.7932 51.1389C67.7932 51.1389 67.7907 51.1439 67.7867 51.1519C67.7848 51.1574 67.7823 51.1626 67.779 51.1674C67.7748 51.1732 67.7701 51.1786 67.7648 51.1835C67.7515 51.1957 67.7367 51.2062 67.7207 51.2146C67.7024 51.2239 67.6832 51.2313 67.6635 51.2368C67.6264 51.2477 67.5876 51.2518 67.549 51.2487C67.5299 51.2477 67.511 51.2444 67.4927 51.2389Z" fill="#996633"/>
<path d="M67.6668 51.0001C67.6809 50.9903 67.696 50.9819 67.7117 50.975C67.7444 50.9594 67.7784 50.9468 67.8134 50.9374C67.8503 50.927 67.8855 50.9176 67.9165 50.913C67.9308 50.9095 67.9438 50.9072 67.9525 50.9046L67.967 50.9006C67.9652 50.9053 67.9629 50.9098 67.9603 50.9141C67.9585 50.9194 67.956 50.9245 67.9528 50.9291C67.9489 50.9351 67.9441 50.9405 67.9386 50.9452C67.9252 50.9573 67.9104 50.9678 67.8945 50.9763C67.8766 50.986 67.8575 50.9936 67.8378 50.9988C67.8006 51.0092 67.7619 51.0132 67.7234 51.0107C67.7041 51.0097 67.6851 51.0061 67.6668 51.0001Z" fill="#996633"/>
<path d="M67.8463 50.7331C67.8605 50.7231 67.8755 50.7142 67.8912 50.7067C67.924 50.6918 67.9579 50.6794 67.9925 50.6695C68.03 50.6594 68.0672 50.651 68.0962 50.6454C68.1104 50.6419 68.1234 50.6396 68.1317 50.6368L68.1467 50.633C68.1467 50.633 68.1442 50.638 68.14 50.6465C68.1382 50.6518 68.1357 50.6569 68.1325 50.6616C68.128 50.6674 68.123 50.6729 68.1176 50.6779C68.1047 50.6902 68.0901 50.7006 68.0742 50.7088C68.0562 50.7183 68.0372 50.7258 68.0175 50.7312C67.9801 50.7417 67.9411 50.7458 67.9023 50.7434C67.8833 50.7421 67.8645 50.7387 67.8463 50.7331Z" fill="#996633"/>
<path d="M68.0407 50.4752L68.027 50.4123C68.0747 50.4066 68.2119 50.3791 68.2642 50.3277L68.3021 50.3771C68.2308 50.4422 68.1372 50.4773 68.0407 50.4752Z" fill="#996633"/>
<path d="M68.138 50.2056L68.1418 50.1451C68.2002 50.1531 68.2595 50.1376 68.3066 50.102L68.3553 50.1486C68.325 50.1726 68.29 50.1901 68.2526 50.1999C68.2152 50.2097 68.1762 50.2117 68.138 50.2056Z" fill="#996633"/>
<path d="M68.1208 49.9522L68.1074 49.9038C68.1539 49.8956 68.2843 49.8667 68.3284 49.8217L68.356 49.8617C68.2925 49.9231 68.1263 49.95 68.1208 49.9522Z" fill="#996633"/>
<path d="M68.0942 49.7802L68.0645 49.7218C68.1112 49.6917 68.1484 49.6489 68.1718 49.5984L68.2319 49.6282C68.2027 49.6918 68.1546 49.7449 68.0942 49.7802Z" fill="#996633"/>
<path d="M67.9382 49.6465C67.9532 49.5803 67.9515 49.5115 67.9333 49.4462L67.9947 49.4318C68.0177 49.5082 68.0204 49.5894 68.0028 49.6672L67.9382 49.6465Z" fill="#996633"/>
<path d="M67.2708 51.6749L67.2271 51.7101C67.1997 51.7327 67.1598 51.764 67.1115 51.8012C67.0631 51.8384 67.0087 51.8826 66.9464 51.9278C66.884 51.973 66.8192 52.0207 66.7521 52.068C66.7182 52.0911 66.6848 52.1145 66.6521 52.1376C66.6194 52.1607 66.5865 52.1831 66.5563 52.2049L66.381 52.3183C66.2754 52.3802 66.2063 52.4189 66.2063 52.4189C66.2063 52.4189 66.2714 52.3707 66.3692 52.2993L66.5295 52.1685C66.5581 52.1447 66.5873 52.1186 66.6175 52.093C66.6476 52.0674 66.6778 52.0405 66.7087 52.0134C66.7675 51.9589 66.8276 51.9057 66.8824 51.8543C66.9372 51.8028 66.988 51.7544 67.0309 51.712C67.0737 51.6696 67.1096 51.635 67.134 51.6096L67.1727 51.5707L67.2708 51.6749Z" fill="#996633"/>
<path d="M67.3416 51.7759L67.3129 51.8047C67.295 51.8233 67.2686 51.8489 67.2369 51.8787C67.2053 51.9086 67.1669 51.9432 67.1248 51.9791C67.0826 52.015 67.0413 52.0569 66.9979 52.0916C66.975 52.1093 66.9523 52.1274 66.9298 52.1458C66.9071 52.1639 66.8844 52.1807 66.8628 52.1968C66.8176 52.2287 66.7777 52.2601 66.7411 52.2837L66.6183 52.3639C66.6183 52.3639 66.6647 52.3245 66.7273 52.27C66.7612 52.2432 66.7973 52.2068 66.8384 52.1716C66.8583 52.1528 66.8793 52.1345 66.899 52.1137C66.9186 52.0929 66.9403 52.0718 66.9595 52.0532C67.0014 52.0116 67.0387 51.9677 67.0753 51.9303C67.112 51.8929 67.1441 51.8521 67.1714 51.8195C67.1988 51.7869 67.2215 51.7588 67.2367 51.7395C67.2519 51.7202 67.2613 51.7086 67.2613 51.7086L67.3416 51.7759Z" fill="#996633"/>
</g>
<path d="M49.3086 26.3989C48.7223 26.2484 48.1144 26.1237 47.5266 25.9359C46.5231 25.6133 45.5511 25.3624 44.4443 25.5502C43.6071 25.6936 42.8588 25.9173 42.1635 26.3688C41.0774 27.0606 40.2683 28.1112 39.8768 29.3379C39.4955 30.4991 39.16 31.6747 38.8131 32.8474C38.6281 33.4767 38.4991 34.1219 38.3084 34.7484C37.9816 35.815 37.6146 36.8672 37.2877 37.9339C37.0861 38.5543 36.9177 39.185 36.7831 39.8234C36.6655 40.4212 36.4318 40.6033 35.8756 40.4069C35.7449 40.3486 35.6077 40.3063 35.467 40.2807C34.0334 40.1273 32.584 40.0169 31.1504 39.8262C29.8415 39.6528 28.5455 39.3962 27.2423 39.1782C27.0775 39.151 26.9126 39.1281 26.7463 39.1109C25.3557 38.9675 23.9636 38.8327 22.573 38.6808C21.7802 38.5933 20.9502 37.7331 20.6233 36.9604C20.3366 36.2909 20.3939 35.7289 20.576 35.0508C20.8168 34.1448 20.8555 33.1871 20.9659 32.2453C21.1265 30.9019 21.2527 29.5558 21.4304 28.2153C21.6268 26.7688 21.8691 25.3295 22.0913 23.8872C22.1057 23.7926 22.1243 23.698 22.1343 23.6005C22.2863 22.1139 22.4039 20.6243 22.5988 19.1434C22.768 17.8646 23.0289 16.5973 23.2411 15.3242C23.264 15.1809 23.2812 15.0375 23.2956 14.8941C23.4389 13.4333 23.5637 11.9681 23.7457 10.5116C23.9923 8.54033 24.2862 6.5777 24.5615 4.61078C24.669 3.83805 24.8009 3.06963 24.8826 2.29548C24.9872 1.29194 26.1929 -0.0542249 27.1878 0.00168628C28.6975 0.081969 30.1985 0.34719 31.6995 0.540729C31.8127 0.555065 31.9202 0.636783 32.0335 0.649686C33.447 0.807384 34.8635 0.926372 36.2713 1.11704C37.6518 1.30341 39.021 1.56147 40.3958 1.78655C40.4431 1.79515 40.4904 1.80088 40.5392 1.80518C42.0187 1.96432 43.5025 2.09191 44.9834 2.28831C46.2923 2.46178 47.5897 2.7184 48.8943 2.91911C49.1795 2.95808 49.4667 2.98105 49.7545 2.98792C51.0089 3.03953 52.1916 4.16206 52.0927 5.41074C51.9723 7.01066 51.6884 8.59625 51.4734 10.1876C51.4633 10.2592 51.4433 10.3309 51.4347 10.3997C51.2741 11.9265 51.148 13.4577 50.9429 14.9787C50.7709 16.2876 50.5129 17.5865 50.2964 18.8896C50.2892 18.9355 50.282 18.9828 50.2777 19.033C50.1186 20.5383 49.981 22.0436 49.7932 23.5475C49.6685 24.4851 49.4778 25.4083 49.3086 26.3989ZM36.6928 27.2591L36.7859 27.0369C36.0304 26.1151 36.5537 25.242 36.9293 24.4564C37.5271 23.2091 38.6496 22.4637 39.818 21.7583C41.2273 20.8981 42.6294 20.0537 43.7777 18.8051C44.6766 17.8273 45.164 16.6862 45.5411 15.4977C45.7913 14.6549 45.8884 13.7741 45.8278 12.8971C45.7862 12.1803 45.4679 11.4635 45.2357 10.7596C44.7712 9.34173 43.7419 8.34966 42.5118 7.65149C41.5241 7.09094 40.4015 6.72394 39.2962 6.42287C38.1493 6.10748 36.9522 5.83939 35.7681 5.79638C34.5823 5.77678 33.3986 5.90439 32.2442 6.17629C30.4981 6.5562 30.3805 6.79131 30.2759 8.62061C30.2559 8.88118 30.2196 9.14023 30.1669 9.3962C29.9719 10.4413 29.7712 11.485 29.5548 12.6233C29.7934 12.598 30.0291 12.55 30.2587 12.4799C30.7389 12.2806 31.1876 11.9925 31.6794 11.8348C32.2944 11.637 32.9696 11.6054 33.566 11.3775C35.1272 10.7854 36.5766 11.1209 37.9644 11.8491C39.0482 12.414 39.5012 14.5214 38.9364 15.611C38.3715 16.7005 37.4669 17.3686 36.5207 17.9893C34.7545 19.1448 33.0141 20.2831 31.989 22.2357C31.4414 23.2808 31.3081 24.3775 31.3224 25.5173C31.3339 26.4921 31.8744 26.7158 32.6671 26.7875C33.3424 26.8477 34.0076 27.0211 34.6814 27.1014C35.3552 27.1817 36.0175 27.2132 36.6885 27.2634L36.6928 27.2591ZM33.3338 29.0884C31.9647 28.9995 31.5532 29.292 30.8049 29.9056C29.4644 31.0037 29.42 32.6667 30.2314 34.0631C30.7848 35.0207 31.6765 35.3992 32.703 35.716C34.1208 36.1461 35.2333 35.6888 36.234 34.8172C37.054 34.1004 37.5243 32.2366 37.1185 31.4883C36.2885 30.0002 35.1459 28.9565 33.3295 29.0927L33.3338 29.0884Z" fill="#EDBD58"/>
<path d="M31.1744 67.059C30.2425 67.3027 29.2318 67.5694 28.2211 67.8318C27.6362 67.9751 27.0499 68.1185 26.4649 68.2762C25.5374 68.517 24.617 68.7851 23.6837 68.993C22.9569 69.1579 22.2171 69.3313 21.4774 69.3614C20.5025 69.403 19.8631 68.7722 19.542 67.9278C19.1836 66.996 18.9829 66.0053 18.7033 65.0434C18.3592 63.8621 17.9865 62.6879 17.6611 61.5038C17.4905 60.8916 17.3973 60.2594 17.231 59.64C17.026 58.8602 16.7837 58.0889 16.5629 57.3118C16.4196 56.7943 16.2604 56.2796 16.1328 55.7564C15.9622 55.031 15.8275 54.2984 15.6569 53.573C15.5135 52.9809 15.3472 52.3974 15.1924 51.8096C14.9659 50.9494 14.7422 50.1036 14.5157 49.252C14.3723 48.7345 14.2433 48.217 14.0957 47.7023C13.753 46.5196 13.3788 45.3454 13.0663 44.1555C12.7538 42.9656 12.5258 41.7341 12.2061 40.5371C11.8979 39.3902 11.4807 38.2748 11.1825 37.1265C10.9222 36.2082 10.7461 35.2682 10.6564 34.318C10.5575 32.893 11.1983 32.1217 12.6033 31.7461C14.0598 31.3547 15.5221 30.9848 16.9758 30.582C17.2984 30.4931 17.5937 30.3082 18.1227 30.0645C17.9937 31.1999 17.9034 32.126 17.7815 33.0478C17.4833 35.3144 17.0546 37.591 18.7262 39.5737C19.8316 40.884 21.2752 41.5076 22.9368 41.694C24.445 41.8617 25.9574 41.9907 27.4642 42.1757C29.2466 42.3945 31.0262 42.6368 32.803 42.9025C33.7105 43.0359 34.6108 43.228 35.663 43.4215C35.4824 44.0752 35.2846 44.7992 35.081 45.5218C34.8774 46.2443 34.6667 46.9683 34.4559 47.6908C34.2925 48.2514 34.1219 48.809 33.9556 49.3682C33.7391 50.0979 33.5255 50.8276 33.3076 51.5587C33.1642 52.0505 33.0367 52.5479 32.8775 53.0368C32.4145 54.4933 31.9098 55.937 31.4783 57.4036C31.0267 58.9419 30.6181 60.4959 30.2354 62.0528C30.0791 62.6836 29.8339 63.3832 29.9701 63.9725C30.2196 64.9889 30.7214 65.9293 31.1744 67.059Z" fill="#EDBD58"/>
<g filter="url(#filter1_d_556_541)">
<path d="M19.2198 45.2318C19.2346 45.2771 20.1751 45.437 20.2158 45.4572C20.3483 45.5176 21.1113 44.8133 21.1113 44.8133L20.4567 43.6341L19.6984 43.8823L19.4452 44.6954L19.2198 45.2318Z" fill="#373737"/>
<path d="M27.0254 43.0266C27.0254 43.0266 26.5662 43.3894 26.4753 43.4101C26.3843 43.4308 25.4055 43.3788 25.4055 43.3788L25.3256 42.205L26.1047 42.0327L26.7355 42.6032L27.0254 43.0266Z" fill="#373737"/>
<path d="M26.1921 43.5117C26.1921 43.5117 24.7786 43.0931 23.1618 43.5716C21.6236 44.0249 20.537 45.3438 20.526 45.3439C19.7678 45.3719 18.8991 45.3209 18.6226 45.0275C18.5702 44.9714 18.3563 44.7973 18.502 44.6589C18.502 44.6589 20.6696 42.7502 22.126 41.3544C22.232 41.2525 22.621 41.1147 22.7786 41.1338C22.9362 41.1529 26.0972 41.6256 27.4175 41.7945C27.5621 41.8134 27.4881 42.0897 27.243 42.4115C26.998 42.7333 26.9786 42.8088 26.5197 43.2306L26.1921 43.5117Z" fill="#373737"/>
<path d="M23.6413 43.1796C23.6413 43.1796 22.4283 43.8106 23.205 43.5449C24.7214 43.0251 26.3192 43.5011 26.3288 43.495C26.9667 43.0812 27.6986 42.5255 27.7558 42.1258C27.7666 42.0501 27.8447 41.7925 27.6449 41.7611C27.6304 41.7659 24.7469 41.3983 22.7541 41.1347C22.6079 41.1154 22.2335 41.2409 22.1247 41.3557C22.0159 41.4705 21.6404 43.8198 22.9304 43.4979C25.2067 42.9349 22.7535 43.2315 23.1388 43.3535C23.5241 43.4755 22.893 43.1508 23.511 43.2317L23.6413 43.1796Z" fill="#373737"/>
<path d="M20.8311 43.7438C20.8122 43.761 20.6997 43.866 20.7102 43.8891C20.7856 44.0489 21.1737 44.6115 21.2729 45.4552C21.3395 46.0173 21.7483 46.1146 23.8414 45.4713C24.494 45.2707 25.545 44.8922 25.8125 44.4172C25.9373 44.1965 25.6501 43.9606 25.412 43.3955C25.1569 42.7903 25.2169 42.3396 25.1187 42.3552C25.0978 42.3586 22.9131 41.872 20.8311 43.7438Z" fill="#47474A"/>
<path d="M20.9607 44.5729C20.9607 44.5729 21.3967 45.2086 21.5117 46.1864C21.5782 46.7481 21.987 46.8454 24.0801 46.202C24.7327 46.0015 25.7837 45.623 26.0514 45.1484C26.1761 44.9277 25.8888 44.6914 25.6509 44.1267C25.5057 43.7952 25.4071 43.4453 25.3577 43.0869C25.3517 43.0668 23.0524 42.6664 20.9607 44.5729Z" fill="#DA9633"/>
<path d="M32.081 52.9426L21.7345 57.1765L21.7632 47.5658L26.4954 46.0242L32.081 52.9426Z" fill="#B6394A"/>
<path d="M32.0183 54.5198C31.8528 54.0029 31.8716 53.4448 32.0712 52.9402L22.7974 55.9749C21.9825 56.2416 21.5245 57.0691 21.7719 57.8252C22.0194 58.5813 22.8793 58.9775 23.6929 58.7113L32.9006 55.6981C32.4875 55.4103 32.1781 54.9972 32.0183 54.5198Z" fill="#B6394A"/>
<path d="M32.0174 54.5185C31.913 54.1968 31.8812 53.8559 31.9244 53.5204L22.3359 56.6582L22.9207 58.4451L32.4775 55.3178C32.2712 55.0855 32.1146 54.8135 32.0174 54.5185Z" fill="white"/>
<path d="M31.9074 53.8308L22.4258 56.9336L22.4314 56.9508L31.9076 53.8498L31.9074 53.8308Z" fill="#939498"/>
<path d="M31.9119 53.9528L22.4629 57.0449L22.4687 57.0626L31.9127 53.9721C31.9126 53.9656 31.912 53.9593 31.9119 53.9528Z" fill="#939498"/>
<path d="M31.9223 54.0729L22.5 57.1562L22.5052 57.1721L31.9243 54.0898C31.9241 54.0843 31.9232 54.0786 31.9223 54.0729Z" fill="#939498"/>
<path d="M31.9395 54.1927L22.5371 57.2695L22.5429 57.2872L31.943 54.2111C31.942 54.2049 31.9405 54.1989 31.9395 54.1927Z" fill="#939498"/>
<path d="M31.9633 54.3077L22.5723 57.3809L22.5782 57.399L31.9652 54.3271C31.9636 54.3207 31.9621 54.3146 31.9633 54.3077Z" fill="#939498"/>
<path d="M31.992 54.4244L22.6113 57.4941L22.6171 57.5118L31.9973 54.4422C31.9954 54.4363 31.9935 54.4304 31.992 54.4244Z" fill="#939498"/>
<path d="M32.0268 54.5365L22.6484 57.6055L22.655 57.6254L32.0338 54.5562C32.0311 54.5481 32.0289 54.5428 32.0268 54.5365Z" fill="#939498"/>
<path d="M32.0676 54.6486L22.6855 57.7188L22.6912 57.736L32.0745 54.6653C32.0726 54.6594 32.0698 54.6538 32.0676 54.6486Z" fill="#939498"/>
<path d="M32.1118 54.7569L22.7207 57.8301L22.7263 57.8473L32.121 54.7729C32.1175 54.7679 32.1144 54.7625 32.1118 54.7569Z" fill="#939498"/>
<path d="M32.1652 54.8649L22.7578 57.9434L22.7636 57.961L32.1746 54.8813C32.1714 54.8764 32.1688 54.8712 32.1652 54.8649Z" fill="#939498"/>
<path d="M32.2245 54.9709L22.7949 58.0566L22.8007 58.0743L32.2343 54.9872C32.2313 54.9816 32.228 54.9762 32.2245 54.9709Z" fill="#939498"/>
<path d="M32.2882 55.0748L22.8301 58.1699L22.8357 58.1871L32.2979 55.0907C32.2949 55.0847 32.2914 55.0788 32.2882 55.0748Z" fill="#939498"/>
<path d="M32.3601 55.1748L22.8672 58.2812L22.8727 58.298L32.371 55.1897C32.3673 55.1844 32.3633 55.1797 32.3601 55.1748Z" fill="#939498"/>
<path d="M31.9104 53.7135L22.3926 56.8281L22.3982 56.8453L31.9092 53.7329C31.9096 53.7263 31.9095 53.7198 31.9104 53.7135Z" fill="#939498"/>
<path d="M21.918 45.7374C21.918 45.7374 21.6069 45.7746 21.777 45.5685C21.9472 45.3625 22.822 44.8822 23.7791 44.5951C24.7362 44.308 26.2912 43.944 25.7543 44.5242" fill="#47474A"/>
<path d="M21.9189 45.737C21.9003 45.7411 21.8814 45.7437 21.8624 45.745C21.8394 45.7468 21.8163 45.7461 21.7935 45.743C21.778 45.7416 21.7628 45.7376 21.7486 45.7311C21.7397 45.7272 21.7317 45.7216 21.725 45.7146C21.7183 45.7076 21.7131 45.6993 21.7096 45.6902C21.7031 45.67 21.7035 45.6482 21.7109 45.6282C21.7174 45.6075 21.7264 45.5877 21.7377 45.5693L21.7467 45.5553L21.7511 45.5489L21.7574 45.5408L21.7781 45.5165C21.7935 45.4986 21.8101 45.4818 21.8277 45.4661C21.9092 45.3923 21.9962 45.3249 22.0881 45.2647C22.1873 45.1986 22.2945 45.1295 22.4167 45.0634C22.5389 44.9973 22.663 44.9292 22.7988 44.8662L22.9013 44.8181L23.0067 44.7726C23.0766 44.7412 23.1494 44.7124 23.222 44.6831C23.3687 44.626 23.5189 44.5719 23.6715 44.525C23.824 44.4781 23.9766 44.4341 24.1298 44.394C24.2831 44.3539 24.4306 44.3191 24.5768 44.2879C24.7229 44.2566 24.8641 44.2314 24.9991 44.2108C25.1265 44.1903 25.2548 44.1765 25.3835 44.1692C25.4936 44.1604 25.6044 44.1647 25.7135 44.182C25.7617 44.1892 25.8077 44.2074 25.8477 44.2353C25.8651 44.2485 25.878 44.2667 25.8848 44.2874C25.8915 44.3081 25.8918 44.3304 25.8856 44.3512C25.8768 44.3815 25.862 44.4097 25.8421 44.4342C25.8254 44.4551 25.8098 44.4718 25.7971 44.485C25.7844 44.4982 25.7738 44.5071 25.7665 44.514L25.756 44.5235L25.7642 44.5118L25.7875 44.4786C25.7992 44.4608 25.8099 44.4424 25.8196 44.4235C25.8327 44.3998 25.8412 44.3739 25.8447 44.3471C25.8463 44.3337 25.8435 44.3202 25.8369 44.3085C25.8303 44.2968 25.8201 44.2875 25.8078 44.282C25.7729 44.2665 25.7353 44.2582 25.6971 44.2576C25.594 44.2563 25.491 44.2646 25.3895 44.2825C25.2757 44.3007 25.1534 44.3267 25.022 44.3557C24.8906 44.3846 24.7547 44.4211 24.6133 44.4578C24.472 44.4946 24.3258 44.5364 24.1776 44.5784C24.0295 44.6203 23.8789 44.6641 23.7315 44.7113C23.584 44.7586 23.4367 44.8078 23.2927 44.8594C23.1487 44.911 23.0085 44.9665 22.8741 45.023C22.7397 45.0795 22.6099 45.1345 22.4891 45.1911L22.3996 45.2334L22.3133 45.2757C22.2563 45.3023 22.2037 45.3316 22.1518 45.3581C22.0998 45.3846 22.0529 45.413 22.0082 45.4402L21.9741 45.4599L21.9426 45.4802C21.9223 45.4933 21.901 45.5063 21.8842 45.5193C21.8664 45.5317 21.8494 45.5451 21.8333 45.5596L21.8093 45.5814L21.8057 45.5826L21.8006 45.5883L21.7909 45.5985C21.7668 45.6259 21.7493 45.6552 21.7528 45.6751C21.7563 45.695 21.7806 45.7096 21.8032 45.7173C21.8236 45.7237 21.8446 45.7279 21.8659 45.7298C21.8834 45.7332 21.9011 45.7356 21.9189 45.737Z" fill="#0F100E"/>
<path opacity="0.25" d="M21.2094 44.7409C21.2083 44.7396 21.2079 44.7379 21.2081 44.7363C21.2083 44.7346 21.2091 44.7331 21.2105 44.7321C21.2118 44.731 21.2135 44.7306 21.2151 44.7308C21.2168 44.731 21.2183 44.7318 21.2193 44.7332C21.3506 44.8601 21.9221 45.3001 23.1129 44.7576C23.1129 44.7576 20.9941 45.6514 22.0205 45.9009C22.0205 45.9009 21.5205 45.9814 21.4179 45.5714C21.3193 45.1751 21.3942 45.116 21.2094 44.7409Z" fill="#0F100E"/>
<path opacity="0.25" d="M23.6471 45.5721C22.6764 45.8897 21.8259 45.951 21.7468 45.7093C21.6677 45.4675 22.3899 45.0141 23.3606 44.6965C23.3606 44.6965 22.0598 45.874 23.719 45.5315L23.6471 45.5721Z" fill="#0F100E"/>
<path opacity="0.25" d="M24.0223 44.4729C24.9975 44.1537 25.8521 44.0911 25.9312 44.3329C26.0103 44.5746 25.2837 45.0299 24.309 45.3489C24.309 45.3489 25.6179 44.1687 23.9505 44.5139L24.0223 44.4729Z" fill="#0F100E"/>
<path opacity="0.5" d="M23.9577 45.4705C25.0996 45.0968 25.9612 44.5978 25.8821 44.356C25.8029 44.1143 24.8131 44.2212 23.6712 44.5949C22.5292 44.9686 21.6677 45.4675 21.7468 45.7093C21.8259 45.9511 22.8158 45.8441 23.9577 45.4705Z" fill="#0F100E"/>
<path d="M27.0357 43.4682C27.0357 43.4682 26.2831 42.6679 26.0964 42.7421C25.9096 42.8162 26.0846 43.4351 26.0846 43.4351L27.0357 43.4682Z" fill="#675139"/>
<path d="M27.5044 43.4127L27.5252 43.432C27.7611 43.3692 27.9907 43.2851 28.2114 43.1809C28.3752 43.1019 28.5306 43.0067 28.6753 42.8967C28.6753 42.8967 28.5733 43.5316 28.4177 43.8647C28.262 44.1978 28.1815 44.3039 28.1815 44.3039C28.1815 44.3039 28.3546 44.6447 28.4123 44.7671C28.4576 44.8593 28.5076 44.9492 28.562 45.0364C28.6622 45.015 28.766 45.0174 28.8651 45.0435C28.9659 45.0718 29.0544 45.133 29.1164 45.2174L28.9622 45.2593C28.9622 45.2593 29.2398 45.38 29.3324 45.5266C29.425 45.6732 29.4185 45.7636 29.4185 45.7636C29.4185 45.7636 29.1323 45.6978 29.0523 45.7506C29.0523 45.7506 29.4028 46.2013 29.3617 46.4799L29.1201 46.4707C29.1201 46.4707 29.2938 46.6785 29.2832 46.7792L29.1484 46.7732C29.1484 46.7732 29.3916 46.9497 29.3746 47.1673L29.3576 47.3849L29.0557 47.2451C29.0557 47.2451 29.1889 47.5724 29.1432 47.7819C29.123 47.8886 29.0884 47.9922 29.0404 48.0897L28.7807 47.918C28.7117 48.1275 28.6245 48.3306 28.5203 48.525C28.4228 48.6828 28.3162 48.8349 28.2011 48.9803C28.2011 48.9803 29.006 48.8758 29.011 48.9448L28.789 49.1854C28.789 49.1854 29.3735 49.1886 29.4595 49.4516L29.1301 49.5509C29.1301 49.5509 29.9993 49.8329 30.3164 50.1265C30.6336 50.4202 30.8543 50.7455 30.8004 50.9576C30.7465 51.1697 30.1653 51.0416 30.1653 51.0416C30.1653 51.0416 31.2157 52.2266 30.8826 52.3972C30.5495 52.5679 29.9921 52.1589 29.9921 52.1589C29.9921 52.1589 30.3848 53.143 30.087 53.2054C30.0034 53.2242 29.9161 53.2192 29.8352 53.1911C29.7542 53.1629 29.6828 53.1127 29.6289 53.0461C29.6289 53.0461 29.6875 53.4153 29.6533 53.418C29.6191 53.4207 29.5292 53.2822 29.5292 53.2822C29.5292 53.2822 29.5757 53.9652 29.414 53.9825C29.2523 53.9998 29.1795 53.6703 29.1795 53.6703C29.1795 53.6703 29.0892 54.1509 28.8916 54.2502L28.6948 54.3502L28.5905 54.0575C28.5905 54.0575 28.4516 54.1997 28.4194 54.2102C28.3873 54.2207 27.5289 54.7052 26.9856 54.8829L26.5383 55.0293C26.0298 55.1957 25.1104 55.2931 25.0801 55.303C25.0497 55.3129 24.8645 55.2768 24.8645 55.2768L24.9539 55.5744L24.7491 55.6058C24.5441 55.6378 24.2017 55.2992 24.2017 55.2992C24.2017 55.2992 24.336 55.6086 24.2044 55.6873C24.0728 55.766 23.717 55.1842 23.717 55.1842C23.717 55.1842 23.7289 55.3477 23.7017 55.3656C23.6745 55.3836 23.5074 55.0493 23.5074 55.0493C23.506 55.1317 23.4816 55.212 23.437 55.2813C23.3923 55.3505 23.3292 55.4059 23.2548 55.4412C22.9935 55.5618 22.7266 54.5364 22.7266 54.5364C22.7266 54.5364 22.543 55.1884 22.1955 55.24C21.848 55.2916 21.9572 53.7276 21.9572 53.7276C21.9572 53.7276 21.5963 54.1625 21.4351 54.0223C21.274 53.8821 21.252 53.4903 21.3238 53.0693C21.3955 52.6484 21.8837 51.9223 21.8837 51.9223L21.5797 52.0303C21.4936 51.7672 21.9292 51.4302 21.9292 51.4302L21.6255 51.3617C21.5897 51.3027 22.2531 50.9267 22.2531 50.9267C22.0829 50.8743 21.916 50.8117 21.7532 50.7395C21.5623 50.6399 21.3803 50.5241 21.2094 50.3932L21.1132 50.6813C21.0207 50.6291 20.9356 50.5647 20.8601 50.4899C20.7057 50.346 20.6183 50.0037 20.6183 50.0037L20.472 50.2902L20.3346 50.1231C20.1968 49.9562 20.2786 49.6733 20.2786 49.6733L20.1811 49.7553C20.1148 49.6798 20.1267 49.4112 20.1267 49.4112L19.9508 49.557C19.7602 49.3542 19.7651 48.7872 19.7651 48.7872C19.6749 48.7902 19.4974 49.0077 19.4974 49.0077C19.4974 49.0077 19.4418 48.9372 19.4267 48.7657C19.4117 48.5941 19.5514 48.3364 19.5514 48.3364L19.4118 48.3906C19.4096 48.2884 19.4408 48.1882 19.5009 48.1054C19.5591 48.0282 19.6356 47.9666 19.7234 47.9263C19.7234 47.9263 19.7083 47.7543 19.6814 47.6217C19.6546 47.4892 19.5896 47.113 19.5896 47.113C19.5896 47.113 19.4689 47.0733 19.1612 46.8913C18.8536 46.7093 18.4127 46.2551 18.4127 46.2551C18.5836 46.2617 18.7547 46.25 18.9231 46.2204C19.1056 46.1882 19.2849 46.1402 19.4591 46.0771L19.4626 46.0158C19.4626 46.0158 19.7181 44.8405 20.1306 44.6735C20.543 44.5064 21.1026 44.821 21.1026 44.821C21.1026 44.821 21.2324 44.6432 21.6833 44.3363C21.9125 44.1806 22.5644 43.7312 23.2761 43.5198C23.9546 43.3173 24.6923 43.3491 24.9364 43.3429C25.4335 43.3306 25.4066 43.377 25.4066 43.377C25.4066 43.377 25.6663 42.6785 26.1341 42.6226C26.5635 42.5714 27.3545 43.2703 27.5067 43.412" fill="#6E543C"/>
<path d="M24.3598 49.0027C24.3598 49.0027 24.8044 49.6125 25.13 49.4925C25.4556 49.3724 25.4314 48.632 25.4314 48.632C25.4314 48.632 25.5572 47.3929 24.4998 47.7655C23.4423 48.1381 24.3598 49.0027 24.3598 49.0027Z" fill="#B2773A"/>
<path d="M23.1417 55.3983L23.1388 54.8945C23.1388 54.8945 22.377 54.417 22.2446 53.0565C22.1121 51.6959 23.439 50.566 23.439 50.566C23.439 50.566 23.0481 50.3626 21.7566 50.7351L21.7177 50.7558C21.7177 50.7558 20.9598 51.1858 21.0008 51.2531L21.3482 51.3314C21.3482 51.3314 20.8498 51.7165 20.9487 52.019L21.2962 51.8952C21.2962 51.8952 20.7354 52.7258 20.6564 53.2073C20.5774 53.6887 20.5995 54.1316 20.783 54.2941C20.9665 54.4566 21.3819 53.9568 21.3819 53.9568C21.3819 53.9568 21.2576 55.7442 21.6562 55.6849C22.0548 55.6256 22.2181 55.27 22.2181 55.27C22.2181 55.27 22.5711 56.0516 22.867 55.9142C22.9521 55.8739 23.0242 55.8106 23.0752 55.7315C23.1261 55.6524 23.154 55.5606 23.1555 55.4664L23.1417 55.3983Z" fill="#5E4525"/>
<path d="M30.1473 53.1058L29.8456 52.6998C29.8456 52.6998 30.2021 51.8564 29.4919 50.6848C28.7818 49.5133 26.9771 49.4082 26.9771 49.4082C26.9771 49.4082 27.1835 49.0129 28.5014 48.531L28.5482 48.5207C28.5482 48.5207 29.4495 48.4077 29.4557 48.4864L29.2091 48.759C29.2091 48.759 29.8633 48.767 29.9618 49.068L29.593 49.1787C29.593 49.1787 30.5693 49.5063 30.9272 49.8448C31.2851 50.1833 31.5344 50.5548 31.4753 50.7967C31.4161 51.0386 30.7648 50.8878 30.7648 50.8878C30.7648 50.8878 31.9498 52.2468 31.5783 52.4395C31.2068 52.6323 30.7488 52.4579 30.7488 52.4579C30.7488 52.4579 31.0264 53.2862 30.6916 53.3552C30.597 53.3755 30.4987 53.369 30.4077 53.3363C30.3167 53.3037 30.2366 53.2462 30.1765 53.1704L30.1473 53.1058Z" fill="#5E4525"/>
<path d="M25.9965 52.0258C25.5542 52.1705 25.1251 52.0754 25.0156 51.8145C25.0186 51.8235 25.0217 51.833 25.0247 51.8421C25.126 52.1517 25.578 52.2815 26.0339 52.1323C26.4898 51.9831 26.778 51.6111 26.6767 51.3015C26.6737 51.2924 26.6706 51.2829 26.6677 51.2738C26.7291 51.5505 26.4388 51.881 25.9965 52.0258Z" fill="#583F25"/>
<path d="M24.6942 51.5289C24.3031 51.6569 23.9235 51.5721 23.8265 51.3417C23.8288 51.3501 23.8315 51.3584 23.8347 51.3666C23.9236 51.6382 24.3236 51.7549 24.727 51.6229C25.1304 51.4909 25.3842 51.1622 25.2947 50.8888C25.2925 50.8803 25.2898 50.872 25.2866 50.8639C25.3414 51.1081 25.0849 51.401 24.6942 51.5289Z" fill="#583F25"/>
<path d="M23.9727 52.7716C23.6112 52.9641 23.2155 52.9482 23.0713 52.7418C23.0739 52.7499 23.0766 52.7581 23.0829 52.765C23.2292 53.0144 23.6498 53.0562 24.0236 52.8582C24.3974 52.6602 24.5813 52.2973 24.4355 52.0477C24.4329 52.0396 24.4252 52.0331 24.4204 52.0261C24.529 52.2507 24.335 52.5799 23.9727 52.7716Z" fill="#583F25"/>
<path d="M26.7185 50.8424C26.3192 50.9395 25.9509 50.8249 25.8767 50.586C25.8794 50.5942 25.8789 50.6034 25.8807 50.6118C25.9433 50.8921 26.3284 51.0397 26.7398 50.9397C27.1511 50.8396 27.435 50.5307 27.372 50.2496C27.3698 50.2411 27.3671 50.2328 27.3639 50.2247C27.3994 50.4727 27.1191 50.7449 26.7185 50.8424Z" fill="#583F25"/>
<path d="M28.0169 51.491C27.6176 51.588 27.2492 51.473 27.1756 51.2345C27.1783 51.2426 27.1776 51.2513 27.1796 51.2602C27.2417 51.5406 27.6269 51.6883 28.0387 51.5881C28.4505 51.4879 28.7339 51.1791 28.6712 50.8974C28.669 50.889 28.6663 50.8806 28.6631 50.8725C28.6983 51.1211 28.4162 51.3939 28.0169 51.491Z" fill="#583F25"/>
<path d="M27.4408 52.7216C27.0469 52.8399 26.6707 52.7455 26.5814 52.5126C26.5826 52.5212 26.5842 52.5297 26.5863 52.5381C26.667 52.8124 27.0624 52.9391 27.469 52.8171C27.8756 52.695 28.1392 52.3732 28.0583 52.0969C28.0554 52.0879 28.0529 52.0802 28.0502 52.072C28.0998 52.317 27.8347 52.6037 27.4408 52.7216Z" fill="#583F25"/>
<path d="M26.5869 53.9741C26.2022 54.1185 25.8172 54.051 25.7083 53.8255C25.7103 53.834 25.7131 53.8424 25.7165 53.8504C25.8194 54.1175 26.2265 54.2158 26.6238 54.0668C27.0211 53.9177 27.2584 53.5799 27.1543 53.3107C27.1516 53.3026 27.1489 53.2945 27.1436 53.2872C27.2139 53.5268 26.9723 53.8299 26.5869 53.9741Z" fill="#583F25"/>
<path d="M25.2928 53.3908C24.9232 53.5694 24.5307 53.54 24.3961 53.3249C24.3981 53.3334 24.4009 53.3418 24.4043 53.3498C24.5384 53.6066 24.9551 53.6638 25.3368 53.4807C25.7184 53.2977 25.9189 52.9394 25.7848 52.6825C25.7821 52.6744 25.7754 52.6676 25.7709 52.66C25.8714 52.8922 25.6628 53.2136 25.2928 53.3908Z" fill="#583F25"/>
<path d="M26.3946 54.7482C26.2982 54.7797 26.2378 54.8817 26.2249 55.0122C26.1373 54.9146 26.0275 54.8683 25.9319 54.8996C25.8364 54.9309 25.7751 55.0331 25.7618 55.1638C25.6746 55.066 25.5643 55.0199 25.4692 55.051C25.3144 55.1017 25.252 55.3336 25.3295 55.5704C25.4069 55.8072 25.5944 55.9574 25.7493 55.9067C25.8452 55.8753 25.9061 55.7732 25.9185 55.6428C26.0066 55.7403 26.116 55.7867 26.2119 55.7553C26.3079 55.7239 26.3687 55.6218 26.3817 55.4912C26.4693 55.5889 26.5791 55.6351 26.6746 55.6039C26.829 55.5533 26.8913 55.3209 26.814 55.0846C26.7366 54.8483 26.5508 54.6971 26.3946 54.7482Z" fill="#B2773A"/>
<path d="M28.0758 54.1976C27.9798 54.229 27.919 54.3311 27.9061 54.4616C27.8185 54.364 27.7087 54.3177 27.6131 54.349C27.5176 54.3802 27.4563 54.4825 27.4434 54.613C27.3558 54.5154 27.246 54.4691 27.1504 54.5004C26.996 54.5509 26.9336 54.7829 27.0111 55.0196C27.0886 55.2564 27.2761 55.4066 27.4304 55.3561C27.5264 55.3246 27.5872 55.2225 27.6002 55.092C27.6877 55.1897 27.7976 55.2359 27.8931 55.2046C27.9887 55.1734 28.0499 55.0711 28.0629 54.9406C28.1504 55.0382 28.2603 55.0845 28.3558 55.0532C28.5102 55.0027 28.5725 54.7703 28.4952 54.534C28.4178 54.2977 28.2302 54.147 28.0758 54.1976Z" fill="#B2773A"/>
<path d="M20.1439 47.3823C20.1439 47.3823 20.0261 47.1753 19.8026 47.2078C19.5792 47.2403 18.2529 46.2018 18.414 46.2589C18.575 46.3159 19.629 46.0447 19.629 46.0447C19.629 46.0447 19.656 46.0459 21.486 45.625C23.3003 45.2082 24.052 46.3841 24.052 46.3841L24.0639 46.3406C24.0639 46.3406 23.9684 44.9139 25.74 44.2148C27.5116 43.5158 27.5291 43.4439 27.5291 43.4439C27.5291 43.4439 28.6066 43.0116 28.7067 42.8731C28.8067 42.7346 28.2809 44.3657 28.0767 44.4706C27.8724 44.5756 27.8374 44.8898 27.8374 44.8898L24.3786 47.425L20.1745 47.3548" fill="#674F36"/>
<path d="M24.4115 47.3554C24.8153 48.5891 24.1989 49.8975 23.0354 50.2782C21.8718 50.659 20.6017 49.9679 20.1979 48.7342C19.7942 47.5005 20.4103 46.1912 21.5734 45.8106C22.7364 45.43 24.0077 46.1212 24.4115 47.3554Z" fill="#B18D6D"/>
<path d="M24.1609 47.3229C24.4187 48.1106 23.9711 48.9638 23.1612 49.2289C22.3513 49.4939 21.4859 49.0704 21.2281 48.2826C20.9703 47.4949 21.4182 46.6426 22.2281 46.3776C23.0381 46.1125 23.9034 46.536 24.1609 47.3229Z" fill="white"/>
<path d="M24.0006 47.3817C24.2031 48.0006 23.8514 48.6705 23.2154 48.8787C22.5793 49.0869 21.8991 48.7546 21.6966 48.1357C21.4941 47.5168 21.8462 46.8467 22.4823 46.6386C23.1184 46.4304 23.7982 46.7633 24.0006 47.3817Z" fill="#674F36"/>
<path d="M22.4592 47.384C22.4713 47.4207 22.4722 47.4602 22.4619 47.4974C22.4516 47.5346 22.4304 47.568 22.4011 47.5932C22.3718 47.6184 22.3357 47.6344 22.2974 47.6391C22.259 47.6437 22.2201 47.6369 22.1856 47.6195C22.1511 47.6021 22.1226 47.5748 22.1036 47.5411C22.0846 47.5075 22.076 47.4689 22.079 47.4304C22.0819 47.3919 22.0962 47.3551 22.12 47.3246C22.1439 47.2942 22.1762 47.2716 22.213 47.2596C22.2621 47.2435 22.3156 47.2476 22.3618 47.2709C22.408 47.2942 22.443 47.3349 22.4592 47.384Z" fill="white"/>
<path d="M24.3503 47.3749C24.754 48.6086 26.0246 49.2995 27.1881 48.9187C28.3517 48.5379 28.9676 47.2297 28.5639 45.996C28.1602 44.7623 26.8897 44.0704 25.7262 44.4511C24.5626 44.8319 23.9464 46.1407 24.3503 47.3749Z" fill="#B18D6D"/>
<path d="M24.5308 47.2006C24.7886 47.9884 25.6544 48.4117 26.4639 48.1468C27.2734 47.8819 27.7214 47.0286 27.4637 46.2409C27.2059 45.4531 26.3408 45.0305 25.5309 45.2955C24.7209 45.5606 24.2734 46.4137 24.5308 47.2006Z" fill="white"/>
<path d="M24.6947 47.1533C24.8972 47.7722 25.5769 48.1046 26.2129 47.8964C26.849 47.6883 27.2011 47.0182 26.9986 46.3993C26.7961 45.7804 26.1164 45.448 25.4799 45.6563C24.8433 45.8646 24.4923 46.5348 24.6947 47.1533Z" fill="#674F36"/>
<path d="M25.9415 46.2457C25.9534 46.2825 25.976 46.3149 26.0063 46.3388C26.0367 46.3627 26.0734 46.3771 26.112 46.3801C26.1505 46.3832 26.189 46.3747 26.2228 46.3558C26.2565 46.3369 26.2838 46.3084 26.3013 46.2739C26.3188 46.2395 26.3257 46.2006 26.3212 46.1622C26.3166 46.1239 26.3007 46.0877 26.2755 46.0584C26.2504 46.029 26.2171 46.0078 26.1799 45.9974C26.1427 45.9869 26.1032 45.9878 26.0665 45.9998C26.0173 46.0159 25.9766 46.0508 25.9531 46.0969C25.9297 46.143 25.9255 46.1965 25.9415 46.2457Z" fill="white"/>
<path d="M27.2422 43.4297L27.2636 43.4495L27.2422 43.4297Z" fill="#6E543C"/>
<path d="M26.1054 41.5683C26.1054 41.5683 27.1607 40.8907 27.2114 42.9571L27.0776 42.9448C27.0776 42.9448 27.0514 41.4297 26.3593 41.6306" fill="#DA9633"/>
<path d="M26.1059 41.5702C26.153 41.536 26.2036 41.5067 26.2567 41.4828C26.3033 41.4626 26.3522 41.4479 26.4023 41.4391C26.4534 41.4294 26.5056 41.427 26.5573 41.432C26.6599 41.4421 26.757 41.4826 26.8364 41.5482C26.8741 41.579 26.9082 41.6139 26.9382 41.6522C26.9945 41.7266 27.0385 41.8095 27.0686 41.8977C27.0979 41.9835 27.1208 42.0714 27.1371 42.1605C27.1547 42.248 27.1691 42.3365 27.1825 42.4249C27.2079 42.602 27.2304 42.7796 27.2431 42.9563L27.2459 42.991L27.2047 42.989L27.0722 42.9822L27.0399 42.9802L27.0383 42.9492C27.034 42.8809 27.0285 42.8121 27.0212 42.7438C27.0139 42.6755 27.0049 42.6068 26.9938 42.5392C26.9828 42.4717 26.9711 42.4038 26.9567 42.3368C26.9423 42.2699 26.927 42.2032 26.9076 42.1379C26.8741 42.0063 26.8165 41.882 26.7376 41.7715C26.6963 41.7168 26.641 41.6743 26.5775 41.6484C26.5434 41.6351 26.5071 41.6279 26.4704 41.6274C26.4329 41.6262 26.3955 41.6294 26.3587 41.6368L26.3487 41.6291C26.3881 41.6152 26.4293 41.6064 26.471 41.6031C26.5113 41.6002 26.5518 41.6038 26.5908 41.614C26.6292 41.6246 26.6658 41.6409 26.6993 41.6622C26.731 41.6827 26.7602 41.7068 26.7865 41.7339C26.8364 41.7881 26.8787 41.8488 26.9122 41.9144C26.9446 41.9782 26.9721 42.0444 26.9945 42.1124C27.0169 42.1796 27.0355 42.248 27.0505 42.3172C27.0646 42.3862 27.0772 42.4553 27.0855 42.5252C27.0939 42.5952 27.1015 42.6644 27.1064 42.7345C27.1112 42.8045 27.114 42.8743 27.1142 42.9454L27.0807 42.9118L27.2124 42.9283L27.1729 42.9608C27.1749 42.8719 27.1758 42.7829 27.1733 42.694C27.1713 42.6495 27.1703 42.6053 27.1662 42.5605C27.1621 42.5157 27.158 42.4725 27.152 42.4283C27.1461 42.3841 27.1379 42.3407 27.1295 42.2968C27.1212 42.2529 27.1098 42.2105 27.0974 42.168C27.0726 42.083 27.041 42.0002 27.0028 41.9203C26.9838 41.8804 26.9632 41.842 26.9412 41.8041C26.9191 41.7667 26.8947 41.7307 26.8683 41.6961C26.8418 41.6615 26.8119 41.6297 26.7791 41.601C26.746 41.5727 26.7095 41.5486 26.6704 41.5293C26.63 41.5101 26.5871 41.4967 26.543 41.4893C26.4971 41.482 26.4505 41.4804 26.4042 41.4846C26.3562 41.4887 26.3087 41.4976 26.2624 41.511C26.2165 41.5242 26.1718 41.5412 26.1287 41.5618L26.1059 41.5702Z" fill="#996633"/>
<path d="M27.0184 43.188C26.9984 43.9078 26.79 44.7459 26.79 44.7459L26.9661 44.4587L26.9691 44.5444L26.9788 44.6505L27.0061 44.8335L27.1143 44.5425L27.1739 44.7521C27.1739 44.7521 27.2485 44.4394 27.2492 44.3911L27.3032 44.7092C27.3032 44.7092 27.5191 44.3444 27.3252 43.1297" fill="#B87A32"/>
<path d="M26.9927 44.9493L26.9487 44.6525L26.9403 44.555L26.7145 44.9186L26.7596 44.7379C26.7617 44.7292 26.9677 43.8944 26.9882 43.185L27.0479 43.185C27.0328 43.7057 26.9187 44.2929 26.8572 44.5766L26.9919 44.3571L26.9985 44.5399L27.0078 44.6447L27.0178 44.712L27.1176 44.4443L27.1696 44.6278C27.1934 44.5197 27.2177 44.4116 27.2178 44.386L27.2767 44.3807L27.3143 44.5904C27.3644 44.4142 27.4329 43.9818 27.2964 43.1282L27.3555 43.1189C27.5507 44.3281 27.339 44.6996 27.33 44.7151L27.2879 44.7855L27.247 44.5533C27.226 44.6424 27.206 44.7342 27.2016 44.7516L27.176 44.8678L27.1101 44.6357L26.9927 44.9493Z" fill="#996633"/>
<path d="M26.9865 43.2435C26.9865 43.2435 26.9541 42.8797 27.1825 42.9052C27.3769 42.9278 27.3558 43.254 27.3558 43.254C27.3558 43.254 27.0787 43.2925 26.9865 43.2435Z" fill="#DA9633"/>
<path d="M26.9799 43.2416C26.9711 43.2246 26.9642 43.2067 26.9594 43.1881C26.9539 43.1699 26.9499 43.1513 26.9477 43.1323C26.9426 43.0933 26.944 43.0537 26.9519 43.0152C26.9565 42.9937 26.9639 42.9729 26.9738 42.9534C26.9852 42.9306 27.0008 42.9102 27.0198 42.8932C27.042 42.8741 27.0684 42.8603 27.0968 42.853C27.1239 42.8462 27.1521 42.8448 27.1797 42.8489L27.1887 42.8505L27.1928 42.8491L27.1951 42.8484L27.1978 42.8475L27.2053 42.8491L27.2136 42.8514L27.2349 42.8584L27.2528 42.8671C27.2745 42.8786 27.2932 42.8949 27.3075 42.9148C27.3301 42.9491 27.3445 42.9881 27.3498 43.0288C27.356 43.0659 27.3616 43.1016 27.3693 43.1372C27.3726 43.1552 27.3775 43.1731 27.3824 43.1911C27.3873 43.209 27.3941 43.2268 27.3958 43.2473L27.3996 43.2712L27.3584 43.2846C27.3436 43.2904 27.3285 43.2954 27.3131 43.2995C27.2974 43.3029 27.2815 43.3055 27.2655 43.307C27.2331 43.3094 27.2006 43.3095 27.1683 43.3072C27.1352 43.3045 27.1025 43.2984 27.0706 43.2891C27.0544 43.2843 27.0386 43.2781 27.0234 43.2704C27.0081 43.2632 26.9944 43.2531 26.9831 43.2405L26.9799 43.2416ZM26.9935 43.2371C27.0076 43.2375 27.0212 43.2376 27.0349 43.2366C27.0486 43.2356 27.0651 43.2338 27.08 43.2319L27.1688 43.2214C27.1988 43.2181 27.2288 43.2148 27.2586 43.2125C27.289 43.2109 27.3194 43.2113 27.3497 43.2138L27.3119 43.2512C27.3174 43.2348 27.3218 43.2179 27.3249 43.2009C27.3289 43.1838 27.3309 43.1663 27.331 43.1488C27.3301 43.1141 27.321 43.0801 27.3045 43.0496C27.289 43.0208 27.2665 42.9963 27.2391 42.9783C27.2279 42.9712 27.2157 42.9656 27.203 42.9616L27.1963 42.9563L27.1894 42.955L27.1848 42.9565L27.1776 42.9559L27.1744 42.9569L27.1772 42.956L27.1722 42.9576C27.1605 42.9576 27.149 42.96 27.1384 42.9647C27.1296 42.9683 27.1214 42.9731 27.1141 42.9792C27.0947 42.9978 27.079 43.02 27.0678 43.0444C27.0537 43.0749 27.0415 43.1062 27.0312 43.1381L27.0144 43.1892L26.9935 43.2371Z" fill="#996633"/>
<path d="M27.0747 42.8623C27.0775 42.8476 27.0815 42.8332 27.0867 42.8193C27.0975 42.7906 27.1105 42.7629 27.1257 42.7363C27.1425 42.7078 27.1601 42.6805 27.1742 42.6593C27.1809 42.6491 27.187 42.6401 27.1906 42.6329L27.1976 42.6221C27.1976 42.6221 27.1991 42.6266 27.2015 42.6339C27.2036 42.6383 27.2052 42.643 27.2061 42.6479C27.207 42.6539 27.2073 42.66 27.207 42.6661C27.2062 42.6815 27.2035 42.6967 27.1988 42.7114C27.1932 42.728 27.186 42.7439 27.1773 42.7591C27.1612 42.7878 27.1401 42.8135 27.1148 42.8346C27.1026 42.8454 27.0892 42.8547 27.0747 42.8623Z" fill="#996633"/>
<path d="M27.0375 42.6138C27.0402 42.5994 27.0443 42.5853 27.0498 42.5717C27.0603 42.5427 27.0735 42.5147 27.0891 42.4881C27.1054 42.4597 27.1212 42.433 27.1373 42.4117C27.1438 42.4011 27.1503 42.3919 27.1541 42.3851L27.1605 42.374C27.1622 42.378 27.1635 42.3821 27.1645 42.3863C27.1666 42.3906 27.1681 42.3951 27.169 42.3998C27.1701 42.4058 27.1705 42.412 27.1699 42.4181C27.169 42.4335 27.1662 42.4487 27.1617 42.4634C27.1566 42.48 27.1495 42.4959 27.1406 42.5109C27.1242 42.5394 27.1031 42.5649 27.0782 42.5864C27.0659 42.5973 27.0522 42.6065 27.0375 42.6138Z" fill="#996633"/>
<path d="M26.9868 42.3428C26.9895 42.3282 26.9934 42.3138 26.9984 42.2999C27.0095 42.2712 27.0227 42.2435 27.0379 42.2168C27.0546 42.1883 27.0722 42.1609 27.0865 42.1402C27.093 42.1296 27.0995 42.1204 27.1029 42.1138L27.1097 42.1026C27.1097 42.1026 27.1112 42.1071 27.1137 42.1148C27.1158 42.1191 27.1173 42.1237 27.1182 42.1284C27.1189 42.1346 27.1192 42.1409 27.1188 42.1472C27.1184 42.1624 27.1157 42.1775 27.1109 42.1919C27.1056 42.2084 27.0986 42.2244 27.0899 42.2394C27.0733 42.2681 27.0521 42.2939 27.0271 42.3156C27.0148 42.3262 27.0013 42.3353 26.9868 42.3428Z" fill="#996633"/>
<path d="M26.9514 42.0713L26.9054 42.0412C26.9311 42.0093 26.998 41.9107 26.9991 41.8482L27.0517 41.8555C27.0472 41.9377 27.0113 42.0149 26.9514 42.0713Z" fill="#996633"/>
<path d="M26.8506 41.8503L26.8167 41.8112C26.857 41.7812 26.8838 41.7364 26.8912 41.6866L26.9486 41.6859C26.9446 41.7186 26.9337 41.7501 26.9168 41.7784C26.9 41.8067 26.8774 41.8312 26.8506 41.8503Z" fill="#996633"/>
<path d="M26.6861 41.7054L26.649 41.6839C26.6724 41.6512 26.7344 41.5557 26.7344 41.5021L26.775 41.5099C26.7731 41.5852 26.6881 41.7007 26.6861 41.7054Z" fill="#996633"/>
<path d="M26.5695 41.6166L26.5165 41.5988C26.5269 41.5526 26.524 41.5044 26.5081 41.4597L26.5624 41.442C26.5826 41.4981 26.5851 41.559 26.5695 41.6166Z" fill="#996633"/>
<path d="M26.395 41.6299C26.3646 41.5808 26.3225 41.5399 26.2724 41.5111L26.3011 41.4656C26.3607 41.4984 26.4108 41.5461 26.4466 41.604L26.395 41.6299Z" fill="#996633"/>
<path d="M27.1996 43.2618L27.1941 43.3092C27.1909 43.3394 27.1854 43.3823 27.1782 43.4337C27.171 43.4852 27.1643 43.5445 27.1534 43.6092C27.1425 43.674 27.1316 43.7417 27.119 43.8105C27.1122 43.8448 27.1059 43.8789 27.0998 43.9125C27.0937 43.946 27.0871 43.9793 27.0818 44.0106L27.0429 44.1842C27.0156 44.2849 26.9968 44.3497 26.9968 44.3497C26.9968 44.3497 27.0075 44.2815 27.0244 44.1798L27.0437 44.0045C27.0469 43.9729 27.049 43.9396 27.0521 43.9061C27.0551 43.8725 27.0574 43.8381 27.06 43.8032C27.0633 43.735 27.068 43.6668 27.0706 43.6028C27.0732 43.5388 27.0752 43.479 27.0759 43.4276C27.0767 43.3762 27.0778 43.3338 27.0775 43.3038L27.0778 43.2571L27.1996 43.2618Z" fill="#996633"/>
<path d="M27.3022 43.2807L27.302 43.3153C27.3022 43.3373 27.3014 43.3686 27.3 43.4057C27.2986 43.4427 27.296 43.4867 27.2918 43.5337C27.2876 43.5807 27.2875 43.6308 27.2818 43.6778C27.2785 43.7023 27.2755 43.7268 27.2728 43.7514C27.2698 43.776 27.2661 43.7997 27.2625 43.8225C27.2541 43.8688 27.2486 43.9117 27.2404 43.948L27.2137 44.07C27.2137 44.07 27.2183 44.0184 27.2239 43.9479C27.2284 43.9113 27.2287 43.8676 27.2327 43.8217C27.2336 43.7984 27.2353 43.7747 27.2349 43.7503C27.2344 43.7259 27.235 43.7001 27.2356 43.6774C27.2362 43.6271 27.2327 43.5781 27.2326 43.5335C27.2325 43.4889 27.2277 43.4449 27.2249 43.4088C27.222 43.3726 27.219 43.342 27.2167 43.3212C27.2145 43.3004 27.2133 43.2877 27.2133 43.2877L27.3022 43.2807Z" fill="#996633"/>
</g>
<path d="M20.5919 41.1268C17.9014 40.3099 17.9536 36.6338 18.0196 35L20.5669 36.972C22.007 38.0869 23.7241 38.7873 25.533 38.9977L36.813 40.3099L38 42.5563L35.8239 50.1127L34.6369 56.2394L30.0868 64L35.8239 43.5775C32.0652 43.0329 23.2824 41.9437 20.5919 41.1268Z" fill="#F3EFF0"/>
<path d="M53.7653 30.9956C53.1259 31.9059 52.5539 32.5855 52.1352 33.3496C51.5833 34.3531 51.146 35.4183 50.6672 36.4606C50.1296 37.629 49.6106 38.8045 49.0644 39.9686C48.5827 40.9994 48.0523 42.0087 47.5835 43.0466C47.1391 44.0315 46.7807 45.0537 46.3262 46.0371C45.6467 47.508 44.9055 48.9488 44.2145 50.414C43.7557 51.3874 43.3543 52.3895 42.9042 53.3687C42.454 54.3478 41.9924 55.2697 41.5451 56.2245C41.224 56.9126 40.9301 57.6122 40.6104 58.3003C40.1898 59.2083 39.7631 60.1124 39.3302 61.0127C39.0105 61.6765 38.6463 62.3188 38.3553 62.994C37.865 64.1294 37.3059 65.2563 37.6256 66.6899C36.9159 66.5093 36.3353 66.4032 35.7819 66.2082C35.2286 66.0132 34.7153 65.7466 34.1777 65.5244C33.3419 65.1774 32.5735 63.3668 33.1269 62.4894C33.438 61.9976 33.5269 61.364 33.7003 60.7891C34.0759 59.5447 34.4573 58.3018 34.8085 57.0502C35.1038 55.9979 35.3332 54.9242 35.6443 53.8762C35.9554 52.8282 36.3396 51.8089 36.6765 50.7724C36.85 50.2405 36.9934 49.6986 37.1396 49.1596C37.5496 47.6543 37.9367 46.149 38.3653 44.6437C38.8499 42.9491 39.3588 41.2632 39.8807 39.5801C40.3423 38.0935 40.8598 36.624 41.3143 35.1359C41.6311 34.0879 41.7888 32.9855 42.1745 31.9647C42.5601 30.944 42.5458 29.6537 43.6568 28.9656C44.3808 28.5183 45.0904 28.157 45.9994 28.5642C46.6258 28.8437 47.347 28.9039 48.0064 29.1047C49.0243 29.4114 50.0264 29.767 51.0414 30.0795C51.7295 30.2903 52.4349 30.4422 53.1216 30.653C53.3484 30.7424 53.5644 30.8574 53.7653 30.9956Z" fill="#EDBD58"/>
<path d="M8.23255 37.5C8.67841 39.0354 9.1042 40.4389 9.48841 41.8539C9.68481 42.5707 9.7995 43.3191 9.96867 44.0488C10.0963 44.5936 10.2554 45.1297 10.3988 45.6716C10.6511 46.6637 10.8704 47.6644 11.1543 48.6464C11.4754 49.7589 11.8711 50.847 12.198 51.9581C12.3972 52.6534 12.4847 53.3802 12.6696 54.0798C12.8459 54.7536 13.0882 55.4102 13.2818 56.0783C13.4481 56.6517 13.5986 57.241 13.7377 57.8273C14.0244 59.0315 14.2595 60.2487 14.5806 61.4443C14.8874 62.5912 15.286 63.7066 15.6229 64.8434C15.8006 65.4427 15.9239 66.0577 16.0874 66.6613C16.3425 67.6017 16.4572 68.6239 16.9117 69.4597C17.5432 70.6311 18.5624 71.5465 19.7947 72.0488C20.6907 72.423 21.5925 72.4631 22.4985 72.3714C23.2856 72.2911 24.0569 72.0474 24.8281 71.8438C25.479 71.6732 26.1184 71.4381 26.765 71.2704C27.0168 71.231 27.2741 71.2917 27.4818 71.4395C26.775 71.7535 26.0697 72.0746 25.3586 72.38C24.5816 72.714 23.7945 73.0251 23.0161 73.3577C21.9881 73.7993 20.966 74.2566 19.9366 74.6953C19.1926 75.0107 18.3855 75.2157 17.7031 75.63C15.6186 76.8988 13.9212 75.7605 13.352 73.8753C13.1341 73.1585 12.7356 72.4932 12.4359 71.7965C11.9772 70.7242 11.5371 69.6461 11.0797 68.5709C10.803 67.9229 10.5063 67.2806 10.2196 66.6383C9.88552 65.8871 9.54145 65.1416 9.21602 64.3876C8.77016 63.3525 8.33721 62.3117 7.90139 61.2723C7.42256 60.1254 6.95807 58.9785 6.46777 57.8316C6.18104 57.1621 5.83267 56.5184 5.54452 55.8503C5.08146 54.7751 4.64994 53.6884 4.19691 52.6089C3.91019 51.9323 3.62346 51.2599 3.32097 50.589C2.97833 49.8134 2.6271 49.0406 2.28446 48.2651C1.8214 47.2171 1.35404 46.1705 0.906752 45.1111C0.582889 44.3912 0.295797 43.6552 0.0465813 42.9062C-0.188532 42.132 0.49817 40.6325 1.39132 40.2396C2.65147 39.6863 3.93886 39.1931 5.20045 38.644C5.91726 38.3344 6.58389 37.9373 7.2964 37.6405C7.58886 37.5244 7.94153 37.5416 8.23255 37.5Z" fill="#EDBD58"/>
<path d="M36.6903 27.2621C36.0194 27.2119 35.3456 27.1861 34.6833 27.1058C34.0209 27.0255 33.3443 26.8521 32.669 26.7919C31.8762 26.7202 31.3358 26.4965 31.3243 25.5217C31.31 24.3819 31.4433 23.2852 31.9909 22.2401C33.016 20.289 34.7564 19.1492 36.5226 17.9937C37.4688 17.373 38.3863 16.6906 38.9383 15.6154C39.4902 14.5401 39.0501 12.4184 37.9663 11.8535C36.5742 11.1253 35.1291 10.7898 33.5679 11.3819C32.9672 11.6098 32.2963 11.6414 31.6813 11.8392C31.1895 11.9969 30.7408 12.2851 30.2605 12.4843C30.031 12.5544 29.7953 12.6024 29.5566 12.6277C29.7731 11.4894 29.9738 10.4457 30.1688 9.40061C30.2214 9.14464 30.2578 8.88559 30.2778 8.62502C30.381 6.79572 30.5 6.56061 32.2461 6.1807C33.4005 5.9088 34.5842 5.78118 35.77 5.80079C36.9541 5.8438 38.1483 6.11189 39.2981 6.42728C40.4034 6.72834 41.5259 7.09535 42.5137 7.65589C43.7438 8.35407 44.7731 9.34613 45.2376 10.764C45.4698 11.4679 45.7881 12.1804 45.8297 12.9015C45.8903 13.7785 45.7932 14.6593 45.543 15.5021C45.1659 16.6906 44.6828 17.8317 43.7796 18.8095C42.6327 20.0581 41.2292 20.9083 39.8199 21.7627C38.6573 22.4681 37.5261 23.2135 36.9312 24.4608C36.5541 25.2493 36.0309 26.1224 36.7878 27.0413L36.6903 27.2621Z" fill="#EDBD58"/>
<path d="M33.3323 29.0916C35.1487 28.9482 36.2913 29.9991 37.1113 31.49C37.5242 32.2398 37.0468 34.105 36.2268 34.8189C35.2233 35.6906 34.1136 36.1551 32.6958 35.7178C31.6693 35.401 30.7776 35.0225 30.2242 34.0648C29.4185 32.6699 29.463 31.0069 30.7977 29.9073C31.5518 29.3009 31.9632 29.0027 33.3323 29.0916Z" fill="#EDBD58"/>
<path d="M38.5794 9.96071C39.5662 10.1925 40.343 10.6909 40.9096 11.4559C41.4833 12.2166 41.6657 13.0419 41.4567 13.9317C41.3402 14.428 41.1189 14.8575 40.793 15.2204C40.474 15.5788 40.1158 15.8739 39.7184 16.1055C39.3266 16.3386 38.7756 16.6214 38.0655 16.9542C37.3624 17.2827 36.8554 17.609 36.5446 17.9332C36.2337 18.2574 36.0414 18.5764 35.9677 18.8901C35.8498 19.3921 35.6454 19.6089 35.3545 19.5406C35.2005 19.5044 35.1084 19.4226 35.0781 19.2951C35.0492 19.162 35.083 18.89 35.1794 18.4793C35.2759 18.0686 35.4821 17.6777 35.798 17.3065C36.1196 16.9366 36.6877 16.5163 37.5025 16.0456C38.3397 15.5561 38.9025 15.1074 39.1909 14.6997C39.4863 14.2875 39.6882 13.8504 39.7967 13.3884C39.9267 12.8351 39.8714 12.3015 39.631 11.7876C39.3919 11.268 38.9928 10.9426 38.4338 10.8113C37.755 10.6519 37.1766 10.7056 36.6987 10.9725C36.2264 11.2408 35.9246 11.6545 35.7933 12.2135C35.721 12.5215 35.7271 12.8028 35.8118 13.0574C35.8978 13.3063 36.0492 13.4562 36.2659 13.5071C36.3344 13.5232 36.3963 13.5287 36.4516 13.5237C36.514 13.5143 36.5737 13.5162 36.6308 13.5296C36.762 13.5605 36.8811 13.6426 36.9882 13.7761C37.1023 13.9052 37.144 14.0354 37.1132 14.1666C37.0582 14.4004 36.9092 14.561 36.666 14.6484C36.4241 14.73 36.1577 14.7367 35.8668 14.6683C35.4447 14.5692 35.1181 14.2939 34.8871 13.8424C34.6561 13.3909 34.6223 12.8172 34.7857 12.1213C34.9706 11.3341 35.4124 10.7216 36.1111 10.2838C36.8154 9.84738 37.6382 9.73967 38.5794 9.96071ZM35.3248 20.5899C35.5529 20.6435 35.741 20.778 35.8891 20.9933C36.0428 21.21 36.0849 21.4666 36.0152 21.7632C35.9616 21.9914 35.8242 22.1668 35.6028 22.2893C35.3814 22.4119 35.1481 22.4443 34.9028 22.3867C34.6575 22.3291 34.4586 22.1891 34.3062 21.9668C34.1609 21.74 34.117 21.504 34.1746 21.2587C34.2335 21.0078 34.3744 20.8181 34.5971 20.6899C34.8255 20.563 35.0681 20.5296 35.3248 20.5899Z" fill="#339B96"/>
<defs>
<filter id="filter0_d_556_541" x="35.584" y="34.6934" width="48.334" height="51.084" filterUnits="userSpaceOnUse" color-interpolation-filters="sRGB">
<feFlood flood-opacity="0" result="BackgroundImageFix"/>
<feColorMatrix in="SourceAlpha" type="matrix" values="0 0 0 0 0 0 0 0 0 0 0 0 0 0 0 0 0 0 127 0" result="hardAlpha"/>
<feOffset dy="4"/>
<feGaussianBlur stdDeviation="7.5"/>
<feComposite in2="hardAlpha" operator="out"/>
<feColorMatrix type="matrix" values="0 0 0 0 0 0 0 0 0 0 0 0 0 0 0 0 0 0 0.15 0"/>
<feBlend mode="normal" in2="BackgroundImageFix" result="effect1_dropShadow_556_541"/>
<feBlend mode="normal" in="SourceGraphic" in2="effect1_dropShadow_556_541" result="shape"/>
</filter>
<filter id="filter1_d_556_541" x="3.40039" y="30.1328" width="44.5" height="47.6621" filterUnits="userSpaceOnUse" color-interpolation-filters="sRGB">
<feFlood flood-opacity="0" result="BackgroundImageFix"/>
<feColorMatrix in="SourceAlpha" type="matrix" values="0 0 0 0 0 0 0 0 0 0 0 0 0 0 0 0 0 0 127 0" result="hardAlpha"/>
<feOffset dy="4"/>
<feGaussianBlur stdDeviation="7.5"/>
<feComposite in2="hardAlpha" operator="out"/>
<feColorMatrix type="matrix" values="0 0 0 0 0 0 0 0 0 0 0 0 0 0 0 0 0 0 0.15 0"/>
<feBlend mode="normal" in2="BackgroundImageFix" result="effect1_dropShadow_556_541"/>
<feBlend mode="normal" in="SourceGraphic" in2="effect1_dropShadow_556_541" result="shape"/>
</filter>
</defs>
</svg>
