<svg width="52" height="80" viewBox="0 0 52 80" fill="none" xmlns="http://www.w3.org/2000/svg">
<path opacity="0.5" d="M37.305 72.7816L36.6103 69.3467C37.2682 69.119 37.9031 68.9397 38.5058 68.683C40.9718 67.6219 43.5666 66.8128 45.867 65.3885C48.7102 63.6056 48.6918 61.5126 45.9268 59.6328C44.0641 58.3692 42.0349 57.4011 39.9044 56.7598C30.7745 54.0904 21.1264 54.0904 11.9965 56.7598C10.4274 57.1337 8.92846 57.7805 7.56136 58.6735C6.18115 59.6425 4.26266 61.1589 4.23966 62.467C4.21665 63.7751 6.07995 65.684 7.46016 66.2557C11.1407 67.7334 15.0283 68.6781 18.8653 69.7052C20.2176 70.0133 21.6213 69.9634 22.9508 69.5599L20.1903 67.6219L22.8174 64.3953L31.5587 72.21L22.891 80.0004L20.3284 76.9773L23.305 74.4919C19.6245 73.8572 16.3487 73.5811 13.2478 72.6799C10.147 71.7788 6.90347 70.6403 4.13384 68.8913C-1.32722 65.4369 -1.42844 59.4729 4.13384 56.2463C8.03866 54.0703 12.2398 52.5439 16.588 51.7212C25.0528 49.9493 33.8082 50.5015 42.0116 53.3249C44.4882 54.1588 46.8191 55.4123 48.9127 57.036C52.8049 60.127 52.7405 64.5552 49.0921 67.9417C46.4789 70.3302 41.2617 72.5297 37.305 72.7816Z" fill="#EDBD58"/>
<g filter="url(#filter0_d_691_11271)">
<rect x="4.57227" width="43.428" height="61.7134" rx="1" fill="#EDBD58"/>
</g>
<g filter="url(#filter1_d_691_11271)">
<path d="M21.75 24.3325C21.75 24.3884 22.7406 24.91 22.7786 24.9474C22.9044 25.0631 24.0124 24.5561 24.0124 24.5561L23.7128 23.002H22.7764L22.1972 23.8165L21.75 24.3325Z" fill="#373737"/>
<path d="M31.2616 24.7223C31.2616 24.7223 30.617 24.9594 30.508 24.9493C30.399 24.9393 29.3262 24.5239 29.3262 24.5239L29.6655 23.1855L30.5974 23.2778L31.0927 24.1443L31.2616 24.7223Z" fill="#373737"/>
<path d="M30.1525 24.96C30.1525 24.96 28.7286 23.9772 26.7507 23.9207C24.8696 23.8648 23.1762 24.9393 23.1639 24.9354C22.308 24.6899 21.3577 24.3159 21.1564 23.8877C21.1184 23.8061 20.9434 23.5339 21.1564 23.4327C21.1564 23.4327 24.2708 22.0949 26.4047 21.0696C26.5601 20.9947 27.0442 20.983 27.213 21.0618C27.3819 21.1406 30.735 22.8216 32.146 23.4919C32.3003 23.5657 32.1169 23.8469 31.7262 24.1164C31.3354 24.3858 31.2862 24.463 30.6204 24.766L30.1525 24.96Z" fill="#373737"/>
<path d="M27.4328 23.6576C27.4328 23.6576 25.8496 23.9187 26.8128 23.9058C28.694 23.8796 30.3024 24.9937 30.3152 24.9904C31.1778 24.7617 32.1969 24.409 32.4066 23.9841C32.4463 23.9036 32.6274 23.6448 32.4161 23.5369C32.3982 23.5369 29.3162 22.0744 27.1896 21.0531C27.0337 20.9782 26.5702 20.9815 26.407 21.0698C26.2437 21.1582 24.9675 23.6414 26.5238 23.7532C29.2681 23.9561 26.4238 23.3915 26.8089 23.6682C27.1941 23.945 26.6088 23.3524 27.2685 23.6682L27.4328 23.6576Z" fill="#373737"/>
<path d="M24.0883 23.2626C24.0609 23.2749 23.8971 23.3509 23.9004 23.3805C23.9262 23.5862 24.1537 24.3555 23.9563 25.3327C23.8255 25.984 24.2459 26.2417 26.8153 26.2881C27.6164 26.3026 28.9268 26.264 29.3986 25.8319C29.6183 25.6312 29.384 25.2634 29.3248 24.5461C29.2611 23.778 29.4925 23.2972 29.3773 23.2788C29.3527 23.2749 27.0937 21.9348 24.0883 23.2626Z" fill="#47474A"/>
<path d="M23.9316 24.2328C23.9316 24.2328 24.186 25.101 23.9574 26.2336C23.8265 26.8843 24.2469 27.1421 26.8163 27.1885C27.6174 27.203 28.9278 27.1644 29.3996 26.7328C29.6193 26.5321 29.3851 26.1637 29.3258 25.4471C29.2848 25.0244 29.3025 24.5981 29.3784 24.1803C29.3789 24.1557 26.9605 22.8699 23.9316 24.2328Z" fill="#DA9633"/>
<path d="M33.2788 37.6283L20.1934 38.5742L23.7332 27.8652L29.574 27.8731L33.2788 37.6283Z" fill="#B6394A"/>
<path d="M32.6348 39.3636C32.639 38.7268 32.8636 38.111 33.2705 37.6211H21.8191C20.8128 37.6211 20 38.3769 20 39.3105C20 40.2441 20.8145 40.9999 21.8191 40.9999H33.1888C32.8332 40.5282 32.6389 39.9544 32.6348 39.3636Z" fill="#B6394A"/>
<path d="M32.636 39.3639C32.6369 38.967 32.7259 38.5752 32.8965 38.2168H21.0566V40.4233H32.8574C32.7121 40.089 32.6367 39.7285 32.636 39.3639Z" fill="white"/>
<path d="M32.7646 38.5527H21.0566V38.574H32.7579L32.7646 38.5527Z" fill="#939498"/>
<path d="M32.7243 38.6914H21.0566V38.7132H32.7182C32.7204 38.7059 32.7221 38.6987 32.7243 38.6914Z" fill="#939498"/>
<path d="M32.6913 38.8301H21.0566V38.8496H32.6874C32.6891 38.8435 32.6902 38.8368 32.6913 38.8301Z" fill="#939498"/>
<path d="M32.6668 38.9707H21.0566V38.9925H32.664C32.6651 38.9852 32.6656 38.978 32.6668 38.9707Z" fill="#939498"/>
<path d="M32.6528 39.1074H21.0566V39.1298H32.6477C32.6483 39.122 32.6489 39.1147 32.6528 39.1074Z" fill="#939498"/>
<path d="M32.6399 39.248H21.0566V39.2699H32.6394C32.6394 39.2626 32.6394 39.2553 32.6399 39.248Z" fill="#939498"/>
<path d="M32.6371 39.3848H21.0566V39.4094H32.6377C32.6377 39.3993 32.6371 39.3926 32.6371 39.3848Z" fill="#939498"/>
<path d="M32.6416 39.5254H21.0566V39.5466H32.6433C32.6433 39.5394 32.6422 39.5321 32.6416 39.5254Z" fill="#939498"/>
<path d="M32.6528 39.6621H21.0566V39.6834H32.6572C32.6552 39.6764 32.6537 39.6693 32.6528 39.6621Z" fill="#939498"/>
<path d="M32.6729 39.8027H21.0566V39.8245H32.6774C32.6757 39.8178 32.6746 39.8111 32.6729 39.8027Z" fill="#939498"/>
<path d="M32.7003 39.9414H21.0566V39.9632H32.7053C32.704 39.9559 32.7024 39.9486 32.7003 39.9414Z" fill="#939498"/>
<path d="M32.7355 40.0801H21.0566V40.1013H32.7405C32.7394 40.0935 32.7377 40.0857 32.7355 40.0801Z" fill="#939498"/>
<path d="M32.7786 40.2188H21.0566V40.2394H32.7853C32.783 40.2322 32.7802 40.2255 32.7786 40.2188Z" fill="#939498"/>
<path d="M32.8093 38.4258H21.0566V38.447H32.8009C32.8037 38.4398 32.806 38.4325 32.8093 38.4258Z" fill="#939498"/>
<path d="M24.5756 25.8807C24.5756 25.8807 24.2151 25.8086 24.4801 25.6408C24.745 25.4731 25.8961 25.2568 27.0684 25.2859C28.2407 25.3149 30.1079 25.4765 29.2973 25.9276" fill="#47474A"/>
<path d="M24.5757 25.8812C24.5535 25.8788 24.5314 25.8749 24.5098 25.8694C24.4835 25.863 24.458 25.8538 24.4337 25.842C24.4169 25.8348 24.4014 25.8248 24.3879 25.8124C24.3794 25.8048 24.3725 25.7956 24.3676 25.7853C24.3628 25.7751 24.3599 25.7639 24.3594 25.7526C24.3595 25.7276 24.3679 25.7034 24.3834 25.6838C24.3982 25.6631 24.4155 25.6444 24.4348 25.6279L24.4499 25.6156L24.4572 25.61L24.4673 25.6033L24.4991 25.5838C24.5229 25.5694 24.5475 25.5567 24.5729 25.5457C24.6907 25.4931 24.8124 25.4497 24.9369 25.416C25.0716 25.3786 25.2164 25.3406 25.3768 25.3115C25.5373 25.2824 25.7005 25.2517 25.8749 25.231L26.0069 25.2148L26.141 25.2025C26.2305 25.193 26.3222 25.1874 26.4138 25.1812C26.5983 25.1712 26.7856 25.1656 26.9729 25.1689C27.1602 25.1723 27.3463 25.179 27.5319 25.1902C27.7175 25.2014 27.8947 25.2165 28.0692 25.2349C28.2436 25.2534 28.4102 25.2768 28.5684 25.3031C28.7178 25.3268 28.866 25.3581 29.0123 25.397C29.1383 25.4274 29.2603 25.4726 29.3756 25.5318C29.4269 25.5573 29.4714 25.5945 29.5059 25.6402C29.5204 25.6612 29.5282 25.6862 29.5282 25.7118C29.5282 25.7373 29.5204 25.7623 29.5059 25.7833C29.4849 25.8138 29.4581 25.8399 29.4271 25.8599C29.4008 25.8772 29.3773 25.8901 29.3583 25.9002C29.3393 25.9102 29.3242 25.9164 29.3136 25.9214L29.2985 25.9281L29.3119 25.9181L29.3499 25.8895C29.3695 25.874 29.3881 25.8574 29.4058 25.8398C29.429 25.8182 29.448 25.7924 29.4617 25.7638C29.4683 25.7494 29.4702 25.7334 29.4671 25.7179C29.464 25.7024 29.456 25.6883 29.4444 25.6777C29.4111 25.6477 29.3721 25.6247 29.3298 25.61C29.2153 25.571 29.0974 25.5427 28.9776 25.5256C28.844 25.5044 28.6981 25.4887 28.541 25.4731C28.3839 25.4574 28.219 25.4485 28.0479 25.4378C27.8768 25.4272 27.6985 25.4205 27.5179 25.4132C27.3374 25.406 27.1534 25.3998 26.9718 25.3987C26.7901 25.3976 26.6078 25.3987 26.4284 25.4037C26.2489 25.4088 26.0723 25.4194 25.9018 25.4334C25.7313 25.4473 25.5663 25.4613 25.4109 25.4803L25.2958 25.4949L25.184 25.5105C25.1107 25.5195 25.0414 25.5329 24.9738 25.5435C24.9061 25.5541 24.8435 25.5687 24.7837 25.5826L24.7384 25.5921L24.6959 25.6033C24.6685 25.6106 24.64 25.6173 24.6165 25.6257C24.5922 25.6329 24.5683 25.6417 24.545 25.652L24.5103 25.6676H24.5058L24.498 25.6721L24.4835 25.6799C24.4466 25.7017 24.4164 25.728 24.413 25.7515C24.4097 25.7749 24.4315 25.8001 24.4539 25.8169C24.4743 25.8315 24.4962 25.8439 24.5193 25.8538C24.5376 25.8639 24.5564 25.8731 24.5757 25.8812Z" fill="#0F100E"/>
<path opacity="0.25" d="M24.1481 24.5119C24.1475 24.51 24.1476 24.508 24.1484 24.5062C24.1492 24.5044 24.1508 24.5031 24.1526 24.5024C24.1545 24.5017 24.1565 24.5018 24.1583 24.5027C24.1601 24.5035 24.1614 24.505 24.1621 24.5069C24.2622 24.6964 24.739 25.3957 26.2652 25.2252C26.2652 25.2252 23.5757 25.4488 24.6295 26.1018C24.6295 26.1018 24.0425 26.009 24.0777 25.5143C24.1124 25.0363 24.2175 24.9977 24.1481 24.5119Z" fill="#0F100E"/>
<path opacity="0.25" d="M26.5622 26.3292C25.3636 26.3292 24.3926 26.0872 24.3926 25.7886C24.3926 25.4901 25.3636 25.248 26.5622 25.248C26.5622 25.248 24.6816 26.0866 26.6572 26.3102L26.5622 26.3292Z" fill="#0F100E"/>
<path opacity="0.25" d="M27.3821 25.2383C28.5863 25.2383 29.5624 25.4803 29.5624 25.7789C29.5624 26.0774 28.5858 26.32 27.3821 26.32C27.3821 26.32 29.2728 25.4815 27.2871 25.2578L27.3821 25.2383Z" fill="#0F100E"/>
<path opacity="0.5" d="M26.9457 26.3292C28.3558 26.3292 29.4988 26.0872 29.4988 25.7886C29.4988 25.4901 28.3558 25.248 26.9457 25.248C25.5357 25.248 24.3926 25.4901 24.3926 25.7886C24.3926 26.0872 25.5357 26.3292 26.9457 26.3292Z" fill="#0F100E"/>
<path d="M31.1093 25.2193C31.1093 25.2193 30.562 24.052 30.3266 24.0665C30.0913 24.0811 30.0605 24.8352 30.0605 24.8352L31.1093 25.2193Z" fill="#675139"/>
<path d="M31.6545 25.3278L31.6707 25.3568C31.9567 25.3729 32.2436 25.3629 32.5278 25.3272C32.7392 25.2989 32.9473 25.2495 33.1488 25.1796C33.1488 25.1796 32.8034 25.8505 32.5082 26.1652C32.213 26.4799 32.0844 26.5688 32.0844 26.5688C32.0844 26.5688 32.1532 27.0121 32.1728 27.1698C32.1897 27.2892 32.2127 27.4077 32.2415 27.5248C32.3611 27.5375 32.476 27.578 32.577 27.6433C32.6791 27.7116 32.7555 27.8122 32.7939 27.929L32.6066 27.9195C32.6066 27.9195 32.8721 28.1554 32.9219 28.3527C32.9716 28.5501 32.9314 28.6484 32.9314 28.6484C32.9314 28.6484 32.6362 28.4707 32.5278 28.5003C32.5278 28.5003 32.7542 29.1309 32.6066 29.4266L32.3405 29.3282C32.3405 29.3282 32.4584 29.6234 32.4098 29.7319L32.2617 29.676C32.2617 29.676 32.4685 29.9616 32.3701 30.1981L32.2717 30.4346L31.986 30.1685C31.986 30.1685 32.0151 30.5822 31.8877 30.7991C31.8262 30.9108 31.7498 31.0136 31.6607 31.1049L31.4337 30.8186C31.2802 31.0271 31.1089 31.2218 30.9216 31.4006C30.7553 31.5411 30.581 31.6717 30.3995 31.7919C30.3995 31.7919 31.3353 31.9691 31.3158 32.048L30.9803 32.2352C30.9803 32.2352 31.6311 32.4521 31.6311 32.7769L31.2274 32.7674C31.2274 32.7674 32.0939 33.3992 32.3405 33.8425C32.587 34.2858 32.7145 34.7291 32.577 34.946C32.4394 35.1629 31.8379 34.8079 31.8379 34.8079C31.8379 34.8079 32.577 36.513 32.1431 36.5818C31.7093 36.6505 31.2369 35.9909 31.2369 35.9909C31.2369 35.9909 31.3158 37.2319 30.9608 37.1928C30.8606 37.1832 30.7652 37.1459 30.6852 37.0849C30.6051 37.024 30.5438 36.9419 30.5079 36.8479C30.5079 36.8479 30.4386 37.2811 30.3995 37.2716C30.3604 37.2621 30.3106 37.0748 30.3106 37.0748C30.3106 37.0748 30.1133 37.8536 29.9265 37.8139C29.7398 37.7742 29.779 37.3801 29.779 37.3801C29.779 37.3801 29.5028 37.8832 29.2462 37.9218L28.9902 37.9615L28.9807 37.597C28.9807 37.597 28.7738 37.7049 28.7341 37.7049C28.6944 37.7049 27.5601 37.9318 26.8893 37.9318H26.337C25.7092 37.9318 24.6481 37.7049 24.6107 37.7049C24.5732 37.7049 24.3798 37.597 24.3798 37.597L24.3708 37.9615L24.131 37.9218C23.8906 37.8826 23.6323 37.3801 23.6323 37.3801C23.6323 37.3801 23.6692 37.7742 23.4937 37.8139C23.3182 37.8536 23.1337 37.0748 23.1337 37.0748C23.1337 37.0748 23.0873 37.2616 23.0504 37.2716C23.0135 37.2817 22.9492 36.8479 22.9492 36.8479C22.9176 36.9392 22.861 37.02 22.7859 37.0809C22.7109 37.1419 22.6202 37.1806 22.5243 37.1928C22.1889 37.2319 22.2655 35.9909 22.2655 35.9909C22.2655 35.9909 21.8227 36.6511 21.4163 36.5818C21.0099 36.5124 21.7025 34.8079 21.7025 34.8079C21.7025 34.8079 21.1413 35.1612 21.0127 34.946C20.8841 34.7308 21.0026 34.2858 21.2363 33.8425C21.47 33.3992 22.2795 32.7674 22.2795 32.7674L21.901 32.7769C21.901 32.4521 22.5098 32.2352 22.5098 32.2352L22.1962 32.048C22.1777 31.9691 23.0548 31.7919 23.0548 31.7919C22.8842 31.6713 22.7208 31.5406 22.5657 31.4006C22.389 31.2199 22.2284 31.0242 22.0855 30.8158L21.873 31.1021C21.7889 31.0101 21.7175 30.9072 21.6606 30.7963C21.541 30.5794 21.5684 30.1657 21.5684 30.1657L21.3006 30.4318L21.2083 30.1953C21.1155 29.9588 21.3101 29.6732 21.3101 29.6732L21.1714 29.7291C21.125 29.6206 21.2363 29.3254 21.2363 29.3254L20.987 29.4238C20.8483 29.1281 21.0608 28.4975 21.0608 28.4975C20.959 28.4679 20.6817 28.6457 20.6817 28.6457C20.6817 28.6457 20.6454 28.5467 20.6912 28.3499C20.7371 28.1531 20.987 27.9167 20.987 27.9167L20.8114 27.9262C20.8463 27.8113 20.9177 27.711 21.0149 27.6405C21.108 27.5757 21.2158 27.5349 21.3285 27.522C21.3285 27.522 21.3744 27.3246 21.3928 27.167C21.4113 27.0093 21.4761 26.566 21.4761 26.566C21.4761 26.566 21.3559 26.4777 21.0792 26.1624C20.8025 25.8471 20.4766 25.1796 20.4766 25.1796C20.6648 25.2493 20.8598 25.2988 21.0585 25.3272C21.2738 25.3579 21.4913 25.3698 21.7087 25.363L21.735 25.2959C21.735 25.2959 22.4489 24.0783 22.9699 24.0425C23.4909 24.0068 24.0002 24.5619 24.0002 24.5619C24.0002 24.5619 24.2098 24.4109 24.8248 24.2332C25.1373 24.1432 26.0284 23.8798 26.8994 23.9039C27.7301 23.9257 28.5413 24.2304 28.8157 24.3125C29.3748 24.4803 29.3278 24.5222 29.3278 24.5222C29.3278 24.5222 29.8723 23.8379 30.4146 23.9464C30.9121 24.0459 31.5394 25.1142 31.6573 25.3278" fill="#6E543C"/>
<path d="M26.1062 30.4133C26.1062 30.4133 26.3795 31.2558 26.7865 31.2407C27.1935 31.2256 27.4367 30.3909 27.4367 30.3909C27.4367 30.3909 28.0292 29.0548 26.7138 29.0845C25.3984 29.1141 26.1062 30.4133 26.1062 30.4133Z" fill="#B2773A"/>
<path d="M22.4138 37.1031L22.5944 36.5402C22.5944 36.5402 21.9191 35.7296 22.2679 34.1637C22.6168 32.5979 24.5091 31.8219 24.5091 31.8219C24.5091 31.8219 24.1474 31.4524 22.5709 31.3965L22.52 31.4054C22.52 31.4054 21.5177 31.6084 21.5389 31.6984L21.8978 31.9125C21.8978 31.9125 21.2013 32.1601 21.2013 32.5336L21.634 32.5224C21.634 32.5224 20.7054 33.2441 20.4415 33.7523C20.1777 34.2604 20.0407 34.7625 20.1861 35.0107C20.3314 35.2589 20.9771 34.853 20.9771 34.853C20.9771 34.853 20.1861 36.8013 20.6523 36.8807C21.1185 36.96 21.4305 36.6229 21.4305 36.6229C21.4305 36.6229 21.5389 37.6236 21.9191 37.5783C22.0287 37.5645 22.1322 37.5202 22.218 37.4505C22.3037 37.3809 22.3683 37.2886 22.4043 37.1842L22.4138 37.1031Z" fill="#5E4525"/>
<path d="M31.0634 37.1037L30.875 36.5408C30.875 36.5408 31.5805 35.7301 31.216 34.1643C30.8515 32.5984 28.877 31.8225 28.877 31.8225C28.877 31.8225 29.2515 31.4569 30.8973 31.4004L30.9532 31.406C30.9532 31.406 31.9997 31.6089 31.9779 31.6989L31.6034 31.913C31.6034 31.913 32.3301 32.1607 32.3301 32.5324L31.8784 32.5213C31.8784 32.5213 32.8478 33.243 33.1234 33.7511C33.399 34.2593 33.5416 34.7647 33.3873 35.0129C33.233 35.2611 32.5616 34.8552 32.5616 34.8552C32.5616 34.8552 33.3873 36.8035 32.9026 36.8829C32.4179 36.9623 31.9707 36.6006 31.9707 36.6006C31.9707 36.6006 31.9779 37.6258 31.5793 37.5806C31.4665 37.5687 31.3592 37.5255 31.2696 37.4559C31.18 37.3862 31.1116 37.2929 31.0723 37.1864L31.0634 37.1037Z" fill="#5E4525"/>
<path d="M26.8274 34.3847C26.2813 34.3847 25.8374 34.122 25.8105 33.791C25.8105 33.8022 25.8105 33.8139 25.8105 33.8251C25.8105 34.2075 26.2673 34.5172 26.8302 34.5172C27.3932 34.5172 27.8505 34.2075 27.8505 33.8251C27.8505 33.8139 27.8505 33.8022 27.8505 33.791C27.8181 34.122 27.3736 34.3847 26.8274 34.3847Z" fill="#583F25"/>
<path d="M25.5581 33.3536C25.0751 33.3536 24.6827 33.1205 24.6586 32.8281C24.6581 32.8384 24.6581 32.8486 24.6586 32.8589C24.6586 33.1943 25.0623 33.4705 25.5604 33.4705C26.0585 33.4705 26.4615 33.1965 26.4615 32.8589C26.4621 32.8486 26.4621 32.8384 26.4615 32.8281C26.4336 33.1205 26.0406 33.3536 25.5581 33.3536Z" fill="#583F25"/>
<path d="M24.2992 34.4786C23.8257 34.5613 23.3902 34.3992 23.3047 34.1163C23.3047 34.1264 23.3047 34.1365 23.3092 34.1465C23.3813 34.478 23.8352 34.6782 24.3244 34.5938C24.8135 34.5093 25.1512 34.1717 25.0796 33.8402C25.0796 33.8301 25.0735 33.8201 25.0707 33.8105C25.1098 34.1007 24.7733 34.397 24.2992 34.4786Z" fill="#583F25"/>
<path d="M28.0671 33.3256C27.5863 33.2881 27.2174 33.0259 27.2218 32.7324C27.2218 32.7425 27.2179 32.7525 27.2168 32.7626C27.1844 33.098 27.56 33.4033 28.0554 33.4418C28.5507 33.4804 28.98 33.2395 29.0124 32.9029C29.013 32.8927 29.013 32.8824 29.0124 32.8722C28.9616 33.1618 28.5495 33.363 28.0671 33.3256Z" fill="#583F25"/>
<path d="M29.2756 34.5248C28.7948 34.4873 28.4258 34.2246 28.4309 33.9316C28.4309 33.9417 28.427 33.9512 28.4258 33.9618C28.3929 34.2973 28.7685 34.6025 29.2644 34.6411C29.7603 34.6796 30.1891 34.4387 30.222 34.1016C30.2226 34.0913 30.2226 34.0811 30.222 34.0708C30.1706 34.361 29.7564 34.5622 29.2756 34.5248Z" fill="#583F25"/>
<path d="M28.1851 35.6893C27.7026 35.6776 27.3175 35.435 27.3029 35.1426C27.301 35.1526 27.2997 35.1626 27.299 35.1728C27.289 35.5082 27.6836 35.7939 28.1817 35.8062C28.6798 35.8185 29.0913 35.5557 29.1019 35.218C29.1019 35.2069 29.1019 35.1974 29.1019 35.1873C29.0678 35.4786 28.6675 35.7016 28.1851 35.6893Z" fill="#583F25"/>
<path d="M26.776 36.7719C26.2941 36.7926 25.8894 36.5768 25.8502 36.2856C25.8494 36.2958 25.8494 36.3061 25.8502 36.3163C25.8676 36.6517 26.2857 36.91 26.7833 36.8888C27.2808 36.8675 27.6688 36.5774 27.6509 36.2392C27.6509 36.2291 27.6509 36.219 27.6475 36.209C27.6386 36.5019 27.2585 36.7518 26.776 36.7719Z" fill="#583F25"/>
<path d="M25.5451 35.6504C25.0677 35.7147 24.6406 35.5386 24.569 35.2496C24.5681 35.2598 24.5681 35.2701 24.569 35.2803C24.6249 35.6158 25.0688 35.8316 25.5613 35.7667C26.0538 35.7019 26.4082 35.3754 26.3523 35.04C26.3523 35.0299 26.3473 35.0198 26.3451 35.0098C26.3725 35.3055 26.0225 35.5878 25.5451 35.6504Z" fill="#583F25"/>
<path d="M26.2792 37.5645C26.1601 37.5645 26.0556 37.6561 25.9935 37.797C25.9315 37.6561 25.8258 37.5645 25.7078 37.5645C25.5899 37.5645 25.4842 37.6561 25.4216 37.797C25.3601 37.6561 25.2539 37.5645 25.1365 37.5645C24.9453 37.5645 24.791 37.8004 24.791 38.0927C24.791 38.3851 24.9453 38.621 25.1365 38.621C25.255 38.621 25.3601 38.5294 25.4216 38.3885C25.4842 38.5294 25.5893 38.621 25.7078 38.621C25.8264 38.621 25.9315 38.5294 25.9935 38.3885C26.0556 38.5294 26.1612 38.621 26.2792 38.621C26.4698 38.621 26.6241 38.3846 26.6241 38.0927C26.6241 37.8009 26.472 37.5645 26.2792 37.5645Z" fill="#B2773A"/>
<path d="M28.3528 37.5645C28.2343 37.5645 28.1292 37.6561 28.0672 37.797C28.0051 37.6561 27.8995 37.5645 27.7815 37.5645C27.6635 37.5645 27.5579 37.6561 27.4958 37.797C27.4338 37.6561 27.3281 37.5645 27.2102 37.5645C27.0195 37.5645 26.8652 37.8004 26.8652 38.0927C26.8652 38.3851 27.0195 38.621 27.2102 38.621C27.3287 38.621 27.4338 38.5294 27.4958 38.3885C27.5579 38.5294 27.6635 38.621 27.7815 38.621C27.8995 38.621 28.0051 38.5294 28.0672 38.3885C28.1292 38.5294 28.2349 38.621 28.3528 38.621C28.5435 38.621 28.6978 38.3846 28.6978 38.0927C28.6978 37.8009 28.5435 37.5645 28.3528 37.5645Z" fill="#B2773A"/>
<path d="M21.996 27.0684C21.996 27.0684 21.9401 26.7945 21.679 26.7492C21.4179 26.7039 20.3178 25.0615 20.4765 25.1839C20.6353 25.3063 21.9099 25.3885 21.9099 25.3885C21.9099 25.3885 21.9395 25.3997 24.1343 25.5981C26.3101 25.7955 26.7193 27.3815 26.7193 27.3815L26.7484 27.3373C26.7484 27.3373 27.1626 25.7111 29.3937 25.578C31.6249 25.445 31.6707 25.3712 31.6707 25.3712C31.6707 25.3712 33.0303 25.2823 33.1924 25.1643C33.3545 25.0464 32.1727 26.6737 31.9066 26.7162C31.6405 26.7587 31.4868 27.0964 31.4868 27.0964L26.7037 28.6617L22.0402 27.0488" fill="#674F36"/>
<path d="M26.7635 28.5948C26.7635 30.1182 25.5985 31.3525 24.1618 31.3525C22.725 31.3525 21.5605 30.1182 21.5605 28.5948C21.5605 27.0714 22.7256 25.8359 24.1618 25.8359C25.5979 25.8359 26.7635 27.0709 26.7635 28.5948Z" fill="#B18D6D"/>
<path d="M26.4984 28.4688C26.4984 29.4416 25.6878 30.2298 24.6877 30.2298C23.6876 30.2298 22.877 29.4416 22.877 28.4688C22.877 27.4961 23.6876 26.709 24.6877 26.709C25.6878 26.709 26.4984 27.4972 26.4984 28.4688Z" fill="white"/>
<path d="M26.2961 28.4749C26.2961 29.2391 25.6594 29.8579 24.8739 29.8579C24.0885 29.8579 23.4512 29.2391 23.4512 28.4749C23.4512 27.7107 24.0885 27.0918 24.8739 27.0918C25.6594 27.0918 26.2961 27.7112 26.2961 28.4749Z" fill="#674F36"/>
<path d="M24.5776 27.9161C24.5777 27.9615 24.5643 28.0059 24.5392 28.0436C24.5141 28.0814 24.4783 28.1109 24.4364 28.1283C24.3946 28.1457 24.3485 28.1504 24.304 28.1416C24.2595 28.1328 24.2186 28.111 24.1865 28.079C24.1544 28.0469 24.1325 28.0061 24.1236 27.9616C24.1147 27.9172 24.1192 27.871 24.1365 27.8291C24.1539 27.7872 24.1832 27.7514 24.2209 27.7262C24.2587 27.701 24.303 27.6875 24.3483 27.6875C24.409 27.6875 24.4673 27.7116 24.5102 27.7544C24.5532 27.7973 24.5774 27.8555 24.5776 27.9161Z" fill="white"/>
<path d="M26.6895 28.5948C26.6895 30.1182 27.8545 31.3525 29.2912 31.3525C30.7279 31.3525 31.8924 30.1182 31.8924 28.5948C31.8924 27.0714 30.7279 25.8359 29.2912 25.8359C27.8545 25.8359 26.6895 27.0709 26.6895 28.5948Z" fill="#B18D6D"/>
<path d="M26.9551 28.4688C26.9551 29.4416 27.7662 30.2298 28.7658 30.2298C29.7654 30.2298 30.5765 29.4416 30.5765 28.4688C30.5765 27.4961 29.7659 26.709 28.7658 26.709C27.7657 26.709 26.9551 27.4972 26.9551 28.4688Z" fill="white"/>
<path d="M27.1543 28.4749C27.1543 29.2391 27.791 29.8579 28.5765 29.8579C29.3619 29.8579 29.9992 29.2391 29.9992 28.4749C29.9992 27.7107 29.3625 27.0918 28.5765 27.0918C27.7905 27.0918 27.1543 27.7112 27.1543 28.4749Z" fill="#674F36"/>
<path d="M28.877 27.9161C28.8768 27.9615 28.8902 28.0059 28.9153 28.0436C28.9404 28.0814 28.9762 28.1109 29.0181 28.1283C29.0599 28.1457 29.106 28.1504 29.1505 28.1416C29.195 28.1328 29.2359 28.111 29.268 28.079C29.3001 28.0469 29.322 28.0061 29.3309 27.9616C29.3398 27.9172 29.3353 27.871 29.318 27.8291C29.3006 27.7872 29.2713 27.7514 29.2336 27.7262C29.1959 27.701 29.1515 27.6875 29.1062 27.6875C29.0455 27.6875 28.9873 27.7116 28.9443 27.7544C28.9013 27.7973 28.8771 27.8555 28.877 27.9161Z" fill="white"/>
<path d="M31.3535 25.25L31.3697 25.2791L31.3535 25.25Z" fill="#6E543C"/>
<path d="M30.7676 22.7619C30.7676 22.7619 32.192 22.3913 31.4943 24.7146L31.3495 24.652C31.3495 24.652 31.8734 22.9526 31.0281 22.924" fill="#DA9633"/>
<path d="M30.7676 22.7625C30.8327 22.7416 30.8997 22.7274 30.9677 22.72C31.0271 22.7145 31.087 22.716 31.146 22.7245C31.2066 22.7323 31.2657 22.7487 31.3216 22.7731C31.4322 22.8219 31.5258 22.9024 31.5905 23.0046C31.6212 23.0527 31.6465 23.1041 31.666 23.1578C31.7016 23.2612 31.7205 23.3698 31.7219 23.4792C31.7232 23.5856 31.7167 23.6919 31.7023 23.7973C31.69 23.9013 31.6738 24.0053 31.6564 24.1087C31.6201 24.3155 31.5804 24.5218 31.5301 24.7236L31.5206 24.7633L31.4753 24.746L31.33 24.6901L31.2948 24.6761L31.3043 24.6409C31.3244 24.5632 31.3434 24.4844 31.3602 24.4055C31.3769 24.3267 31.392 24.2468 31.4043 24.1674C31.4166 24.088 31.4284 24.0081 31.4367 23.9281C31.4451 23.8482 31.4524 23.7682 31.4546 23.6883C31.4653 23.5293 31.4464 23.3697 31.3987 23.2176C31.3726 23.1415 31.3264 23.0739 31.2651 23.0219C31.2319 22.9945 31.194 22.9733 31.1533 22.9593C31.1119 22.9443 31.069 22.9342 31.0253 22.9291L31.0169 22.9168C31.066 22.9157 31.1151 22.9209 31.1628 22.9325C31.2088 22.9439 31.2526 22.9628 31.2925 22.9884C31.3314 23.0142 31.3663 23.0457 31.3959 23.0817C31.4238 23.1162 31.4476 23.1537 31.4669 23.1935C31.5028 23.2721 31.5279 23.3553 31.5413 23.4406C31.5542 23.5237 31.5607 23.6076 31.5609 23.6916C31.5612 23.7747 31.5571 23.8578 31.5486 23.9404C31.5391 24.0226 31.5279 24.1042 31.5117 24.1853C31.4954 24.2663 31.4787 24.3463 31.4585 24.4262C31.4384 24.5062 31.4161 24.585 31.3903 24.6644L31.3652 24.6146L31.5061 24.6811L31.4502 24.7029C31.4848 24.6046 31.5184 24.5056 31.548 24.4055C31.562 24.3552 31.5771 24.3055 31.5888 24.254C31.6005 24.2026 31.6117 24.1528 31.6212 24.1014C31.6307 24.05 31.6374 23.9986 31.6442 23.9466C31.6509 23.8946 31.6537 23.8431 31.6553 23.7912C31.6587 23.6873 31.6537 23.5834 31.6402 23.4803C31.6335 23.4289 31.6246 23.3786 31.614 23.3283C31.6029 23.2785 31.5889 23.2294 31.572 23.1812C31.5551 23.133 31.5334 23.0865 31.5072 23.0426C31.4807 22.9989 31.4487 22.9587 31.4121 22.923C31.3741 22.8868 31.3312 22.8561 31.2847 22.8318C31.2362 22.8069 31.1847 22.7881 31.1315 22.7759C31.0765 22.763 31.0203 22.7555 30.9638 22.7536C30.9078 22.7515 30.8517 22.7541 30.7961 22.7614L30.7676 22.7625Z" fill="#996633"/>
<path d="M31.1926 24.8984C30.9075 25.6939 30.3691 26.5526 30.3691 26.5526L30.6705 26.2966L30.6425 26.3933L30.6146 26.5152L30.5782 26.7293L30.8052 26.4442L30.7951 26.6997C30.7951 26.6997 30.9925 26.3782 31.0109 26.3245L30.955 26.6991C30.955 26.6991 31.329 26.3709 31.556 24.9454" fill="#B87A32"/>
<path d="M30.5237 26.8562L30.583 26.509L30.6092 26.3972L30.2246 26.7204L30.3409 26.5353C30.3465 26.5264 30.8809 25.6705 31.1627 24.8867L31.2292 24.9085C31.0224 25.4838 30.6808 26.097 30.5086 26.3911L30.7389 26.1954L30.6797 26.4017L30.6517 26.5219L30.6383 26.6007L30.8474 26.3385L30.8384 26.5622C30.9044 26.4503 30.9709 26.3385 30.9804 26.31L31.0481 26.3257L31.0134 26.5733C31.1336 26.395 31.3678 25.9377 31.5272 24.9359L31.5965 24.9471C31.3729 26.3671 31.0011 26.7042 30.9855 26.7181L30.9128 26.7813L30.9519 26.5074C30.896 26.5991 30.8401 26.6941 30.8289 26.712L30.7579 26.8322L30.7691 26.5493L30.5237 26.8562Z" fill="#996633"/>
<path d="M31.1387 24.9479C31.1387 24.9479 31.2354 24.5303 31.4808 24.6421C31.6893 24.7382 31.5468 25.0943 31.5468 25.0943C31.5468 25.0943 31.2236 25.0362 31.1387 24.9479Z" fill="#DA9633"/>
<path d="M31.1309 24.9479C31.1273 24.9257 31.1261 24.9032 31.1275 24.8808C31.128 24.8584 31.1304 24.8362 31.1348 24.8143C31.1433 24.7689 31.1594 24.7252 31.1823 24.6851C31.1952 24.6629 31.211 24.6424 31.2293 24.6242C31.2503 24.603 31.2752 24.5859 31.3025 24.5739C31.3343 24.5606 31.3687 24.5549 31.4031 24.5571C31.4358 24.5594 31.4677 24.5681 31.497 24.5828L31.5065 24.5879H31.5116H31.5144H31.5177L31.5256 24.5923L31.5339 24.5979L31.5552 24.6136L31.572 24.6298C31.5919 24.6505 31.6068 24.6756 31.6156 24.703C31.6282 24.7495 31.6301 24.7982 31.6211 24.8456C31.6144 24.8892 31.6077 24.9311 31.6033 24.9736C31.6005 24.9948 31.5993 25.0166 31.5982 25.0384C31.5971 25.0602 31.5982 25.0826 31.5926 25.1061L31.5882 25.134H31.5373C31.5187 25.1351 31.5 25.1351 31.4814 25.134C31.4626 25.1322 31.4439 25.1292 31.4255 25.1251C31.3885 25.116 31.3523 25.1042 31.317 25.0899C31.2811 25.0747 31.2469 25.056 31.2147 25.034C31.1983 25.0227 31.183 25.01 31.1689 24.996C31.1545 24.9823 31.1429 24.966 31.1348 24.9479H31.1309ZM31.1476 24.9479C31.1633 24.9535 31.1784 24.9585 31.194 24.9624C31.2097 24.9663 31.2287 24.9702 31.246 24.9736L31.3489 24.9943C31.3836 25.0015 31.4182 25.0088 31.4523 25.0172C31.4868 25.0265 31.5206 25.0381 31.5535 25.0519L31.4976 25.0798C31.5098 25.0635 31.5208 25.0463 31.5306 25.0284C31.5413 25.0108 31.5499 24.992 31.5563 24.9725C31.568 24.9335 31.5703 24.8923 31.563 24.8523C31.5562 24.8145 31.54 24.7789 31.516 24.7489C31.5061 24.7368 31.4947 24.7261 31.4819 24.717L31.4764 24.7086L31.4691 24.7047H31.4635L31.4557 24.7013H31.4518H31.4551H31.449C31.436 24.697 31.4223 24.6955 31.4087 24.6969C31.3976 24.6977 31.3867 24.7001 31.3763 24.7041C31.3479 24.7179 31.3223 24.7369 31.3008 24.76C31.274 24.7889 31.249 24.8193 31.2259 24.8512L31.1885 24.902L31.1476 24.9479Z" fill="#996633"/>
<path d="M31.375 24.557C31.3834 24.5417 31.3931 24.5271 31.4041 24.5134C31.4265 24.4854 31.4512 24.4592 31.4779 24.4352C31.5069 24.4095 31.5366 24.3854 31.56 24.367C31.5712 24.358 31.5813 24.3502 31.588 24.3435L31.5997 24.334C31.5997 24.334 31.5997 24.3396 31.5997 24.3485C31.6005 24.3543 31.6005 24.3601 31.5997 24.3658C31.5986 24.3729 31.5967 24.3799 31.5941 24.3865C31.5877 24.4034 31.579 24.4194 31.5684 24.4341C31.5562 24.4505 31.5423 24.4656 31.5271 24.4793C31.4987 24.5056 31.4657 24.5264 31.4298 24.5408C31.4122 24.5484 31.3938 24.5539 31.375 24.557Z" fill="#996633"/>
<path d="M31.4238 24.2655C31.4321 24.2504 31.4418 24.2362 31.4529 24.223C31.4752 24.1945 31.5001 24.1681 31.5272 24.1442C31.5558 24.1184 31.5832 24.0944 31.6089 24.0765C31.6201 24.067 31.6307 24.0592 31.6374 24.053L31.6486 24.043C31.649 24.048 31.649 24.053 31.6486 24.0581C31.6493 24.0636 31.6493 24.0693 31.6486 24.0748C31.6477 24.082 31.6458 24.0889 31.643 24.0955C31.6364 24.1123 31.6277 24.1283 31.6173 24.143C31.6055 24.1597 31.5918 24.1749 31.5764 24.1883C31.5477 24.2142 31.5148 24.2349 31.4792 24.2498C31.4615 24.2575 31.4429 24.2627 31.4238 24.2655Z" fill="#996633"/>
<path d="M31.4668 23.9477C31.4751 23.9324 31.4846 23.9178 31.4953 23.9041C31.5181 23.8762 31.543 23.85 31.5697 23.8258C31.5987 23.8001 31.6284 23.776 31.6518 23.7582C31.663 23.7486 31.6736 23.7408 31.6798 23.7347L31.6915 23.7246C31.6915 23.7246 31.6915 23.7302 31.6915 23.7397C31.6923 23.7453 31.6923 23.7509 31.6915 23.7565C31.6901 23.7637 31.6881 23.7708 31.6854 23.7777C31.6793 23.7945 31.6708 23.8103 31.6602 23.8247C31.6483 23.8412 31.6346 23.8564 31.6194 23.87C31.5905 23.896 31.5574 23.9169 31.5216 23.932C31.504 23.9394 31.4856 23.9446 31.4668 23.9477Z" fill="#996633"/>
<path d="M31.5266 23.6299L31.4863 23.5796C31.5266 23.5533 31.6373 23.4678 31.6613 23.3984L31.7172 23.4258C31.6822 23.5158 31.614 23.5889 31.5266 23.6299Z" fill="#996633"/>
<path d="M31.4942 23.3454L31.4707 23.2895C31.5266 23.2707 31.5729 23.2305 31.5993 23.1777L31.6636 23.1979C31.6471 23.2328 31.6235 23.264 31.5944 23.2894C31.5652 23.3148 31.5311 23.3339 31.4942 23.3454Z" fill="#996633"/>
<path d="M31.3656 23.1251L31.332 23.0876C31.37 23.0597 31.474 22.9758 31.4936 22.916L31.5361 22.9395C31.5065 23.0228 31.3695 23.1206 31.3656 23.1251Z" fill="#996633"/>
<path d="M31.2654 22.9825L31.2129 22.9434C31.2414 22.8956 31.2557 22.8407 31.2543 22.7852H31.3213C31.3234 22.8551 31.3039 22.924 31.2654 22.9825Z" fill="#996633"/>
<path d="M31.068 22.9343C31.052 22.8684 31.0199 22.8075 30.9746 22.757L31.0232 22.7168C31.0777 22.7752 31.1163 22.8466 31.1351 22.9242L31.068 22.9343Z" fill="#996633"/>
<path d="M31.3714 25.0478L31.3479 25.0987C31.3334 25.1311 31.3116 25.1769 31.2847 25.2317C31.2579 25.2865 31.2288 25.3502 31.193 25.4184C31.1573 25.4866 31.1204 25.5582 31.0812 25.6303C31.0611 25.6661 31.0415 25.7019 31.0225 25.7371C31.0035 25.7723 30.984 25.807 30.9666 25.84L30.8599 26.0194C30.7928 26.1217 30.748 26.1871 30.748 26.1871C30.748 26.1871 30.7849 26.115 30.8408 26.0077L30.9264 25.8193C30.9415 25.7852 30.956 25.7488 30.9717 25.7125C30.9873 25.6762 31.0024 25.6387 31.0181 25.6007C31.0466 25.5258 31.0768 25.4514 31.103 25.381C31.1293 25.3105 31.1534 25.2446 31.1729 25.1876C31.1925 25.1305 31.2093 25.0836 31.2199 25.05L31.2372 24.998L31.3714 25.0478Z" fill="#996633"/>
<path d="M31.4787 25.1047L31.4658 25.1432C31.458 25.1678 31.4457 25.2025 31.4306 25.2433C31.4155 25.2841 31.3965 25.3322 31.3747 25.3831C31.3529 25.4339 31.3344 25.4899 31.3109 25.5402C31.2983 25.5663 31.286 25.5925 31.274 25.619C31.2617 25.6453 31.2489 25.6704 31.2366 25.6945C31.2103 25.7431 31.1885 25.7889 31.1661 25.8264L31.0918 25.9527C31.0918 25.9527 31.1158 25.8968 31.1477 25.8202C31.1661 25.7811 31.1824 25.7325 31.2036 25.6827C31.2131 25.657 31.2237 25.6313 31.2321 25.6039C31.2405 25.5765 31.2506 25.548 31.2595 25.5228C31.2785 25.4669 31.2925 25.411 31.3087 25.3613C31.3249 25.3115 31.3355 25.2606 31.3456 25.2193C31.3557 25.1779 31.3635 25.1427 31.3685 25.1187C31.3736 25.0946 31.3769 25.0801 31.3769 25.0801L31.4787 25.1047Z" fill="#996633"/>
</g>
<path d="M4.57227 1C4.57227 0.447716 5.01998 0 5.57227 0H47.0002C47.5525 0 48.0002 0.447715 48.0002 1V6.85705H4.57227V1Z" fill="#339B96"/>
<defs>
<filter id="filter0_d_691_11271" x="0.572266" y="0" width="51.4277" height="69.7129" filterUnits="userSpaceOnUse" color-interpolation-filters="sRGB">
<feFlood flood-opacity="0" result="BackgroundImageFix"/>
<feColorMatrix in="SourceAlpha" type="matrix" values="0 0 0 0 0 0 0 0 0 0 0 0 0 0 0 0 0 0 127 0" result="hardAlpha"/>
<feOffset dy="4"/>
<feGaussianBlur stdDeviation="2"/>
<feComposite in2="hardAlpha" operator="out"/>
<feColorMatrix type="matrix" values="0 0 0 0 0 0 0 0 0 0 0 0 0 0 0 0 0 0 0.1 0"/>
<feBlend mode="normal" in2="BackgroundImageFix" result="effect1_dropShadow_691_11271"/>
<feBlend mode="normal" in="SourceGraphic" in2="effect1_dropShadow_691_11271" result="shape"/>
</filter>
<filter id="filter1_d_691_11271" x="5" y="10" width="43.4512" height="50" filterUnits="userSpaceOnUse" color-interpolation-filters="sRGB">
<feFlood flood-opacity="0" result="BackgroundImageFix"/>
<feColorMatrix in="SourceAlpha" type="matrix" values="0 0 0 0 0 0 0 0 0 0 0 0 0 0 0 0 0 0 127 0" result="hardAlpha"/>
<feOffset dy="4"/>
<feGaussianBlur stdDeviation="7.5"/>
<feComposite in2="hardAlpha" operator="out"/>
<feColorMatrix type="matrix" values="0 0 0 0 0 0 0 0 0 0 0 0 0 0 0 0 0 0 0.15 0"/>
<feBlend mode="normal" in2="BackgroundImageFix" result="effect1_dropShadow_691_11271"/>
<feBlend mode="normal" in="SourceGraphic" in2="effect1_dropShadow_691_11271" result="shape"/>
</filter>
</defs>
</svg>
