<svg width="70" height="70" viewBox="0 0 70 70" fill="none" xmlns="http://www.w3.org/2000/svg">
<path d="M35 70C54.33 70 70 54.33 70 35C70 15.67 54.33 0 35 0C15.67 0 0 15.67 0 35C0 54.33 15.67 70 35 70Z" fill="#D95975"/>
<path d="M47.5975 28.6966C48.0301 29.3151 48.1274 30.015 47.8895 30.7962L43.4282 45.5423C43.2228 46.2368 42.8091 46.82 42.1872 47.292C41.5653 47.764 40.9029 48 40.1999 48H25.2264C24.3936 48 23.5906 47.7097 22.8173 47.1292C22.044 46.5487 21.506 45.8353 21.2031 44.9889C20.9436 44.2619 20.9328 43.5729 21.1707 42.9219C21.1707 42.8785 21.1869 42.732 21.2194 42.4824C21.2518 42.2329 21.2734 42.0321 21.2842 41.8802C21.2951 41.7934 21.2788 41.6768 21.2356 41.5303C21.1923 41.3838 21.1761 41.278 21.1869 41.2129C21.2085 41.0935 21.2518 40.9796 21.3167 40.8711C21.3816 40.7626 21.4708 40.6351 21.5844 40.4886C21.6979 40.3421 21.7872 40.2146 21.852 40.1061C22.1008 39.6938 22.3441 39.1974 22.5821 38.6169C22.82 38.0363 22.9822 37.5399 23.0687 37.1276C23.1012 37.0191 23.1039 36.8563 23.0769 36.6393C23.0498 36.4223 23.0471 36.2704 23.0687 36.1836C23.1012 36.0642 23.1931 35.9123 23.3445 35.7279C23.4959 35.5434 23.5879 35.4186 23.6203 35.3535C23.8474 34.9629 24.0746 34.4638 24.3017 33.8561C24.5288 33.2485 24.664 32.7602 24.7072 32.3913C24.7181 32.2936 24.7045 32.12 24.6667 31.8704C24.6288 31.6209 24.6315 31.469 24.6748 31.4147C24.7181 31.2737 24.837 31.1082 25.0317 30.9183C25.2264 30.7284 25.3453 30.6063 25.3886 30.5521C25.5941 30.27 25.8239 29.8115 26.0781 29.1768C26.3322 28.542 26.4809 28.0184 26.5242 27.6061C26.535 27.5193 26.5188 27.381 26.4755 27.1911C26.4323 27.0012 26.4214 26.8574 26.4431 26.7598C26.4647 26.673 26.5134 26.5753 26.5891 26.4668C26.6648 26.3583 26.7621 26.2335 26.8811 26.0924C27 25.9514 27.092 25.8375 27.1569 25.7507C27.2434 25.6204 27.3326 25.455 27.4245 25.2542C27.5165 25.0535 27.5976 24.8636 27.6679 24.6846C27.7382 24.5055 27.8247 24.3102 27.9274 24.0986C28.0302 23.887 28.1356 23.7134 28.2438 23.5778C28.3519 23.4422 28.4952 23.3147 28.6737 23.1953C28.8521 23.076 29.0468 23.0136 29.2577 23.0081C29.4686 23.0027 29.7255 23.0326 30.0283 23.0977L30.0121 23.1465C30.423 23.0488 30.6988 23 30.8394 23H43.1849C43.9852 23 44.6017 23.3038 45.0343 23.9115C45.4669 24.5191 45.5642 25.2244 45.3263 26.0273L40.8813 40.7734C40.4919 42.0647 40.1053 42.8975 39.7214 43.2718C39.3374 43.6462 38.6425 43.8333 37.6367 43.8333H23.5392C23.2472 43.8333 23.0417 43.9147 22.9227 44.0775C22.8038 44.2511 22.7984 44.4844 22.9065 44.7773C23.1661 45.5369 23.9448 45.9167 25.2426 45.9167H40.2161C40.5298 45.9167 40.8326 45.8326 41.1246 45.6644C41.4166 45.4962 41.6059 45.271 41.6924 44.9889L46.5592 28.9245C46.6349 28.6858 46.662 28.3765 46.6403 27.9967C47.0513 28.1595 47.3704 28.3928 47.5975 28.6966ZM30.3365 28.7292C30.2933 28.8702 30.3041 28.9923 30.369 29.0954C30.4339 29.1985 30.542 29.25 30.6934 29.25H40.5568C40.6974 29.25 40.8353 29.1985 40.9705 29.0954C41.1057 28.9923 41.1949 28.8702 41.2382 28.7292L41.5789 27.6875C41.6221 27.5464 41.6113 27.4244 41.5464 27.3213C41.4815 27.2182 41.3734 27.1667 41.222 27.1667H31.3585C31.218 27.1667 31.0801 27.2182 30.9449 27.3213C30.8097 27.4244 30.7205 27.5464 30.6772 27.6875L30.3365 28.7292ZM28.99 32.8958C28.9468 33.0369 28.9576 33.159 29.0225 33.262C29.0874 33.3651 29.1955 33.4167 29.3469 33.4167H39.2103C39.3509 33.4167 39.4888 33.3651 39.624 33.262C39.7592 33.159 39.8484 33.0369 39.8917 32.8958L40.2324 31.8542C40.2756 31.7131 40.2648 31.591 40.1999 31.488C40.135 31.3849 40.0269 31.3333 39.8755 31.3333H30.0121C29.8715 31.3333 29.7336 31.3849 29.5984 31.488C29.4632 31.591 29.374 31.7131 29.3307 31.8542L28.99 32.8958Z" fill="white"/>
</svg>
