<svg width="797" height="958" viewBox="0 0 797 958" fill="none" xmlns="http://www.w3.org/2000/svg">
<g filter="url(#filter0_d_1062_9622)">
<path d="M30 96C30 57.3401 61.3401 26 100 26H697C735.66 26 767 57.3401 767 96V928H100C61.3401 928 30 896.66 30 858V96Z" fill="#339B96"/>
</g>
<g filter="url(#filter1_d_1062_9622)">
<path d="M231.345 253.134C231.345 255.011 264.589 272.515 265.865 273.772C270.086 277.655 307.27 260.639 307.27 260.639L297.214 208.483H265.79L246.353 235.818L231.345 253.134Z" fill="#373737"/>
<path d="M550.506 266.155C550.506 266.155 528.875 274.11 525.216 273.772C521.558 273.434 485.556 259.495 485.556 259.495L496.944 214.581L528.218 217.677L544.84 246.756L550.506 266.155Z" fill="#373737"/>
<path d="M513.359 274.185C513.359 274.185 465.575 241.203 399.199 239.308C336.068 237.432 279.241 273.491 278.828 273.36C250.105 265.124 218.212 252.572 211.458 238.202C210.182 235.462 204.31 226.326 211.458 222.93C211.458 222.93 315.975 178.035 387.586 143.628C392.801 141.114 409.048 140.72 414.714 143.365C420.38 146.01 532.908 202.424 580.261 224.919C585.439 227.395 579.285 236.832 566.171 245.875C553.057 254.918 551.407 257.507 529.062 267.675L513.359 274.185Z" fill="#373737"/>
<path d="M422.031 230.472C422.031 230.472 368.9 239.234 401.225 238.802C464.356 237.92 518.331 275.311 518.763 275.198C547.711 267.525 581.912 255.687 588.948 241.429C590.28 238.727 596.358 230.041 589.267 226.42C588.666 226.42 485.237 177.341 413.87 143.065C408.636 140.551 393.083 140.664 387.605 143.628C382.127 146.592 339.295 229.928 391.526 233.68C483.624 240.491 388.168 221.542 401.094 230.829C414.02 240.115 394.378 220.229 416.516 230.829L422.031 230.472Z" fill="#373737"/>
<path d="M309.822 217.227C308.902 217.64 303.405 220.191 303.518 221.186C304.381 228.09 312.017 253.905 305.394 286.699C301.004 308.556 315.112 317.204 401.337 318.762C428.222 319.249 472.198 317.955 488.032 303.453C495.405 296.717 487.544 284.373 485.555 260.302C483.417 234.525 491.184 218.39 487.319 217.771C486.493 217.64 410.68 172.67 309.822 217.227Z" fill="#47474A"/>
<path d="M304.513 249.815C304.513 249.815 313.049 278.951 305.376 316.961C300.986 338.798 315.094 347.447 401.319 349.004C428.204 349.492 472.179 348.198 488.014 333.714C495.387 326.979 487.526 314.616 485.537 290.564C484.163 276.38 484.756 262.073 487.301 248.052C487.32 247.226 406.16 204.076 304.513 249.815Z" fill="#DA9633"/>
<path d="M618.233 699.27L179.095 731.014L297.89 371.629L493.904 371.892L618.233 699.27Z" fill="#B6394A"/>
<path d="M596.621 757.561C596.76 736.189 604.297 715.525 617.952 699.083H233.652C199.882 699.083 172.604 724.448 172.604 755.779C172.604 787.109 199.939 812.474 233.652 812.474H615.213C603.276 796.643 596.757 777.388 596.621 757.561Z" fill="#B6394A"/>
<path d="M596.621 757.562C596.652 744.241 599.638 731.092 605.363 719.064H208.025V793.114H604.05C599.174 781.894 596.645 769.795 596.621 757.562Z" fill="white"/>
<path d="M600.936 730.377H208.025V731.09H600.711L600.936 730.377Z" fill="#939498"/>
<path d="M599.585 735.011H208.025V735.742H599.379C599.454 735.499 599.51 735.255 599.585 735.011Z" fill="#939498"/>
<path d="M598.478 739.701H208.025V740.358H598.347C598.403 740.151 598.441 739.926 598.478 739.701Z" fill="#939498"/>
<path d="M597.653 744.335H208.025V745.067H597.559C597.596 744.823 597.615 744.579 597.653 744.335Z" fill="#939498"/>
<path d="M597.184 748.987H208.025V749.738H597.015C597.033 749.475 597.052 749.231 597.184 748.987Z" fill="#939498"/>
<path d="M596.752 753.64H208.025V754.371H596.733C596.733 754.127 596.733 753.884 596.752 753.64Z" fill="#939498"/>
<path d="M596.658 758.293H208.025V759.118H596.677C596.677 758.781 596.658 758.556 596.658 758.293Z" fill="#939498"/>
<path d="M596.808 762.965H208.025V763.678H596.865C596.865 763.434 596.827 763.19 596.808 762.965Z" fill="#939498"/>
<path d="M597.184 767.617H208.025V768.33H597.334C597.264 768.097 597.214 767.859 597.184 767.617Z" fill="#939498"/>
<path d="M597.859 772.251H208.025V772.983H598.009C597.953 772.758 597.915 772.532 597.859 772.251Z" fill="#939498"/>
<path d="M598.778 776.941H208.025V777.673H598.947C598.904 777.426 598.848 777.182 598.778 776.941Z" fill="#939498"/>
<path d="M599.96 781.631H208.025V782.344H600.129C600.092 782.081 600.035 781.818 599.96 781.631Z" fill="#939498"/>
<path d="M601.405 786.266H208.025V786.96H601.63C601.555 786.716 601.461 786.491 601.405 786.266Z" fill="#939498"/>
<path d="M602.437 726.08H208.025V726.793H602.155C602.249 726.549 602.324 726.305 602.437 726.08Z" fill="#939498"/>
<path d="M326.162 305.103C326.162 305.103 314.061 302.683 322.954 297.055C331.847 291.426 370.476 284.166 409.817 285.142C449.159 286.117 511.821 291.539 484.617 306.679" fill="#47474A"/>
<path d="M326.162 305.103C325.416 305.025 324.676 304.894 323.949 304.709C323.068 304.494 322.213 304.186 321.397 303.79C320.832 303.547 320.312 303.211 319.859 302.796C319.574 302.541 319.344 302.232 319.179 301.888C319.015 301.543 318.921 301.169 318.902 300.788C318.906 299.95 319.19 299.138 319.709 298.481C320.205 297.787 320.785 297.157 321.435 296.604L321.941 296.192L322.185 296.004L322.523 295.779L323.592 295.122C324.388 294.642 325.215 294.216 326.069 293.847C330.02 292.08 334.104 290.625 338.282 289.494C342.803 288.237 347.662 286.961 353.047 285.986C358.431 285.01 363.909 283.978 369.763 283.284L374.19 282.74L378.693 282.327C381.695 282.008 384.772 281.821 387.848 281.614C394.04 281.277 400.324 281.089 406.609 281.202C412.894 281.314 419.142 281.539 425.37 281.915C431.599 282.29 437.546 282.796 443.4 283.415C449.253 284.035 454.844 284.823 460.153 285.704C465.169 286.498 470.141 287.55 475.049 288.856C479.279 289.875 483.373 291.392 487.244 293.378C488.963 294.236 490.459 295.482 491.615 297.017C492.103 297.723 492.365 298.561 492.365 299.419C492.365 300.277 492.103 301.114 491.615 301.82C490.912 302.843 490.013 303.717 488.97 304.39C488.088 304.972 487.3 305.403 486.662 305.741C486.025 306.079 485.518 306.285 485.162 306.454L484.655 306.679L485.105 306.341L486.381 305.385C487.038 304.864 487.664 304.307 488.257 303.715C489.037 302.989 489.673 302.124 490.133 301.163C490.356 300.682 490.419 300.143 490.315 299.624C490.21 299.104 489.943 298.632 489.552 298.274C488.434 297.268 487.126 296.496 485.706 296.004C481.863 294.694 477.906 293.745 473.886 293.171C469.402 292.458 464.506 291.933 459.234 291.408C453.962 290.882 448.428 290.582 442.687 290.226C436.946 289.869 430.961 289.644 424.901 289.4C418.842 289.156 412.669 288.95 406.572 288.912C400.475 288.875 394.358 288.912 388.336 289.081C382.314 289.25 376.385 289.607 370.663 290.076C364.941 290.545 359.407 291.014 354.191 291.652L350.326 292.139L346.574 292.665C344.117 292.965 341.79 293.415 339.52 293.772C337.25 294.128 335.149 294.616 333.141 295.085L331.622 295.404L330.196 295.779C329.277 296.023 328.32 296.248 327.532 296.529C326.714 296.773 325.912 297.068 325.13 297.411L323.967 297.936H323.817L323.555 298.087L323.067 298.349C321.829 299.081 320.815 299.963 320.703 300.751C320.59 301.539 321.322 302.383 322.072 302.946C322.757 303.436 323.493 303.851 324.267 304.184C324.881 304.526 325.514 304.832 326.162 305.103Z" fill="#0F100E"/>
<path opacity="0.25" d="M311.829 259.101C311.807 259.039 311.81 258.971 311.838 258.911C311.866 258.851 311.917 258.805 311.979 258.782C312.041 258.76 312.11 258.763 312.17 258.791C312.23 258.819 312.276 258.87 312.298 258.932C315.656 265.292 331.659 288.762 382.877 283.04C382.877 283.04 292.618 290.545 327.982 312.457C327.982 312.457 308.283 309.343 309.465 292.74C310.628 276.699 314.155 275.405 311.829 259.101Z" fill="#0F100E"/>
<path opacity="0.25" d="M392.802 320.112C352.578 320.112 319.99 311.988 319.99 301.97C319.99 291.952 352.578 283.828 392.802 283.828C392.802 283.828 329.69 311.97 395.991 319.474L392.802 320.112Z" fill="#0F100E"/>
<path opacity="0.25" d="M420.361 283.527C460.772 283.527 493.529 291.651 493.529 301.669C493.529 311.688 460.754 319.83 420.361 319.83C420.361 319.83 483.811 291.688 417.172 284.184L420.361 283.527Z" fill="#0F100E"/>
<path opacity="0.5" d="M405.672 320.093C452.992 320.093 491.353 311.971 491.353 301.951C491.353 291.932 452.992 283.81 405.672 283.81C358.351 283.81 319.99 291.932 319.99 301.951C319.99 311.971 358.351 320.093 405.672 320.093Z" fill="#0F100E"/>
<path d="M545.422 282.871C545.422 282.871 527.055 243.698 519.156 244.186C511.258 244.674 510.226 269.982 510.226 269.982L545.422 282.871Z" fill="#675139"/>
<path d="M563.732 286.529L564.276 287.505C573.874 288.043 583.5 287.71 593.037 286.511C600.133 285.561 607.116 283.902 613.88 281.558C613.88 281.558 602.286 304.071 592.38 314.633C582.475 325.196 578.16 328.179 578.16 328.179C578.16 328.179 580.467 343.056 581.124 348.347C581.694 352.354 582.464 356.33 583.431 360.26C587.443 360.685 591.299 362.048 594.688 364.237C598.116 366.531 600.679 369.906 601.967 373.824L595.682 373.505C595.682 373.505 604.594 381.422 606.264 388.045C607.933 394.668 606.582 397.969 606.582 397.969C606.582 397.969 596.677 392.003 593.037 392.998C593.037 392.998 600.635 414.16 595.682 424.085L586.752 420.783C586.752 420.783 590.711 430.689 589.078 434.328L584.107 432.452C584.107 432.452 591.048 442.039 587.746 449.975L584.445 457.911L574.858 448.981C574.858 448.981 575.833 462.864 571.556 470.143C569.492 473.892 566.93 477.344 563.939 480.405L556.322 470.8C551.171 477.796 545.421 484.33 539.137 490.33C533.556 495.044 527.705 499.429 521.614 503.462C521.614 503.462 553.02 509.41 552.363 512.055L541.107 518.34C541.107 518.34 562.944 525.619 562.944 536.519L549.399 536.2C549.399 536.2 578.479 557.4 586.752 572.278C595.026 587.155 599.303 602.032 594.688 609.312C590.073 616.591 569.886 604.678 569.886 604.678C569.886 604.678 594.688 661.899 580.13 664.206C565.571 666.514 549.718 644.376 549.718 644.376C549.718 644.376 552.363 686.025 540.45 684.712C537.09 684.391 533.886 683.137 531.201 681.092C528.516 679.046 526.456 676.291 525.254 673.137C525.254 673.137 522.927 687.676 521.614 687.357C520.301 687.038 518.631 680.753 518.631 680.753C518.631 680.753 512.008 706.888 505.742 705.555C499.476 704.223 500.789 690.997 500.789 690.997C500.789 690.997 491.521 707.882 482.91 709.176L474.318 710.508L473.999 698.276C473.999 698.276 467.057 701.897 465.725 701.897C464.393 701.897 426.327 709.514 403.814 709.514H385.278C364.21 709.514 328.601 701.897 327.344 701.897C326.087 701.897 319.596 698.276 319.596 698.276L319.296 710.508L311.247 709.176C303.18 707.863 294.513 690.997 294.513 690.997C294.513 690.997 295.751 704.223 289.86 705.555C283.969 706.888 277.778 680.753 277.778 680.753C277.778 680.753 276.221 687.02 274.982 687.357C273.744 687.695 271.587 673.137 271.587 673.137C270.525 676.203 268.627 678.912 266.108 680.957C263.589 683.003 260.548 684.303 257.328 684.712C246.072 686.025 248.642 644.376 248.642 644.376C248.642 644.376 233.783 666.533 220.144 664.206C206.505 661.88 229.75 604.678 229.75 604.678C229.75 604.678 210.914 616.535 206.599 609.312C202.284 602.089 206.261 587.155 214.103 572.278C221.945 557.4 249.111 536.2 249.111 536.2L236.41 536.519C236.41 525.619 256.841 518.34 256.841 518.34L246.316 512.055C245.697 509.41 275.132 503.462 275.132 503.462C269.405 499.414 263.923 495.029 258.717 490.33C252.789 484.266 247.397 477.7 242.601 470.706L235.472 480.311C232.648 477.224 230.251 473.772 228.343 470.049C224.328 462.77 225.247 448.887 225.247 448.887L216.261 457.817L213.165 449.881C210.051 441.945 216.58 432.358 216.58 432.358L211.927 434.234C210.37 430.595 214.103 420.689 214.103 420.689L205.736 423.991C201.083 414.066 208.212 392.904 208.212 392.904C204.798 391.91 195.492 397.876 195.492 397.876C195.492 397.876 194.273 394.555 195.811 387.951C197.35 381.347 205.736 373.411 205.736 373.411L199.845 373.73C201.014 369.875 203.412 366.508 206.674 364.143C209.799 361.968 213.415 360.601 217.199 360.166C217.199 360.166 218.737 353.544 219.356 348.253C219.975 342.962 222.152 328.085 222.152 328.085C222.152 328.085 218.118 325.121 208.831 314.539C199.545 303.958 188.607 281.558 188.607 281.558C194.923 283.897 201.47 285.557 208.137 286.511C215.362 287.539 222.662 287.941 229.956 287.711L230.838 285.46C230.838 285.46 254.796 244.599 272.281 243.398C289.766 242.197 306.857 260.827 306.857 260.827C306.857 260.827 313.893 255.761 334.53 249.795C345.017 246.775 374.922 237.938 404.152 238.745C432.03 239.477 459.253 249.702 468.464 252.459C487.225 258.088 485.649 259.495 485.649 259.495C485.649 259.495 503.922 236.531 522.121 240.171C538.818 243.51 559.868 279.363 563.826 286.529" fill="#6E543C"/>
<path d="M377.511 457.236C377.511 457.236 386.685 485.509 400.343 485.002C414.001 484.496 422.162 456.486 422.162 456.486C422.162 456.486 442.049 411.647 397.905 412.641C353.76 413.636 377.511 457.236 377.511 457.236Z" fill="#B2773A"/>
<path d="M253.576 681.71L259.636 662.818C259.636 662.818 236.973 635.614 248.679 583.065C260.386 530.516 323.892 504.475 323.892 504.475C323.892 504.475 311.754 492.074 258.848 490.198L257.141 490.498C257.141 490.498 223.502 497.309 224.215 500.329L236.26 507.515C236.26 507.515 212.884 515.826 212.884 528.358L227.405 527.983C227.405 527.983 196.243 552.203 187.387 569.257C178.532 586.311 173.936 603.158 178.814 611.488C183.691 619.818 205.36 606.197 205.36 606.197C205.36 606.197 178.814 671.579 194.46 674.243C210.107 676.907 220.576 665.594 220.576 665.594C220.576 665.594 224.215 699.177 236.973 697.657C240.651 697.191 244.125 695.706 247.003 693.368C249.881 691.031 252.047 687.935 253.257 684.431L253.576 681.71Z" fill="#5E4525"/>
<path d="M543.883 681.711L537.561 662.819C537.561 662.819 561.237 635.615 549.005 583.066C536.773 530.516 470.509 504.476 470.509 504.476C470.509 504.476 483.079 492.206 538.311 490.312L540.187 490.499C540.187 490.499 575.308 497.309 574.576 500.33L562.007 507.515C562.007 507.515 586.396 515.826 586.396 528.302L571.237 527.927C571.237 527.927 603.768 552.148 613.018 569.201C622.267 586.255 627.051 603.215 621.873 611.545C616.695 619.875 594.163 606.254 594.163 606.254C594.163 606.254 621.873 671.636 605.607 674.3C589.341 676.964 574.332 664.826 574.332 664.826C574.332 664.826 574.576 699.234 561.2 697.714C557.412 697.316 553.811 695.867 550.804 693.53C547.797 691.192 545.504 688.06 544.184 684.488L543.883 681.711Z" fill="#5E4525"/>
<path d="M401.732 590.457C383.402 590.457 368.506 581.64 367.605 570.533C367.605 570.908 367.605 571.302 367.605 571.678C367.605 584.51 382.933 594.904 401.825 594.904C420.718 594.904 436.064 584.51 436.064 571.678C436.064 571.302 436.064 570.908 436.064 570.533C434.976 581.64 420.061 590.457 401.732 590.457Z" fill="#583F25"/>
<path d="M359.088 555.862C342.879 555.862 329.708 548.039 328.902 538.227C328.882 538.57 328.882 538.915 328.902 539.258C328.902 550.515 342.447 559.783 359.163 559.783C375.879 559.783 389.406 550.59 389.406 539.258C389.425 538.915 389.425 538.57 389.406 538.227C388.468 548.039 375.279 555.862 359.088 555.862Z" fill="#583F25"/>
<path d="M316.876 593.572C300.985 596.348 286.37 590.908 283.5 581.415C283.5 581.752 283.5 582.09 283.65 582.428C286.07 593.553 301.304 600.269 317.72 597.436C334.136 594.604 345.467 583.272 343.066 572.147C343.066 571.809 342.86 571.471 342.766 571.152C344.079 580.889 332.785 590.833 316.876 593.572Z" fill="#583F25"/>
<path d="M443.344 554.942C427.209 553.686 414.827 544.887 414.977 535.037C414.977 535.375 414.846 535.713 414.808 536.05C413.72 547.307 426.327 557.55 442.95 558.845C459.572 560.139 473.98 552.053 475.068 540.759C475.087 540.416 475.087 540.071 475.068 539.727C473.361 549.446 459.534 556.199 443.344 554.942Z" fill="#583F25"/>
<path d="M483.905 595.203C467.77 593.946 455.388 585.129 455.557 575.298C455.557 575.636 455.425 575.954 455.388 576.311C454.281 587.568 466.888 597.811 483.529 599.106C500.17 600.4 514.56 592.314 515.667 581.001C515.686 580.657 515.686 580.313 515.667 579.969C513.941 589.706 500.039 596.46 483.905 595.203Z" fill="#583F25"/>
<path d="M447.321 634.246C431.13 633.852 418.204 625.709 417.716 615.897C417.653 616.232 417.609 616.571 417.585 616.911C417.247 628.167 430.492 637.754 447.208 638.167C463.924 638.579 477.733 629.762 478.089 618.43C478.089 618.055 478.089 617.736 478.089 617.398C476.945 627.173 463.512 634.658 447.321 634.246Z" fill="#583F25"/>
<path d="M399.95 670.623C383.778 671.317 370.195 664.075 368.881 654.301C368.853 654.644 368.853 654.989 368.881 655.333C369.463 666.589 383.496 675.257 400.193 674.544C416.891 673.831 429.911 664.094 429.311 652.744C429.311 652.406 429.311 652.068 429.198 651.73C428.898 661.561 416.14 669.947 399.95 670.623Z" fill="#583F25"/>
<path d="M358.731 632.988C342.709 635.146 328.376 629.236 325.975 619.537C325.946 619.88 325.946 620.225 325.975 620.569C327.851 631.825 342.747 639.067 359.275 636.891C375.804 634.714 387.698 623.758 385.822 612.501C385.822 612.164 385.653 611.826 385.578 611.488C386.497 621.413 374.753 630.887 358.731 632.988Z" fill="#583F25"/>
<path d="M383.308 697.207C379.312 697.207 375.804 700.284 373.722 705.012C371.639 700.284 368.093 697.207 364.135 697.207C360.176 697.207 356.63 700.284 354.529 705.012C352.465 700.284 348.901 697.207 344.961 697.207C338.545 697.207 333.367 705.124 333.367 714.936C333.367 724.748 338.545 732.665 344.961 732.665C348.938 732.665 352.465 729.588 354.529 724.861C356.63 729.588 360.157 732.665 364.135 732.665C368.112 732.665 371.639 729.588 373.722 724.861C375.804 729.588 379.35 732.665 383.308 732.665C389.706 732.665 394.884 724.729 394.884 714.936C394.884 705.143 389.781 697.207 383.308 697.207Z" fill="#B2773A"/>
<path d="M452.968 697.207C448.991 697.207 445.463 700.284 443.381 705.012C441.299 700.284 437.753 697.207 433.794 697.207C429.836 697.207 426.29 700.284 424.207 705.012C422.125 700.284 418.579 697.207 414.62 697.207C408.223 697.207 403.045 705.124 403.045 714.936C403.045 724.748 408.223 732.665 414.62 732.665C418.598 732.665 422.125 729.588 424.207 724.861C426.29 729.588 429.836 732.665 433.794 732.665C437.753 732.665 441.299 729.588 443.381 724.861C445.463 729.588 449.009 732.665 452.968 732.665C459.365 732.665 464.543 724.729 464.543 714.936C464.543 705.143 459.365 697.207 452.968 697.207Z" fill="#B2773A"/>
<path d="M239.599 344.895C239.599 344.895 237.723 335.702 228.962 334.183C220.201 332.663 183.279 277.543 188.607 281.652C193.935 285.761 236.71 288.518 236.71 288.518C236.71 288.518 237.705 288.894 311.36 295.554C384.378 302.176 398.111 355.401 398.111 355.401L399.086 353.919C399.086 353.919 412.988 299.343 487.863 294.878C562.738 290.413 564.277 287.937 564.277 287.937C564.277 287.937 609.903 284.954 615.344 280.995C620.785 277.037 581.124 331.65 572.194 333.076C563.264 334.502 558.104 345.833 558.104 345.833L397.586 398.364L241.082 344.238" fill="#674F36"/>
<path d="M399.593 396.168C399.593 447.292 360.495 488.716 312.28 488.716C264.064 488.716 224.985 447.292 224.985 396.168C224.985 345.045 264.083 303.583 312.28 303.583C360.477 303.583 399.593 345.026 399.593 396.168Z" fill="#B18D6D"/>
<path d="M390.662 391.892C390.662 424.536 363.459 450.989 329.896 450.989C296.332 450.989 269.129 424.536 269.129 391.892C269.129 359.247 296.332 332.832 329.896 332.832C363.459 332.832 390.662 359.285 390.662 391.892Z" fill="white"/>
<path d="M383.946 392.154C383.946 417.8 362.577 438.568 336.218 438.568C309.859 438.568 288.472 417.8 288.472 392.154C288.472 366.508 309.859 345.739 336.218 345.739C362.577 345.739 383.946 366.526 383.946 392.154Z" fill="#674F36"/>
<path d="M326.181 373.393C326.185 374.915 325.737 376.404 324.894 377.672C324.051 378.939 322.851 379.928 321.446 380.513C320.041 381.098 318.494 381.253 317 380.958C315.507 380.664 314.135 379.932 313.057 378.857C311.979 377.782 311.245 376.412 310.947 374.919C310.648 373.427 310.799 371.879 311.381 370.472C311.963 369.066 312.949 367.863 314.214 367.017C315.479 366.171 316.967 365.72 318.489 365.72C320.526 365.72 322.48 366.528 323.922 367.966C325.364 369.405 326.176 371.356 326.181 373.393Z" fill="white"/>
<path d="M397.098 396.168C397.098 447.292 436.195 488.716 484.411 488.716C532.627 488.716 571.706 447.292 571.706 396.168C571.706 345.045 532.627 303.583 484.411 303.583C436.195 303.583 397.098 345.026 397.098 396.168Z" fill="#B18D6D"/>
<path d="M406.028 391.892C406.028 424.536 433.25 450.989 466.795 450.989C500.339 450.989 527.561 424.536 527.561 391.892C527.561 359.247 500.358 332.832 466.795 332.832C433.231 332.832 406.028 359.285 406.028 391.892Z" fill="white"/>
<path d="M412.744 392.154C412.744 417.8 434.113 438.568 460.472 438.568C486.831 438.568 508.219 417.8 508.219 392.154C508.219 366.508 486.85 345.739 460.472 345.739C434.094 345.739 412.744 366.526 412.744 392.154Z" fill="#674F36"/>
<path d="M470.509 373.393C470.506 374.915 470.954 376.404 471.797 377.672C472.639 378.939 473.839 379.928 475.245 380.513C476.65 381.098 478.197 381.253 479.69 380.958C481.184 380.664 482.556 379.932 483.634 378.857C484.711 377.782 485.446 376.412 485.744 374.919C486.042 373.427 485.891 371.879 485.31 370.472C484.728 369.066 483.742 367.863 482.477 367.017C481.211 366.171 479.723 365.72 478.201 365.72C476.165 365.72 474.211 366.528 472.769 367.966C471.327 369.405 470.514 371.356 470.509 373.393Z" fill="white"/>
<path d="M553.658 283.922L554.202 284.897L553.658 283.922Z" fill="#6E543C"/>
<path d="M533.921 200.398C533.921 200.398 581.724 187.959 558.311 265.93L553.452 263.828C553.452 263.828 571.031 206.795 542.664 205.838" fill="#DA9633"/>
<path d="M533.921 200.398C536.106 199.695 538.356 199.218 540.638 198.972C542.632 198.788 544.64 198.838 546.623 199.122C548.654 199.383 550.638 199.932 552.514 200.754C556.227 202.389 559.368 205.093 561.538 208.521C562.568 210.137 563.417 211.861 564.07 213.662C565.268 217.134 565.901 220.776 565.946 224.449C565.992 228.019 565.772 231.587 565.29 235.124C564.877 238.614 564.333 242.103 563.751 245.574C562.532 252.516 561.2 259.438 559.511 266.211L559.192 267.543L557.673 266.962L552.795 265.086L551.613 264.617L551.932 263.435C552.607 260.827 553.245 258.181 553.808 255.536C554.371 252.891 554.877 250.208 555.29 247.544C555.703 244.88 556.097 242.197 556.378 239.514C556.66 236.832 556.904 234.149 556.979 231.466C557.338 226.13 556.701 220.773 555.103 215.669C554.225 213.117 552.676 210.849 550.619 209.103C549.503 208.184 548.233 207.472 546.866 207.002C545.478 206.499 544.037 206.159 542.57 205.988L542.289 205.576C543.937 205.537 545.583 205.713 547.185 206.101C548.729 206.484 550.2 207.117 551.538 207.977C552.844 208.844 554.013 209.9 555.009 211.11C555.943 212.266 556.742 213.525 557.391 214.862C558.596 217.5 559.436 220.29 559.887 223.155C560.319 225.942 560.538 228.758 560.543 231.578C560.556 234.367 560.419 237.154 560.13 239.927C559.812 242.685 559.436 245.424 558.892 248.144C558.348 250.865 557.785 253.548 557.11 256.23C556.435 258.913 555.684 261.558 554.821 264.223L553.977 262.553L558.705 264.785L556.829 265.517C557.992 262.215 559.117 258.894 560.112 255.536C560.581 253.848 561.087 252.178 561.481 250.452C561.875 248.726 562.25 247.056 562.569 245.33C562.888 243.604 563.113 241.878 563.339 240.133C563.564 238.389 563.658 236.663 563.714 234.918C563.827 231.433 563.658 227.944 563.207 224.487C562.982 222.761 562.682 221.072 562.325 219.384C561.954 217.713 561.484 216.065 560.918 214.45C560.351 212.83 559.622 211.271 558.742 209.797C557.852 208.33 556.78 206.981 555.553 205.782C554.277 204.568 552.837 203.539 551.275 202.724C549.647 201.886 547.92 201.256 546.135 200.848C544.288 200.414 542.403 200.162 540.506 200.098C538.626 200.029 536.744 200.117 534.878 200.36L533.921 200.398Z" fill="#996633"/>
<path d="M548.274 272.103C538.705 298.799 520.639 327.616 520.639 327.616L530.751 319.024L529.813 322.269L528.875 326.359L527.655 333.545L535.272 323.977L534.935 332.55C534.935 332.55 541.557 321.763 542.176 319.962L540.3 332.532C540.3 332.532 552.851 321.519 560.468 273.678" fill="#B87A32"/>
<path d="M525.723 337.804L527.711 326.153L528.593 322.401L515.686 333.245L519.588 327.035C519.775 326.735 537.711 298.012 547.166 271.709L549.399 272.441C542.457 291.746 530.994 312.326 525.216 322.195L532.946 315.628L530.957 322.551L530.019 326.585L529.569 329.23L536.585 320.431L536.285 327.936C538.499 324.183 540.731 320.431 541.05 319.474L543.32 320L542.157 328.311C546.191 322.326 554.052 306.98 559.399 273.36L561.725 273.735C554.221 321.388 541.745 332.701 541.219 333.17L538.78 335.29L540.094 326.097C538.217 329.174 536.341 332.363 535.966 332.964L533.584 336.997L533.959 327.504L525.723 337.804Z" fill="#996633"/>
<path d="M546.397 273.772C546.397 273.772 549.643 259.757 557.879 263.509C564.877 266.736 560.093 278.687 560.093 278.687C560.093 278.687 549.249 276.736 546.397 273.772Z" fill="#DA9633"/>
<path d="M546.191 273.735C546.07 272.991 546.033 272.236 546.078 271.484C546.094 270.734 546.175 269.987 546.322 269.251C546.61 267.728 547.149 266.264 547.917 264.918C548.351 264.17 548.881 263.483 549.493 262.873C550.2 262.161 551.033 261.589 551.951 261.184C553.018 260.739 554.174 260.546 555.328 260.621C556.425 260.698 557.496 260.991 558.479 261.484L558.798 261.653H558.967H559.061H559.174L559.436 261.803L559.718 261.991L560.431 262.516L560.993 263.06C561.663 263.757 562.164 264.597 562.457 265.518C562.879 267.078 562.944 268.714 562.644 270.302C562.419 271.765 562.194 273.172 562.044 274.598C561.95 275.311 561.913 276.043 561.875 276.774C561.838 277.506 561.875 278.257 561.688 279.045L561.537 279.983H559.83C559.205 280.019 558.579 280.019 557.954 279.983C557.323 279.92 556.697 279.82 556.078 279.682C554.838 279.377 553.622 278.982 552.438 278.501C551.234 277.993 550.083 277.364 549.005 276.624C548.455 276.246 547.94 275.819 547.467 275.349C546.983 274.891 546.594 274.343 546.322 273.735H546.191ZM546.754 273.735C547.279 273.923 547.786 274.092 548.311 274.223C548.836 274.354 549.474 274.486 550.056 274.598L553.508 275.292C554.671 275.536 555.834 275.78 556.979 276.062C558.135 276.373 559.27 276.762 560.374 277.225L558.498 278.163C558.908 277.615 559.278 277.038 559.605 276.437C559.963 275.846 560.253 275.217 560.468 274.561C560.861 273.253 560.938 271.871 560.693 270.527C560.464 269.257 559.922 268.065 559.117 267.056C558.784 266.652 558.399 266.292 557.973 265.987L557.785 265.706L557.541 265.574H557.354L557.091 265.462H556.96H557.072H556.866C556.431 265.317 555.971 265.266 555.515 265.312C555.142 265.338 554.776 265.42 554.427 265.555C553.473 266.017 552.614 266.653 551.894 267.432C550.995 268.399 550.156 269.42 549.38 270.49L548.123 272.197L546.754 273.735Z" fill="#996633"/>
<path d="M554.333 260.639C554.615 260.124 554.941 259.634 555.309 259.176C556.062 258.235 556.89 257.356 557.785 256.549C558.761 255.686 559.755 254.879 560.543 254.26C560.918 253.96 561.256 253.697 561.481 253.472L561.875 253.153C561.875 253.153 561.875 253.341 561.875 253.641C561.901 253.834 561.901 254.03 561.875 254.223C561.836 254.46 561.774 254.693 561.687 254.917C561.47 255.483 561.18 256.019 560.824 256.512C560.412 257.062 559.947 257.571 559.436 258.031C558.483 258.913 557.377 259.612 556.172 260.095C555.583 260.349 554.965 260.532 554.333 260.639Z" fill="#996633"/>
<path d="M556.003 250.865C556.281 250.359 556.607 249.882 556.979 249.439C557.728 248.484 558.563 247.598 559.474 246.794C560.431 245.931 561.35 245.124 562.213 244.524C562.588 244.205 562.944 243.943 563.17 243.736L563.545 243.398C563.56 243.567 563.56 243.736 563.545 243.905C563.57 244.092 563.57 244.281 563.545 244.468C563.515 244.707 563.452 244.941 563.357 245.162C563.135 245.726 562.845 246.262 562.494 246.757C562.099 247.316 561.64 247.826 561.125 248.276C560.161 249.143 559.057 249.841 557.86 250.34C557.267 250.596 556.643 250.773 556.003 250.865Z" fill="#996633"/>
<path d="M557.448 240.172C557.727 239.659 558.047 239.17 558.405 238.709C559.17 237.773 560.004 236.895 560.9 236.082C561.875 235.219 562.87 234.413 563.658 233.812C564.033 233.493 564.389 233.231 564.596 233.024L564.99 232.687C564.99 232.687 564.99 232.874 564.99 233.193C565.015 233.38 565.015 233.569 564.99 233.756C564.942 233.999 564.873 234.238 564.783 234.469C564.58 235.032 564.295 235.563 563.939 236.045C563.539 236.6 563.08 237.109 562.569 237.564C561.599 238.437 560.489 239.141 559.286 239.647C558.696 239.893 558.079 240.07 557.448 240.172Z" fill="#996633"/>
<path d="M559.38 229.534L558.029 227.845C559.38 226.963 563.095 224.093 563.901 221.767L565.778 222.686C564.604 225.706 562.313 228.158 559.38 229.534Z" fill="#996633"/>
<path d="M558.348 219.948L557.56 218.072C559.437 217.439 560.988 216.091 561.875 214.319L564.033 214.995C563.479 216.169 562.688 217.215 561.71 218.067C560.731 218.92 559.587 219.56 558.348 219.948Z" fill="#996633"/>
<path d="M554.033 212.611L552.907 211.354C554.183 210.416 557.673 207.602 558.329 205.595L559.755 206.383C558.761 209.178 554.164 212.461 554.033 212.611Z" fill="#996633"/>
<path d="M550.675 207.828L548.911 206.514C549.867 204.912 550.348 203.071 550.299 201.205H552.551C552.62 203.553 551.965 205.865 550.675 207.828Z" fill="#996633"/>
<path d="M544.033 206.177C543.498 203.966 542.421 201.922 540.9 200.23L542.533 198.879C544.361 200.838 545.654 203.235 546.285 205.839L544.033 206.177Z" fill="#996633"/>
<path d="M554.183 277.075L553.395 278.782C552.907 279.87 552.176 281.409 551.275 283.247C550.375 285.086 549.399 287.225 548.198 289.514C546.998 291.802 545.759 294.204 544.446 296.624C543.771 297.825 543.114 299.025 542.476 300.207C541.838 301.389 541.182 302.552 540.6 303.659L537.017 309.682C534.766 313.115 533.265 315.31 533.265 315.31C533.265 315.31 534.503 312.89 536.379 309.288L539.249 302.965C539.756 301.821 540.244 300.601 540.769 299.382C541.294 298.162 541.801 296.905 542.326 295.63C543.283 293.116 544.296 290.62 545.178 288.257C546.06 285.893 546.866 283.679 547.523 281.765C548.18 279.852 548.742 278.276 549.099 277.15L549.68 275.405L554.183 277.075Z" fill="#996633"/>
<path d="M557.785 279.044L557.354 280.339C557.091 281.164 556.678 282.327 556.172 283.697C555.665 285.066 555.027 286.68 554.296 288.387C553.564 290.094 552.945 291.971 552.157 293.659C551.732 294.535 551.319 295.416 550.919 296.304C550.506 297.186 550.075 298.03 549.662 298.837C548.78 300.469 548.048 302.008 547.298 303.265L544.803 307.505C544.803 307.505 545.609 305.629 546.679 303.058C547.298 301.745 547.842 300.113 548.555 298.443C548.874 297.58 549.23 296.717 549.512 295.798C549.793 294.878 550.131 293.922 550.431 293.077C551.069 291.201 551.538 289.325 552.082 287.656C552.626 285.986 552.983 284.279 553.32 282.89C553.658 281.502 553.921 280.32 554.089 279.513C554.258 278.707 554.371 278.219 554.371 278.219L557.785 279.044Z" fill="#996633"/>
</g>
<defs>
<filter id="filter0_d_1062_9622" x="0" y="0" width="797" height="962" filterUnits="userSpaceOnUse" color-interpolation-filters="sRGB">
<feFlood flood-opacity="0" result="BackgroundImageFix"/>
<feColorMatrix in="SourceAlpha" type="matrix" values="0 0 0 0 0 0 0 0 0 0 0 0 0 0 0 0 0 0 127 0" result="hardAlpha"/>
<feOffset dy="4"/>
<feGaussianBlur stdDeviation="15"/>
<feComposite in2="hardAlpha" operator="out"/>
<feColorMatrix type="matrix" values="0 0 0 0 0.713726 0 0 0 0 0.219608 0 0 0 0 0.294118 0 0 0 0.25 0"/>
<feBlend mode="normal" in2="BackgroundImageFix" result="effect1_dropShadow_1062_9622"/>
<feBlend mode="normal" in="SourceGraphic" in2="effect1_dropShadow_1062_9622" result="shape"/>
</filter>
<filter id="filter1_d_1062_9622" x="157.604" y="130.284" width="481.396" height="701.19" filterUnits="userSpaceOnUse" color-interpolation-filters="sRGB">
<feFlood flood-opacity="0" result="BackgroundImageFix"/>
<feColorMatrix in="SourceAlpha" type="matrix" values="0 0 0 0 0 0 0 0 0 0 0 0 0 0 0 0 0 0 127 0" result="hardAlpha"/>
<feOffset dy="4"/>
<feGaussianBlur stdDeviation="7.5"/>
<feComposite in2="hardAlpha" operator="out"/>
<feColorMatrix type="matrix" values="0 0 0 0 0 0 0 0 0 0 0 0 0 0 0 0 0 0 0.15 0"/>
<feBlend mode="normal" in2="BackgroundImageFix" result="effect1_dropShadow_1062_9622"/>
<feBlend mode="normal" in="SourceGraphic" in2="effect1_dropShadow_1062_9622" result="shape"/>
</filter>
</defs>
</svg>
