<svg width="226" height="80" viewBox="0 0 226 80" fill="none" xmlns="http://www.w3.org/2000/svg">
<path d="M97.8116 22.3608C97.5119 22.8304 96.3603 22.8752 95.7185 22.8752C95.2065 25.9074 93.4958 29.0245 91.6599 31.9718C92.8563 33.3381 96.0584 35.4311 97.2995 36.3278C98.1515 36.9271 98.0665 38.2934 97.7244 39.1051C97.3398 39.9995 96.6063 40.3417 95.8885 40.5138C94.7704 40.6435 94.1354 40.2902 93.3259 39.6194C92.172 38.593 89.909 36.7124 88.63 35.2634C87.2031 36.8724 85.5648 38.2806 83.7597 39.4494H90.7655C92.1318 39.4494 93.1157 40.089 93.1157 41.5V50.9387C93.2007 51.8332 92.8921 53.2442 91.1031 53.2442H65.7766C64.5378 53.2442 63.5561 52.6449 63.5561 51.1512V41.7594C63.5561 39.9705 64.0682 39.4539 66.0337 39.4539H77.8652C77.693 38.6847 77.8652 37.788 78.6344 37.3162C80.1706 36.6766 84.5267 33.6019 85.5955 31.7661C84.3992 30.3551 83.1604 27.9646 82.6058 26.6811C82.3487 27.3653 81.367 28.3917 80.7252 28.3045C80.5128 28.2195 80.2556 28.1346 80.0007 28.0496V31.8935C80.0007 33.7719 79.4014 35.2679 76.7963 35.2679H65.307C64.7077 37.7455 64.6652 38.3001 63.214 41.5045C62.7019 42.6225 61.6755 43.0407 61.2014 43.0407C60.4999 43.0521 59.8125 42.8433 59.2359 42.4436C58.7663 42.1015 58.2989 41.0326 58.7663 39.966C59.5802 38.1301 60.7788 35.4937 60.7788 32.8327V20.3103C60.9715 19.7619 61.2148 19.2327 61.5056 18.7293C61.9327 17.9176 63.3437 17.4905 65.7341 17.533C68.1245 17.5755 72.0959 17.3631 73.6791 16.9784L77.4381 16.084C78.5047 15.8268 79.7011 16.6386 79.871 17.5352C80.0432 18.262 80.2556 19.5478 78.5472 20.0979C77.778 20.355 78.7172 20.1828 76.3267 20.8246C73.9363 21.4664 70.5597 21.8063 66.1612 21.9427C66.0085 22.004 65.8778 22.11 65.7865 22.2469C65.6951 22.3838 65.6472 22.5451 65.6491 22.7097V24.0782H77.608C78.0709 24.1892 78.5067 24.3922 78.8893 24.6752C79.1465 24.2057 79.4014 23.6936 79.6161 23.3515C80.8549 21.1734 81.7494 18.8657 82.6058 16.5603C82.9457 15.961 83.5875 15.5361 84.1845 15.5361C85.1684 15.5361 86.1971 16.0057 86.6197 16.9024C86.8433 17.5844 86.6197 18.3112 86.4497 18.9149H95.9735C96.4431 18.9149 97.8116 19.4293 97.986 20.1113C98.1515 20.8671 98.3237 21.7213 97.8116 22.3608ZM74.5758 28.2575H65.6916V31.0326H74.6608L75.0029 30.6905C75.0454 30.2209 75.0879 29.4092 75.0879 29.1542C75.1081 28.9699 75.0694 28.7838 74.9774 28.6228C74.8855 28.4617 74.7449 28.3338 74.5758 28.2575ZM88.1581 44.445C88.1581 43.8032 87.9345 43.6758 87.5589 43.6758H69.1509C68.6813 43.6758 68.5964 43.9307 68.5964 44.3578V48.3717C68.5936 48.4453 68.606 48.5188 68.6328 48.5875C68.6597 48.6562 68.7004 48.7186 68.7524 48.7708C68.8044 48.8231 68.8667 48.864 68.9353 48.8911C69.0038 48.9183 69.0772 48.931 69.1509 48.9285H87.5589C87.6427 48.9338 87.7266 48.9205 87.8047 48.8895C87.8827 48.8586 87.953 48.8107 88.0103 48.7493C88.0676 48.6879 88.1106 48.6146 88.1361 48.5346C88.1617 48.4546 88.1692 48.3699 88.1581 48.2867V44.445ZM85.6805 22.8796C86.2776 24.7155 87.3889 26.6363 88.4131 28.262C89.3075 26.8935 90.4256 24.1587 90.8057 22.8796H85.6805Z" fill="#F2E442"/>
<path d="M136.642 23.1733C137.925 23.1733 138.607 24.155 138.862 25.1389C139.034 26.9748 138.265 28.5982 137.711 29.9645C137.239 30.821 136.856 31.3308 136.13 31.5455C135.679 31.6543 135.209 31.6571 134.757 31.5535C134.305 31.4499 133.883 31.2428 133.524 30.9484C133.012 30.5191 132.854 30.0092 132.755 29.4099C132.798 28.6832 133.182 28.4283 133.397 27.829C133.482 27.5294 133.397 27.3169 133.097 27.3169H108.325C107.684 27.3169 107.556 27.659 107.556 28.0862V29.7096C107.471 30.2642 107.256 30.7337 106.662 30.9909C105.935 31.3755 104.739 31.5455 103.978 31.0759C103.209 30.5638 102.912 29.8795 102.912 28.9404V25.5235C102.912 24.5419 103.381 24.0723 104.108 23.6004C104.663 23.2606 105.559 23.1733 106.201 23.1733H109.575V21.9368H103.54C102.773 21.9368 102.259 21.7131 101.834 21.0803C101.534 20.4833 101.277 19.5016 101.534 18.8173C101.789 18.3902 102.131 17.9229 102.601 17.7507C103.119 17.5521 103.669 17.4505 104.224 17.4511H109.522C109.522 16.5119 109.734 15.4855 110.758 15.1031C111.876 14.5463 113.536 14.7185 114.218 15.8701C114.562 16.5119 114.562 16.7646 114.562 17.4511H126.349C126.349 16.6393 126.572 15.9998 127.118 15.4855C127.972 14.8884 129.296 14.8459 130.235 15.2619C131.092 15.689 131.389 16.5857 131.431 17.4399H137.795C138.777 17.4399 139.204 18.0369 139.461 18.7212C139.716 19.7029 139.761 20.8992 138.907 21.541C138.522 21.8384 137.789 21.9256 136.984 21.9256H131.431V23.1622L136.642 23.1733ZM134.935 37.1403C135.745 37.6099 136.514 38.5088 136.557 39.6179C136.599 40.6846 135.745 41.4561 134.891 41.8832L131.554 43.5044C133.557 45.6937 135.927 47.5153 138.558 48.8868C139.499 49.571 139.799 50.5952 139.627 51.7065C139.457 52.601 138.603 53.3702 137.706 53.5402C136.767 53.7638 136.04 53.2852 135.271 52.8157C132.154 50.9775 129.419 48.075 127.156 45.1703L125.624 45.6891C125.9 47.4558 125.943 49.2511 125.752 51.029C125.692 51.6612 125.478 52.2689 125.126 52.798C124.775 53.3271 124.299 53.761 123.739 54.0612C121.431 55.3 118.998 54.5733 116.648 53.9337C116.264 53.804 115.624 53.3769 115.452 52.9923C115.301 52.5112 115.274 51.9999 115.372 51.5053C115.47 51.0107 115.69 50.5486 116.013 50.1614C117.295 49.0433 118.833 50.1189 120.199 50.2888C120.669 50.3738 121.053 50.2038 121.053 49.6918C121.103 48.8048 121.046 47.915 120.881 47.0419C115.756 49.8617 110.416 52.4243 104.736 54.0903C104.451 54.1398 104.159 54.1273 103.879 54.0536C103.599 53.9799 103.339 53.8467 103.115 53.6632C102.832 53.3954 102.608 53.0702 102.461 52.7092C102.313 52.3483 102.244 51.9599 102.259 51.5701C102.346 51.0581 102.431 50.4521 103.07 50.2463C106.36 49.1283 109.779 48.2808 112.979 46.957C115.971 45.6757 117.764 44.8237 120.07 43.6251L119.642 42.431C115.037 45.0918 110.116 47.1631 104.994 48.5961C104.481 48.6385 103.755 48.6833 103.328 48.3411C103.054 48.0681 102.84 47.7409 102.7 47.3804C102.561 47.02 102.498 46.6343 102.516 46.2481C102.516 45.7338 102.646 45.1792 103.198 44.9668C104.139 44.6247 106.402 44.0723 108.965 43.1779C112.072 42.1282 115.11 40.887 118.064 39.4614C117.892 39.0746 117.507 38.7347 117.252 38.3433C113.105 40.3346 108.787 41.9503 104.352 43.1712C103.457 43.2986 102.686 42.9476 102.303 42.1023C102.131 41.5902 102.004 40.7785 102.431 40.3134C103.198 39.5442 104.311 39.5441 105.248 39.2445C107.299 38.6027 109.35 37.9632 111.355 37.232L104.267 37.1448C103.965 37.1486 103.668 37.0665 103.411 36.9081C103.154 36.7498 102.948 36.5216 102.816 36.2503C102.431 35.3961 102.592 34.4994 102.943 33.6877C103.11 33.4362 103.34 33.2328 103.61 33.0978C103.88 32.9628 104.18 32.901 104.481 32.9185H136.215C136.899 33.0034 137.411 32.8335 137.838 33.3031C138.562 33.9873 138.607 35.1837 138.265 36.0379C137.838 36.9771 137.371 37.1559 136.476 37.1559L134.935 37.1403ZM130.278 28.3858C130.877 28.3858 131.132 28.8129 131.346 29.1103C131.644 29.8371 131.516 30.7762 131.004 31.2905C130.702 31.4962 130.343 31.6003 129.978 31.588L110.289 31.5455C110.037 31.5723 109.784 31.516 109.568 31.3851C109.352 31.2542 109.185 31.056 109.092 30.821C108.957 30.4531 108.926 30.0552 109.002 29.6707C109.078 29.2863 109.257 28.93 109.522 28.6407C109.805 28.4766 110.132 28.4025 110.459 28.4283L130.278 28.3858ZM126.391 23.1733V21.9368H114.602V23.1733H126.391ZM122.248 37.1403C123.157 38.4832 123.93 39.914 124.553 41.4113C127.46 40.2933 130.407 38.9784 133.012 37.2275L122.248 37.1403Z" fill="#F2E442"/>
<path d="M151.903 19.7135V17.7501C151.903 17.1933 152.413 16.4241 153.021 16.0417C153.62 15.7421 154.559 15.7421 155.286 15.9545C156.055 16.1781 156.822 17.0234 156.822 17.7054V19.7179H160.539C160.794 18.9934 161.308 18.0095 162.247 18.052C163.444 18.0945 164.81 18.6088 165.237 19.8029C165.237 21.1714 164.597 22.323 164.211 23.5619L162.804 26.8088C163.699 26.8512 164.68 27.0212 165.067 27.9268C165.494 28.866 165.407 30.1898 164.767 31.0015C164.359 31.3377 163.845 31.519 163.316 31.5136H153.79C153.504 32.2808 153.129 33.0118 152.672 33.6916H161.599C162.717 33.6916 163.18 34.4608 163.522 35.1876C163.35 33.2645 165.273 32.1106 165.487 30.2681C167.054 26.2759 168.018 22.0729 168.347 17.7971C168.475 17.1978 168.947 16.5583 169.586 16.4286C170.613 16.2161 171.722 16.3436 172.493 17.1128C172.923 17.5355 172.923 18.1348 172.923 18.6893L172.368 22.8307H181.337C182.008 22.8307 182.319 23.5999 182.576 24.027C182.8 25.0109 182.831 26.1223 182.147 26.934C182.013 27.0879 181.85 27.2129 181.667 27.3013C181.483 27.3898 181.284 27.4398 181.08 27.4483C180.78 33.468 180.054 39.3222 176.724 44.1903C178.348 46.5382 180.268 49.1881 182.746 50.8987C182.938 51.1338 183.07 51.4125 183.13 51.7103C183.189 52.0082 183.175 52.3161 183.088 52.6071C182.909 53.0992 182.619 53.5435 182.241 53.906C181.863 54.2685 181.407 54.5394 180.908 54.6979C179.287 54.9215 178.39 53.2892 177.236 52.35C175.996 50.9874 174.827 49.5619 173.734 48.0789C172.923 48.7632 171.983 49.8679 170.915 50.5991C170.19 51.2409 169.504 51.7507 168.822 52.3075C167.627 52.9783 165.492 55.1675 163.441 54.0584C162.585 53.3316 162.115 52.3925 162.245 51.2409C162.373 50.2145 163.484 49.8298 164.166 49.4027C166.644 47.8665 169.251 46.1559 171.098 43.7229C169.859 41.3303 169.045 38.4255 168.278 35.8629C167.809 36.4622 167.209 37.1017 166.357 37.1442C165.288 37.0167 164.22 36.4175 163.75 35.4358L163.665 36.375C163.665 36.887 163.408 37.3141 163.195 37.7435C161.988 39.0289 160.704 40.2408 159.351 41.3727C161.14 41.3303 162.853 40.7757 164.649 40.6035C164.982 40.6505 165.297 40.7864 165.56 40.9969C165.823 41.2074 166.024 41.4847 166.143 41.7999C166.327 42.2376 166.408 42.7122 166.378 43.1864C166.348 43.6605 166.208 44.1213 165.97 44.5324C165.373 45.2592 164.519 45.3039 163.708 45.4269L159.097 46.2386V51.5763C159.097 53.1147 157.898 53.9689 156.916 54.396C155.55 54.9931 153.884 54.481 152.431 54.396C151.579 54.1724 150.642 54.1724 150.083 53.3697C149.524 52.5669 149.613 51.2766 150.127 50.4627C150.523 49.9986 151.065 49.6832 151.664 49.5682L153.799 49.9931L154.184 49.6107V46.9631C151.579 47.3052 148.886 47.6899 146.239 47.9023C146.001 47.9244 145.761 47.8979 145.533 47.8245C145.306 47.7511 145.095 47.6323 144.915 47.4752C144.19 46.7082 144.061 45.5119 144.36 44.528C144.432 44.2872 144.552 44.0637 144.714 43.8714C144.875 43.6791 145.075 43.522 145.3 43.4099C148.207 43.0677 151.194 42.7703 154.099 42.3432V40.9926C154.054 40.523 154.441 39.9685 154.738 39.7113C155.165 39.3289 155.508 39.0405 155.977 38.5932L155.805 38.3808H149.933C149.376 39.1075 148.909 40.2167 147.92 40.3441C146.769 40.5163 145.742 39.7471 145.103 38.7654C144.718 37.9112 145.058 36.8848 145.657 36.2453C146.759 34.7675 147.703 33.1786 148.475 31.5047H146.089C145.418 31.5047 144.723 31.2922 144.465 30.3866C144.168 29.3624 144.168 28.2533 144.935 27.4416C145.619 26.8848 145.959 26.7998 146.643 26.7998H151.903V24.2841H147.413C147.129 24.2773 146.852 24.1944 146.612 24.0441C146.371 23.8939 146.175 23.6818 146.044 23.4299C145.532 22.4058 145.577 21.2072 146.268 20.3977C146.608 19.9706 147.386 19.7135 147.974 19.7135H151.903ZM156.822 24.3266V26.8043H157.547C158.024 26.018 158.425 25.1884 158.745 24.3266H156.822ZM171.431 27.4863C171.208 28.2578 171.047 28.9823 170.832 29.794C171.095 29.8327 171.345 29.9342 171.561 30.0899C171.776 30.2456 171.951 30.4509 172.071 30.6885C172.498 33.5082 173.097 36.4107 174.119 38.9756C175.787 35.2591 176.299 32.2269 176.299 27.4841L171.431 27.4863Z" fill="#68A744"/>
<path d="M203.458 19.2442C203.16 18.475 202.604 17.6208 202.903 16.6816C203.203 15.7424 204.227 15.3578 205.084 15.2304C205.893 15.1879 206.662 15.2728 207.262 15.7424C208.198 16.7666 208.755 18.0054 209.352 19.1593H223.362C225.07 19.1593 225.374 20.3131 225.497 20.9102C225.752 21.979 225.582 23.4303 223.234 23.4303H217.423C219.182 24.6185 220.829 25.9658 222.342 27.4554C224.008 29.0341 225.025 30.0582 224.308 31.8963C223.796 32.7081 223.111 33.6047 221.917 33.6472C220.891 33.4751 219.782 31.6817 218.713 30.7402L211.334 31.5095L203.858 31.9791L195.786 32.3212C194.205 32.0976 192.069 32.8333 191.13 31.2971C190.976 31.0506 190.88 30.7721 190.85 30.4829C190.821 30.1938 190.857 29.9017 190.958 29.6289L191.387 28.8619C192.923 27.196 194.965 25.0604 196.043 23.522H189.193C188.899 23.445 188.626 23.3007 188.396 23.1005C188.166 22.9003 187.986 22.6496 187.87 22.3681C187.57 21.6011 187.57 20.4473 188.169 19.8055C188.681 19.2934 189.151 19.2509 189.875 19.2509L203.458 19.2442ZM222.635 51.3217C222.635 52.603 221.653 53.4572 220.587 53.9268C218.834 54.3517 217.009 53.7546 215.374 53.3275C214.308 52.9429 212.984 52.773 212.467 51.6191C212.244 50.595 212.724 49.6535 213.494 49.014C214.478 48.5019 215.757 49.2712 217.123 49.6133C217.552 49.7408 217.68 49.7408 217.722 49.3137V47.7327H195.642V52.518C195.597 52.8737 195.459 53.2112 195.241 53.4962C195.024 53.7813 194.735 54.0039 194.404 54.1415C193.891 54.3342 193.34 54.3997 192.796 54.3323C192.253 54.2649 191.734 54.0667 191.284 53.7546C190.774 53.37 190.645 52.7305 190.645 52.0887V36.5855C190.645 34.8749 191.284 33.9022 192.657 33.9022H219.692C222.297 33.9022 222.639 34.9688 222.639 36.3351L222.635 51.3217ZM195.985 37.9518C195.558 37.9943 195.6 38.5914 195.642 39.3628H217.682V38.5511C217.654 38.416 217.593 38.2902 217.503 38.1853C217.414 38.0805 217.299 38.0002 217.17 37.9518H195.985ZM217.675 42.7796H195.642V44.2734H217.682L217.675 42.7796ZM215.11 27.1893C214.768 26.8471 214.171 26.2054 214.086 25.7782C213.863 24.6602 214.598 23.9424 215.795 23.5578L202.554 23.4728C201.358 24.9263 199.952 26.3798 198.626 27.7438C198.626 27.916 198.838 28.0859 199.053 28.1709H201.273L208.918 27.7013L215.11 27.1893Z" fill="#68A744"/>
<path d="M59.0654 73.2648V62.207H67.0999V64.0787H61.2524V66.5384H66.6929V68.4012H61.2524V71.4043H67.3079V73.267L59.0654 73.2648Z" fill="#585439"/>
<path d="M76.2862 73.2644H74.2111V69.1678C74.2111 68.3017 74.1664 67.7419 74.0769 67.4885C73.9993 67.2503 73.8482 67.0428 73.6453 66.8959C73.4335 66.7517 73.1815 66.6782 72.9253 66.6857C72.5788 66.6816 72.2398 66.7873 71.9571 66.9876C71.6763 67.1804 71.4691 67.4626 71.369 67.7881C71.2616 68.1191 71.2102 68.7318 71.2102 69.6285V73.2555H69.1328V65.2546H71.0626V66.4308C71.7469 65.5244 72.6085 65.072 73.6476 65.0734C74.0803 65.0685 74.5092 65.1546 74.9065 65.3261C75.2443 65.4628 75.5409 65.6847 75.7674 65.9701C75.9634 66.237 76.102 66.5415 76.1744 66.8646C76.2617 67.3349 76.2992 67.8131 76.2862 68.2912V73.2644Z" fill="#585439"/>
<path d="M78.3945 73.2648V62.207H80.4697V73.2648H78.3945Z" fill="#585439"/>
<path d="M82.6006 64.1681V62.207H84.6757V64.1681H82.6006ZM82.6006 73.2648V65.2549H84.6757V73.2648H82.6006Z" fill="#585439"/>
<path d="M86.6083 73.7924L88.9876 74.0876C88.9916 74.1978 89.0179 74.3062 89.0648 74.4061C89.1116 74.506 89.1782 74.5954 89.2604 74.669C89.5392 74.8415 89.8661 74.9199 90.1929 74.8926C90.6142 74.9199 91.0351 74.8334 91.4116 74.6421C91.606 74.5159 91.7518 74.3275 91.8253 74.1077C91.9071 73.7903 91.9403 73.4623 91.9236 73.135V71.9655C91.3005 72.8316 90.5171 73.2639 89.5735 73.2624C89.0713 73.2742 88.5748 73.1545 88.1331 72.9152C87.6915 72.6759 87.32 72.3254 87.0556 71.8984C86.5501 71.097 86.2977 70.1619 86.3311 69.215C86.3311 67.8733 86.6508 66.8447 87.2814 66.1381C87.5727 65.7976 87.9356 65.5256 88.3442 65.3416C88.7528 65.1576 89.197 65.0661 89.645 65.0737C90.6133 65.0737 91.416 65.5075 92.0444 66.3773V65.2593H93.9899V72.4485C94.0202 73.1615 93.9449 73.8751 93.7662 74.5661C93.6456 74.9798 93.4252 75.3576 93.1245 75.6663C92.8089 75.9571 92.4311 76.172 92.0198 76.2946C91.4519 76.4587 90.8621 76.5341 90.2711 76.5183C88.9414 76.5183 87.9977 76.2857 87.4402 75.8206C87.1745 75.6098 86.961 75.3405 86.8163 75.0337C86.6716 74.7269 86.5997 74.3909 86.6061 74.0518C86.6083 73.9802 86.6083 73.893 86.6083 73.7924ZM88.4643 69.0965C88.4643 69.9462 88.6253 70.5679 88.9473 70.9614C89.0865 71.1463 89.267 71.2962 89.4743 71.399C89.6816 71.5019 89.91 71.555 90.1414 71.554C90.3876 71.5563 90.631 71.503 90.8537 71.3981C91.0763 71.2932 91.2724 71.1393 91.4272 70.948C91.7776 70.544 91.9527 69.944 91.9527 69.1479C91.9527 68.3191 91.785 67.7034 91.4496 67.3009C91.2986 67.1093 91.1054 66.9552 90.8851 66.8505C90.6648 66.7457 90.4233 66.6933 90.1795 66.6971C89.9421 66.693 89.7071 66.7445 89.4932 66.8474C89.2792 66.9502 89.0923 67.1017 88.9473 67.2897C88.6298 67.6847 88.471 68.2863 88.471 69.0943L88.4643 69.0965Z" fill="#585439"/>
<path d="M98.122 62.207V66.2723C98.7929 65.4748 99.5941 65.0753 100.526 65.0738C100.972 65.0664 101.415 65.1596 101.821 65.3466C102.167 65.4955 102.467 65.735 102.688 66.0398C102.883 66.3209 103.019 66.639 103.086 66.9745C103.172 67.4999 103.208 68.0322 103.194 68.5644V73.2603H101.116V69.034C101.116 68.1932 101.077 67.6602 101 67.4351C100.926 67.2133 100.778 67.0233 100.582 66.8962C100.357 66.7555 100.095 66.6854 99.8304 66.695C99.5041 66.6891 99.1832 66.7785 98.9069 66.9521C98.6265 67.135 98.4167 67.4079 98.3121 67.7258C98.1642 68.2208 98.1 68.737 98.122 69.2531V73.2648H96.0469V62.207H98.122Z" fill="#585439"/>
<path d="M108.9 65.2545V66.9428H107.48V70.1718C107.466 70.5532 107.48 70.9351 107.522 71.3145C107.549 71.4231 107.614 71.5184 107.706 71.5828C107.809 71.6543 107.932 71.6911 108.057 71.6879C108.345 71.6665 108.628 71.5978 108.893 71.4844L109.07 73.128C108.551 73.346 107.992 73.4541 107.429 73.4455C107.081 73.4504 106.737 73.385 106.416 73.2532C106.149 73.1545 105.916 72.9815 105.745 72.7545C105.589 72.5041 105.489 72.2224 105.454 71.9294C105.397 71.4336 105.375 70.9345 105.387 70.4356V66.9428H104.432V65.2545H105.391V63.6624L107.476 62.4258V65.2545H108.9Z" fill="#585439"/>
<path d="M114.889 70.7152L116.957 71.0685C116.739 71.7788 116.297 72.3994 115.696 72.8373C115.06 73.2612 114.307 73.474 113.543 73.4455C112.177 73.4455 111.166 72.9901 110.511 72.0792C109.993 71.3532 109.735 70.4334 109.737 69.3198C109.737 67.9915 110.077 66.9517 110.757 66.2004C111.079 65.8369 111.477 65.5485 111.923 65.3553C112.369 65.1622 112.851 65.069 113.337 65.0823C114.502 65.0823 115.426 65.4759 116.101 66.263C116.776 67.0501 117.098 68.2554 117.069 69.8788H111.863C111.846 70.4128 112.025 70.9345 112.367 71.3457C112.517 71.5146 112.701 71.6491 112.908 71.7398C113.115 71.8305 113.339 71.8753 113.565 71.8712C113.862 71.8803 114.153 71.7836 114.386 71.5984C114.64 71.3627 114.816 71.0543 114.889 70.7152ZM115.005 68.5729C114.992 67.9602 114.837 67.4936 114.54 67.1731C114.4 67.02 114.229 66.8981 114.038 66.8156C113.847 66.7331 113.642 66.6918 113.434 66.6943C113.226 66.6969 113.021 66.7432 112.833 66.8303C112.644 66.9175 112.476 67.0434 112.34 67.1999C112.023 67.5848 111.863 68.0752 111.892 68.5729H115.005Z" fill="#585439"/>
<path d="M125.9 73.2644H123.824V69.1678C123.824 68.3017 123.78 67.7419 123.69 67.4885C123.613 67.2503 123.462 67.0428 123.259 66.8959C123.047 66.752 122.795 66.6785 122.539 66.6857C122.192 66.6813 121.853 66.787 121.57 66.9876C121.29 67.1804 121.082 67.4626 120.982 67.7881C120.875 68.1191 120.823 68.7318 120.823 69.6285V73.2555H118.746V65.2546H120.676V66.4308C121.36 65.5244 122.222 65.072 123.261 65.0734C123.694 65.0685 124.123 65.1546 124.52 65.3261C124.857 65.4622 125.153 65.6843 125.379 65.9701C125.576 66.2363 125.715 66.5411 125.788 66.8646C125.875 67.3349 125.912 67.8131 125.9 68.2912V73.2644Z" fill="#585439"/>
<path d="M128.008 64.1681V62.207H130.085V64.1681H128.008ZM128.008 73.2648V65.2549H130.085V73.2648H128.008Z" fill="#585439"/>
<path d="M139.354 73.2645H137.277V69.1678C137.277 68.3017 137.232 67.7419 137.142 67.4885C137.065 67.2503 136.914 67.0429 136.711 66.8959C136.499 66.7518 136.247 66.6782 135.991 66.6857C135.644 66.6816 135.305 66.7873 135.022 66.9876C134.742 67.1804 134.534 67.4626 134.434 67.7881C134.301 68.392 134.248 69.0107 134.276 69.6285V73.2555H132.198V65.2546H134.128V66.4308C134.812 65.5244 135.674 65.072 136.713 65.0735C137.146 65.0683 137.575 65.1544 137.972 65.3261C138.31 65.4628 138.606 65.6847 138.833 65.9702C139.029 66.237 139.167 66.5416 139.24 66.8646C139.328 67.3348 139.366 67.813 139.354 68.2913V73.2645Z" fill="#585439"/>
<path d="M141.268 73.7923L143.643 74.0875C143.647 74.1976 143.673 74.3058 143.719 74.4057C143.766 74.5056 143.832 74.5951 143.914 74.6689C144.193 74.8412 144.521 74.9195 144.848 74.8925C145.27 74.9195 145.69 74.833 146.067 74.6421C146.261 74.5163 146.406 74.3276 146.478 74.1076C146.56 73.7902 146.593 73.4622 146.577 73.1349V71.9654C145.958 72.8315 145.174 73.2638 144.224 73.2623C143.724 73.2719 143.23 73.151 142.791 72.9114C142.352 72.6718 141.983 72.3218 141.72 71.8961C141.213 71.0952 140.961 70.1598 140.995 69.2127C140.995 67.871 141.312 66.8454 141.946 66.1358C142.236 65.7966 142.598 65.5256 143.005 65.342C143.412 65.1585 143.854 65.0668 144.3 65.0736C145.271 65.0736 146.072 65.5081 146.704 66.3773V65.2592H148.645V72.4484C148.674 73.1614 148.599 73.8748 148.422 74.566C148.301 74.9798 148.081 75.3575 147.78 75.6662C147.46 75.958 147.077 76.173 146.662 76.2946C146.095 76.4586 145.506 76.534 144.915 76.5182C143.585 76.5182 142.639 76.2946 142.084 75.8205C141.818 75.6098 141.605 75.3406 141.459 75.0338C141.314 74.7271 141.242 74.391 141.248 74.0517C141.261 73.9802 141.264 73.8929 141.268 73.7923ZM143.124 69.0964C143.124 69.9461 143.285 70.5678 143.607 70.9614C143.746 71.1462 143.927 71.2961 144.134 71.3989C144.341 71.5018 144.57 71.5549 144.801 71.5539C145.047 71.5582 145.291 71.5066 145.514 71.4032C145.737 71.2998 145.934 71.1472 146.089 70.9569C146.44 70.5529 146.615 69.9529 146.615 69.1568C146.615 68.3279 146.448 67.7122 146.114 67.3097C145.962 67.1177 145.768 66.9633 145.547 66.8586C145.326 66.7538 145.084 66.7016 144.839 66.706C144.602 66.7021 144.368 66.7536 144.154 66.8565C143.941 66.9594 143.754 67.1108 143.609 67.2986C143.286 67.6876 143.124 68.2862 143.124 69.0942V69.0964Z" fill="#585439"/>
<path d="M154.929 73.2648V62.207H162.963V64.0787H157.116V66.5384H162.558V68.4012H157.116V71.4043H163.171V73.267L154.929 73.2648Z" fill="#585439"/>
<path d="M172.21 73.2648H170.283V72.0885C169.994 72.5174 169.604 72.8683 169.147 73.1105C168.741 73.3268 168.289 73.4419 167.83 73.4459C167.384 73.4455 166.944 73.3447 166.543 73.1512C166.141 72.9576 165.789 72.6762 165.511 72.3278C164.867 71.5824 164.545 70.5471 164.547 69.2218C164.547 67.8637 164.86 66.8321 165.486 66.127C165.778 65.7857 166.142 65.5136 166.552 65.3303C166.962 65.1469 167.407 65.057 167.856 65.0671C168.296 65.069 168.729 65.1706 169.124 65.3643C169.519 65.5579 169.864 65.8386 170.135 66.1851V62.207H172.21V73.2648ZM166.662 69.0854C166.662 69.9419 166.779 70.559 167.011 70.9414C167.146 71.1954 167.349 71.4072 167.597 71.5536C167.844 71.6999 168.128 71.7752 168.415 71.771C168.653 71.7702 168.887 71.7135 169.099 71.6055C169.311 71.4975 169.494 71.3412 169.634 71.1494C169.97 70.7334 170.137 70.114 170.137 69.2911C170.137 68.3698 169.976 67.7079 169.65 67.3032C169.504 67.1106 169.315 66.9551 169.098 66.8494C168.88 66.7437 168.641 66.6908 168.4 66.695C168.161 66.6932 167.926 66.7464 167.712 66.8503C167.497 66.9542 167.309 67.1061 167.163 67.2943C166.829 67.6953 166.662 68.2923 166.662 69.0854Z" fill="#585439"/>
<path d="M179.423 73.2647V72.0751C179.142 72.5019 178.757 72.8504 178.305 73.0881C177.853 73.3307 177.347 73.4575 176.834 73.4571C176.337 73.4661 175.847 73.3435 175.414 73.1015C175.008 72.8808 174.687 72.5305 174.504 72.1064C174.292 71.5402 174.196 70.9372 174.222 70.3332V65.2549H176.302V68.9445C176.302 70.0626 176.337 70.7603 176.413 71.0152C176.482 71.2573 176.63 71.4692 176.834 71.6167C177.058 71.7736 177.327 71.8522 177.601 71.8403C177.942 71.8449 178.277 71.7408 178.556 71.5429C178.821 71.3633 179.022 71.1041 179.13 70.8028C179.235 70.5098 179.285 69.7875 179.285 68.6426V65.2549H181.364V73.2647H179.423Z" fill="#585439"/>
<path d="M190.352 67.6226L188.304 67.9983C188.264 67.6382 188.097 67.3042 187.832 67.0569C187.566 66.8366 187.228 66.7233 186.884 66.7393C186.649 66.7304 186.416 66.7751 186.201 66.87C185.986 66.965 185.796 67.1076 185.645 67.2872C185.339 67.6517 185.184 68.2599 185.184 69.1163C185.184 70.0675 185.34 70.7383 185.652 71.1289C185.8 71.3196 185.992 71.4724 186.212 71.5747C186.431 71.6769 186.671 71.7257 186.913 71.717C187.267 71.7308 187.614 71.6084 187.881 71.3748C188.132 71.1512 188.31 70.7532 188.413 70.1942L190.453 70.5497C190.241 71.5038 189.835 72.2253 189.234 72.7143C188.633 73.2033 187.827 73.447 186.817 73.4455C185.667 73.4455 184.752 73.0728 184.071 72.3274C183.389 71.5821 183.049 70.5587 183.049 69.2572C183.049 67.9349 183.391 66.9055 184.075 66.1691C184.759 65.4327 185.686 65.0645 186.855 65.0645C187.81 65.0645 188.571 65.2739 189.136 65.6928C189.745 66.1821 190.174 66.8615 190.352 67.6226Z" fill="#585439"/>
<path d="M193.476 67.6994L191.591 67.3528C191.745 66.669 192.132 66.0601 192.687 65.631C193.205 65.2598 193.972 65.0742 194.994 65.0742C195.92 65.0742 196.61 65.186 197.063 65.4096C197.464 65.5857 197.799 65.8839 198.02 66.2616C198.205 66.606 198.297 67.2381 198.297 68.1579L198.275 70.6333C198.261 71.157 198.295 71.6809 198.375 72.1986C198.455 72.5712 198.58 72.9326 198.749 73.2742H196.692C196.64 73.1333 196.573 72.9253 196.495 72.648C196.459 72.5228 196.434 72.4401 196.421 72.3998C196.094 72.7318 195.709 73.0009 195.285 73.1937C194.876 73.3705 194.434 73.4604 193.988 73.4575C193.182 73.4575 192.545 73.2339 192.078 72.7867C191.85 72.5683 191.67 72.3044 191.55 72.012C191.429 71.7197 191.372 71.4054 191.381 71.0894C191.373 70.6639 191.483 70.2445 191.698 69.8775C191.91 69.5242 192.221 69.2411 192.593 69.0635C193.121 68.8296 193.676 68.6636 194.245 68.5693C194.931 68.4606 195.605 68.2862 196.258 68.0483V67.8269C196.273 67.6694 196.255 67.5105 196.205 67.3605C196.154 67.2106 196.072 67.0731 195.965 66.957C195.765 66.7826 195.392 66.6954 194.847 66.6954C194.541 66.6772 194.238 66.7554 193.979 66.919C193.735 67.1213 193.56 67.3938 193.476 67.6994ZM196.256 69.419C195.841 69.5474 195.42 69.6549 194.994 69.741C194.6 69.8043 194.218 69.9296 193.863 70.1122C193.738 70.1932 193.636 70.3038 193.565 70.4342C193.494 70.5646 193.456 70.7106 193.456 70.8591C193.455 71.0028 193.483 71.1453 193.539 71.2776C193.596 71.4099 193.678 71.5293 193.782 71.6284C193.891 71.7358 194.02 71.82 194.161 71.8758C194.303 71.9315 194.455 71.9577 194.608 71.9526C194.997 71.9468 195.374 71.8141 195.681 71.5747C195.919 71.4026 196.092 71.1564 196.175 70.8748C196.243 70.5341 196.27 70.1865 196.256 69.8394V69.419Z" fill="#585439"/>
<path d="M203.945 65.2545V66.9428H202.525V70.1718C202.512 70.5531 202.526 70.9349 202.565 71.3145C202.593 71.4234 202.659 71.5187 202.751 71.5828C202.853 71.6549 202.977 71.6918 203.102 71.6879C203.389 71.6662 203.671 71.5975 203.936 71.4844L204.113 73.128C203.593 73.3462 203.034 73.4544 202.471 73.4455C202.125 73.4504 201.781 73.385 201.461 73.2532C201.194 73.1545 200.961 72.9815 200.79 72.7545C200.633 72.5043 200.533 72.2226 200.497 71.9294C200.44 71.4336 200.417 70.9345 200.43 70.4356V66.9428H199.488V65.2545H200.439V63.6624L202.525 62.4258V65.2545H203.945Z" fill="#585439"/>
<path d="M205.385 64.1681V62.207H207.462V64.1681H205.385ZM205.385 73.2648V65.2549H207.462V73.2648H205.385Z" fill="#585439"/>
<path d="M209.111 69.1464C209.112 68.4336 209.288 67.7321 209.623 67.1026C209.941 66.4659 210.444 65.9404 211.067 65.5954C211.706 65.2429 212.426 65.0633 213.156 65.0744C213.699 65.0563 214.24 65.1526 214.744 65.3572C215.248 65.5618 215.704 65.87 216.081 66.2618C216.459 66.6586 216.754 67.1268 216.949 67.6389C217.144 68.1511 217.235 68.6971 217.217 69.2448C217.234 69.7977 217.142 70.3485 216.946 70.8656C216.749 71.3826 216.452 71.8555 216.072 72.2569C215.699 72.6472 215.248 72.9548 214.749 73.1598C214.25 73.3647 213.713 73.4624 213.174 73.4465C212.457 73.4477 211.751 73.2767 211.114 72.9479C210.476 72.632 209.956 72.1214 209.627 71.4899C209.264 70.7634 209.087 69.9583 209.111 69.1464ZM211.239 69.2605C211.239 70.0543 211.425 70.6625 211.792 71.0852C211.96 71.2875 212.171 71.4494 212.411 71.5589C212.65 71.6685 212.911 71.7228 213.174 71.718C213.434 71.7216 213.691 71.6665 213.927 71.557C214.162 71.4474 214.371 71.2862 214.535 71.0852C214.904 70.6625 215.085 70.0498 215.085 69.2448C215.085 68.4398 214.904 67.8562 214.535 67.4358C214.371 67.2345 214.163 67.0729 213.927 66.963C213.691 66.853 213.434 66.7976 213.174 66.8007C212.912 66.798 212.654 66.8536 212.417 66.9635C212.179 67.0733 211.97 67.2347 211.803 67.4358C211.425 67.8562 211.239 68.4667 211.239 69.2605Z" fill="#585439"/>
<path d="M225.98 73.2644H223.907V69.1678C223.907 68.3024 223.86 67.7434 223.773 67.4885C223.694 67.2501 223.542 67.0427 223.339 66.8959C223.128 66.7518 222.876 66.6782 222.621 66.6857C222.274 66.681 221.934 66.7867 221.65 66.9876C221.37 67.1804 221.162 67.4626 221.062 67.7881C220.929 68.392 220.876 69.0107 220.904 69.6285V73.2555H218.826V65.2546H220.756V66.4308C221.443 65.5244 222.306 65.072 223.343 65.0734C223.775 65.0685 224.203 65.1546 224.6 65.3261C224.938 65.4628 225.236 65.6847 225.463 65.9701C225.658 66.2371 225.796 66.5417 225.868 66.8646C225.957 67.3347 225.996 67.8129 225.984 68.2912L225.98 73.2644Z" fill="#585439"/>
<path d="M7.00146 13.3318C7.00146 13.5554 10.9639 15.6417 11.116 15.7915C11.6191 16.2544 16.0511 14.2262 16.0511 14.2262L14.8526 8.00977H11.107L8.79038 11.2678L7.00146 13.3318Z" fill="#373737"/>
<path d="M45.0428 14.8835C45.0428 14.8835 42.4645 15.8316 42.0285 15.7914C41.5924 15.7511 37.3013 14.0897 37.3013 14.0897L38.6586 8.73633L42.3863 9.10529L44.3675 12.5713L45.0428 14.8835Z" fill="#373737"/>
<path d="M40.6151 15.8407C40.6151 15.8407 34.9196 11.9096 27.0082 11.6837C19.4835 11.4601 12.7103 15.758 12.6611 15.7423C9.23753 14.7607 5.43608 13.2647 4.63107 11.5518C4.47902 11.2253 3.7791 10.1363 4.63107 9.73159C4.63107 9.73159 17.0886 4.3805 25.624 0.279412C26.2456 -0.020231 28.1821 -0.06719 28.8574 0.248106C29.5328 0.563402 42.9451 7.28748 48.5892 9.96862C49.2063 10.2638 48.4729 11.3886 46.9098 12.4664C45.3468 13.5442 45.15 13.8528 42.4867 15.0648L40.6151 15.8407Z" fill="#373737"/>
<path d="M29.7293 10.6304C29.7293 10.6304 23.3965 11.6747 27.2494 11.6233C34.774 11.5182 41.2074 15.9748 41.2588 15.9614C44.7092 15.0468 48.7857 13.6358 49.6243 11.9363C49.783 11.6143 50.5075 10.579 49.6623 10.1474C49.5907 10.1474 37.2629 4.29768 28.7566 0.212247C28.1327 -0.0873964 26.2789 -0.0739795 25.626 0.279331C24.973 0.632642 19.8679 10.5656 26.0933 11.0128C37.0705 11.8245 25.693 9.56603 27.2337 10.6729C28.7745 11.7798 26.4332 9.4095 29.0719 10.6729L29.7293 10.6304Z" fill="#373737"/>
<path d="M16.3551 9.0522C16.2455 9.10139 15.5903 9.40551 15.6037 9.52402C15.7066 10.3469 16.6167 13.4239 15.8273 17.3326C15.3041 19.9377 16.9857 20.9686 27.263 21.1542C30.4674 21.2123 35.7089 21.058 37.5962 19.3295C38.475 18.5267 37.538 17.0554 37.301 14.1864C37.0461 11.1139 37.9719 9.19084 37.5112 9.11704C37.4128 9.10139 28.3766 3.74136 16.3551 9.0522Z" fill="#47474A"/>
<path d="M15.7222 12.9362C15.7222 12.9362 16.7396 16.4089 15.825 20.9393C15.3018 23.5422 16.9834 24.5731 27.2607 24.7587C30.4651 24.8168 35.7066 24.6625 37.5939 22.9362C38.4727 22.1334 37.5357 20.6598 37.2987 17.7931C37.1349 16.1024 37.2056 14.3972 37.5089 12.726C37.5111 12.6276 27.8376 7.48445 15.7222 12.9362Z" fill="#DA9633"/>
<path d="M53.1153 66.5071L0.773926 70.2906L14.9332 27.4551L38.2964 27.4864L53.1153 66.5071Z" fill="#B6394A"/>
<path d="M50.5391 73.4544C50.5556 70.9071 51.4541 68.4441 53.0816 66.4844H7.27641C3.25135 66.4844 0 69.5076 0 73.242C0 76.9764 3.25806 79.9996 7.27641 79.9996H52.7551C51.3324 78.1127 50.5553 75.8176 50.5391 73.4544Z" fill="#B6394A"/>
<path d="M50.5389 73.4548C50.5426 71.867 50.8985 70.2998 51.581 68.8662H4.22168V77.6923H51.4244C50.8432 76.355 50.5418 74.9129 50.5389 73.4548Z" fill="white"/>
<path d="M51.0532 70.2148H4.22168V70.2998H51.0264L51.0532 70.2148Z" fill="#939498"/>
<path d="M50.8922 70.7666H4.22168V70.8538H50.8676C50.8766 70.8247 50.8833 70.7957 50.8922 70.7666Z" fill="#939498"/>
<path d="M50.7603 71.3262H4.22168V71.4044H50.7446C50.7513 71.3798 50.7558 71.353 50.7603 71.3262Z" fill="#939498"/>
<path d="M50.6619 71.8789H4.22168V71.9661H50.6507C50.6552 71.937 50.6574 71.908 50.6619 71.8789Z" fill="#939498"/>
<path d="M50.606 72.4326H4.22168V72.5221H50.5859C50.5881 72.4908 50.5903 72.4617 50.606 72.4326Z" fill="#939498"/>
<path d="M50.5546 72.9873H4.22168V73.0745H50.5523C50.5523 73.0454 50.5523 73.0164 50.5546 72.9873Z" fill="#939498"/>
<path d="M50.5434 73.542H4.22168V73.6404H50.5456C50.5456 73.6001 50.5434 73.5733 50.5434 73.542Z" fill="#939498"/>
<path d="M50.5613 74.0986H4.22168V74.1836H50.568C50.568 74.1545 50.5635 74.1255 50.5613 74.0986Z" fill="#939498"/>
<path d="M50.606 74.6533H4.22168V74.7383H50.6239C50.6156 74.7105 50.6096 74.6821 50.606 74.6533Z" fill="#939498"/>
<path d="M50.6865 75.2051H4.22168V75.2923H50.7044C50.6977 75.2655 50.6932 75.2386 50.6865 75.2051Z" fill="#939498"/>
<path d="M50.7961 75.7646H4.22168V75.8519H50.8162C50.811 75.8225 50.8043 75.7933 50.7961 75.7646Z" fill="#939498"/>
<path d="M50.9369 76.3242H4.22168V76.4092H50.9571C50.9526 76.3779 50.9459 76.3466 50.9369 76.3242Z" fill="#939498"/>
<path d="M51.1091 76.876H4.22168V76.9587H51.136C51.127 76.9296 51.1158 76.9028 51.1091 76.876Z" fill="#939498"/>
<path d="M51.2321 69.7031H4.22168V69.7881H51.1986C51.2098 69.759 51.2187 69.73 51.2321 69.7031Z" fill="#939498"/>
<path d="M18.3031 19.5256C18.3031 19.5256 16.8608 19.2371 17.9207 18.5663C18.9806 17.8954 23.5848 17.0301 28.274 17.1463C32.9632 17.2626 40.4319 17.9089 37.1895 19.7134" fill="#47474A"/>
<path d="M18.3029 19.5256C18.2139 19.5163 18.1257 19.5006 18.039 19.4786C17.9341 19.453 17.8321 19.4163 17.7349 19.3691C17.6676 19.3401 17.6056 19.3001 17.5515 19.2506C17.5177 19.2202 17.4902 19.1834 17.4706 19.1423C17.451 19.1013 17.4398 19.0567 17.4375 19.0113C17.438 18.9114 17.4718 18.8146 17.5337 18.7362C17.5928 18.6536 17.6619 18.5785 17.7394 18.5126L17.7998 18.4634L17.8288 18.4411L17.8691 18.4142L17.9965 18.336C18.0914 18.2787 18.19 18.2279 18.2917 18.1839C18.7627 17.9734 19.2494 17.8 19.7474 17.6651C20.2863 17.5153 20.8655 17.3632 21.5073 17.247C22.1491 17.1307 22.802 17.0077 23.4997 16.925L24.0274 16.8601L24.5641 16.8109C24.9219 16.7729 25.2886 16.7505 25.6553 16.7259C26.3933 16.6857 27.1424 16.6633 27.8915 16.6768C28.6406 16.6902 29.3852 16.717 30.1276 16.7617C30.87 16.8064 31.5789 16.8668 32.2765 16.9406C32.9742 17.0144 33.6406 17.1083 34.2734 17.2134C34.8713 17.3081 35.4639 17.4335 36.0489 17.5891C36.5531 17.7105 37.041 17.8914 37.5024 18.128C37.7073 18.2304 37.8857 18.3789 38.0234 18.5618C38.0816 18.6459 38.1128 18.7458 38.1128 18.848C38.1128 18.9503 38.0816 19.0502 38.0234 19.1343C37.9396 19.2562 37.8325 19.3604 37.7081 19.4406C37.603 19.5099 37.5091 19.5614 37.4331 19.6016C37.3571 19.6419 37.2967 19.6665 37.2542 19.6866L37.1938 19.7134L37.2475 19.6732L37.3995 19.5591C37.4778 19.4971 37.5525 19.4307 37.6232 19.3601C37.7161 19.2737 37.792 19.1705 37.8468 19.056C37.8733 18.9987 37.8809 18.9344 37.8684 18.8725C37.8559 18.8106 37.8241 18.7542 37.7775 18.7116C37.6443 18.5917 37.4884 18.4997 37.319 18.4411C36.861 18.2849 36.3894 18.1718 35.9103 18.1034C35.3758 18.0184 34.7922 17.9558 34.1639 17.8932C33.5355 17.8306 32.8758 17.7948 32.1916 17.7523C31.5073 17.7098 30.794 17.683 30.0717 17.6539C29.3494 17.6249 28.6137 17.6003 27.887 17.5958C27.1602 17.5913 26.4313 17.5958 25.7135 17.6159C24.9957 17.6361 24.289 17.6785 23.607 17.7344C22.925 17.7904 22.2653 17.8463 21.6437 17.9223L21.183 17.9804L20.7358 18.043C20.4429 18.0788 20.1656 18.1325 19.895 18.175C19.6244 18.2175 19.374 18.2756 19.1347 18.3315L18.9536 18.3695L18.7837 18.4142C18.6741 18.4433 18.56 18.4701 18.4661 18.5037C18.3686 18.5328 18.273 18.5679 18.1799 18.6088L18.0413 18.6714H18.0234L17.9921 18.6893L17.9339 18.7206C17.7863 18.8078 17.6656 18.9129 17.6522 19.0068C17.6388 19.1007 17.726 19.2014 17.8154 19.2684C17.897 19.3269 17.9848 19.3764 18.077 19.416C18.1502 19.4568 18.2256 19.4933 18.3029 19.5256Z" fill="#0F100E"/>
<path opacity="0.25" d="M16.5945 14.0427C16.5918 14.0353 16.5922 14.0271 16.5956 14.02C16.5989 14.0129 16.605 14.0074 16.6124 14.0047C16.6198 14.002 16.628 14.0024 16.6351 14.0058C16.6422 14.0091 16.6477 14.0152 16.6504 14.0226C17.0507 14.7806 18.9581 17.578 25.0628 16.896C25.0628 16.896 14.3047 17.7905 18.5198 20.4023C18.5198 20.4023 16.1719 20.0311 16.3127 18.0521C16.4514 16.1402 16.8718 15.9859 16.5945 14.0427Z" fill="#0F100E"/>
<path opacity="0.25" d="M26.2459 21.3149C21.4516 21.3149 17.5674 20.3467 17.5674 19.1526C17.5674 17.9585 21.4516 16.9902 26.2459 16.9902C26.2459 16.9902 18.7235 20.3444 26.626 21.2389L26.2459 21.3149Z" fill="#0F100E"/>
<path opacity="0.25" d="M29.5305 16.9541C34.3472 16.9541 38.2515 17.9224 38.2515 19.1165C38.2515 20.3106 34.345 21.281 29.5305 21.281C29.5305 21.281 37.0932 17.9268 29.1504 17.0324L29.5305 16.9541Z" fill="#0F100E"/>
<path opacity="0.5" d="M27.7799 21.313C33.42 21.313 37.9923 20.3449 37.9923 19.1506C37.9923 17.9564 33.42 16.9883 27.7799 16.9883C22.1397 16.9883 17.5674 17.9564 17.5674 19.1506C17.5674 20.3449 22.1397 21.313 27.7799 21.313Z" fill="#0F100E"/>
<path d="M44.4367 16.8761C44.4367 16.8761 42.2475 12.207 41.3061 12.2652C40.3647 12.3233 40.2417 15.3399 40.2417 15.3399L44.4367 16.8761Z" fill="#675139"/>
<path d="M46.6189 17.312L46.6838 17.4283C47.8277 17.4924 48.975 17.4527 50.1118 17.3097C50.9576 17.1966 51.7898 16.9989 52.5961 16.7194C52.5961 16.7194 51.2142 19.4028 50.0335 20.6617C48.8528 21.9207 48.3385 22.2762 48.3385 22.2762C48.3385 22.2762 48.6135 24.0495 48.6918 24.6801C48.7597 25.1577 48.8515 25.6316 48.9669 26.1C49.4451 26.1507 49.9047 26.3131 50.3085 26.5741C50.7172 26.8475 51.0226 27.2497 51.1762 27.7168L50.4271 27.6787C50.4271 27.6787 51.4892 28.6224 51.6882 29.4118C51.8873 30.2011 51.7263 30.5947 51.7263 30.5947C51.7263 30.5947 50.5456 29.8836 50.1118 30.0021C50.1118 30.0021 51.0174 32.5245 50.4271 33.7074L49.3627 33.3138C49.3627 33.3138 49.8345 34.4945 49.6399 34.9283L49.0474 34.7047C49.0474 34.7047 49.8747 35.8474 49.4812 36.7933L49.0876 37.7391L47.9449 36.6747C47.9449 36.6747 48.0612 38.3295 47.5514 39.1971C47.3054 39.644 47 40.0554 46.6435 40.4203L45.7356 39.2754C45.1217 40.1093 44.4363 40.8881 43.6873 41.6032C43.0221 42.1651 42.3247 42.6877 41.5988 43.1685C41.5988 43.1685 45.3421 43.8774 45.2638 44.1927L43.9221 44.9418C43.9221 44.9418 46.525 45.8094 46.525 47.1086L44.9105 47.0706C44.9105 47.0706 48.3765 49.5974 49.3627 51.3707C50.3488 53.1439 50.8586 54.9172 50.3085 55.7848C49.7585 56.6524 47.3524 55.2325 47.3524 55.2325C47.3524 55.2325 50.3085 62.0527 48.5733 62.3278C46.8381 62.6028 44.9485 59.9642 44.9485 59.9642C44.9485 59.9642 45.2638 64.9284 43.8439 64.7719C43.4433 64.7336 43.0615 64.5842 42.7414 64.3404C42.4214 64.0966 42.1758 63.7682 42.0326 63.3922C42.0326 63.3922 41.7553 65.1252 41.5988 65.0872C41.4422 65.0492 41.2432 64.3001 41.2432 64.3001C41.2432 64.3001 40.4539 67.415 39.707 67.2562C38.9601 67.0975 39.1166 65.521 39.1166 65.521C39.1166 65.521 38.012 67.5335 36.9856 67.6878L35.9614 67.8466L35.9234 66.3886C35.9234 66.3886 35.0961 66.8202 34.9373 66.8202C34.7785 66.8202 30.2414 67.7281 27.558 67.7281H25.3487C22.8375 67.7281 18.5933 66.8202 18.4435 66.8202C18.2937 66.8202 17.52 66.3886 17.52 66.3886L17.4842 67.8466L16.5249 67.6878C15.5634 67.5313 14.5303 65.521 14.5303 65.521C14.5303 65.521 14.6778 67.0975 13.9757 67.2562C13.2735 67.415 12.5356 64.3001 12.5356 64.3001C12.5356 64.3001 12.35 65.0469 12.2024 65.0872C12.0548 65.1274 11.7977 63.3922 11.7977 63.3922C11.6711 63.7577 11.445 64.0806 11.1447 64.3243C10.8444 64.5681 10.4819 64.7231 10.0982 64.7719C8.75653 64.9284 9.06288 59.9642 9.06288 59.9642C9.06288 59.9642 7.29186 62.6051 5.66618 62.3278C4.04051 62.0505 6.81109 55.2325 6.81109 55.2325C6.81109 55.2325 4.566 56.6457 4.05169 55.7848C3.53737 54.9239 4.01144 53.1439 4.94615 51.3707C5.88085 49.5974 9.11879 47.0706 9.11879 47.0706L7.60492 47.1086C7.60492 45.8094 10.0401 44.9418 10.0401 44.9418L8.7856 44.1927C8.71181 43.8774 12.2203 43.1685 12.2203 43.1685C11.5377 42.686 10.8843 42.1633 10.2637 41.6032C9.55713 40.8804 8.91445 40.0978 8.34285 39.2642L7.49311 40.4091C7.15658 40.0411 6.8708 39.6297 6.64338 39.1859C6.16484 38.3183 6.27441 36.6636 6.27441 36.6636L5.2033 37.728L4.83434 36.7821C4.46314 35.8362 5.24132 34.6935 5.24132 34.6935L4.68675 34.9171C4.50115 34.4833 4.94615 33.3026 4.94615 33.3026L3.94883 33.6962C3.39426 32.5133 4.244 29.9909 4.244 29.9909C3.83702 29.8724 2.72789 30.5835 2.72789 30.5835C2.72789 30.5835 2.58254 30.1877 2.76591 29.4006C2.94927 28.6135 3.94883 27.6676 3.94883 27.6676L3.24668 27.7056C3.38605 27.2461 3.6719 26.8448 4.06063 26.5629C4.43314 26.3036 4.86417 26.1407 5.31511 26.0888C5.31511 26.0888 5.49847 25.2995 5.57227 24.6689C5.64606 24.0383 5.90545 22.265 5.90545 22.265C5.90545 22.265 5.42468 21.9117 4.31779 20.6505C3.2109 19.3894 1.90723 16.7194 1.90723 16.7194C2.66002 16.9982 3.44036 17.1961 4.23505 17.3097C5.09618 17.4324 5.9663 17.4803 6.83569 17.4529L6.94078 17.1845C6.94078 17.1845 9.79634 12.3142 11.8804 12.1711C13.9645 12.028 16.0016 14.2485 16.0016 14.2485C16.0016 14.2485 16.8402 13.6447 19.2999 12.9336C20.55 12.5736 24.1144 11.5204 27.5983 11.6165C30.9212 11.7037 34.1658 12.9224 35.2638 13.2511C37.4999 13.922 37.3121 14.0897 37.3121 14.0897C37.3121 14.0897 39.4901 11.3527 41.6591 11.7865C43.6493 12.1845 46.1583 16.4578 46.6301 17.312" fill="#6E543C"/>
<path d="M24.4232 37.659C24.4232 37.659 25.5166 41.0289 27.1445 40.9685C28.7725 40.9082 29.7452 37.5696 29.7452 37.5696C29.7452 37.5696 32.1155 32.2252 26.8538 32.3437C21.5922 32.4623 24.4232 37.659 24.4232 37.659Z" fill="#B2773A"/>
<path d="M9.65136 64.4144L10.3736 62.1626C10.3736 62.1626 7.67237 58.9202 9.06773 52.6568C10.4631 46.3934 18.0324 43.2896 18.0324 43.2896C18.0324 43.2896 16.5856 41.8115 10.2797 41.5879L10.0762 41.6237C10.0762 41.6237 6.06682 42.4354 6.1518 42.7954L7.5874 43.6518C7.5874 43.6518 4.80117 44.6425 4.80117 46.1362L6.53194 46.0915C6.53194 46.0915 2.81771 48.9783 1.76225 51.011C0.706788 53.0437 0.158933 55.0517 0.74033 56.0446C1.32173 57.0374 3.90447 55.414 3.90447 55.414C3.90447 55.414 0.74033 63.2069 2.60527 63.5245C4.47022 63.842 5.71798 62.4936 5.71798 62.4936C5.71798 62.4936 6.1518 66.4963 7.67237 66.3152C8.11077 66.2597 8.52489 66.0826 8.8679 65.804C9.21092 65.5254 9.46913 65.1564 9.61335 64.7387L9.65136 64.4144Z" fill="#5E4525"/>
<path d="M44.2534 64.4147L43.4998 62.1629C43.4998 62.1629 46.3218 58.9205 44.8638 52.6571C43.4059 46.3936 35.5078 43.2899 35.5078 43.2899C35.5078 43.2899 37.006 41.8274 43.5892 41.6016L43.8128 41.6239C43.8128 41.6239 47.9989 42.4356 47.9117 42.7957L46.4135 43.6521C46.4135 43.6521 49.3205 44.6427 49.3205 46.1298L47.5137 46.085C47.5137 46.085 51.3911 48.9719 52.4936 51.0045C53.596 53.0372 54.1662 55.0587 53.549 56.0515C52.9318 57.0444 50.2462 55.4209 50.2462 55.4209C50.2462 55.4209 53.549 63.2139 51.6103 63.5314C49.6715 63.849 47.8826 62.4022 47.8826 62.4022C47.8826 62.4022 47.9117 66.5032 46.3173 66.3221C45.8659 66.2747 45.4366 66.102 45.0782 65.8234C44.7198 65.5448 44.4465 65.1715 44.2891 64.7456L44.2534 64.4147Z" fill="#5E4525"/>
<path d="M27.3097 53.5369C25.125 53.5369 23.3495 52.4859 23.2422 51.1621C23.2422 51.2068 23.2422 51.2538 23.2422 51.2985C23.2422 52.828 25.0691 54.0669 27.3209 54.0669C29.5727 54.0669 31.4019 52.828 31.4019 51.2985C31.4019 51.2538 31.4019 51.2068 31.4019 51.1621C31.2722 52.4859 29.4944 53.5369 27.3097 53.5369Z" fill="#583F25"/>
<path d="M22.2276 49.4145C20.2956 49.4145 18.7258 48.482 18.6297 47.3125C18.6274 47.3535 18.6274 47.3945 18.6297 47.4355C18.6297 48.7772 20.2441 49.8818 22.2366 49.8818C24.229 49.8818 25.8412 48.7861 25.8412 47.4355C25.8435 47.3945 25.8435 47.3535 25.8412 47.3125C25.7294 48.482 24.1574 49.4145 22.2276 49.4145Z" fill="#583F25"/>
<path d="M17.1959 53.9085C15.3019 54.2395 13.5599 53.591 13.2178 52.4595C13.2178 52.4997 13.2178 52.54 13.2357 52.5803C13.5241 53.9063 15.3399 54.7068 17.2965 54.3692C19.2531 54.0315 20.6038 52.6809 20.3175 51.3548C20.3175 51.3146 20.2929 51.2743 20.2817 51.2363C20.4383 52.3969 19.0921 53.582 17.1959 53.9085Z" fill="#583F25"/>
<path d="M32.2698 49.3042C30.3467 49.1544 28.8709 48.1056 28.8888 46.9316C28.8888 46.9719 28.8731 47.0121 28.8686 47.0524C28.7389 48.3941 30.2416 49.615 32.2229 49.7693C34.2041 49.9236 35.9214 48.9598 36.0511 47.6137C36.0533 47.5727 36.0533 47.5316 36.0511 47.4907C35.8476 48.649 34.1996 49.454 32.2698 49.3042Z" fill="#583F25"/>
<path d="M37.1043 54.103C35.1812 53.9532 33.7053 52.9022 33.7255 51.7305C33.7255 51.7707 33.7098 51.8087 33.7053 51.8512C33.5734 53.1929 35.0761 54.4138 37.0595 54.5681C39.043 54.7224 40.7581 53.7586 40.8901 52.4103C40.8923 52.3693 40.8923 52.3282 40.8901 52.2873C40.6843 53.4478 39.0273 54.2528 37.1043 54.103Z" fill="#583F25"/>
<path d="M32.7438 58.7563C30.814 58.7093 29.2733 57.7388 29.2151 56.5693C29.2076 56.6092 29.2024 56.6496 29.1995 56.6901C29.1592 58.0318 30.7379 59.1744 32.7304 59.2236C34.7228 59.2728 36.3686 58.2218 36.411 56.8712C36.411 56.8265 36.411 56.7885 36.411 56.7482C36.2746 57.9133 34.6736 58.8055 32.7438 58.7563Z" fill="#583F25"/>
<path d="M27.0972 63.0926C25.1696 63.1753 23.5506 62.3122 23.3941 61.1472C23.3908 61.1881 23.3908 61.2292 23.3941 61.2702C23.4634 62.6118 25.1361 63.6449 27.1262 63.56C29.1164 63.475 30.6683 62.3144 30.5967 60.9616C30.5967 60.9213 30.5967 60.8811 30.5833 60.8408C30.5475 62.0126 29.027 63.0121 27.0972 63.0926Z" fill="#583F25"/>
<path d="M22.1847 58.6066C20.275 58.8637 18.5666 58.1593 18.2804 57.0033C18.277 57.0442 18.277 57.0853 18.2804 57.1262C18.504 58.4679 20.2795 59.3311 22.2495 59.0717C24.2196 58.8123 25.6373 57.5064 25.4137 56.1647C25.4137 56.1244 25.3936 56.0842 25.3846 56.0439C25.4942 57.2269 24.0944 58.3561 22.1847 58.6066Z" fill="#583F25"/>
<path d="M25.1137 66.2607C24.6374 66.2607 24.2193 66.6275 23.9711 67.191C23.7229 66.6275 23.3002 66.2607 22.8284 66.2607C22.3566 66.2607 21.934 66.6275 21.6835 67.191C21.4375 66.6275 21.0127 66.2607 20.5431 66.2607C19.7783 66.2607 19.1611 67.2044 19.1611 68.3739C19.1611 69.5434 19.7783 70.4871 20.5431 70.4871C21.0171 70.4871 21.4375 70.1203 21.6835 69.5568C21.934 70.1203 22.3543 70.4871 22.8284 70.4871C23.3025 70.4871 23.7229 70.1203 23.9711 69.5568C24.2193 70.1203 24.6419 70.4871 25.1137 70.4871C25.8763 70.4871 26.4934 69.5412 26.4934 68.3739C26.4934 67.2066 25.8852 66.2607 25.1137 66.2607Z" fill="#B2773A"/>
<path d="M33.4167 66.2607C32.9426 66.2607 32.5222 66.6275 32.274 67.191C32.0258 66.6275 31.6032 66.2607 31.1313 66.2607C30.6595 66.2607 30.2369 66.6275 29.9887 67.191C29.7405 66.6275 29.3178 66.2607 28.846 66.2607C28.0835 66.2607 27.4663 67.2044 27.4663 68.3739C27.4663 69.5434 28.0835 70.4871 28.846 70.4871C29.3201 70.4871 29.7405 70.1203 29.9887 69.5568C30.2369 70.1203 30.6595 70.4871 31.1313 70.4871C31.6032 70.4871 32.0258 70.1203 32.274 69.5568C32.5222 70.1203 32.9449 70.4871 33.4167 70.4871C34.1792 70.4871 34.7964 69.5412 34.7964 68.3739C34.7964 67.2066 34.1792 66.2607 33.4167 66.2607Z" fill="#B2773A"/>
<path d="M7.98492 24.2687C7.98492 24.2687 7.7613 23.173 6.71703 22.9919C5.67275 22.8107 1.27202 16.2409 1.90708 16.7307C2.54215 17.2204 7.64055 17.5491 7.64055 17.5491C7.64055 17.5491 7.75907 17.5938 16.5382 18.3876C25.2412 19.177 26.8781 25.5209 26.8781 25.5209L26.9944 25.3443C26.9944 25.3443 28.6514 18.8393 37.5758 18.3071C46.5002 17.7749 46.6836 17.4798 46.6836 17.4798C46.6836 17.4798 52.1219 17.1242 52.7704 16.6524C53.4189 16.1806 48.6917 22.69 47.6273 22.8599C46.5629 23.0299 45.9479 24.3805 45.9479 24.3805L26.8155 30.6417L8.16157 24.1904" fill="#674F36"/>
<path d="M27.0549 30.3801C27.0549 36.4736 22.3948 41.411 16.6479 41.411C10.9011 41.411 6.24316 36.4736 6.24316 30.3801C6.24316 24.2866 10.9033 19.3447 16.6479 19.3447C22.3926 19.3447 27.0549 24.2844 27.0549 30.3801Z" fill="#B18D6D"/>
<path d="M25.9906 29.8704C25.9906 33.7613 22.7482 36.9143 18.7478 36.9143C14.7473 36.9143 11.5049 33.7613 11.5049 29.8704C11.5049 25.9795 14.7473 22.8311 18.7478 22.8311C22.7482 22.8311 25.9906 25.984 25.9906 29.8704Z" fill="white"/>
<path d="M25.1903 29.9014C25.1903 32.9582 22.6433 35.4336 19.5015 35.4336C16.3598 35.4336 13.8105 32.9582 13.8105 29.9014C13.8105 26.8445 16.3598 24.3691 19.5015 24.3691C22.6433 24.3691 25.1903 26.8468 25.1903 29.9014Z" fill="#674F36"/>
<path d="M18.3053 27.6656C18.3058 27.847 18.2524 28.0245 18.1519 28.1755C18.0514 28.3266 17.9084 28.4444 17.7409 28.5142C17.5734 28.5839 17.389 28.6024 17.211 28.5673C17.033 28.5321 16.8694 28.445 16.741 28.3169C16.6126 28.1887 16.525 28.0254 16.4895 27.8475C16.4539 27.6696 16.4719 27.4851 16.5413 27.3175C16.6106 27.1498 16.7281 27.0065 16.8789 26.9056C17.0297 26.8048 17.2071 26.751 17.3885 26.751C17.6313 26.751 17.8641 26.8473 18.036 27.0187C18.2079 27.1902 18.3047 27.4228 18.3053 27.6656Z" fill="white"/>
<path d="M26.7578 30.3801C26.7578 36.4736 31.4179 41.411 37.1648 41.411C42.9117 41.411 47.5696 36.4736 47.5696 30.3801C47.5696 24.2866 42.9117 19.3447 37.1648 19.3447C31.4179 19.3447 26.7578 24.2844 26.7578 30.3801Z" fill="#B18D6D"/>
<path d="M27.8223 29.8704C27.8223 33.7613 31.0669 36.9143 35.0651 36.9143C39.0634 36.9143 42.308 33.7613 42.308 29.8704C42.308 25.9795 39.0656 22.8311 35.0651 22.8311C31.0647 22.8311 27.8223 25.984 27.8223 29.8704Z" fill="white"/>
<path d="M28.6226 29.9014C28.6226 32.9582 31.1695 35.4336 34.3113 35.4336C37.4531 35.4336 40.0023 32.9582 40.0023 29.9014C40.0023 26.8445 37.4553 24.3691 34.3113 24.3691C31.1673 24.3691 28.6226 26.8468 28.6226 29.9014Z" fill="#674F36"/>
<path d="M35.5078 27.6656C35.5074 27.847 35.5608 28.0245 35.6612 28.1755C35.7617 28.3266 35.9047 28.4444 36.0722 28.5142C36.2397 28.5839 36.4241 28.6024 36.6021 28.5673C36.7801 28.5321 36.9437 28.445 37.0721 28.3169C37.2006 28.1887 37.2881 28.0254 37.3237 27.8475C37.3592 27.6696 37.3412 27.4851 37.2719 27.3175C37.2026 27.1498 37.085 27.0065 36.9342 26.9056C36.7834 26.8048 36.6061 26.751 36.4246 26.751C36.1819 26.751 35.949 26.8473 35.7771 27.0187C35.6053 27.1902 35.5084 27.4228 35.5078 27.6656Z" fill="white"/>
<path d="M45.4185 17.001L45.4833 17.1173L45.4185 17.001Z" fill="#6E543C"/>
<path d="M43.0659 7.04572C43.0659 7.04572 48.7636 5.56316 45.9729 14.8566L45.3937 14.6061C45.3937 14.6061 47.489 7.80825 44.108 7.69421" fill="#DA9633"/>
<path d="M43.0659 7.04617C43.3263 6.96247 43.5945 6.90553 43.8665 6.87623C44.1041 6.85426 44.3435 6.86026 44.5798 6.89412C44.8219 6.92519 45.0583 6.9907 45.2819 7.08866C45.7245 7.2835 46.099 7.60581 46.3575 8.01442C46.4803 8.20698 46.5815 8.41244 46.6594 8.62713C46.8022 9.04102 46.8777 9.47512 46.883 9.91291C46.8884 10.3384 46.8623 10.7637 46.8047 11.1853C46.7556 11.6012 46.6907 12.0171 46.6214 12.4308C46.476 13.2582 46.3173 14.0833 46.116 14.8906L46.078 15.0493L45.8969 14.98L45.3155 14.7564L45.1746 14.7005L45.2126 14.5596C45.2931 14.2488 45.3691 13.9335 45.4362 13.6182C45.5033 13.3029 45.5637 12.9831 45.6129 12.6656C45.6621 12.3481 45.709 12.0283 45.7426 11.7085C45.7761 11.3888 45.8052 11.069 45.8141 10.7492C45.8569 10.1132 45.7811 9.47472 45.5905 8.8664C45.486 8.56221 45.3014 8.29184 45.0561 8.08375C44.9232 7.97423 44.7717 7.88941 44.6089 7.8333C44.4434 7.77343 44.2716 7.73291 44.0968 7.71254L44.0632 7.66335C44.2597 7.65872 44.4559 7.67977 44.6469 7.72596C44.8309 7.77155 45.0062 7.84709 45.1657 7.94958C45.3213 8.0529 45.4607 8.17875 45.5793 8.32301C45.6907 8.46081 45.786 8.61085 45.8633 8.77024C46.0069 9.08465 46.107 9.41717 46.1607 9.75862C46.2123 10.0908 46.2384 10.4265 46.239 10.7626C46.2406 11.095 46.2242 11.4272 46.1898 11.7577C46.1518 12.0864 46.1071 12.4129 46.0422 12.7372C45.9774 13.0614 45.9103 13.3812 45.8298 13.7009C45.7493 14.0207 45.6598 14.336 45.557 14.6535L45.4564 14.4545L46.0199 14.7206L45.7963 14.8078C45.9349 14.4143 46.0691 14.0185 46.1876 13.6182C46.2435 13.4169 46.3039 13.2179 46.3508 13.0122C46.3978 12.8065 46.4425 12.6075 46.4805 12.4017C46.5185 12.196 46.5454 11.9903 46.5722 11.7823C46.599 11.5744 46.6102 11.3686 46.6169 11.1607C46.6304 10.7453 46.6103 10.3295 46.5565 9.91738C46.5297 9.71166 46.4939 9.5104 46.4514 9.30915C46.4071 9.11 46.3511 8.91363 46.2837 8.72105C46.2161 8.52796 46.1292 8.34217 46.0243 8.16648C45.9182 7.99164 45.7905 7.83086 45.6442 7.68795C45.4921 7.54326 45.3205 7.42057 45.1344 7.32346C44.9403 7.22354 44.7344 7.14842 44.5216 7.09984C44.3015 7.04806 44.0768 7.0181 43.8508 7.0104C43.6267 7.00222 43.4023 7.01269 43.18 7.0417L43.0659 7.04617Z" fill="#996633"/>
<path d="M44.7767 15.5928C43.6363 18.7748 41.4829 22.2095 41.4829 22.2095L42.6882 21.1854L42.5764 21.5722L42.4646 22.0597L42.3192 22.9161L43.2271 21.7757L43.1869 22.7976C43.1869 22.7976 43.9762 21.5118 44.05 21.2972L43.8264 22.7954C43.8264 22.7954 45.3224 21.4828 46.2302 15.7806" fill="#B87A32"/>
<path d="M42.0884 23.4229L42.3255 22.0342L42.4306 21.587L40.8921 22.8795L41.3572 22.1393C41.3796 22.1035 43.5173 18.68 44.6443 15.5449L44.9104 15.6321C44.0831 17.9331 42.7168 20.3862 42.0281 21.5624L42.9493 20.7797L42.7123 21.6049L42.6005 22.0856L42.5468 22.4009L43.3832 21.3522L43.3474 22.2466C43.6112 21.7994 43.8773 21.3522 43.9154 21.2381L44.1859 21.3008L44.0473 22.2914C44.5281 21.578 45.465 19.7489 46.1023 15.7417L46.3796 15.7864C45.4851 21.4662 43.9981 22.8146 43.9355 22.8705L43.6448 23.1232L43.8013 22.0275C43.5777 22.3942 43.3541 22.7744 43.3094 22.8459L43.0254 23.3267L43.0701 22.1952L42.0884 23.4229Z" fill="#996633"/>
<path d="M44.5532 15.7914C44.5532 15.7914 44.9401 14.121 45.9217 14.5683C46.7558 14.9529 46.1856 16.3773 46.1856 16.3773C46.1856 16.3773 44.8931 16.1448 44.5532 15.7914Z" fill="#DA9633"/>
<path d="M44.5284 15.7866C44.514 15.698 44.5095 15.608 44.5149 15.5183C44.5168 15.4289 44.5265 15.3399 44.544 15.2522C44.5783 15.0707 44.6425 14.8961 44.7341 14.7356C44.7858 14.6466 44.849 14.5646 44.9219 14.4919C45.0061 14.4071 45.1055 14.3389 45.2149 14.2907C45.3421 14.2376 45.4798 14.2146 45.6174 14.2236C45.7482 14.2327 45.8758 14.2677 45.993 14.3264L46.0311 14.3466H46.0512H46.0624H46.0758L46.1071 14.3644L46.1406 14.3868L46.2256 14.4494L46.2927 14.5143C46.3725 14.5973 46.4322 14.6975 46.4671 14.8072C46.5175 14.9932 46.5251 15.1881 46.4895 15.3774C46.4626 15.5518 46.4358 15.7195 46.4179 15.8895C46.4067 15.9745 46.4023 16.0617 46.3978 16.1489C46.3933 16.2361 46.3978 16.3255 46.3754 16.4195L46.3575 16.5313H46.154C46.0796 16.5356 46.0049 16.5356 45.9304 16.5313C45.8552 16.5238 45.7806 16.5119 45.7068 16.4955C45.559 16.459 45.414 16.412 45.273 16.3546C45.1294 16.2941 44.9923 16.2192 44.8638 16.131C44.7982 16.0859 44.7368 16.035 44.6804 15.9789C44.6228 15.9244 44.5764 15.8591 44.544 15.7866H44.5284ZM44.5954 15.7866C44.6581 15.809 44.7184 15.8291 44.781 15.8448C44.8437 15.8604 44.9197 15.8761 44.989 15.8895L45.4005 15.9722C45.5391 16.0013 45.6777 16.0304 45.8141 16.0639C45.952 16.101 46.0872 16.1474 46.2189 16.2026L45.9953 16.3144C46.0441 16.249 46.0882 16.1803 46.1272 16.1086C46.1699 16.0383 46.2044 15.9632 46.2301 15.885C46.2768 15.7291 46.286 15.5644 46.2569 15.4043C46.2295 15.2529 46.165 15.1108 46.0691 14.9906C46.0293 14.9423 45.9835 14.8995 45.9327 14.8631L45.9103 14.8296L45.8812 14.8139H45.8589L45.8276 14.8005H45.8119H45.8253H45.8007C45.7489 14.7833 45.6941 14.7772 45.6397 14.7826C45.5953 14.7858 45.5516 14.7956 45.51 14.8117C45.3963 14.8667 45.2939 14.9425 45.2082 15.0353C45.101 15.1506 45.0009 15.2723 44.9085 15.3998L44.7587 15.6033L44.5954 15.7866Z" fill="#996633"/>
<path d="M45.499 14.2262C45.5326 14.1648 45.5715 14.1064 45.6153 14.0518C45.7051 13.9396 45.8038 13.8349 45.9105 13.7387C46.0268 13.6359 46.1453 13.5397 46.2392 13.4659C46.2839 13.4301 46.3242 13.3988 46.351 13.372L46.398 13.334C46.398 13.334 46.398 13.3563 46.398 13.3921C46.4011 13.4151 46.4011 13.4384 46.398 13.4614C46.3934 13.4897 46.3859 13.5174 46.3756 13.5442C46.3496 13.6117 46.3151 13.6756 46.2727 13.7343C46.2236 13.7999 46.1682 13.8606 46.1073 13.9154C45.9937 14.0204 45.8618 14.1038 45.7182 14.1614C45.648 14.1917 45.5744 14.2135 45.499 14.2262Z" fill="#996633"/>
<path d="M45.6982 13.0609C45.7313 13.0006 45.7703 12.9436 45.8145 12.8909C45.9039 12.777 46.0034 12.6715 46.1119 12.5756C46.226 12.4728 46.3355 12.3766 46.4384 12.3051C46.4831 12.2671 46.5256 12.2357 46.5524 12.2111L46.5972 12.1709C46.599 12.191 46.599 12.2112 46.5972 12.2313C46.6002 12.2535 46.6002 12.2761 46.5972 12.2984C46.5937 12.3269 46.5861 12.3547 46.5748 12.3811C46.5483 12.4484 46.5138 12.5122 46.4719 12.5712C46.4249 12.6378 46.3701 12.6986 46.3087 12.7523C46.1938 12.8556 46.0623 12.9388 45.9196 12.9983C45.8489 13.0288 45.7745 13.0499 45.6982 13.0609Z" fill="#996633"/>
<path d="M45.8701 11.7868C45.9033 11.7256 45.9415 11.6673 45.9842 11.6123C46.0754 11.5008 46.1748 11.3961 46.2816 11.2993C46.3978 11.1964 46.5164 11.1003 46.6103 11.0287C46.655 10.9907 46.6975 10.9594 46.7221 10.9348L46.769 10.8945C46.769 10.8945 46.769 10.9169 46.769 10.9549C46.772 10.9772 46.772 10.9997 46.769 11.022C46.7634 11.051 46.7551 11.0794 46.7444 11.107C46.7202 11.1741 46.6863 11.2374 46.6438 11.2948C46.5962 11.3609 46.5414 11.4217 46.4806 11.4759C46.3649 11.58 46.2327 11.6639 46.0893 11.7241C46.0189 11.7535 45.9454 11.7745 45.8701 11.7868Z" fill="#996633"/>
<path d="M46.1 10.5185L45.939 10.3173C46.1 10.2122 46.5427 9.87006 46.6389 9.59277L46.8625 9.70234C46.7226 10.0623 46.4496 10.3546 46.1 10.5185Z" fill="#996633"/>
<path d="M45.9772 9.37592L45.8833 9.15231C46.107 9.07695 46.2919 8.91619 46.3976 8.70508L46.6548 8.78558C46.5888 8.9255 46.4945 9.0502 46.3779 9.15182C46.2613 9.25343 46.1248 9.32974 45.9772 9.37592Z" fill="#996633"/>
<path d="M45.4633 8.50136L45.3291 8.35153C45.4812 8.23973 45.8971 7.90431 45.9753 7.66504L46.1453 7.75896C46.0268 8.09214 45.4789 8.48347 45.4633 8.50136Z" fill="#996633"/>
<path d="M45.0627 7.93194L44.8525 7.77541C44.9664 7.58435 45.0238 7.36492 45.018 7.14258H45.2864C45.2946 7.42241 45.2165 7.698 45.0627 7.93194Z" fill="#996633"/>
<path d="M44.2709 7.73509C44.2071 7.47152 44.0787 7.22794 43.8975 7.02624L44.092 6.86523C44.31 7.09868 44.464 7.38443 44.5392 7.69484L44.2709 7.73509Z" fill="#996633"/>
<path d="M45.4806 16.1853L45.3867 16.3888C45.3285 16.5185 45.2413 16.7019 45.134 16.921C45.0267 17.1402 44.9104 17.3951 44.7673 17.6679C44.6242 17.9407 44.4766 18.2269 44.32 18.5154C44.2395 18.6585 44.1613 18.8016 44.0853 18.9425C44.0092 19.0834 43.931 19.222 43.8616 19.354L43.4345 20.0718C43.1662 20.481 42.9873 20.7426 42.9873 20.7426C42.9873 20.7426 43.1349 20.4541 43.3585 20.0248L43.7006 19.2712C43.761 19.1348 43.8191 18.9895 43.8818 18.8441C43.9444 18.6988 44.0048 18.5489 44.0674 18.3969C44.1814 18.0972 44.3022 17.7998 44.4073 17.5181C44.5124 17.2363 44.6085 16.9725 44.6868 16.7444C44.765 16.5163 44.8321 16.3285 44.8746 16.1943L44.9439 15.9863L45.4806 16.1853Z" fill="#996633"/>
<path d="M45.9102 16.4197L45.8588 16.574C45.8275 16.6724 45.7783 16.811 45.7179 16.9742C45.6575 17.1375 45.5815 17.3298 45.4943 17.5333C45.4071 17.7368 45.3333 17.9604 45.2394 18.1616C45.1887 18.266 45.1395 18.3711 45.0918 18.4769C45.0426 18.582 44.9911 18.6827 44.942 18.7788C44.8369 18.9734 44.7496 19.1567 44.6602 19.3065L44.3628 19.8119C44.3628 19.8119 44.4589 19.5883 44.5864 19.2819C44.6602 19.1254 44.725 18.9309 44.81 18.7319C44.848 18.629 44.8905 18.5261 44.9241 18.4166C44.9576 18.307 44.9979 18.1929 45.0336 18.0923C45.1097 17.8687 45.1656 17.6451 45.2304 17.4461C45.2953 17.2471 45.3377 17.0436 45.378 16.8781C45.4183 16.7126 45.4496 16.5717 45.4697 16.4756C45.4898 16.3794 45.5032 16.3213 45.5032 16.3213L45.9102 16.4197Z" fill="#996633"/>
</svg>
