<svg width="482" height="702" viewBox="0 0 482 702" fill="none" xmlns="http://www.w3.org/2000/svg">
<g filter="url(#filter0_d_2526_3333)">
<path d="M74.3438 123.135C74.3438 125.012 107.588 142.516 108.864 143.773C113.085 147.656 150.269 130.64 150.269 130.64L140.213 78.4844H108.789L89.3525 105.819L74.3438 123.135Z" fill="#373737"/>
<path d="M393.506 136.156C393.506 136.156 371.875 144.111 368.216 143.773C364.558 143.435 328.556 129.496 328.556 129.496L339.944 84.582L371.218 87.6776L387.84 116.757L393.506 136.156Z" fill="#373737"/>
<path d="M356.359 144.186C356.359 144.186 308.575 111.204 242.198 109.309C179.068 107.433 122.241 143.492 121.828 143.361C93.1049 135.125 61.2113 122.573 54.4574 108.203C53.1816 105.463 47.3094 96.3269 54.4574 92.9311C54.4574 92.9311 158.975 48.0362 230.585 13.6285C235.801 11.1146 252.048 10.7206 257.714 13.3659C263.379 16.0112 375.908 72.4254 423.26 94.9198C428.438 97.3962 422.285 106.833 409.171 115.876C396.057 124.919 394.406 127.508 372.062 137.676L356.359 144.186Z" fill="#373737"/>
<path d="M265.03 100.473C265.03 100.473 211.899 109.235 244.224 108.803C307.355 107.921 361.33 145.312 361.762 145.199C390.71 137.526 424.911 125.688 431.947 111.43C433.279 108.728 439.357 100.042 432.266 96.4209C431.665 96.4209 328.236 47.3422 256.869 13.0659C251.635 10.5519 236.082 10.6645 230.604 13.6287C225.126 16.5929 182.294 99.9291 234.525 103.681C326.623 110.492 231.167 91.543 244.093 100.83C257.019 110.116 237.377 90.2297 259.515 100.83L265.03 100.473Z" fill="#373737"/>
<path d="M152.821 87.2272C151.902 87.6399 146.405 90.1914 146.517 91.1857C147.38 98.0898 155.016 123.905 148.393 156.699C144.003 178.556 158.112 187.204 244.337 188.762C271.221 189.249 315.197 187.955 331.031 173.453C338.404 166.717 330.544 154.373 328.555 130.302C326.416 104.525 334.183 88.3904 330.318 87.7712C329.493 87.6399 253.68 42.6699 152.821 87.2272Z" fill="#47474A"/>
<path d="M147.512 119.816C147.512 119.816 156.048 148.952 148.375 186.962C143.985 208.799 158.093 217.448 244.318 219.005C271.203 219.493 315.178 218.199 331.013 203.715C338.386 196.98 330.525 184.617 328.536 160.565C327.162 146.381 327.755 132.074 330.3 118.053C330.319 117.227 249.159 74.0769 147.512 119.816Z" fill="#DA9633"/>
<path d="M461.233 569.272L22.0947 601.016L140.889 241.631L336.904 241.894L461.233 569.272Z" fill="#B6394A"/>
<path d="M439.62 627.562C439.759 606.19 447.297 585.526 460.951 569.084H76.6517C42.882 569.084 15.6035 594.449 15.6035 625.78C15.6035 657.11 42.9382 682.475 76.6517 682.475H458.212C446.276 666.644 439.756 647.389 439.62 627.562Z" fill="#B6394A"/>
<path d="M439.62 627.562C439.651 614.241 442.637 601.092 448.363 589.064H51.0244V663.114H447.05C442.173 651.894 439.645 639.795 439.62 627.562Z" fill="white"/>
<path d="M443.935 600.377H51.0244V601.09H443.71L443.935 600.377Z" fill="#939498"/>
<path d="M442.584 605.012H51.0244V605.743H442.378C442.453 605.5 442.509 605.256 442.584 605.012Z" fill="#939498"/>
<path d="M441.478 609.703H51.0244V610.36H441.346C441.403 610.153 441.44 609.928 441.478 609.703Z" fill="#939498"/>
<path d="M440.652 614.336H51.0244V615.068H440.558C440.596 614.824 440.615 614.58 440.652 614.336Z" fill="#939498"/>
<path d="M440.183 618.988H51.0244V619.739H440.014C440.033 619.476 440.052 619.232 440.183 618.988Z" fill="#939498"/>
<path d="M439.752 623.641H51.0244V624.372H439.733C439.733 624.128 439.733 623.885 439.752 623.641Z" fill="#939498"/>
<path d="M439.658 628.293H51.0244V629.118H439.677C439.677 628.781 439.658 628.556 439.658 628.293Z" fill="#939498"/>
<path d="M439.808 632.965H51.0244V633.678H439.864C439.864 633.434 439.827 633.19 439.808 632.965Z" fill="#939498"/>
<path d="M440.183 637.619H51.0244V638.332H440.333C440.263 638.099 440.213 637.861 440.183 637.619Z" fill="#939498"/>
<path d="M440.859 642.252H51.0244V642.984H441.009C440.952 642.759 440.915 642.533 440.859 642.252Z" fill="#939498"/>
<path d="M441.778 646.941H51.0244V647.673H441.947C441.903 647.426 441.847 647.182 441.778 646.941Z" fill="#939498"/>
<path d="M442.96 651.633H51.0244V652.346H443.129C443.091 652.083 443.035 651.82 442.96 651.633Z" fill="#939498"/>
<path d="M444.404 656.266H51.0244V656.96H444.629C444.554 656.716 444.461 656.491 444.404 656.266Z" fill="#939498"/>
<path d="M445.436 596.082H51.0244V596.795H445.155C445.249 596.551 445.324 596.307 445.436 596.082Z" fill="#939498"/>
<path d="M169.162 175.105C169.162 175.105 157.061 172.685 165.954 167.057C174.846 161.428 213.475 154.168 252.817 155.144C292.159 156.119 354.82 161.541 327.617 176.681" fill="#47474A"/>
<path d="M169.162 175.104C168.415 175.026 167.676 174.895 166.948 174.71C166.067 174.495 165.212 174.187 164.397 173.791C163.832 173.548 163.312 173.212 162.858 172.797C162.574 172.542 162.343 172.233 162.179 171.889C162.015 171.544 161.92 171.17 161.901 170.789C161.905 169.951 162.189 169.139 162.708 168.481C163.204 167.788 163.784 167.158 164.434 166.605L164.941 166.193L165.185 166.005L165.522 165.78L166.592 165.123C167.388 164.643 168.215 164.217 169.068 163.848C173.02 162.081 177.103 160.626 181.281 159.495C185.803 158.238 190.662 156.962 196.046 155.987C201.431 155.011 206.909 153.979 212.762 153.285L217.19 152.741L221.693 152.328C224.694 152.009 227.771 151.822 230.848 151.615C237.039 151.278 243.324 151.09 249.609 151.203C255.894 151.315 262.141 151.54 268.37 151.916C274.598 152.291 280.546 152.797 286.399 153.416C292.253 154.036 297.843 154.824 303.153 155.705C308.169 156.499 313.141 157.551 318.049 158.857C322.279 159.876 326.372 161.393 330.243 163.379C331.963 164.237 333.459 165.483 334.615 167.018C335.103 167.724 335.364 168.561 335.364 169.42C335.364 170.278 335.103 171.115 334.615 171.821C333.912 172.844 333.013 173.718 331.97 174.391C331.088 174.973 330.3 175.404 329.662 175.742C329.024 176.08 328.517 176.286 328.161 176.455L327.655 176.68L328.105 176.342L329.381 175.386C330.037 174.865 330.663 174.308 331.257 173.716C332.036 172.99 332.673 172.125 333.133 171.164C333.355 170.683 333.419 170.144 333.314 169.625C333.209 169.105 332.942 168.633 332.551 168.275C331.434 167.269 330.126 166.497 328.705 166.005C324.862 164.695 320.905 163.746 316.886 163.172C312.402 162.459 307.505 161.934 302.233 161.409C296.962 160.883 291.427 160.583 285.686 160.227C279.945 159.87 273.961 159.645 267.901 159.401C261.841 159.157 255.669 158.951 249.571 158.913C243.474 158.876 237.358 158.913 231.336 159.082C225.313 159.251 219.385 159.608 213.663 160.077C207.941 160.546 202.406 161.015 197.191 161.653L193.326 162.14L189.574 162.666C187.116 162.966 184.79 163.416 182.52 163.772C180.25 164.129 178.148 164.617 176.141 165.086L174.621 165.405L173.195 165.78C172.276 166.024 171.319 166.249 170.531 166.53C169.713 166.774 168.911 167.069 168.13 167.412L166.967 167.937H166.817L166.554 168.088L166.066 168.35C164.828 169.082 163.815 169.964 163.702 170.752C163.59 171.54 164.322 172.384 165.072 172.947C165.757 173.437 166.493 173.852 167.267 174.185C167.881 174.526 168.514 174.833 169.162 175.104Z" fill="#0F100E"/>
<path opacity="0.25" d="M154.829 129.101C154.807 129.039 154.81 128.971 154.838 128.911C154.866 128.851 154.917 128.805 154.979 128.782C155.041 128.76 155.11 128.763 155.17 128.791C155.23 128.819 155.276 128.87 155.298 128.932C158.656 135.292 174.659 158.762 225.877 153.04C225.877 153.04 135.618 160.545 170.982 182.457C170.982 182.457 151.283 179.343 152.465 162.74C153.628 146.699 157.155 145.405 154.829 129.101Z" fill="#0F100E"/>
<path opacity="0.25" d="M235.802 190.112C195.578 190.112 162.99 181.988 162.99 171.97C162.99 161.952 195.578 153.828 235.802 153.828C235.802 153.828 172.69 181.97 238.991 189.474L235.802 190.112Z" fill="#0F100E"/>
<path opacity="0.25" d="M263.361 153.529C303.772 153.529 336.529 161.653 336.529 171.671C336.529 181.69 303.754 189.832 263.361 189.832C263.361 189.832 326.811 161.69 260.172 154.186L263.361 153.529Z" fill="#0F100E"/>
<path opacity="0.5" d="M248.672 190.094C295.992 190.094 334.353 181.972 334.353 171.952C334.353 161.933 295.992 153.811 248.672 153.811C201.351 153.811 162.99 161.933 162.99 171.952C162.99 181.972 201.351 190.094 248.672 190.094Z" fill="#0F100E"/>
<path d="M388.421 152.873C388.421 152.873 370.054 113.7 362.156 114.188C354.257 114.676 353.226 139.984 353.226 139.984L388.421 152.873Z" fill="#675139"/>
<path d="M406.732 156.531L407.276 157.507C416.873 158.045 426.499 157.712 436.037 156.513C443.133 155.563 450.115 153.904 456.88 151.56C456.88 151.56 445.286 174.073 435.38 184.635C425.474 195.198 421.159 198.181 421.159 198.181C421.159 198.181 423.467 213.058 424.123 218.349C424.693 222.356 425.463 226.332 426.431 230.262C430.443 230.687 434.299 232.05 437.688 234.239C441.116 236.533 443.678 239.908 444.967 243.826L438.682 243.507C438.682 243.507 447.593 251.424 449.263 258.047C450.933 264.669 449.582 267.971 449.582 267.971C449.582 267.971 439.676 262.005 436.037 263C436.037 263 443.635 284.162 438.682 294.087L429.752 290.785C429.752 290.785 433.71 300.691 432.078 304.33L427.106 302.454C427.106 302.454 434.048 312.041 430.746 319.977L427.444 327.913L417.857 318.982C417.857 318.982 418.833 332.866 414.555 340.145C412.491 343.894 409.929 347.346 406.938 350.407L399.321 340.801C394.17 347.798 388.42 354.332 382.136 360.332C376.555 365.046 370.704 369.431 364.614 373.464C364.614 373.464 396.019 379.412 395.363 382.057L384.106 388.342C384.106 388.342 405.944 395.621 405.944 406.521L392.399 406.202C392.399 406.202 421.478 427.402 429.752 442.28C438.025 457.157 442.303 472.034 437.688 479.314C433.072 486.593 412.886 474.68 412.886 474.68C412.886 474.68 437.688 531.901 423.129 534.208C408.571 536.516 392.717 514.378 392.717 514.378C392.717 514.378 395.363 556.027 383.45 554.714C380.089 554.393 376.886 553.139 374.2 551.094C371.515 549.048 369.455 546.293 368.253 543.138C368.253 543.138 365.927 557.678 364.614 557.359C363.3 557.04 361.631 550.755 361.631 550.755C361.631 550.755 355.008 576.889 348.742 575.557C342.476 574.225 343.789 560.999 343.789 560.999C343.789 560.999 334.521 577.884 325.91 579.178L317.317 580.51L316.998 568.278C316.998 568.278 310.057 571.899 308.725 571.899C307.393 571.899 269.327 579.516 246.813 579.516H228.278C207.209 579.516 171.601 571.899 170.344 571.899C169.087 571.899 162.596 568.278 162.596 568.278L162.295 580.51L154.247 579.178C146.18 577.865 137.512 560.999 137.512 560.999C137.512 560.999 138.75 574.225 132.859 575.557C126.968 576.889 120.777 550.755 120.777 550.755C120.777 550.755 119.22 557.022 117.982 557.359C116.744 557.697 114.586 543.138 114.586 543.138C113.525 546.205 111.627 548.914 109.107 550.959C106.588 553.005 103.547 554.305 100.328 554.714C89.0713 556.027 91.6415 514.378 91.6415 514.378C91.6415 514.378 76.7828 536.535 63.1436 534.208C49.5044 531.882 72.7492 474.68 72.7492 474.68C72.7492 474.68 53.9132 486.537 49.5982 479.314C45.2832 472.091 49.2605 457.157 57.1026 442.28C64.9447 427.402 92.1106 406.202 92.1106 406.202L79.4094 406.521C79.4094 395.621 99.8401 388.342 99.8401 388.342L89.3152 382.057C88.6961 379.412 118.132 373.464 118.132 373.464C112.405 369.416 106.923 365.031 101.716 360.332C95.7882 354.267 90.3962 347.702 85.6005 340.708L78.4713 350.313C75.6479 347.226 73.2502 343.774 71.3422 340.051C67.3273 332.772 68.2466 318.889 68.2466 318.889L59.2601 327.819L56.1646 319.883C53.0502 311.947 59.579 302.36 59.579 302.36L54.9263 304.236C53.3692 300.597 57.1026 290.691 57.1026 290.691L48.7352 293.993C44.0825 284.068 51.2117 262.906 51.2117 262.906C47.7972 261.912 38.4917 267.878 38.4917 267.878C38.4917 267.878 37.2723 264.557 38.8107 257.953C40.3491 251.349 48.7352 243.413 48.7352 243.413L42.8443 243.732C44.0136 239.877 46.4119 236.51 49.6733 234.145C52.7986 231.969 56.4149 230.603 60.1982 230.168C60.1982 230.168 61.7366 223.545 62.3557 218.255C62.9748 212.964 65.1511 198.087 65.1511 198.087C65.1511 198.087 61.1174 195.123 51.8308 184.541C42.5441 173.96 31.6064 151.56 31.6064 151.56C37.9223 153.899 44.4692 155.559 51.1366 156.513C58.3614 157.541 65.6616 157.943 72.9556 157.713L73.8374 155.462C73.8374 155.462 97.7951 114.601 115.28 113.4C132.766 112.199 149.857 130.829 149.857 130.829C149.857 130.829 156.892 125.763 177.529 119.797C188.017 116.777 217.922 107.94 247.151 108.747C275.03 109.479 302.252 119.704 311.464 122.461C330.225 128.09 328.649 129.497 328.649 129.497C328.649 129.497 346.922 106.533 365.12 110.173C381.817 113.512 402.867 149.365 406.826 156.531" fill="#6E543C"/>
<path d="M220.511 327.236C220.511 327.236 229.685 355.509 243.343 355.002C257.001 354.496 265.162 326.486 265.162 326.486C265.162 326.486 285.049 281.647 240.904 282.641C196.759 283.636 220.511 327.236 220.511 327.236Z" fill="#B2773A"/>
<path d="M96.5761 551.711L102.636 532.819C102.636 532.819 79.9726 505.615 91.6795 453.066C103.386 400.517 166.892 374.476 166.892 374.476C166.892 374.476 154.754 362.075 101.848 360.199L100.141 360.499C100.141 360.499 66.5023 367.31 67.2152 370.33L79.2597 377.516C79.2597 377.516 55.8836 385.827 55.8836 398.359L70.4045 397.984C70.4045 397.984 39.2426 422.204 30.3874 439.258C21.5322 456.312 16.9358 473.159 21.8136 481.489C26.6915 489.819 48.3604 476.198 48.3604 476.198C48.3604 476.198 21.8136 541.58 37.4603 544.244C53.1069 546.908 63.5756 535.595 63.5756 535.595C63.5756 535.595 67.2152 569.178 79.9726 567.658C83.6507 567.192 87.1252 565.707 90.003 563.369C92.8808 561.032 95.0472 557.936 96.2572 554.431L96.5761 551.711Z" fill="#5E4525"/>
<path d="M386.883 551.712L380.56 532.82C380.56 532.82 404.237 505.616 392.005 453.067C379.773 400.517 313.509 374.477 313.509 374.477C313.509 374.477 326.079 362.207 381.311 360.312L383.187 360.5C383.187 360.5 418.308 367.31 417.576 370.331L405.006 377.516C405.006 377.516 429.395 385.827 429.395 398.303L414.236 397.928C414.236 397.928 446.768 422.149 456.017 439.202C465.266 456.256 470.05 473.216 464.872 481.546C459.694 489.876 437.162 476.255 437.162 476.255C437.162 476.255 464.872 541.637 448.606 544.301C432.341 546.965 417.332 534.827 417.332 534.827C417.332 534.827 417.576 569.235 404.199 567.715C400.411 567.317 396.81 565.868 393.803 563.531C390.796 561.193 388.503 558.061 387.183 554.488L386.883 551.712Z" fill="#5E4525"/>
<path d="M244.731 460.457C226.401 460.457 211.505 451.64 210.604 440.533C210.604 440.908 210.604 441.302 210.604 441.678C210.604 454.51 225.932 464.904 244.824 464.904C263.717 464.904 279.063 454.51 279.063 441.678C279.063 441.302 279.063 440.908 279.063 440.533C277.975 451.64 263.06 460.457 244.731 460.457Z" fill="#583F25"/>
<path d="M202.088 425.864C185.878 425.864 172.708 418.041 171.901 408.229C171.882 408.572 171.882 408.917 171.901 409.26C171.901 420.517 185.447 429.785 202.163 429.785C218.879 429.785 232.405 420.592 232.405 409.26C232.425 408.917 232.425 408.572 232.405 408.229C231.467 418.041 218.278 425.864 202.088 425.864Z" fill="#583F25"/>
<path d="M159.876 463.572C143.985 466.348 129.37 460.908 126.5 451.415C126.5 451.752 126.5 452.09 126.65 452.428C129.07 463.553 144.304 470.269 160.72 467.436C177.136 464.604 188.467 453.272 186.066 442.147C186.066 441.809 185.86 441.471 185.766 441.152C187.079 450.889 175.785 460.833 159.876 463.572Z" fill="#583F25"/>
<path d="M286.343 424.944C270.209 423.687 257.826 414.889 257.977 405.039C257.977 405.377 257.845 405.714 257.808 406.052C256.72 417.309 269.327 427.552 285.949 428.847C302.571 430.141 316.98 422.055 318.068 410.761C318.086 410.417 318.086 410.073 318.068 409.729C316.361 419.447 302.534 426.201 286.343 424.944Z" fill="#583F25"/>
<path d="M326.905 465.204C310.77 463.947 298.388 455.13 298.557 445.299C298.557 445.637 298.425 445.955 298.388 446.312C297.281 457.568 309.888 467.812 326.529 469.106C343.17 470.401 357.56 462.315 358.667 451.002C358.686 450.658 358.686 450.314 358.667 449.97C356.941 459.707 343.039 466.461 326.905 465.204Z" fill="#583F25"/>
<path d="M290.321 504.247C274.13 503.853 261.204 495.71 260.716 485.898C260.652 486.233 260.609 486.572 260.584 486.912C260.247 498.168 273.492 507.755 290.208 508.168C306.924 508.58 320.732 499.763 321.089 488.431C321.089 488.056 321.089 487.737 321.089 487.399C319.944 497.174 306.511 504.659 290.321 504.247Z" fill="#583F25"/>
<path d="M242.949 540.625C226.777 541.319 213.194 534.077 211.88 524.303C211.852 524.646 211.852 524.991 211.88 525.334C212.462 536.591 226.495 545.259 243.193 544.546C259.89 543.833 272.91 534.096 272.31 522.745C272.31 522.408 272.31 522.07 272.197 521.732C271.897 531.563 259.139 539.949 242.949 540.625Z" fill="#583F25"/>
<path d="M201.731 502.988C185.709 505.146 171.376 499.236 168.975 489.537C168.946 489.88 168.946 490.225 168.975 490.569C170.851 501.825 185.747 509.067 202.275 506.891C218.804 504.714 230.698 493.758 228.822 482.501C228.822 482.164 228.653 481.826 228.578 481.488C229.497 491.413 217.753 500.887 201.731 502.988Z" fill="#583F25"/>
<path d="M226.308 567.207C222.312 567.207 218.804 570.284 216.721 575.012C214.639 570.284 211.093 567.207 207.134 567.207C203.176 567.207 199.63 570.284 197.529 575.012C195.465 570.284 191.9 567.207 187.96 567.207C181.544 567.207 176.366 575.124 176.366 584.936C176.366 594.748 181.544 602.665 187.96 602.665C191.938 602.665 195.465 599.588 197.529 594.861C199.63 599.588 203.157 602.665 207.134 602.665C211.112 602.665 214.639 599.588 216.721 594.861C218.804 599.588 222.349 602.665 226.308 602.665C232.705 602.665 237.883 594.729 237.883 584.936C237.883 575.143 232.78 567.207 226.308 567.207Z" fill="#B2773A"/>
<path d="M295.967 567.207C291.99 567.207 288.462 570.284 286.38 575.012C284.298 570.284 280.752 567.207 276.793 567.207C272.835 567.207 269.289 570.284 267.206 575.012C265.124 570.284 261.578 567.207 257.619 567.207C251.222 567.207 246.044 575.124 246.044 584.936C246.044 594.748 251.222 602.665 257.619 602.665C261.597 602.665 265.124 599.588 267.206 594.861C269.289 599.588 272.835 602.665 276.793 602.665C280.752 602.665 284.298 599.588 286.38 594.861C288.462 599.588 292.008 602.665 295.967 602.665C302.364 602.665 307.542 594.729 307.542 584.936C307.542 575.143 302.364 567.207 295.967 567.207Z" fill="#B2773A"/>
<path d="M82.5985 214.896C82.5985 214.896 80.7224 205.703 71.961 204.184C63.1996 202.664 26.2781 147.544 31.6062 151.653C36.9343 155.761 79.7093 158.519 79.7093 158.519C79.7093 158.519 80.7036 158.895 154.359 165.555C227.377 172.177 241.11 225.402 241.11 225.402L242.085 223.92C242.085 223.92 255.987 169.344 330.862 164.879C405.737 160.414 407.276 157.938 407.276 157.938C407.276 157.938 452.902 154.955 458.343 150.996C463.784 147.038 424.123 201.651 415.193 203.077C406.263 204.502 401.103 215.834 401.103 215.834L240.585 268.365L84.0806 214.239" fill="#674F36"/>
<path d="M242.593 266.169C242.593 317.293 203.495 358.717 155.279 358.717C107.063 358.717 67.9844 317.293 67.9844 266.169C67.9844 215.046 107.082 173.584 155.279 173.584C203.476 173.584 242.593 215.027 242.593 266.169Z" fill="#B18D6D"/>
<path d="M233.662 261.892C233.662 294.536 206.459 320.989 172.896 320.989C139.332 320.989 112.129 294.536 112.129 261.892C112.129 229.247 139.332 202.832 172.896 202.832C206.459 202.832 233.662 229.285 233.662 261.892Z" fill="white"/>
<path d="M226.946 262.155C226.946 287.801 205.577 308.569 179.218 308.569C152.859 308.569 131.472 287.801 131.472 262.155C131.472 236.509 152.859 215.74 179.218 215.74C205.577 215.74 226.946 236.527 226.946 262.155Z" fill="#674F36"/>
<path d="M169.181 243.394C169.185 244.916 168.737 246.405 167.894 247.672C167.051 248.94 165.851 249.929 164.445 250.514C163.04 251.099 161.493 251.254 160 250.959C158.506 250.665 157.134 249.933 156.056 248.858C154.979 247.783 154.244 246.413 153.946 244.92C153.648 243.428 153.799 241.88 154.381 240.473C154.962 239.067 155.948 237.864 157.213 237.018C158.479 236.172 159.967 235.721 161.489 235.721C163.526 235.721 165.479 236.529 166.921 237.967C168.363 239.405 169.176 241.357 169.181 243.394Z" fill="white"/>
<path d="M240.098 266.169C240.098 317.293 279.195 358.717 327.411 358.717C375.627 358.717 414.706 317.293 414.706 266.169C414.706 215.046 375.627 173.584 327.411 173.584C279.195 173.584 240.098 215.027 240.098 266.169Z" fill="#B18D6D"/>
<path d="M249.027 261.892C249.027 294.536 276.25 320.989 309.794 320.989C343.339 320.989 370.561 294.536 370.561 261.892C370.561 229.247 343.357 202.832 309.794 202.832C276.231 202.832 249.027 229.285 249.027 261.892Z" fill="white"/>
<path d="M255.744 262.155C255.744 287.801 277.113 308.569 303.472 308.569C329.831 308.569 351.219 287.801 351.219 262.155C351.219 236.509 329.85 215.74 303.472 215.74C277.094 215.74 255.744 236.527 255.744 262.155Z" fill="#674F36"/>
<path d="M313.509 243.394C313.505 244.916 313.953 246.405 314.796 247.672C315.639 248.94 316.839 249.929 318.244 250.514C319.649 251.099 321.197 251.254 322.69 250.959C324.183 250.665 325.556 249.933 326.633 248.858C327.711 247.783 328.445 246.413 328.744 244.92C329.042 243.428 328.891 241.88 328.309 240.473C327.727 239.067 326.742 237.864 325.476 237.018C324.211 236.172 322.723 235.721 321.201 235.721C319.164 235.721 317.21 236.529 315.768 237.967C314.326 239.405 313.514 241.357 313.509 243.394Z" fill="white"/>
<path d="M396.657 153.922L397.201 154.897L396.657 153.922Z" fill="#6E543C"/>
<path d="M376.921 70.3996C376.921 70.3996 424.724 57.9611 401.31 135.932L396.451 133.83C396.451 133.83 414.03 76.7971 385.664 75.8403" fill="#DA9633"/>
<path d="M376.921 70.3997C379.105 69.6974 381.356 69.2197 383.637 68.9739C385.631 68.7896 387.64 68.8399 389.622 69.1239C391.653 69.3846 393.637 69.9343 395.513 70.7561C399.226 72.3908 402.368 75.0949 404.537 78.5232C405.567 80.1387 406.417 81.8625 407.07 83.6637C408.268 87.1362 408.901 90.7782 408.946 94.4512C408.991 98.0209 408.772 101.589 408.289 105.126C407.876 108.616 407.332 112.105 406.751 115.576C405.531 122.518 404.199 129.44 402.511 136.213L402.192 137.545L400.672 136.964L395.794 135.087L394.613 134.618L394.931 133.437C395.607 130.829 396.245 128.183 396.808 125.538C397.37 122.893 397.877 120.21 398.29 117.546C398.702 114.882 399.096 112.199 399.378 109.516C399.659 106.833 399.903 104.151 399.978 101.468C400.337 96.1315 399.701 90.7749 398.102 85.6711C397.225 83.119 395.676 80.8506 393.618 79.1048C392.503 78.186 391.232 77.4743 389.866 77.0035C388.478 76.5013 387.036 76.1613 385.57 75.9904L385.288 75.5777C386.936 75.5388 388.583 75.7154 390.185 76.103C391.729 76.4855 393.199 77.1193 394.537 77.9791C395.843 78.846 397.013 79.9018 398.008 81.1122C398.943 82.2683 399.742 83.5271 400.391 84.8644C401.596 87.5022 402.435 90.292 402.886 93.1567C403.318 95.9439 403.538 98.7599 403.543 101.58C403.556 104.369 403.418 107.156 403.13 109.929C402.811 112.687 402.436 115.426 401.892 118.146C401.348 120.867 400.785 123.549 400.109 126.232C399.434 128.915 398.684 131.56 397.821 134.224L396.976 132.555L401.704 134.787L399.828 135.519C400.991 132.217 402.117 128.896 403.111 125.538C403.58 123.85 404.087 122.18 404.481 120.454C404.875 118.728 405.25 117.058 405.569 115.332C405.888 113.606 406.113 111.88 406.338 110.135C406.563 108.391 406.657 106.665 406.713 104.92C406.827 101.435 406.657 97.9464 406.207 94.4888C405.982 92.7627 405.681 91.0743 405.325 89.3858C404.953 87.7149 404.483 86.0674 403.918 84.4516C403.35 82.8317 402.621 81.2729 401.742 79.7989C400.851 78.332 399.78 76.9831 398.552 75.7841C397.276 74.5701 395.836 73.5408 394.275 72.726C392.647 71.8878 390.92 71.2575 389.134 70.8499C387.287 70.4155 385.402 70.1641 383.506 70.0995C381.626 70.0309 379.743 70.1188 377.878 70.3622L376.921 70.3997Z" fill="#996633"/>
<path d="M391.274 142.104C381.705 168.8 363.639 197.617 363.639 197.617L373.751 189.025L372.813 192.27L371.875 196.36L370.655 203.546L378.272 193.978L377.935 202.551C377.935 202.551 384.557 191.764 385.176 189.963L383.3 202.533C383.3 202.533 395.851 191.52 403.468 143.679" fill="#B87A32"/>
<path d="M368.723 207.804L370.711 196.153L371.593 192.401L358.686 203.245L362.588 197.035C362.775 196.735 380.711 168.012 390.166 141.709L392.399 142.441C385.457 161.746 373.994 182.326 368.216 192.195L375.946 185.628L373.957 192.551L373.019 196.585L372.569 199.23L379.585 190.431L379.285 197.936C381.499 194.183 383.731 190.431 384.05 189.474L386.32 190L385.157 198.311C389.191 192.326 397.052 176.98 402.399 143.36L404.725 143.735C397.221 191.388 384.745 202.701 384.219 203.17L381.78 205.29L383.094 196.097C381.217 199.174 379.341 202.363 378.966 202.964L376.584 206.997L376.959 197.504L368.723 207.804Z" fill="#996633"/>
<path d="M389.396 143.774C389.396 143.774 392.642 129.759 400.878 133.511C407.876 136.738 403.092 148.689 403.092 148.689C403.092 148.689 392.248 146.738 389.396 143.774Z" fill="#DA9633"/>
<path d="M389.191 143.735C389.07 142.991 389.033 142.236 389.078 141.484C389.094 140.734 389.175 139.987 389.322 139.251C389.61 137.728 390.149 136.264 390.917 134.918C391.351 134.17 391.881 133.483 392.493 132.873C393.2 132.161 394.033 131.589 394.951 131.184C396.018 130.739 397.174 130.546 398.328 130.621C399.425 130.698 400.496 130.991 401.479 131.484L401.798 131.653H401.967H402.061H402.174L402.436 131.803L402.718 131.991L403.431 132.516L403.993 133.06C404.663 133.757 405.164 134.597 405.457 135.518C405.879 137.078 405.944 138.714 405.644 140.302C405.419 141.765 405.194 143.172 405.044 144.598C404.95 145.311 404.913 146.043 404.875 146.774C404.838 147.506 404.875 148.257 404.688 149.045L404.537 149.983H402.83C402.205 150.019 401.579 150.019 400.954 149.983C400.323 149.92 399.697 149.82 399.078 149.682C397.838 149.377 396.622 148.982 395.438 148.501C394.234 147.993 393.083 147.364 392.005 146.624C391.455 146.246 390.94 145.819 390.467 145.349C389.983 144.891 389.594 144.343 389.322 143.735H389.191ZM389.754 143.735C390.279 143.923 390.786 144.092 391.311 144.223C391.836 144.354 392.474 144.486 393.056 144.598L396.508 145.292C397.671 145.536 398.834 145.78 399.979 146.062C401.135 146.373 402.27 146.762 403.374 147.225L401.498 148.163C401.908 147.615 402.278 147.038 402.605 146.437C402.963 145.846 403.253 145.217 403.468 144.561C403.861 143.253 403.938 141.871 403.693 140.527C403.464 139.257 402.922 138.065 402.117 137.056C401.784 136.652 401.399 136.292 400.973 135.987L400.785 135.706L400.541 135.574H400.354L400.091 135.462H399.96H400.072H399.866C399.431 135.317 398.971 135.266 398.515 135.312C398.142 135.338 397.776 135.42 397.427 135.555C396.473 136.017 395.614 136.653 394.894 137.432C393.995 138.399 393.156 139.42 392.38 140.49L391.123 142.197L389.754 143.735Z" fill="#996633"/>
<path d="M397.333 130.64C397.615 130.125 397.941 129.635 398.309 129.177C399.062 128.236 399.89 127.357 400.785 126.55C401.761 125.687 402.755 124.88 403.543 124.261C403.918 123.961 404.256 123.698 404.481 123.473L404.875 123.154C404.875 123.154 404.875 123.342 404.875 123.642C404.901 123.835 404.901 124.031 404.875 124.224C404.836 124.461 404.774 124.694 404.687 124.918C404.47 125.484 404.18 126.02 403.824 126.513C403.412 127.063 402.947 127.572 402.436 128.032C401.483 128.913 400.377 129.613 399.172 130.096C398.583 130.35 397.965 130.533 397.333 130.64Z" fill="#996633"/>
<path d="M399.003 120.867C399.281 120.361 399.607 119.884 399.979 119.441C400.728 118.486 401.563 117.6 402.474 116.796C403.431 115.933 404.35 115.126 405.213 114.526C405.588 114.207 405.944 113.944 406.17 113.738L406.545 113.4C406.56 113.569 406.56 113.738 406.545 113.907C406.57 114.094 406.57 114.283 406.545 114.47C406.515 114.709 406.452 114.943 406.357 115.164C406.135 115.728 405.845 116.264 405.494 116.759C405.099 117.318 404.64 117.828 404.125 118.278C403.161 119.145 402.057 119.843 400.86 120.342C400.267 120.598 399.643 120.775 399.003 120.867Z" fill="#996633"/>
<path d="M400.447 110.173C400.726 109.66 401.046 109.171 401.404 108.71C402.17 107.774 403.004 106.896 403.899 106.083C404.875 105.22 405.869 104.414 406.657 103.813C407.032 103.494 407.389 103.232 407.595 103.025L407.989 102.688C407.989 102.688 407.989 102.875 407.989 103.194C408.014 103.381 408.014 103.57 407.989 103.757C407.942 104 407.872 104.239 407.783 104.47C407.579 105.033 407.295 105.564 406.939 106.046C406.539 106.601 406.08 107.11 405.569 107.565C404.599 108.438 403.489 109.142 402.286 109.648C401.696 109.894 401.079 110.071 400.447 110.173Z" fill="#996633"/>
<path d="M402.379 99.5346L401.028 97.8461C402.379 96.9644 406.094 94.0939 406.9 91.7676L408.777 92.6869C407.603 95.7067 405.312 98.1588 402.379 99.5346Z" fill="#996633"/>
<path d="M401.348 89.9486L400.56 88.0725C402.437 87.4403 403.988 86.0915 404.875 84.3203L407.032 84.9957C406.479 86.1696 405.688 87.2159 404.709 88.0684C403.731 88.9209 402.586 89.5612 401.348 89.9486Z" fill="#996633"/>
<path d="M397.033 82.6123L395.907 81.3553C397.183 80.4173 400.673 77.6031 401.329 75.5957L402.755 76.3837C401.761 79.1791 397.164 82.4622 397.033 82.6123Z" fill="#996633"/>
<path d="M393.675 77.8277L391.911 76.5144C392.867 74.9115 393.348 73.0705 393.299 71.2051H395.551C395.62 73.5528 394.965 75.865 393.675 77.8277Z" fill="#996633"/>
<path d="M387.033 76.1769C386.498 73.9656 385.421 71.9219 383.9 70.2297L385.533 68.8789C387.361 70.8375 388.654 73.2349 389.285 75.8392L387.033 76.1769Z" fill="#996633"/>
<path d="M397.183 147.076L396.395 148.783C395.907 149.871 395.176 151.41 394.275 153.248C393.375 155.087 392.399 157.226 391.198 159.515C389.998 161.803 388.759 164.205 387.446 166.625C386.771 167.826 386.114 169.026 385.476 170.208C384.838 171.39 384.182 172.553 383.6 173.66L380.017 179.683C377.766 183.116 376.265 185.311 376.265 185.311C376.265 185.311 377.503 182.891 379.379 179.289L382.249 172.966C382.756 171.822 383.244 170.602 383.769 169.383C384.294 168.163 384.801 166.906 385.326 165.631C386.283 163.117 387.296 160.621 388.178 158.258C389.06 155.894 389.866 153.68 390.523 151.766C391.18 149.853 391.742 148.277 392.099 147.151L392.68 145.406L397.183 147.076Z" fill="#996633"/>
<path d="M400.785 149.046L400.354 150.341C400.091 151.166 399.678 152.329 399.172 153.699C398.665 155.068 398.027 156.682 397.296 158.389C396.564 160.096 395.945 161.972 395.157 163.661C394.732 164.536 394.319 165.418 393.919 166.306C393.506 167.188 393.075 168.032 392.662 168.839C391.78 170.471 391.048 172.01 390.298 173.267L387.803 177.507C387.803 177.507 388.609 175.63 389.679 173.06C390.298 171.747 390.842 170.115 391.555 168.445C391.874 167.582 392.23 166.719 392.512 165.8C392.793 164.88 393.131 163.924 393.431 163.079C394.069 161.203 394.538 159.327 395.082 157.657C395.626 155.988 395.983 154.281 396.32 152.892C396.658 151.504 396.921 150.322 397.089 149.515C397.258 148.708 397.371 148.221 397.371 148.221L400.785 149.046Z" fill="#996633"/>
</g>
<defs>
<filter id="filter0_d_2526_3333" x="0.603516" y="0.285156" width="481.396" height="701.189" filterUnits="userSpaceOnUse" color-interpolation-filters="sRGB">
<feFlood flood-opacity="0" result="BackgroundImageFix"/>
<feColorMatrix in="SourceAlpha" type="matrix" values="0 0 0 0 0 0 0 0 0 0 0 0 0 0 0 0 0 0 127 0" result="hardAlpha"/>
<feOffset dy="4"/>
<feGaussianBlur stdDeviation="7.5"/>
<feComposite in2="hardAlpha" operator="out"/>
<feColorMatrix type="matrix" values="0 0 0 0 0 0 0 0 0 0 0 0 0 0 0 0 0 0 0.15 0"/>
<feBlend mode="normal" in2="BackgroundImageFix" result="effect1_dropShadow_2526_3333"/>
<feBlend mode="normal" in="SourceGraphic" in2="effect1_dropShadow_2526_3333" result="shape"/>
</filter>
</defs>
</svg>
