<svg width="70" height="70" viewBox="0 0 70 70" fill="none" xmlns="http://www.w3.org/2000/svg">
<path d="M35 70C54.33 70 70 54.33 70 35C70 15.67 54.33 0 35 0C15.67 0 0 15.67 0 35C0 54.33 15.67 70 35 70Z" fill="#D95975"/>
<path d="M19.2 24C17.9812 24 17 24.9812 17 26.2V43.8C17 45.0188 17.9812 46 19.2 46H41.2C42.4188 46 43.4 45.0188 43.4 43.8V39.4L52.2 43.8V26.2L43.4 30.6V26.2C43.4 24.9812 42.4188 24 41.2 24L19.2 24Z" fill="white"/>
<path d="M33.375 34.5L29 37V32L33.375 34.5Z" fill="#EDBD58" stroke="#EDBD58" stroke-width="0.725234" stroke-linecap="round" stroke-linejoin="round"/>
<path d="M21 35.4338V34.0864C21 31.3297 21 29.9514 21.8621 29.0645C22.7243 28.1776 24.0816 28.1392 26.7962 28.0624C28.0826 28.0261 29.3965 28 30.5212 28C31.6458 28 32.9598 28.0261 34.2462 28.0624C36.9607 28.1392 38.3181 28.1776 39.1802 29.0645C40.0424 29.9514 40.0424 31.3297 40.0424 34.0864V35.4338C40.0424 38.1904 40.0424 39.5688 39.1802 40.4556C38.3181 41.3425 36.9608 41.3809 34.2462 41.4577C32.9598 41.4941 31.6458 41.5202 30.5212 41.5202C29.3965 41.5202 28.0825 41.4941 26.7961 41.4577C24.0815 41.3809 22.7243 41.3425 21.8621 40.4556C21 39.5688 21 38.1904 21 35.4338Z" stroke="#EDBD58" stroke-width="1.5"/>
</svg>
