<svg width="188" height="69" viewBox="0 0 188 69" fill="none" xmlns="http://www.w3.org/2000/svg">
<g filter="url(#filter0_d_1709_12063)">
<rect x="4" width="180" height="61" rx="5" fill="white"/>
</g>
<path d="M84.1317 19.9754C83.9444 20.2689 83.2247 20.2969 82.8236 20.2969C82.5035 22.192 81.4344 24.1402 80.2869 25.9823C81.0347 26.8362 83.036 28.1443 83.8117 28.7048C84.3442 29.0793 84.291 29.9332 84.0772 30.4406C83.8368 30.9996 83.3784 31.2134 82.9298 31.3211C82.231 31.4021 81.8341 31.1813 81.3282 30.762C80.607 30.1205 79.1926 28.9451 78.3932 28.0395C77.5014 29.0451 76.4775 29.9253 75.3493 30.6558H79.7279C80.5818 30.6558 81.1968 31.0555 81.1968 31.9374V37.8366C81.2499 38.3957 81.057 39.2775 79.9389 39.2775H64.1098C63.3356 39.2775 62.722 38.903 62.722 37.9694V32.0995C62.722 30.9814 63.0421 30.6586 64.2705 30.6586H71.6652C71.5576 30.1778 71.6652 29.6174 72.146 29.3225C73.1061 28.9228 75.8286 27.0011 76.4967 25.8537C75.749 24.9718 74.9747 23.4778 74.6281 22.6756C74.4674 23.1032 73.8538 23.7447 73.4527 23.6902C73.32 23.6371 73.1592 23.584 72.9999 23.5309V25.9333C72.9999 27.1073 72.6253 28.0423 70.9972 28.0423H63.8163C63.4418 29.5908 63.4152 29.9374 62.5082 31.9402C62.1881 32.639 61.5466 32.9003 61.2504 32.9003C60.8119 32.9075 60.3823 32.777 60.0219 32.5272C59.7284 32.3133 59.4363 31.6453 59.7284 30.9786C60.2371 29.8312 60.9862 28.1835 60.9862 26.5203V18.6938C61.1066 18.3511 61.2587 18.0203 61.4404 17.7057C61.7074 17.1984 62.5892 16.9315 64.0833 16.958C65.5773 16.9846 68.0594 16.8518 69.0489 16.6114L71.3983 16.0524C72.0649 15.8916 72.8126 16.399 72.9188 16.9594C73.0265 17.4136 73.1592 18.2172 72.0915 18.561C71.6107 18.7218 72.1977 18.6142 70.7037 19.0153C69.2096 19.4164 67.0993 19.6288 64.3502 19.7141C64.2548 19.7524 64.1731 19.8187 64.116 19.9042C64.0589 19.9898 64.029 20.0906 64.0302 20.1934V21.0488H71.5045C71.7938 21.1181 72.0661 21.245 72.3053 21.4219C72.466 21.1284 72.6254 20.8084 72.7595 20.5945C73.5338 19.2333 74.0928 17.791 74.6281 16.3501C74.8405 15.9755 75.2416 15.71 75.6148 15.71C76.2297 15.71 76.8726 16.0035 77.1368 16.5639C77.2765 16.9902 77.1368 17.4444 77.0306 17.8217H82.9829C83.2764 17.8217 84.1317 18.1432 84.2407 18.5694C84.3442 19.0418 84.4518 19.5757 84.1317 19.9754ZM69.6093 23.6609H64.0567V25.3953H69.6625L69.8763 25.1814C69.9028 24.8879 69.9294 24.3806 69.9294 24.2213C69.942 24.1061 69.9179 23.9898 69.8604 23.8891C69.8029 23.7884 69.715 23.7085 69.6093 23.6609ZM78.0983 33.778C78.0983 33.3769 77.9586 33.2972 77.7238 33.2972H66.2188C65.9253 33.2972 65.8722 33.4566 65.8722 33.7235V36.2322C65.8704 36.2782 65.8782 36.3242 65.895 36.3671C65.9117 36.41 65.9372 36.449 65.9697 36.4817C66.0022 36.5143 66.0411 36.5399 66.084 36.5569C66.1268 36.5738 66.1727 36.5818 66.2188 36.5802H77.7238C77.7761 36.5835 77.8286 36.5752 77.8774 36.5559C77.9262 36.5365 77.9701 36.5066 78.0059 36.4682C78.0417 36.4298 78.0686 36.384 78.0846 36.334C78.1005 36.284 78.1052 36.2311 78.0983 36.1791V33.778ZM76.5498 20.2996C76.9229 21.4471 77.6175 22.6476 78.2576 23.6637C78.8167 22.8083 79.5155 21.0991 79.7531 20.2996H76.5498Z" fill="#F2E442"/>
<path d="M108.401 20.4833C109.203 20.4833 109.629 21.0969 109.788 21.7118C109.896 22.8593 109.415 23.8739 109.069 24.7278C108.774 25.2631 108.535 25.5818 108.081 25.7159C107.799 25.784 107.505 25.7857 107.223 25.7209C106.94 25.6562 106.676 25.5267 106.452 25.3428C106.132 25.0744 106.033 24.7558 105.972 24.3812C105.998 23.927 106.239 23.7677 106.373 23.3931C106.426 23.2059 106.373 23.0731 106.186 23.0731H90.703C90.3019 23.0731 90.2222 23.2869 90.2222 23.5539V24.5685C90.1691 24.9151 90.0349 25.2086 89.6632 25.3693C89.209 25.6097 88.4612 25.7159 87.9861 25.4224C87.5053 25.1024 87.3194 24.6747 87.3194 24.0877V21.9522C87.3194 21.3387 87.6129 21.0452 88.0671 20.7503C88.4137 20.5379 88.9742 20.4833 89.3753 20.4833H91.4842V19.7105H87.7121C87.2328 19.7105 86.9113 19.5707 86.6458 19.1752C86.4585 18.802 86.2978 18.1885 86.4585 17.7608C86.6178 17.4939 86.8317 17.2018 87.1252 17.0942C87.449 16.9701 87.793 16.9066 88.1398 16.9069H91.4507C91.4507 16.3199 91.5835 15.6784 92.2236 15.4394C92.9224 15.0914 93.9594 15.1991 94.3856 15.9188C94.6009 16.3199 94.6009 16.4779 94.6009 16.9069H101.968C101.968 16.3996 102.107 15.9999 102.448 15.6784C102.982 15.3053 103.81 15.2787 104.397 15.5387C104.932 15.8056 105.118 16.366 105.144 16.8999H109.122C109.735 16.8999 110.002 17.2731 110.163 17.7007C110.322 18.3143 110.35 19.062 109.816 19.4631C109.576 19.649 109.118 19.7035 108.615 19.7035H105.144V20.4764L108.401 20.4833ZM107.334 29.2127C107.84 29.5062 108.321 30.068 108.348 30.7612C108.374 31.4279 107.84 31.9101 107.306 32.177L105.221 33.1902C106.473 34.5586 107.954 35.6971 109.598 36.5543C110.187 36.9819 110.374 37.622 110.266 38.3166C110.16 38.8756 109.626 39.3564 109.066 39.4626C108.479 39.6024 108.025 39.3033 107.544 39.0098C105.596 37.861 103.886 36.0469 102.472 34.2315L101.515 34.5557C101.687 35.6599 101.714 36.782 101.594 37.8931C101.557 38.2883 101.423 38.6681 101.204 38.9988C100.984 39.3295 100.686 39.6007 100.337 39.7883C98.8943 40.5625 97.3737 40.1083 95.9048 39.7086C95.6644 39.6276 95.2647 39.3606 95.1571 39.1202C95.0629 38.8195 95.0457 38.5 95.107 38.1908C95.1683 37.8817 95.3061 37.5929 95.5079 37.3509C96.3087 36.6521 97.2703 37.3243 98.1242 37.4305C98.4177 37.4836 98.6581 37.3774 98.6581 37.0574C98.6893 36.503 98.6532 35.9469 98.5505 35.4012C95.3472 37.1636 92.0097 38.7652 88.4599 39.8064C88.2817 39.8374 88.099 39.8296 87.9241 39.7835C87.7492 39.7374 87.5864 39.6542 87.4466 39.5395C87.2693 39.3722 87.1299 39.1689 87.0375 38.9433C86.9452 38.7177 86.9022 38.475 86.9113 38.2314C86.9658 37.9113 87.0189 37.5326 87.4186 37.404C89.4745 36.7052 91.6114 36.1755 93.6114 35.3481C95.4813 34.5473 96.6022 34.0148 98.0431 33.2657L97.7762 32.5194C94.8979 34.1824 91.8219 35.4769 88.6206 36.3726C88.3005 36.3991 87.8463 36.4271 87.5794 36.2132C87.4083 36.0426 87.2748 35.8381 87.1874 35.6128C87.1 35.3875 87.0607 35.1465 87.072 34.9051C87.072 34.5836 87.1531 34.237 87.4983 34.1043C88.0867 33.8904 89.5011 33.5452 91.1027 32.9862C93.0444 32.3301 94.9437 31.5544 96.7895 30.6634C96.6819 30.4216 96.4415 30.2092 96.2822 29.9646C93.6901 31.2091 90.9917 32.219 88.2195 32.982C87.6604 33.0617 87.1783 32.8422 86.9393 32.314C86.8317 31.9939 86.752 31.4866 87.0189 31.1959C87.4983 30.7151 88.1943 30.7151 88.7799 30.5278C90.0615 30.1267 91.3431 29.727 92.5967 29.27L88.1664 29.2155C87.9777 29.2179 87.7923 29.1666 87.6317 29.0676C87.4711 28.9686 87.342 28.826 87.2593 28.6565C87.0189 28.1226 87.1196 27.5621 87.339 27.0548C87.4432 26.8976 87.5869 26.7705 87.7556 26.6862C87.9243 26.6018 88.1122 26.5631 88.3005 26.5741H108.134C108.561 26.6272 108.881 26.5209 109.148 26.8144C109.601 27.2421 109.629 27.9898 109.415 28.5237C109.148 29.1107 108.856 29.2225 108.297 29.2225L107.334 29.2127ZM104.423 23.7411C104.798 23.7411 104.957 24.0081 105.091 24.194C105.277 24.6482 105.197 25.2352 104.877 25.5566C104.689 25.6851 104.464 25.7502 104.236 25.7425L91.9301 25.7159C91.7731 25.7327 91.6149 25.6975 91.4798 25.6157C91.3447 25.5339 91.2402 25.41 91.1824 25.2631C91.098 25.0332 91.0785 24.7845 91.1258 24.5442C91.1731 24.3039 91.2855 24.0813 91.4507 23.9005C91.6279 23.7979 91.8321 23.7516 92.0363 23.7677L104.423 23.7411ZM101.994 20.4833V19.7105H94.626V20.4833H101.994ZM99.4044 29.2127C99.9729 30.052 100.456 30.9463 100.845 31.8821C102.662 31.1833 104.504 30.3615 106.132 29.2672L99.4044 29.2127Z" fill="#F2E442"/>
<path d="M117.939 18.3219V17.0948C117.939 16.7468 118.258 16.266 118.638 16.0271C119.012 15.8398 119.599 15.8398 120.054 15.9725C120.534 16.1123 121.014 16.6406 121.014 17.0669V18.3247H123.336C123.496 17.8719 123.817 17.2569 124.404 17.2835C125.152 17.31 126.006 17.6315 126.273 18.3778C126.273 19.2331 125.873 19.9529 125.631 20.7272L124.752 22.7565C125.311 22.783 125.925 22.8892 126.167 23.4553C126.434 24.0422 126.379 24.8696 125.979 25.3769C125.724 25.587 125.403 25.7004 125.072 25.697H119.119C118.94 26.1765 118.705 26.6334 118.42 27.0582H123.999C124.698 27.0582 124.987 27.539 125.201 27.9932C125.093 26.7913 126.295 26.0701 126.429 24.9185C127.408 22.4234 128.011 19.7966 128.217 17.1242C128.297 16.7496 128.591 16.3499 128.991 16.2688C129.633 16.1361 130.326 16.2157 130.808 16.6965C131.076 16.9606 131.076 17.3352 131.076 17.6818L130.73 20.2701H136.335C136.755 20.2701 136.949 20.7509 137.11 21.0178C137.249 21.6328 137.269 22.3274 136.841 22.8347C136.758 22.9309 136.656 23.009 136.541 23.0643C136.427 23.1196 136.302 23.1509 136.175 23.1562C135.987 26.9185 135.533 30.5774 133.452 33.6199C134.467 35.0874 135.667 36.7435 137.216 37.8127C137.336 37.9597 137.418 38.1338 137.456 38.32C137.493 38.5061 137.484 38.6986 137.43 38.8805C137.318 39.188 137.137 39.4657 136.9 39.6923C136.664 39.9188 136.379 40.0881 136.067 40.1872C135.054 40.327 134.493 39.3067 133.772 38.7197C132.997 37.8681 132.267 36.9772 131.584 36.0503C131.076 36.478 130.489 37.1684 129.821 37.6254C129.368 38.0265 128.939 38.3452 128.513 38.6932C127.767 39.1125 126.432 40.4807 125.151 39.7875C124.615 39.3333 124.322 38.7463 124.403 38.0265C124.482 37.385 125.177 37.1447 125.603 36.8777C127.152 35.9176 128.781 34.8484 129.936 33.3278C129.162 31.8324 128.653 30.0169 128.174 28.4153C127.88 28.7899 127.505 29.1896 126.973 29.2161C126.305 29.1365 125.637 28.7619 125.343 28.1484L125.29 28.7353C125.29 29.0554 125.13 29.3223 124.997 29.5907C124.242 30.394 123.44 31.1515 122.594 31.859C123.712 31.8324 124.783 31.4858 125.905 31.3782C126.114 31.4076 126.31 31.4925 126.475 31.6241C126.639 31.7556 126.765 31.929 126.839 32.1259C126.954 32.3995 127.004 32.6961 126.986 32.9925C126.967 33.2888 126.88 33.5768 126.731 33.8338C126.358 34.288 125.824 34.3159 125.317 34.3928L122.435 34.9001V38.2362C122.435 39.1977 121.686 39.7316 121.072 39.9985C120.218 40.3717 119.177 40.0516 118.269 39.9985C117.736 39.8588 117.151 39.8588 116.801 39.357C116.452 38.8553 116.508 38.0489 116.829 37.5402C117.077 37.2502 117.415 37.053 117.789 36.9811L119.124 37.2467L119.365 37.0077V35.3529C117.736 35.5668 116.054 35.8072 114.399 35.9399C114.25 35.9537 114.1 35.9372 113.958 35.8913C113.816 35.8454 113.684 35.7712 113.571 35.673C113.119 35.1936 113.038 34.4459 113.225 33.831C113.27 33.6805 113.345 33.5408 113.446 33.4206C113.547 33.3004 113.671 33.2022 113.812 33.1322C115.629 32.9183 117.496 32.7325 119.311 32.4655V31.6214C119.283 31.3279 119.525 30.9813 119.711 30.8206C119.978 30.5816 120.192 30.4013 120.485 30.1218L120.378 29.989H116.708C116.36 30.4432 116.068 31.1364 115.45 31.2161C114.73 31.3237 114.089 30.8429 113.689 30.2294C113.449 29.6955 113.661 29.054 114.035 28.6543C114.724 27.7307 115.314 26.7376 115.796 25.6914H114.305C113.886 25.6914 113.451 25.5586 113.291 24.9926C113.105 24.3525 113.105 23.6593 113.584 23.152C114.012 22.804 114.224 22.7509 114.652 22.7509H117.939V21.1786H115.133C114.955 21.1743 114.782 21.1225 114.632 21.0286C114.482 20.9346 114.359 20.8021 114.277 20.6447C113.957 20.0046 113.985 19.2555 114.417 18.7496C114.629 18.4826 115.116 18.3219 115.483 18.3219H117.939ZM121.014 21.2051V22.7537H121.466C121.764 22.2623 122.015 21.7438 122.216 21.2051H121.014ZM130.144 23.1799C130.004 23.6621 129.904 24.1149 129.77 24.6222C129.934 24.6464 130.09 24.7099 130.225 24.8072C130.36 24.9045 130.469 25.0328 130.544 25.1813C130.811 26.9436 131.185 28.7577 131.824 30.3607C132.867 28.038 133.187 26.1428 133.187 23.1785L130.144 23.1799Z" fill="#68A744"/>
<path d="M150.161 18.0284C149.975 17.5476 149.627 17.0137 149.814 16.4267C150.001 15.8398 150.641 15.5994 151.177 15.5197C151.683 15.4932 152.163 15.5463 152.538 15.8398C153.123 16.4799 153.471 17.2541 153.845 17.9753H162.601C163.668 17.9753 163.858 18.6964 163.935 19.0696C164.095 19.7376 163.988 20.6447 162.521 20.6447H158.889C159.988 21.3873 161.018 22.2294 161.963 23.1603C163.004 24.147 163.64 24.7871 163.192 25.936C162.872 26.4433 162.444 27.0037 161.698 27.0303C161.056 26.9227 160.363 25.8018 159.695 25.2134L155.083 25.6942L150.411 25.9877L145.365 26.2015C144.377 26.0617 143.043 26.5215 142.456 25.5614C142.359 25.4073 142.3 25.2333 142.281 25.0526C142.262 24.8719 142.285 24.6893 142.348 24.5188L142.616 24.0394C143.576 22.9982 144.852 21.6635 145.526 20.702H141.245C141.061 20.6538 140.89 20.5637 140.747 20.4386C140.603 20.3134 140.491 20.1568 140.418 19.9808C140.231 19.5014 140.231 18.7803 140.605 18.3792C140.925 18.0591 141.219 18.0326 141.672 18.0326L150.161 18.0284ZM162.146 38.0768C162.146 38.8777 161.533 39.4115 160.866 39.705C159.77 39.9706 158.63 39.5974 157.608 39.3305C156.942 39.0901 156.114 38.9839 155.791 38.2627C155.652 37.6226 155.952 37.0342 156.433 36.6345C157.048 36.3145 157.847 36.7952 158.701 37.0091C158.97 37.0887 159.049 37.0887 159.076 36.8218V35.8337H145.276V38.8245C145.248 39.0468 145.161 39.2577 145.025 39.4359C144.889 39.6141 144.709 39.7532 144.502 39.8392C144.181 39.9597 143.837 40.0006 143.497 39.9585C143.158 39.9163 142.833 39.7925 142.552 39.5974C142.233 39.357 142.152 38.9573 142.152 38.5562V28.8667C142.152 27.7975 142.552 27.1896 143.41 27.1896H160.307C161.935 27.1896 162.149 27.8562 162.149 28.7102L162.146 38.0768ZM145.49 29.7206C145.223 29.7472 145.249 30.1203 145.276 30.6025H159.051V30.0952C159.033 30.0108 158.995 29.9321 158.939 29.8666C158.883 29.8011 158.811 29.7508 158.731 29.7206H145.49ZM159.046 32.738H145.276V33.6716H159.051L159.046 32.738ZM157.443 22.994C157.23 22.7802 156.856 22.3791 156.803 22.1121C156.664 21.4134 157.123 20.9647 157.871 20.7243L149.596 20.6712C148.848 21.5797 147.969 22.4881 147.14 23.3406C147.14 23.4482 147.273 23.5545 147.407 23.6076H148.795L153.573 23.3141L157.443 22.994Z" fill="#68A744"/>
<path d="M59.916 51.791V44.8799H64.9376V46.0497H61.2829V47.587H64.6832V48.7512H61.2829V50.6282H65.0675V51.7924L59.916 51.791Z" fill="#585439"/>
<path d="M70.6779 51.7904H69.381V49.23C69.381 48.6887 69.353 48.3388 69.2971 48.1804C69.2486 48.0316 69.1542 47.9019 69.0274 47.8101C68.8949 47.72 68.7374 47.674 68.5773 47.6787C68.3608 47.6761 68.1489 47.7422 67.9722 47.8674C67.7967 47.9879 67.6672 48.1642 67.6046 48.3677C67.5375 48.5745 67.5054 48.9575 67.5054 49.5179V51.7848H66.207V46.7842H67.4132V47.5194C67.8408 46.9529 68.3794 46.6701 69.0288 46.671C69.2992 46.668 69.5673 46.7218 69.8156 46.829C70.0267 46.9144 70.2121 47.0531 70.3537 47.2315C70.4762 47.3982 70.5628 47.5886 70.608 47.7905C70.6626 48.0844 70.686 48.3833 70.6779 48.6822V51.7904Z" fill="#585439"/>
<path d="M71.9961 51.791V44.8799H73.2931V51.791H71.9961Z" fill="#585439"/>
<path d="M74.625 46.1056V44.8799H75.922V46.1056H74.625ZM74.625 51.791V46.7848H75.922V51.791H74.625Z" fill="#585439"/>
<path d="M77.1302 52.1204L78.6173 52.3049C78.6198 52.3738 78.6362 52.4415 78.6655 52.5039C78.6948 52.5663 78.7364 52.6222 78.7878 52.6682C78.962 52.7761 79.1663 52.8251 79.3706 52.808C79.6339 52.825 79.897 52.771 80.1322 52.6515C80.2537 52.5726 80.3449 52.4548 80.3908 52.3174C80.4419 52.1191 80.4627 51.9141 80.4523 51.7095V50.9785C80.0628 51.5199 79.5732 51.7901 78.9834 51.7891C78.6696 51.7965 78.3592 51.7217 78.0832 51.5721C77.8072 51.4226 77.575 51.2035 77.4097 50.9366C77.0938 50.4357 76.936 49.8513 76.9569 49.2595C76.9569 48.4209 77.1568 47.7781 77.5509 47.3364C77.733 47.1236 77.9598 46.9536 78.2151 46.8386C78.4705 46.7237 78.7481 46.6665 79.0281 46.6712C79.6333 46.6712 80.135 46.9423 80.5278 47.486V46.7872H81.7437V51.2804C81.7626 51.7261 81.7155 52.1721 81.6039 52.6039C81.5285 52.8625 81.3908 53.0986 81.2028 53.2916C81.0056 53.4733 80.7694 53.6077 80.5124 53.6843C80.1574 53.7868 79.7888 53.8339 79.4195 53.824C78.5884 53.824 77.9986 53.6787 77.6501 53.388C77.484 53.2562 77.3506 53.0879 77.2602 52.8962C77.1698 52.7045 77.1248 52.4944 77.1288 52.2825C77.1302 52.2378 77.1302 52.1833 77.1302 52.1204ZM78.2902 49.1854C78.2902 49.7165 78.3908 50.105 78.5921 50.351C78.6791 50.4666 78.7919 50.5602 78.9214 50.6245C79.051 50.6888 79.1938 50.722 79.3384 50.7214C79.4922 50.7228 79.6444 50.6895 79.7835 50.6239C79.9227 50.5584 80.0452 50.4622 80.142 50.3426C80.361 50.0901 80.4705 49.7151 80.4705 49.2176C80.4705 48.6995 80.3656 48.3147 80.156 48.0632C80.0616 47.9434 79.9409 47.8471 79.8032 47.7817C79.6655 47.7162 79.5146 47.6834 79.3622 47.6858C79.2138 47.6833 79.0669 47.7154 78.9332 47.7797C78.7995 47.844 78.6827 47.9387 78.5921 48.0562C78.3936 48.3031 78.2944 48.679 78.2944 49.184L78.2902 49.1854Z" fill="#585439"/>
<path d="M84.3263 44.8799V47.4207C84.7455 46.9222 85.2463 46.6725 85.8287 46.6716C86.1078 46.667 86.3844 46.7253 86.6379 46.8421C86.8543 46.9352 87.0416 47.0848 87.1801 47.2754C87.3021 47.451 87.3868 47.6499 87.4289 47.8595C87.4824 48.1879 87.5048 48.5206 87.496 48.8532V51.7882H86.1976V49.1467C86.1976 48.6212 86.1734 48.2881 86.125 48.1475C86.0785 48.0088 85.9863 47.8901 85.8636 47.8106C85.7232 47.7227 85.5596 47.6789 85.394 47.6848C85.1901 47.6812 84.9895 47.7371 84.8168 47.8456C84.6416 47.9599 84.5105 48.1304 84.4451 48.3291C84.3526 48.6385 84.3125 48.9611 84.3263 49.2837V51.791H83.0293V44.8799H84.3263Z" fill="#585439"/>
<path d="M91.0619 46.7846V47.8397H90.1744V49.8579C90.1657 50.0962 90.1746 50.3349 90.201 50.572C90.2177 50.6399 90.2584 50.6995 90.3156 50.7397C90.3799 50.7844 90.4568 50.8075 90.535 50.8054C90.7151 50.7921 90.8917 50.7491 91.0577 50.6782L91.1681 51.7055C90.8436 51.8417 90.4943 51.9093 90.1423 51.9039C89.9253 51.907 89.71 51.8661 89.5092 51.7837C89.3425 51.7221 89.197 51.6139 89.0899 51.4721C88.9923 51.3156 88.9302 51.1395 88.9082 50.9564C88.8726 50.6465 88.8586 50.3346 88.8663 50.0228V47.8397H88.2695V46.7846H88.8691V45.7895L90.1717 45.0166V46.7846H91.0619Z" fill="#585439"/>
<path d="M94.806 50.1971L96.0988 50.4179C95.9624 50.8619 95.6858 51.2498 95.3105 51.5234C94.913 51.7884 94.4421 51.9214 93.9646 51.9036C93.1112 51.9036 92.4795 51.6189 92.0695 51.0496C91.7462 50.5959 91.585 50.021 91.5859 49.325C91.5859 48.4948 91.7984 47.845 92.2232 47.3754C92.4248 47.1482 92.6736 46.9679 92.9522 46.8472C93.2308 46.7265 93.5325 46.6682 93.8361 46.6766C94.5642 46.6766 95.1414 46.9225 95.5635 47.4145C95.9856 47.9064 96.1868 48.6597 96.1686 49.6744H92.9151C92.9045 50.0081 93.0163 50.3342 93.2295 50.5912C93.3233 50.6968 93.4388 50.7808 93.5681 50.8375C93.6974 50.8942 93.8374 50.9222 93.9786 50.9197C94.1644 50.9253 94.3461 50.8649 94.4915 50.7491C94.6506 50.6018 94.7604 50.409 94.806 50.1971ZM94.8787 48.8582C94.8703 48.4753 94.7734 48.1836 94.588 47.9833C94.5003 47.8876 94.3934 47.8115 94.2742 47.7599C94.1551 47.7083 94.0264 47.6825 93.8966 47.6841C93.7668 47.6857 93.6388 47.7146 93.5209 47.7691C93.4031 47.8235 93.2981 47.9023 93.2127 48.0001C93.0147 48.2406 92.9148 48.5471 92.9332 48.8582H94.8787Z" fill="#585439"/>
<path d="M101.688 51.7904H100.391V49.23C100.391 48.6887 100.363 48.3388 100.307 48.1804C100.258 48.0316 100.164 47.9019 100.037 47.8101C99.9046 47.7201 99.7472 47.6742 99.5871 47.6787C99.3705 47.6759 99.1586 47.742 98.982 47.8674C98.8065 47.9879 98.677 48.1642 98.6144 48.3677C98.5473 48.5745 98.5152 48.9575 98.5152 49.5179V51.7848H97.2168V46.7842H98.4229V47.5194C98.8506 46.9529 99.3891 46.6701 100.039 46.671C100.309 46.668 100.577 46.7218 100.825 46.829C101.036 46.914 101.221 47.0528 101.362 47.2315C101.486 47.3978 101.573 47.5883 101.618 47.7905C101.672 48.0844 101.696 48.3833 101.688 48.6822V51.7904Z" fill="#585439"/>
<path d="M103.006 46.1056V44.8799H104.304V46.1056H103.006ZM103.006 51.791V46.7848H104.304V51.791H103.006Z" fill="#585439"/>
<path d="M110.095 51.7904H108.797V49.23C108.797 48.6887 108.769 48.3388 108.713 48.1804C108.665 48.0316 108.57 47.9019 108.443 47.8101C108.311 47.72 108.153 47.674 107.993 47.6787C107.777 47.6761 107.565 47.7422 107.388 47.8674C107.213 47.9879 107.083 48.1642 107.021 48.3677C106.937 48.7451 106.904 49.1318 106.921 49.5179V51.7848H105.623V46.7842H106.829V47.5194C107.257 46.9529 107.795 46.6701 108.445 46.671C108.715 46.6678 108.983 46.7216 109.232 46.829C109.443 46.9144 109.628 47.0531 109.77 47.2315C109.892 47.3982 109.979 47.5886 110.024 47.7905C110.079 48.0844 110.103 48.3833 110.095 48.6822V51.7904Z" fill="#585439"/>
<path d="M111.292 52.1203L112.776 52.3048C112.778 52.3736 112.794 52.4413 112.823 52.5037C112.853 52.5661 112.894 52.6221 112.945 52.6682C113.12 52.7759 113.325 52.8248 113.529 52.8079C113.793 52.8248 114.056 52.7707 114.291 52.6514C114.412 52.5728 114.503 52.4549 114.548 52.3174C114.599 52.119 114.62 51.914 114.61 51.7094V50.9785C114.223 51.5198 113.733 51.79 113.139 51.7891C112.827 51.7951 112.518 51.7195 112.243 51.5697C111.969 51.42 111.738 51.2013 111.574 50.9352C111.257 50.4346 111.099 49.85 111.121 49.2581C111.121 48.4195 111.319 47.7785 111.715 47.335C111.897 47.123 112.123 46.9536 112.377 46.8389C112.631 46.7242 112.908 46.6669 113.187 46.6711C113.793 46.6711 114.294 46.9427 114.689 47.4859V46.7871H115.902V51.2804C115.92 51.726 115.873 52.1719 115.763 52.6039C115.687 52.8625 115.549 53.0986 115.361 53.2915C115.161 53.4739 114.922 53.6082 114.663 53.6842C114.308 53.7868 113.94 53.8339 113.571 53.824C112.74 53.824 112.148 53.6842 111.802 53.3879C111.636 53.2563 111.502 53.088 111.411 52.8963C111.321 52.7046 111.275 52.4945 111.279 52.2824C111.287 52.2377 111.289 52.1832 111.292 52.1203ZM112.452 49.1854C112.452 49.7165 112.552 50.105 112.754 50.351C112.841 50.4665 112.953 50.5602 113.083 50.6245C113.212 50.6888 113.355 50.7219 113.5 50.7213C113.653 50.724 113.806 50.6918 113.945 50.6271C114.085 50.5625 114.208 50.4671 114.305 50.3482C114.524 50.0957 114.633 49.7207 114.633 49.2231C114.633 48.7051 114.529 48.3203 114.32 48.0687C114.225 47.9487 114.104 47.8522 113.966 47.7867C113.828 47.7213 113.676 47.6886 113.524 47.6914C113.375 47.6889 113.229 47.7211 113.095 47.7854C112.962 47.8497 112.845 47.9443 112.755 48.0617C112.553 48.3049 112.452 48.679 112.452 49.184V49.1854Z" fill="#585439"/>
<path d="M119.83 51.791V44.8799H124.852V46.0497H121.197V47.587H124.599V48.7512H121.197V50.6282H124.982V51.7924L119.83 51.791Z" fill="#585439"/>
<path d="M130.631 51.791H129.427V51.0558C129.246 51.3238 129.002 51.5432 128.717 51.6945C128.463 51.8298 128.181 51.9017 127.893 51.9042C127.615 51.9039 127.34 51.841 127.089 51.72C126.838 51.599 126.618 51.4231 126.444 51.2054C126.042 50.7395 125.841 50.0924 125.842 49.2641C125.842 48.4153 126.037 47.7706 126.429 47.3299C126.611 47.1166 126.839 46.9465 127.095 46.8319C127.351 46.7173 127.63 46.6611 127.91 46.6674C128.185 46.6686 128.456 46.7321 128.703 46.8532C128.949 46.9742 129.165 47.1496 129.334 47.3662V44.8799H130.631V51.791ZM127.164 49.1789C127.164 49.7142 127.237 50.0999 127.382 50.3389C127.466 50.4976 127.593 50.63 127.748 50.7215C127.903 50.813 128.08 50.86 128.26 50.8574C128.408 50.8568 128.554 50.8214 128.687 50.7539C128.819 50.6864 128.934 50.5888 129.021 50.4688C129.231 50.2089 129.336 49.8218 129.336 49.3075C129.336 48.7316 129.235 48.318 129.031 48.065C128.94 47.9446 128.822 47.8474 128.686 47.7813C128.55 47.7153 128.401 47.6822 128.25 47.6848C128.101 47.6838 127.954 47.717 127.82 47.7819C127.686 47.8469 127.568 47.9418 127.477 48.0594C127.268 48.31 127.164 48.6832 127.164 49.1789Z" fill="#585439"/>
<path d="M135.14 51.7904V51.0468C134.964 51.3136 134.724 51.5314 134.441 51.6799C134.159 51.8316 133.843 51.9108 133.522 51.9105C133.211 51.9162 132.905 51.8395 132.634 51.6883C132.38 51.5504 132.18 51.3314 132.065 51.0664C131.933 50.7125 131.873 50.3356 131.889 49.9581V46.7842H133.189V49.0902C133.189 49.789 133.211 50.2251 133.259 50.3844C133.302 50.5357 133.394 50.6681 133.522 50.7603C133.662 50.8584 133.83 50.9075 134.001 50.9001C134.215 50.9029 134.424 50.8379 134.598 50.7142C134.764 50.6019 134.889 50.44 134.957 50.2516C135.023 50.0685 135.053 49.6171 135.053 48.9015V46.7842H136.353V51.7904H135.14Z" fill="#585439"/>
<path d="M141.971 48.2639L140.691 48.4987C140.666 48.2736 140.561 48.0649 140.396 47.9103C140.23 47.7726 140.018 47.7018 139.803 47.7118C139.657 47.7063 139.511 47.7342 139.376 47.7935C139.242 47.8529 139.123 47.942 139.029 48.0542C138.837 48.2821 138.741 48.6622 138.741 49.1975C138.741 49.7919 138.838 50.2112 139.033 50.4553C139.126 50.5745 139.246 50.67 139.383 50.7339C139.52 50.7978 139.67 50.8283 139.821 50.8229C140.043 50.8315 140.259 50.755 140.426 50.609C140.583 50.4693 140.695 50.2205 140.759 49.8711L142.034 50.0933C141.901 50.6896 141.647 51.1406 141.272 51.4462C140.896 51.7518 140.393 51.9041 139.761 51.9032C139.043 51.9032 138.471 51.6703 138.045 51.2044C137.619 50.7386 137.406 50.0989 137.406 49.2855C137.406 48.4591 137.62 47.8157 138.048 47.3554C138.475 46.8952 139.054 46.665 139.785 46.665C140.382 46.665 140.857 46.7959 141.21 47.0578C141.592 47.3636 141.859 47.7882 141.971 48.2639Z" fill="#585439"/>
<path d="M143.923 48.3117L142.745 48.095C142.841 47.6676 143.084 47.2871 143.43 47.0189C143.754 46.7869 144.234 46.6709 144.872 46.6709C145.451 46.6709 145.882 46.7408 146.165 46.8805C146.416 46.9906 146.625 47.1769 146.763 47.413C146.879 47.6282 146.937 48.0233 146.937 48.5982L146.923 50.1453C146.914 50.4726 146.935 50.8001 146.986 51.1236C147.035 51.3565 147.113 51.5824 147.219 51.7959H145.933C145.901 51.7078 145.859 51.5778 145.81 51.4045C145.788 51.3263 145.772 51.2746 145.764 51.2494C145.56 51.4569 145.319 51.6251 145.054 51.7456C144.798 51.8561 144.522 51.9123 144.243 51.9105C143.739 51.9105 143.342 51.7707 143.05 51.4912C142.907 51.3547 142.794 51.1897 142.719 51.007C142.644 50.8243 142.608 50.6279 142.614 50.4304C142.609 50.1645 142.678 49.9023 142.812 49.6729C142.945 49.4521 143.139 49.2752 143.371 49.1642C143.701 49.018 144.048 48.9142 144.404 48.8553C144.833 48.7874 145.254 48.6784 145.662 48.5297V48.3913C145.672 48.2929 145.66 48.1936 145.629 48.0998C145.597 48.0061 145.546 47.9202 145.479 47.8477C145.354 47.7387 145.121 47.6842 144.78 47.6842C144.589 47.6728 144.399 47.7217 144.238 47.8239C144.085 47.9504 143.976 48.1207 143.923 48.3117ZM145.661 49.3864C145.401 49.4667 145.138 49.5338 144.872 49.5877C144.626 49.6272 144.387 49.7055 144.165 49.8197C144.087 49.8703 144.023 49.9394 143.979 50.0209C143.935 50.1024 143.911 50.1937 143.911 50.2865C143.91 50.3763 143.928 50.4653 143.963 50.548C143.998 50.6307 144.05 50.7053 144.115 50.7672C144.182 50.8344 144.263 50.887 144.352 50.9219C144.44 50.9567 144.535 50.9731 144.631 50.9699C144.874 50.9663 145.109 50.8833 145.301 50.7337C145.45 50.6262 145.559 50.4723 145.61 50.2963C145.653 50.0834 145.67 49.8661 145.661 49.6492V49.3864Z" fill="#585439"/>
<path d="M150.465 46.7846V47.8397H149.578V49.8579C149.57 50.0962 149.578 50.3348 149.603 50.572C149.62 50.6401 149.661 50.6997 149.719 50.7397C149.783 50.7848 149.86 50.8079 149.938 50.8054C150.118 50.7919 150.294 50.7489 150.459 50.6782L150.57 51.7055C150.245 51.8419 149.896 51.9095 149.544 51.9039C149.328 51.907 149.113 51.8661 148.912 51.7837C148.746 51.7221 148.6 51.6139 148.493 51.4721C148.395 51.3157 148.332 51.1396 148.31 50.9564C148.274 50.6465 148.26 50.3346 148.268 50.0228V47.8397H147.68V46.7846H148.274V45.7895L149.578 45.0166V46.7846H150.465Z" fill="#585439"/>
<path d="M151.365 46.1056V44.8799H152.664V46.1056H151.365ZM151.365 51.791V46.7848H152.664V51.791H151.365Z" fill="#585439"/>
<path d="M153.695 49.2173C153.696 48.7718 153.806 48.3333 154.015 47.9399C154.214 47.5419 154.528 47.2135 154.918 46.9979C155.317 46.7775 155.767 46.6653 156.223 46.6722C156.563 46.6609 156.901 46.7211 157.216 46.849C157.531 46.9768 157.815 47.1695 158.051 47.4144C158.287 47.6624 158.472 47.955 158.594 48.2751C158.716 48.5952 158.772 48.9364 158.761 49.2788C158.772 49.6243 158.715 49.9686 158.592 50.2917C158.469 50.6149 158.283 50.9104 158.045 51.1613C157.812 51.4052 157.531 51.5975 157.219 51.7256C156.907 51.8537 156.571 51.9147 156.234 51.9048C155.786 51.9056 155.345 51.7987 154.947 51.5932C154.548 51.3957 154.223 51.0766 154.018 50.6819C153.791 50.2278 153.68 49.7246 153.695 49.2173ZM155.025 49.2885C155.025 49.7847 155.141 50.1648 155.37 50.429C155.476 50.5554 155.608 50.6566 155.757 50.7251C155.907 50.7935 156.07 50.8275 156.234 50.8245C156.397 50.8267 156.557 50.7923 156.705 50.7238C156.852 50.6554 156.982 50.5546 157.085 50.429C157.316 50.1648 157.429 49.7819 157.429 49.2788C157.429 48.7756 157.316 48.4108 157.085 48.1481C156.982 48.0223 156.852 47.9213 156.705 47.8526C156.558 47.7839 156.397 47.7492 156.234 47.7512C156.071 47.7495 155.909 47.7842 155.761 47.8529C155.613 47.9216 155.482 48.0224 155.377 48.1481C155.141 48.4108 155.025 48.7924 155.025 49.2885Z" fill="#585439"/>
<path d="M164.238 51.7904H162.943V49.23C162.943 48.6891 162.914 48.3397 162.859 48.1804C162.81 48.0315 162.715 47.9018 162.588 47.8101C162.456 47.72 162.299 47.674 162.139 47.6787C161.922 47.6757 161.71 47.7418 161.533 47.8674C161.357 47.9879 161.228 48.1642 161.165 48.3677C161.082 48.7451 161.049 49.1318 161.066 49.5179V51.7848H159.768V46.7842H160.974V47.5194C161.403 46.9529 161.942 46.6701 162.591 46.671C162.861 46.6679 163.128 46.7218 163.376 46.829C163.588 46.9144 163.773 47.053 163.916 47.2315C164.038 47.3983 164.124 47.5887 164.169 47.7905C164.224 48.0843 164.249 48.3832 164.241 48.6822L164.238 51.7904Z" fill="#585439"/>
<path d="M27.377 14.3321C27.377 14.4719 29.8535 15.7758 29.9485 15.8695C30.263 16.1588 33.033 14.8912 33.033 14.8912L32.2839 11.0059H29.9429L28.495 13.0421L27.377 14.3321Z" fill="#373737"/>
<path d="M51.151 15.3029C51.151 15.3029 49.5395 15.8955 49.267 15.8703C48.9945 15.8452 46.3125 14.8068 46.3125 14.8068L47.1608 11.4609L49.4906 11.6915L50.7289 13.8578L51.151 15.3029Z" fill="#373737"/>
<path d="M48.384 15.9008C48.384 15.9008 44.8244 13.4439 39.8797 13.3027C35.1768 13.163 30.9435 15.8491 30.9127 15.8393C28.773 15.2258 26.3971 14.2908 25.894 13.2203C25.799 13.0162 25.3615 12.3356 25.894 12.0826C25.894 12.0826 33.68 8.73818 39.0146 6.175C39.4031 5.98772 40.6134 5.95837 41.0355 6.15543C41.4576 6.35249 49.8403 10.555 53.3678 12.2308C53.7536 12.4152 53.2952 13.1182 52.3183 13.7919C51.3413 14.4655 51.2183 14.6584 49.5538 15.4159L48.384 15.9008Z" fill="#373737"/>
<path d="M41.5811 12.644C41.5811 12.644 37.6231 13.2967 40.0311 13.2646C44.734 13.1989 48.7549 15.9843 48.787 15.9759C50.9435 15.4043 53.4913 14.5224 54.0154 13.4602C54.1147 13.259 54.5675 12.6119 54.0392 12.3422C53.9945 12.3422 46.2895 8.68605 40.9731 6.13265C40.5832 5.94538 39.4246 5.95376 39.0165 6.17458C38.6084 6.3954 35.4177 12.6035 39.3086 12.883C46.1693 13.3903 39.0584 11.9788 40.0213 12.6706C40.9843 13.3624 39.521 11.8809 41.1702 12.6706L41.5811 12.644Z" fill="#373737"/>
<path d="M33.2217 11.6574C33.1532 11.6881 32.7437 11.8782 32.7521 11.9523C32.8164 12.4666 33.3852 14.3897 32.8918 16.8327C32.5648 18.4609 33.6158 19.1051 40.0391 19.2211C42.0419 19.2575 45.3178 19.161 46.4974 18.0807C47.0466 17.579 46.4611 16.6594 46.3129 14.8663C46.1536 12.946 46.7322 11.744 46.4443 11.6979C46.3828 11.6881 40.7351 8.3381 33.2217 11.6574Z" fill="#47474A"/>
<path d="M32.8262 14.085C32.8262 14.085 33.4621 16.2554 32.8905 19.087C32.5634 20.7138 33.6144 21.358 40.0377 21.474C42.0405 21.5104 45.3164 21.4139 46.496 20.335C47.0453 19.8333 46.4597 18.9123 46.3115 17.1205C46.2091 16.0639 46.2534 14.9982 46.4429 13.9536C46.4443 13.8921 40.3983 10.6777 32.8262 14.085Z" fill="#DA9633"/>
<path d="M56.1978 47.5677L23.4844 49.9324L32.3339 23.1602L46.936 23.1797L56.1978 47.5677Z" fill="#B6394A"/>
<path d="M54.587 51.909C54.5973 50.3169 55.1588 48.7776 56.176 47.5527H27.5478C25.0321 47.5527 23 49.4423 23 51.7763C23 54.1102 25.0363 55.9998 27.5478 55.9998H55.972C55.0828 54.8204 54.5971 53.386 54.587 51.909Z" fill="#B6394A"/>
<path d="M54.587 51.9089C54.5893 50.9165 54.8117 49.937 55.2383 49.041H25.6387V54.5573H55.1404C54.7772 53.7215 54.5888 52.8202 54.587 51.9089Z" fill="white"/>
<path d="M54.9084 49.8848H25.6387V49.9379H54.8917L54.9084 49.8848Z" fill="#939498"/>
<path d="M54.8078 50.2295H25.6387V50.284H54.7924C54.798 50.2658 54.8022 50.2477 54.8078 50.2295Z" fill="#939498"/>
<path d="M54.7253 50.5781H25.6387V50.627H54.7156C54.7197 50.6117 54.7225 50.5949 54.7253 50.5781Z" fill="#939498"/>
<path d="M54.6638 50.9238H25.6387V50.9783H54.6569C54.6597 50.9602 54.6611 50.942 54.6638 50.9238Z" fill="#939498"/>
<path d="M54.6289 51.2705H25.6387V51.3264H54.6163C54.6177 51.3068 54.6191 51.2887 54.6289 51.2705Z" fill="#939498"/>
<path d="M54.5968 51.6172H25.6387V51.6717H54.5954C54.5954 51.6535 54.5954 51.6354 54.5968 51.6172Z" fill="#939498"/>
<path d="M54.5898 51.9639H25.6387V52.0254H54.5912C54.5912 52.0002 54.5898 51.9834 54.5898 51.9639Z" fill="#939498"/>
<path d="M54.601 52.3125H25.6387V52.3656H54.6051C54.6051 52.3474 54.6024 52.3293 54.601 52.3125Z" fill="#939498"/>
<path d="M54.6289 52.6582H25.6387V52.7113H54.6401C54.6349 52.694 54.6311 52.6762 54.6289 52.6582Z" fill="#939498"/>
<path d="M54.6792 53.0029H25.6387V53.0574H54.6904C54.6862 53.0407 54.6834 53.0239 54.6792 53.0029Z" fill="#939498"/>
<path d="M54.7477 53.3535H25.6387V53.408H54.7603C54.7571 53.3896 54.7529 53.3714 54.7477 53.3535Z" fill="#939498"/>
<path d="M54.8358 53.7031H25.6387V53.7562H54.8483C54.8455 53.7367 54.8413 53.7171 54.8358 53.7031Z" fill="#939498"/>
<path d="M54.9434 54.0488H25.6387V54.1005H54.9601C54.9545 54.0824 54.9476 54.0656 54.9434 54.0488Z" fill="#939498"/>
<path d="M55.0202 49.5645H25.6387V49.6176H54.9993C55.0063 49.5994 55.0118 49.5812 55.0202 49.5645Z" fill="#939498"/>
<path d="M34.4391 18.2036C34.4391 18.2036 33.5377 18.0233 34.2001 17.604C34.8626 17.1848 37.7402 16.6439 40.671 16.7166C43.6017 16.7893 48.2697 17.1932 46.2432 18.321" fill="#47474A"/>
<path d="M34.4393 18.2039C34.3837 18.1981 34.3286 18.1883 34.2744 18.1745C34.2088 18.1585 34.1451 18.1355 34.0843 18.106C34.0422 18.088 34.0035 18.0629 33.9697 18.032C33.9485 18.013 33.9313 17.99 33.9191 17.9643C33.9069 17.9387 33.8999 17.9108 33.8984 17.8824C33.8987 17.82 33.9199 17.7595 33.9585 17.7105C33.9955 17.6588 34.0387 17.6119 34.0871 17.5708L34.1248 17.54L34.143 17.526L34.1682 17.5093L34.2478 17.4603C34.3071 17.4246 34.3688 17.3928 34.4323 17.3653C34.7267 17.2337 35.0309 17.1253 35.3421 17.0411C35.679 16.9474 36.0409 16.8524 36.4421 16.7797C36.8432 16.707 37.2513 16.6302 37.6873 16.5785L38.0171 16.5379L38.3526 16.5072C38.5762 16.4834 38.8054 16.4695 39.0346 16.4541C39.4958 16.4289 39.964 16.415 40.4322 16.4233C40.9004 16.4317 41.3658 16.4485 41.8298 16.4764C42.2938 16.5044 42.7368 16.5421 43.1729 16.5883C43.6089 16.6344 44.0254 16.6931 44.4209 16.7588C44.7946 16.8179 45.165 16.8963 45.5306 16.9936C45.8457 17.0694 46.1506 17.1825 46.439 17.3304C46.5671 17.3943 46.6786 17.4872 46.7647 17.6015C46.801 17.6541 46.8205 17.7165 46.8205 17.7804C46.8205 17.8443 46.801 17.9067 46.7647 17.9593C46.7123 18.0355 46.6453 18.1006 46.5676 18.1508C46.5019 18.1941 46.4432 18.2262 46.3957 18.2514C46.3482 18.2765 46.3104 18.2919 46.2839 18.3045L46.2462 18.3213L46.2797 18.2961L46.3747 18.2248C46.4236 18.1861 46.4703 18.1445 46.5145 18.1004C46.5726 18.0464 46.62 17.9819 46.6543 17.9104C46.6708 17.8745 46.6756 17.8344 46.6678 17.7957C46.66 17.757 46.6401 17.7218 46.6109 17.6951C46.5277 17.6202 46.4303 17.5627 46.3244 17.526C46.0381 17.4284 45.7434 17.3578 45.4439 17.315C45.1099 17.2619 44.7451 17.2228 44.3524 17.1836C43.9597 17.1445 43.5474 17.1221 43.1197 17.0956C42.6921 17.069 42.2463 17.0523 41.7948 17.0341C41.3434 17.0159 40.8836 17.0005 40.4294 16.9977C39.9752 16.995 39.5195 16.9977 39.0709 17.0103C38.6223 17.0229 38.1807 17.0495 37.7544 17.0844C37.3281 17.1193 36.9158 17.1543 36.5273 17.2018L36.2394 17.2381L35.9599 17.2773C35.7768 17.2996 35.6035 17.3332 35.4344 17.3597C35.2653 17.3863 35.1088 17.4226 34.9592 17.4576L34.846 17.4813L34.7398 17.5093C34.6713 17.5274 34.6 17.5442 34.5413 17.5652C34.4804 17.5833 34.4207 17.6053 34.3624 17.6309L34.2758 17.67H34.2646L34.245 17.6812L34.2087 17.7007C34.1165 17.7552 34.041 17.8209 34.0326 17.8796C34.0242 17.9383 34.0787 18.0012 34.1346 18.0431C34.1857 18.0797 34.2405 18.1106 34.2981 18.1354C34.3439 18.1608 34.391 18.1837 34.4393 18.2039Z" fill="#0F100E"/>
<path opacity="0.25" d="M33.3713 14.7768C33.3696 14.7722 33.3699 14.7671 33.372 14.7626C33.3741 14.7582 33.3779 14.7547 33.3825 14.7531C33.3871 14.7514 33.3922 14.7516 33.3967 14.7537C33.4011 14.7558 33.4046 14.7596 33.4063 14.7642C33.6564 15.238 34.8486 16.9864 38.664 16.5601C38.664 16.5601 31.9402 17.1192 34.5746 18.7516C34.5746 18.7516 33.1072 18.5196 33.1952 17.2827C33.2819 16.0878 33.5446 15.9913 33.3713 14.7768Z" fill="#0F100E"/>
<path opacity="0.25" d="M39.4026 19.3211C36.4061 19.3211 33.9785 18.7159 33.9785 17.9696C33.9785 17.2233 36.4061 16.6182 39.4026 16.6182C39.4026 16.6182 34.7011 18.7146 39.6402 19.2736L39.4026 19.3211Z" fill="#0F100E"/>
<path opacity="0.25" d="M41.4563 16.5957C44.4668 16.5957 46.9069 17.2009 46.9069 17.9472C46.9069 18.6935 44.4654 19.3 41.4563 19.3C41.4563 19.3 46.183 17.2037 41.2188 16.6446L41.4563 16.5957Z" fill="#0F100E"/>
<path opacity="0.5" d="M40.3613 19.3201C43.8864 19.3201 46.7441 18.7151 46.7441 17.9687C46.7441 17.2223 43.8864 16.6172 40.3613 16.6172C36.8362 16.6172 33.9785 17.2223 33.9785 17.9687C33.9785 18.7151 36.8362 19.3201 40.3613 19.3201Z" fill="#0F100E"/>
<path d="M50.7723 16.5472C50.7723 16.5472 49.404 13.629 48.8156 13.6654C48.2273 13.7017 48.1504 15.5871 48.1504 15.5871L50.7723 16.5472Z" fill="#675139"/>
<path d="M52.1362 16.8204L52.1768 16.893C52.8917 16.9331 53.6088 16.9083 54.3193 16.819C54.8479 16.7483 55.3681 16.6247 55.872 16.45C55.872 16.45 55.0083 18.1271 54.2704 18.914C53.5324 19.7008 53.211 19.923 53.211 19.923C53.211 19.923 53.3829 21.0313 53.4318 21.4254C53.4743 21.7239 53.5316 22.0201 53.6037 22.3129C53.9026 22.3446 54.1898 22.4461 54.4423 22.6092C54.6977 22.78 54.8885 23.0314 54.9845 23.3234L54.5163 23.2996C54.5163 23.2996 55.1802 23.8894 55.3046 24.3827C55.429 24.8761 55.3283 25.1221 55.3283 25.1221C55.3283 25.1221 54.5904 24.6776 54.3193 24.7517C54.3193 24.7517 54.8853 26.3282 54.5163 27.0675L53.8511 26.8215C53.8511 26.8215 54.146 27.5595 54.0244 27.8306L53.654 27.6908C53.654 27.6908 54.1711 28.405 53.9252 28.9962L53.6792 29.5874L52.965 28.9221C52.965 28.9221 53.0377 29.9563 52.719 30.4986C52.5653 30.7779 52.3744 31.035 52.1516 31.2631L51.5842 30.5475C51.2005 31.0687 50.7721 31.5555 50.304 32.0024C49.8882 32.3536 49.4524 32.6802 48.9987 32.9807C48.9987 32.9807 51.3382 33.4237 51.2893 33.6208L50.4507 34.089C50.4507 34.089 52.0775 34.6313 52.0775 35.4433L51.0685 35.4195C51.0685 35.4195 53.2348 36.9988 53.8511 38.1071C54.4674 39.2154 54.7861 40.3237 54.4423 40.8659C54.0985 41.4082 52.5947 40.5207 52.5947 40.5207C52.5947 40.5207 54.4423 44.7834 53.3577 44.9553C52.2732 45.1272 51.0922 43.478 51.0922 43.478C51.0922 43.478 51.2893 46.5807 50.4018 46.4828C50.1515 46.4589 49.9129 46.3655 49.7128 46.2131C49.5128 46.0608 49.3593 45.8555 49.2698 45.6205C49.2698 45.6205 49.0965 46.7037 48.9987 46.6799C48.9008 46.6561 48.7764 46.188 48.7764 46.188C48.7764 46.188 48.2831 48.1348 47.8163 48.0356C47.3495 47.9363 47.4473 46.951 47.4473 46.951C47.4473 46.951 46.7569 48.2089 46.1154 48.3053L45.4753 48.4045L45.4516 47.4933C45.4516 47.4933 44.9345 47.763 44.8352 47.763C44.736 47.763 41.9003 48.3305 40.2232 48.3305H38.8424C37.2729 48.3305 34.6202 47.763 34.5266 47.763C34.433 47.763 33.9494 47.4933 33.9494 47.4933L33.927 48.4045L33.3275 48.3053C32.7265 48.2075 32.0808 46.951 32.0808 46.951C32.0808 46.951 32.173 47.9363 31.7342 48.0356C31.2954 48.1348 30.8342 46.188 30.8342 46.188C30.8342 46.188 30.7182 46.6547 30.6259 46.6799C30.5337 46.7051 30.373 45.6205 30.373 45.6205C30.2939 45.849 30.1525 46.0508 29.9648 46.2031C29.7771 46.3555 29.5506 46.4524 29.3108 46.4828C28.4722 46.5807 28.6637 43.478 28.6637 43.478C28.6637 43.478 27.5568 45.1286 26.5408 44.9553C25.5247 44.782 27.2563 40.5207 27.2563 40.5207C27.2563 40.5207 25.8531 41.404 25.5317 40.8659C25.2103 40.3278 25.5065 39.2154 26.0907 38.1071C26.6749 36.9988 28.6986 35.4195 28.6986 35.4195L27.7525 35.4433C27.7525 34.6313 29.2744 34.089 29.2744 34.089L28.4904 33.6208C28.4443 33.4237 30.6371 32.9807 30.6371 32.9807C30.2104 32.6791 29.8021 32.3525 29.4142 32.0024C28.9726 31.5506 28.5709 31.0615 28.2137 30.5405L27.6826 31.2561C27.4723 31.0261 27.2936 30.769 27.1515 30.4916C26.8524 29.9493 26.9209 28.9151 26.9209 28.9151L26.2515 29.5804L26.0209 28.9892C25.7889 28.398 26.2752 27.6838 26.2752 27.6838L25.9286 27.8236C25.8126 27.5525 26.0907 26.8145 26.0907 26.8145L25.4674 27.0605C25.1208 26.3212 25.6519 24.7447 25.6519 24.7447C25.3975 24.6706 24.7043 25.1151 24.7043 25.1151C24.7043 25.1151 24.6135 24.8677 24.7281 24.3757C24.8427 23.8838 25.4674 23.2926 25.4674 23.2926L25.0286 23.3164C25.1157 23.0292 25.2943 22.7784 25.5373 22.6022C25.7701 22.4401 26.0395 22.3383 26.3213 22.3059C26.3213 22.3059 26.4359 21.8126 26.4821 21.4184C26.5282 21.0243 26.6903 19.916 26.6903 19.916C26.6903 19.916 26.3898 19.6952 25.698 18.907C25.0062 18.1187 24.1914 16.45 24.1914 16.45C24.6619 16.6243 25.1496 16.748 25.6463 16.819C26.1845 16.8956 26.7283 16.9255 27.2717 16.9084L27.3374 16.7407C27.3374 16.7407 29.1221 13.6967 30.4247 13.6073C31.7272 13.5179 33.0004 14.9057 33.0004 14.9057C33.0004 14.9057 33.5245 14.5283 35.0619 14.0839C35.8431 13.8589 38.0709 13.2006 40.2483 13.2607C42.3252 13.3152 44.3531 14.0769 45.0393 14.2823C46.4369 14.7016 46.3195 14.8064 46.3195 14.8064C46.3195 14.8064 47.6807 13.0958 49.0364 13.3669C50.2802 13.6157 51.8483 16.2865 52.1432 16.8204" fill="#6E543C"/>
<path d="M38.2644 29.5362C38.2644 29.5362 38.9478 31.6423 39.9653 31.6046C40.9827 31.5669 41.5907 29.4803 41.5907 29.4803C41.5907 29.4803 43.0721 26.14 39.7836 26.2141C36.4951 26.2882 38.2644 29.5362 38.2644 29.5362Z" fill="#B2773A"/>
<path d="M29.0316 46.2588L29.483 44.8514C29.483 44.8514 27.7948 42.8249 28.6668 38.9103C29.5389 34.9956 34.2698 33.0558 34.2698 33.0558C34.2698 33.0558 33.3656 32.1319 29.4243 31.9922L29.2972 32.0145C29.2972 32.0145 26.7913 32.5219 26.8444 32.7469L27.7416 33.2822C27.7416 33.2822 26.0002 33.9013 26.0002 34.8349L27.082 34.8069C27.082 34.8069 24.7606 36.6112 24.1009 37.8816C23.4413 39.152 23.0988 40.4071 23.4622 41.0276C23.8256 41.6481 25.4398 40.6335 25.4398 40.6335C25.4398 40.6335 23.4622 45.5041 24.6278 45.7026C25.7934 45.901 26.5733 45.0583 26.5733 45.0583C26.5733 45.0583 26.8444 47.56 27.7948 47.4468C28.0687 47.4121 28.3276 47.3014 28.542 47.1273C28.7563 46.9531 28.9177 46.7225 29.0079 46.4615L29.0316 46.2588Z" fill="#5E4525"/>
<path d="M50.6574 46.2592L50.1864 44.8518C50.1864 44.8518 51.9502 42.8253 51.0389 38.9107C50.1277 34.996 45.1914 33.0562 45.1914 33.0562C45.1914 33.0562 46.1278 32.1421 50.2423 32.001L50.3821 32.015C50.3821 32.015 52.9984 32.5223 52.9438 32.7473L52.0075 33.2826C52.0075 33.2826 53.8243 33.9017 53.8243 34.8311L52.6951 34.8031C52.6951 34.8031 55.1185 36.6074 55.8075 37.8778C56.4965 39.1483 56.8529 40.4117 56.4672 41.0322C56.0814 41.6527 54.4029 40.6381 54.4029 40.6381C54.4029 40.6381 56.4672 45.5087 55.2555 45.7072C54.0438 45.9056 52.9257 45.0014 52.9257 45.0014C52.9257 45.0014 52.9438 47.5646 51.9474 47.4513C51.6652 47.4217 51.3969 47.3138 51.1729 47.1396C50.9489 46.9655 50.7781 46.7322 50.6797 46.466L50.6574 46.2592Z" fill="#5E4525"/>
<path d="M40.0696 39.4608C38.7041 39.4608 37.5944 38.8039 37.5273 37.9766C37.5273 38.0045 37.5273 38.0339 37.5273 38.0618C37.5273 39.0178 38.6692 39.792 40.0766 39.792C41.4839 39.792 42.6272 39.0178 42.6272 38.0618C42.6272 38.0339 42.6272 38.0045 42.6272 37.9766C42.5461 38.8039 41.435 39.4608 40.0696 39.4608Z" fill="#583F25"/>
<path d="M36.8924 36.884C35.6849 36.884 34.7038 36.3013 34.6437 35.5703C34.6422 35.5959 34.6422 35.6216 34.6437 35.6472C34.6437 36.4857 35.6527 37.1761 36.898 37.1761C38.1432 37.1761 39.1509 36.4913 39.1509 35.6472C39.1523 35.6216 39.1523 35.5959 39.1509 35.5703C39.081 36.3013 38.0985 36.884 36.8924 36.884Z" fill="#583F25"/>
<path d="M33.748 39.6936C32.5643 39.9004 31.4756 39.4951 31.2617 38.7879C31.2617 38.8131 31.2617 38.8382 31.2729 38.8634C31.4532 39.6922 32.588 40.1925 33.8109 39.9815C35.0338 39.7704 35.878 38.9263 35.6991 38.0975C35.6991 38.0724 35.6837 38.0472 35.6767 38.0234C35.7745 38.7488 34.9332 39.4895 33.748 39.6936Z" fill="#583F25"/>
<path d="M43.1697 36.8159C41.9677 36.7222 41.0453 36.0667 41.0565 35.333C41.0565 35.3582 41.0467 35.3833 41.0439 35.4085C40.9629 36.247 41.9021 37.0101 43.1403 37.1066C44.3786 37.203 45.4519 36.6006 45.533 35.7593C45.5344 35.7337 45.5344 35.708 45.533 35.6824C45.4058 36.4064 44.3758 36.9095 43.1697 36.8159Z" fill="#583F25"/>
<path d="M46.1899 39.8149C44.988 39.7212 44.0656 39.0644 44.0782 38.332C44.0782 38.3572 44.0684 38.3809 44.0656 38.4075C43.9831 39.2461 44.9223 40.0091 46.162 40.1056C47.4016 40.202 48.4736 39.5996 48.556 38.7569C48.5575 38.7313 48.5575 38.7056 48.556 38.68C48.4275 39.4054 47.3919 39.9085 46.1899 39.8149Z" fill="#583F25"/>
<path d="M43.4657 42.7233C42.2595 42.6939 41.2966 42.0874 41.2603 41.3564C41.2555 41.3814 41.2523 41.4066 41.2505 41.4319C41.2253 42.2705 42.212 42.9846 43.4573 43.0154C44.7025 43.0461 45.7311 42.3893 45.7577 41.5451C45.7577 41.5172 45.7577 41.4934 45.7577 41.4683C45.6725 42.1964 44.6718 42.754 43.4657 42.7233Z" fill="#583F25"/>
<path d="M39.9351 45.4328C38.7304 45.4845 37.7185 44.945 37.6207 44.2169C37.6186 44.2424 37.6186 44.2681 37.6207 44.2937C37.664 45.1323 38.7094 45.778 39.9533 45.7249C41.1971 45.6718 42.1671 44.9464 42.1224 44.1009C42.1224 44.0757 42.1224 44.0505 42.114 44.0254C42.0916 44.7577 41.1412 45.3824 39.9351 45.4328Z" fill="#583F25"/>
<path d="M36.8656 42.629C35.6721 42.7897 34.6043 42.3495 34.4254 41.6269C34.4233 41.6525 34.4233 41.6782 34.4254 41.7038C34.5652 42.5423 35.6749 43.0818 36.9062 42.9197C38.1374 42.7576 39.0235 41.9414 38.8837 41.1028C38.8837 41.0777 38.8712 41.0525 38.8656 41.0273C38.9341 41.7667 38.0592 42.4725 36.8656 42.629Z" fill="#583F25"/>
<path d="M38.695 47.4131C38.3973 47.4131 38.136 47.6423 37.9808 47.9945C37.8257 47.6423 37.5616 47.4131 37.2667 47.4131C36.9718 47.4131 36.7076 47.6423 36.5511 47.9945C36.3974 47.6423 36.1318 47.4131 35.8383 47.4131C35.3603 47.4131 34.9746 48.0029 34.9746 48.7338C34.9746 49.4648 35.3603 50.0545 35.8383 50.0545C36.1346 50.0545 36.3974 49.8253 36.5511 49.4731C36.7076 49.8253 36.9704 50.0545 37.2667 50.0545C37.5629 50.0545 37.8257 49.8253 37.9808 49.4731C38.136 49.8253 38.4001 50.0545 38.695 50.0545C39.1716 50.0545 39.5573 49.4634 39.5573 48.7338C39.5573 48.0043 39.1772 47.4131 38.695 47.4131Z" fill="#B2773A"/>
<path d="M43.885 47.4131C43.5887 47.4131 43.326 47.6423 43.1708 47.9945C43.0157 47.6423 42.7516 47.4131 42.4567 47.4131C42.1618 47.4131 41.8976 47.6423 41.7425 47.9945C41.5874 47.6423 41.3232 47.4131 41.0283 47.4131C40.5518 47.4131 40.166 48.0029 40.166 48.7338C40.166 49.4648 40.5518 50.0545 41.0283 50.0545C41.3246 50.0545 41.5874 49.8253 41.7425 49.4731C41.8976 49.8253 42.1618 50.0545 42.4567 50.0545C42.7516 50.0545 43.0157 49.8253 43.1708 49.4731C43.326 49.8253 43.5901 50.0545 43.885 50.0545C44.3616 50.0545 44.7473 49.4634 44.7473 48.7338C44.7473 48.0043 44.3616 47.4131 43.885 47.4131Z" fill="#B2773A"/>
<path d="M27.99 21.1681C27.99 21.1681 27.8502 20.4832 27.1975 20.37C26.5449 20.2568 23.7944 16.1507 24.1913 16.4568C24.5882 16.7629 27.7747 16.9683 27.7747 16.9683C27.7747 16.9683 27.8488 16.9962 33.3358 17.4924C38.7752 17.9857 39.7982 21.9507 39.7982 21.9507L39.8709 21.8403C39.8709 21.8403 40.9065 17.7747 46.4843 17.4421C52.0621 17.1095 52.1767 16.925 52.1767 16.925C52.1767 16.925 55.5756 16.7028 55.9809 16.4079C56.3862 16.113 53.4317 20.1814 52.7665 20.2876C52.1012 20.3938 51.7169 21.2379 51.7169 21.2379L39.7591 25.1512L28.1004 21.1191" fill="#674F36"/>
<path d="M39.9097 24.9879C39.9097 28.7964 36.9971 31.8822 33.4053 31.8822C29.8135 31.8822 26.9023 28.7964 26.9023 24.9879C26.9023 21.1795 29.8149 18.0908 33.4053 18.0908C36.9957 18.0908 39.9097 21.1781 39.9097 24.9879Z" fill="#B18D6D"/>
<path d="M39.245 24.6691C39.245 27.101 37.2185 29.0716 34.7182 29.0716C32.2179 29.0716 30.1914 27.101 30.1914 24.6691C30.1914 22.2373 32.2179 20.2695 34.7182 20.2695C37.2185 20.2695 39.245 22.2401 39.245 24.6691Z" fill="white"/>
<path d="M38.7432 24.6891C38.7432 26.5996 37.1513 28.1467 35.1877 28.1467C33.2241 28.1467 31.6309 26.5996 31.6309 24.6891C31.6309 22.7786 33.2241 21.2314 35.1877 21.2314C37.1513 21.2314 38.7432 22.78 38.7432 24.6891Z" fill="#674F36"/>
<path d="M34.4409 23.2913C34.4412 23.4047 34.4079 23.5157 34.3451 23.6101C34.2823 23.7045 34.1929 23.7781 34.0882 23.8217C33.9835 23.8653 33.8682 23.8769 33.757 23.8549C33.6458 23.833 33.5435 23.7785 33.4632 23.6984C33.383 23.6183 33.3283 23.5162 33.306 23.405C33.2838 23.2939 33.2951 23.1786 33.3384 23.0738C33.3817 22.969 33.4552 22.8794 33.5494 22.8164C33.6437 22.7534 33.7545 22.7197 33.8679 22.7197C34.0197 22.7197 34.1652 22.7799 34.2726 22.8871C34.38 22.9942 34.4406 23.1396 34.4409 23.2913Z" fill="white"/>
<path d="M39.7227 24.9879C39.7227 28.7964 42.6352 31.8822 46.227 31.8822C49.8189 31.8822 52.73 28.7964 52.73 24.9879C52.73 21.1795 49.8189 18.0908 46.227 18.0908C42.6352 18.0908 39.7227 21.1781 39.7227 24.9879Z" fill="#B18D6D"/>
<path d="M40.3887 24.6691C40.3887 27.101 42.4166 29.0716 44.9155 29.0716C47.4144 29.0716 49.4423 27.101 49.4423 24.6691C49.4423 22.2373 47.4158 20.2695 44.9155 20.2695C42.4152 20.2695 40.3887 22.2401 40.3887 24.6691Z" fill="white"/>
<path d="M40.8887 24.6891C40.8887 26.5996 42.4805 28.1467 44.4441 28.1467C46.4078 28.1467 48.001 26.5996 48.001 24.6891C48.001 22.7786 46.4092 21.2314 44.4441 21.2314C42.4791 21.2314 40.8887 22.78 40.8887 24.6891Z" fill="#674F36"/>
<path d="M45.1914 23.2913C45.1911 23.4047 45.2245 23.5157 45.2873 23.6101C45.3501 23.7045 45.4395 23.7781 45.5442 23.8217C45.6488 23.8653 45.7641 23.8769 45.8754 23.8549C45.9866 23.833 46.0888 23.7785 46.1691 23.6984C46.2494 23.6183 46.3041 23.5162 46.3263 23.405C46.3485 23.2939 46.3373 23.1786 46.2939 23.0738C46.2506 22.969 46.1772 22.8794 46.0829 22.8164C45.9887 22.7534 45.8778 22.7197 45.7644 22.7197C45.6127 22.7197 45.4672 22.7799 45.3597 22.8871C45.2523 22.9942 45.1918 23.1396 45.1914 23.2913Z" fill="white"/>
<path d="M51.3867 16.626L51.4272 16.6987L51.3867 16.626Z" fill="#6E543C"/>
<path d="M49.916 10.4038C49.916 10.4038 53.4771 9.47722 51.7329 15.2856L51.3709 15.1291C51.3709 15.1291 52.6805 10.8804 50.5673 10.8091" fill="#DA9633"/>
<path d="M49.916 10.4034C50.0788 10.3511 50.2464 10.3155 50.4164 10.2972C50.5649 10.2834 50.7145 10.2872 50.8622 10.3083C51.0135 10.3278 51.1613 10.3687 51.301 10.4299C51.5776 10.5517 51.8117 10.7531 51.9733 11.0085C52.05 11.1289 52.1133 11.2573 52.1619 11.3915C52.2512 11.6501 52.2984 11.9215 52.3017 12.1951C52.3051 12.461 52.2887 12.7268 52.2528 12.9903C52.222 13.2503 52.1815 13.5102 52.1382 13.7688C52.0473 14.2859 51.9481 14.8016 51.8223 15.3061L51.7986 15.4054L51.6854 15.362L51.322 15.2223L51.2339 15.1873L51.2577 15.0993C51.308 14.905 51.3555 14.708 51.3975 14.5109C51.4394 14.3138 51.4771 14.114 51.5079 13.9155C51.5386 13.7171 51.568 13.5172 51.5889 13.3173C51.6099 13.1175 51.6281 12.9176 51.6337 12.7178C51.6604 12.3203 51.613 11.9212 51.4939 11.541C51.4286 11.3509 51.3132 11.1819 51.1599 11.0519C51.0768 10.9834 50.9821 10.9304 50.8804 10.8953C50.7769 10.8579 50.6695 10.8326 50.5603 10.8199L50.5393 10.7891C50.6621 10.7862 50.7847 10.7994 50.9041 10.8282C51.0191 10.8567 51.1287 10.9039 51.2284 10.968C51.3256 11.0326 51.4127 11.1112 51.4869 11.2014C51.5565 11.2875 51.6161 11.3813 51.6644 11.4809C51.7542 11.6774 51.8167 11.8852 51.8503 12.0986C51.8825 12.3063 51.8988 12.5161 51.8992 12.7262C51.9002 12.9339 51.8899 13.1415 51.8685 13.3481C51.8447 13.5535 51.8167 13.7576 51.7762 13.9602C51.7357 14.1629 51.6938 14.3627 51.6434 14.5626C51.5931 14.7625 51.5372 14.9595 51.4729 15.158L51.41 15.0336L51.7622 15.1999L51.6225 15.2544C51.7091 15.0084 51.793 14.7611 51.8671 14.5109C51.902 14.3851 51.9397 14.2607 51.9691 14.1321C51.9984 14.0036 52.0264 13.8792 52.0501 13.7506C52.0739 13.622 52.0907 13.4934 52.1074 13.3635C52.1242 13.2335 52.1312 13.1049 52.1354 12.9749C52.1438 12.7153 52.1312 12.4555 52.0977 12.1979C52.0809 12.0693 52.0585 11.9435 52.032 11.8177C52.0043 11.6933 51.9693 11.5705 51.9271 11.4502C51.8849 11.3295 51.8306 11.2134 51.765 11.1036C51.6987 10.9943 51.6189 10.8938 51.5274 10.8045C51.4324 10.714 51.3251 10.6374 51.2088 10.5767C51.0875 10.5142 50.9588 10.4673 50.8258 10.4369C50.6883 10.4045 50.5478 10.3858 50.4066 10.381C50.2665 10.3759 50.1263 10.3824 49.9873 10.4006L49.916 10.4034Z" fill="#996633"/>
<path d="M50.9864 15.7461C50.2736 17.7349 48.9277 19.8816 48.9277 19.8816L49.681 19.2415L49.6112 19.4833L49.5413 19.7879L49.4504 20.3232L50.0179 19.6104L49.9927 20.2491C49.9927 20.2491 50.486 19.4455 50.5322 19.3113L50.3924 20.2477C50.3924 20.2477 51.3274 19.4273 51.8948 15.8635" fill="#B87A32"/>
<path d="M49.3063 20.6395L49.4545 19.7716L49.5201 19.4921L48.5586 20.2999L48.8493 19.8373C48.8633 19.815 50.1994 17.6752 50.9038 15.7158L51.0701 15.7703C50.553 17.2084 49.699 18.7416 49.2686 19.4767L49.8444 18.9876L49.6962 19.5033L49.6264 19.8038L49.5928 20.0008L50.1155 19.3454L50.0931 19.9044C50.2581 19.6249 50.4244 19.3454 50.4481 19.2741L50.6172 19.3132L50.5306 19.9324C50.8311 19.4865 51.4167 18.3433 51.815 15.8388L51.9883 15.8668C51.4292 19.4166 50.4998 20.2594 50.4607 20.2943L50.279 20.4523L50.3769 19.7674C50.2371 19.9966 50.0973 20.2342 50.0694 20.279L49.8919 20.5794L49.9198 19.8723L49.3063 20.6395Z" fill="#996633"/>
<path d="M50.8457 15.8697C50.8457 15.8697 51.0875 14.8257 51.701 15.1052C52.2223 15.3456 51.8659 16.2358 51.8659 16.2358C51.8659 16.2358 51.0581 16.0905 50.8457 15.8697Z" fill="#DA9633"/>
<path d="M50.8301 15.8668C50.8211 15.8113 50.8183 15.7551 50.8217 15.6991C50.8229 15.6432 50.8289 15.5875 50.8399 15.5327C50.8613 15.4193 50.9014 15.3102 50.9587 15.2099C50.991 15.1542 51.0305 15.103 51.0761 15.0576C51.1287 15.0046 51.1908 14.9619 51.2592 14.9318C51.3387 14.8986 51.4248 14.8843 51.5107 14.8899C51.5925 14.8956 51.6723 14.9174 51.7455 14.9541L51.7693 14.9667H51.7819H51.7889H51.7972L51.8168 14.9779L51.8378 14.9919L51.8909 15.031L51.9328 15.0715C51.9827 15.1234 52.02 15.186 52.0418 15.2546C52.0733 15.3708 52.0781 15.4927 52.0558 15.611C52.039 15.72 52.0223 15.8248 52.0111 15.9311C52.0041 15.9842 52.0013 16.0387 51.9985 16.0932C51.9957 16.1477 51.9985 16.2036 51.9845 16.2623L51.9733 16.3322H51.8462C51.7996 16.3349 51.7529 16.3349 51.7064 16.3322C51.6594 16.3275 51.6127 16.32 51.5666 16.3098C51.4743 16.287 51.3836 16.2576 51.2955 16.2218C51.2057 16.1839 51.1201 16.1371 51.0397 16.082C50.9988 16.0538 50.9604 16.022 50.9251 15.987C50.8891 15.9529 50.8601 15.912 50.8399 15.8668H50.8301ZM50.872 15.8668C50.9112 15.8807 50.9489 15.8933 50.988 15.9031C51.0272 15.9129 51.0747 15.9227 51.118 15.9311L51.3752 15.9828C51.4618 16.0009 51.5485 16.0191 51.6337 16.0401C51.7199 16.0633 51.8044 16.0922 51.8867 16.1267L51.7469 16.1966C51.7775 16.1558 51.805 16.1128 51.8294 16.068C51.8561 16.024 51.8776 15.9771 51.8937 15.9283C51.9229 15.8308 51.9287 15.7279 51.9104 15.6278C51.8933 15.5332 51.853 15.4444 51.793 15.3692C51.7682 15.3391 51.7396 15.3123 51.7078 15.2896L51.6938 15.2686L51.6756 15.2588H51.6617L51.6421 15.2504H51.6323H51.6407H51.6253C51.5929 15.2397 51.5587 15.2359 51.5247 15.2392C51.4969 15.2412 51.4696 15.2474 51.4436 15.2574C51.3726 15.2918 51.3086 15.3392 51.255 15.3972C51.188 15.4693 51.1255 15.5453 51.0677 15.625L50.9741 15.7522L50.872 15.8668Z" fill="#996633"/>
<path d="M51.4375 14.8906C51.4585 14.8523 51.4828 14.8158 51.5102 14.7816C51.5663 14.7115 51.628 14.6461 51.6947 14.586C51.7673 14.5217 51.8414 14.4616 51.9001 14.4155C51.9281 14.3931 51.9532 14.3735 51.97 14.3568L51.9993 14.333C51.9993 14.333 51.9993 14.347 51.9993 14.3693C52.0013 14.3837 52.0013 14.3983 51.9993 14.4127C51.9965 14.4303 51.9918 14.4477 51.9854 14.4644C51.9691 14.5066 51.9475 14.5465 51.9211 14.5832C51.8904 14.6242 51.8557 14.6621 51.8176 14.6964C51.7466 14.762 51.6642 14.8141 51.5745 14.8501C51.5306 14.8691 51.4846 14.8827 51.4375 14.8906Z" fill="#996633"/>
<path d="M51.5605 14.1637C51.5812 14.126 51.6056 14.0904 51.6332 14.0574C51.6891 13.9863 51.7513 13.9203 51.8191 13.8604C51.8904 13.7961 51.9589 13.736 52.0231 13.6913C52.0511 13.6675 52.0777 13.648 52.0944 13.6326L52.1224 13.6074C52.1235 13.62 52.1235 13.6326 52.1224 13.6452C52.1242 13.6591 52.1242 13.6732 52.1224 13.6871C52.1202 13.7049 52.1155 13.7223 52.1084 13.7388C52.0919 13.7808 52.0703 13.8207 52.0441 13.8576C52.0147 13.8992 51.9805 13.9372 51.9421 13.9708C51.8703 14.0354 51.7881 14.0874 51.6989 14.1245C51.6547 14.1436 51.6082 14.1568 51.5605 14.1637Z" fill="#996633"/>
<path d="M51.668 13.3662C51.6887 13.328 51.7126 13.2916 51.7392 13.2572C51.7963 13.1875 51.8584 13.1221 51.9251 13.0616C51.9978 12.9973 52.0719 12.9372 52.1306 12.8924C52.1585 12.8687 52.1851 12.8491 52.2005 12.8338L52.2298 12.8086C52.2298 12.8086 52.2298 12.8226 52.2298 12.8463C52.2317 12.8602 52.2317 12.8743 52.2298 12.8883C52.2263 12.9064 52.2211 12.9241 52.2144 12.9414C52.1993 12.9833 52.1781 13.0229 52.1515 13.0588C52.1218 13.1001 52.0875 13.1381 52.0495 13.172C51.9772 13.237 51.8946 13.2894 51.8049 13.3271C51.761 13.3455 51.715 13.3586 51.668 13.3662Z" fill="#996633"/>
<path d="M51.8135 12.5737L51.7129 12.4479C51.8135 12.3822 52.0902 12.1684 52.1503 11.9951L52.2901 12.0636C52.2027 12.2886 52.032 12.4712 51.8135 12.5737Z" fill="#996633"/>
<path d="M51.7364 11.8597L51.6777 11.7199C51.8176 11.6728 51.9331 11.5724 51.9992 11.4404L52.1599 11.4907C52.1187 11.5782 52.0598 11.6561 51.9869 11.7196C51.914 11.7832 51.8287 11.8308 51.7364 11.8597Z" fill="#996633"/>
<path d="M51.4139 11.3137L51.3301 11.2201C51.4251 11.1502 51.6851 10.9406 51.734 10.791L51.8402 10.8497C51.7661 11.058 51.4237 11.3025 51.4139 11.3137Z" fill="#996633"/>
<path d="M51.1646 10.9572L51.0332 10.8594C51.1044 10.74 51.1402 10.6028 51.1366 10.4639H51.3043C51.3095 10.6388 51.2607 10.811 51.1646 10.9572Z" fill="#996633"/>
<path d="M50.6689 10.8337C50.629 10.669 50.5488 10.5167 50.4355 10.3907L50.5571 10.29C50.6934 10.4359 50.7896 10.6145 50.8367 10.8085L50.6689 10.8337Z" fill="#996633"/>
<path d="M51.4255 16.1166L51.3668 16.2438C51.3305 16.3248 51.276 16.4394 51.2089 16.5764C51.1418 16.7133 51.0691 16.8727 50.9797 17.0432C50.8902 17.2137 50.798 17.3926 50.7002 17.5729C50.6498 17.6623 50.6009 17.7518 50.5534 17.8398C50.5059 17.9279 50.457 18.0145 50.4136 18.097L50.1467 18.5456C49.979 18.8013 49.8672 18.9649 49.8672 18.9649C49.8672 18.9649 49.9594 18.7846 50.0992 18.5162L50.313 18.0452C50.3508 17.96 50.3871 17.8692 50.4262 17.7783C50.4654 17.6875 50.5031 17.5938 50.5422 17.4988C50.6135 17.3115 50.689 17.1256 50.7547 16.9495C50.8203 16.7734 50.8804 16.6085 50.9294 16.466C50.9783 16.3234 51.0202 16.206 51.0468 16.1222L51.0901 15.9922L51.4255 16.1166Z" fill="#996633"/>
<path d="M51.6937 16.2617L51.6616 16.3581C51.642 16.4196 51.6112 16.5063 51.5735 16.6083C51.5358 16.7103 51.4882 16.8305 51.4337 16.9577C51.3792 17.0849 51.3331 17.2246 51.2744 17.3504C51.2427 17.4156 51.212 17.4813 51.1822 17.5475C51.1514 17.6132 51.1193 17.6761 51.0885 17.7361C51.0229 17.8577 50.9683 17.9723 50.9124 18.066L50.7266 18.3818C50.7266 18.3818 50.7867 18.2421 50.8663 18.0506C50.9124 17.9528 50.953 17.8312 51.0061 17.7068C51.0298 17.6425 51.0564 17.5782 51.0774 17.5097C51.0983 17.4413 51.1235 17.37 51.1458 17.3071C51.1934 17.1673 51.2283 17.0276 51.2688 16.9032C51.3094 16.7788 51.3359 16.6516 51.3611 16.5482C51.3862 16.4448 51.4058 16.3567 51.4184 16.2966C51.4309 16.2365 51.4393 16.2002 51.4393 16.2002L51.6937 16.2617Z" fill="#996633"/>
<defs>
<filter id="filter0_d_1709_12063" x="0" y="0" width="188" height="69" filterUnits="userSpaceOnUse" color-interpolation-filters="sRGB">
<feFlood flood-opacity="0" result="BackgroundImageFix"/>
<feColorMatrix in="SourceAlpha" type="matrix" values="0 0 0 0 0 0 0 0 0 0 0 0 0 0 0 0 0 0 127 0" result="hardAlpha"/>
<feOffset dy="4"/>
<feGaussianBlur stdDeviation="2"/>
<feComposite in2="hardAlpha" operator="out"/>
<feColorMatrix type="matrix" values="0 0 0 0 0 0 0 0 0 0 0 0 0 0 0 0 0 0 0.15 0"/>
<feBlend mode="normal" in2="BackgroundImageFix" result="effect1_dropShadow_1709_12063"/>
<feBlend mode="normal" in="SourceGraphic" in2="effect1_dropShadow_1709_12063" result="shape"/>
</filter>
</defs>
</svg>
