<svg width="70" height="70" viewBox="0 0 70 70" fill="none" xmlns="http://www.w3.org/2000/svg">
<g clip-path="url(#clip0_410_1260)">
<path d="M35 70C54.33 70 70 54.33 70 35C70 15.67 54.33 0 35 0C15.67 0 0 15.67 0 35C0 54.33 15.67 70 35 70Z" fill="#339B96"/>
<path d="M42.6365 43.2711L41.3638 42.6348H28.6365L27.3638 43.2711L35.0001 55.3639L42.6365 43.2711Z" fill="#E2E4E5"/>
<path d="M44.5454 28.6362C43.9091 28.6362 43.9091 29.3432 43.9091 29.3432V28.6362C43.9101 27.9864 43.8959 27.3367 43.8664 26.6876C41.2942 24.1823 35 24.1816 35 24.1816C35 24.1816 28.7057 24.1823 26.1335 26.6876C26.104 27.3367 26.0898 27.9864 26.0909 28.6362V33.7252L28.6363 40.0888L31.885 42.6317C32.0641 42.8327 32.2837 42.9936 32.5293 43.1037C32.775 43.2138 33.0412 43.2707 33.3104 43.2706H36.6895C37.2342 43.2706 37.7529 43.0384 38.115 42.6317L41.3636 40.0888L43.4044 34.9871C45.2085 34.8573 45.8181 32.1209 45.8181 30.0502C45.8181 29.3432 45.1818 28.6362 44.5454 28.6362Z" fill="#F8E1C2"/>
<path d="M26.0907 28.6362V29.3432C26.0907 29.3432 26.0907 28.6362 25.4544 28.6362C24.818 28.6362 24.1816 29.3432 24.1816 30.0502C24.1816 32.1203 24.7913 34.8573 26.5954 34.9871L28.6362 40.0888L31.8848 42.6317C32.0639 42.8327 32.2835 42.9936 32.5292 43.1037C32.7749 43.2138 33.0411 43.2707 33.3103 43.2706H34.9998V24.1816C34.9998 24.1816 28.7056 24.1823 26.1334 26.6876C26.1039 27.3367 26.0897 27.9864 26.0907 28.6362Z" fill="#FCF1E2"/>
<path d="M31.8184 36.2705H38.182C38.182 36.2705 38.182 38.1796 35.0002 38.1796C31.8184 38.1796 31.8184 36.2705 31.8184 36.2705Z" fill="#F79392"/>
<path d="M38.8184 30.1142C39.5763 30.1142 40.249 30.2835 40.7154 30.5457C40.7606 30.1836 40.606 29.8113 40.2394 29.5339C39.584 29.0369 38.52 29.0369 37.8639 29.5339C37.5686 29.7579 37.4127 30.0436 37.3847 30.3357C37.8475 30.1848 38.3317 30.11 38.8184 30.1142ZM31.1776 30.1142C30.4197 30.1142 29.747 30.2835 29.2806 30.5457C29.2354 30.1836 29.39 29.8113 29.7566 29.5339C30.412 29.0369 31.476 29.0369 32.1321 29.5339C32.4274 29.7579 32.5833 30.0436 32.6113 30.3357C32.1485 30.1848 31.6643 30.11 31.1776 30.1142Z" fill="#3E3E3F"/>
<path d="M36.6894 43.2707H33.3103C33.0411 43.2708 32.7749 43.2139 32.5292 43.1038C32.2836 42.9936 32.064 42.8328 31.8849 42.6318L28.6362 40.0889V42.9525C28.6362 42.9525 28.6362 47.7252 34.9999 47.7252C41.3635 47.7252 41.3635 42.9525 41.3635 42.9525V40.0889L38.1149 42.6318C37.9358 42.8328 37.7162 42.9936 37.4705 43.1038C37.2248 43.2139 36.9586 43.2708 36.6894 43.2707Z" fill="#F4D0A1"/>
<path d="M34.9999 24.1816C34.9999 24.1816 34.5175 24.1816 33.7666 24.2345V27.814C36.1333 27.814 37.567 26.106 38.3955 24.4833C36.5335 24.1823 34.9999 24.1816 34.9999 24.1816ZM29.2211 25.0293C28.0139 25.4047 26.8723 25.9456 26.0908 26.7271C26.0908 28.9811 27.5691 30.068 27.5691 30.068C27.382 28.1869 27.3718 26.9613 29.2211 25.0293ZM29.8231 24.8575V27.8146C31.6463 27.8146 33.0997 25.2348 33.5891 24.2485C32.5932 24.3255 31.1989 24.4935 29.8231 24.8575ZM42.2188 25.5848V30.068C43.8021 30.068 43.9026 27.1019 43.9084 26.7271C43.4495 26.2676 42.866 25.8928 42.2188 25.5848ZM39.4016 24.6723V27.8146C41.536 27.8146 42.1539 25.7967 42.2131 25.5823C41.3432 25.1686 40.3587 24.8772 39.4016 24.6723Z" fill="#3E3E3F"/>
<path d="M31.8849 42.6318L28.6362 40.0889V42.9525C28.6362 42.9525 28.6362 47.7252 34.9999 47.7252V43.2707H33.3103C33.0411 43.2708 32.7749 43.2139 32.5292 43.1038C32.2836 42.9936 32.064 42.8328 31.8849 42.6318Z" fill="#F8E1C2"/>
<path d="M21.9487 34.0103V21.5248C21.5235 21.3731 21.0992 21.2187 20.676 21.0615V34.0103C19.015 35.1048 20.0396 38.3693 20.0396 40.0907H22.585C22.585 38.3693 23.6102 35.1048 21.9487 34.0103Z" fill="#FA5655"/>
<path d="M52.182 19.7276C52.182 19.0913 36.2729 14.6367 35.0002 14.6367C33.7275 14.6367 17.8184 19.0913 17.8184 19.7276C17.8184 20.1254 22.5478 21.7684 26.0911 22.9432V26.7276C28.6365 24.1822 35.0002 24.1822 35.0002 24.1822C35.0002 24.1822 41.3638 24.1822 43.9093 26.7276V22.9432C47.4525 21.7684 52.182 20.1254 52.182 19.7276Z" fill="#3E3E3F"/>
<path d="M42.6143 43.3106L42.6366 43.2731L41.3639 42.6367L35.0098 45.8064L38.6962 49.5139L42.6143 43.3106Z" fill="white"/>
<path d="M37.5455 55.3632L35.7643 48.8723L36.9091 47.7281L34.988 45.8037L33.0801 47.7115L34.237 48.8678L32.4546 55.3632H37.5455Z" fill="#DF2C2C"/>
<path d="M35 55.3632V45.8158L34.988 45.8037L33.0801 47.7115L34.237 48.8678L32.4546 55.3632H35Z" fill="#FA5655"/>
<path d="M27.386 43.3106L27.3638 43.2731L28.6365 42.6367L34.9906 45.8064L31.3041 49.5139L27.386 43.3106Z" fill="white"/>
<path d="M14.6362 55.3634L17.1817 48.3634C17.5733 47.5151 18.2622 46.8397 19.1181 46.4651L27.3635 43.2725L34.9999 55.3634H14.6362ZM55.3635 55.3634L52.818 48.3634C52.4265 47.5151 51.7375 46.8397 50.8816 46.4651L42.6362 43.2725L34.9999 55.3634H55.3635Z" fill="#3E3E3F"/>
<path d="M34.9999 55.3634L27.3635 43.2725L21.6362 45.1816L32.4544 55.3634H34.9999ZM34.9999 55.3634L42.6362 43.2725L48.3635 45.1816L37.5453 55.3634H34.9999Z" fill="#9E9FA0"/>
</g>
<defs>
<clipPath id="clip0_410_1260">
<rect width="70" height="70" fill="white"/>
</clipPath>
</defs>
</svg>
