<svg width="70" height="70" viewBox="0 0 70 70" fill="none" xmlns="http://www.w3.org/2000/svg">
<path d="M35 70C54.33 70 70 54.33 70 35C70 15.67 54.33 0 35 0C15.67 0 0 15.67 0 35C0 54.33 15.67 70 35 70Z" fill="#339B96"/>
<rect x="18.9048" y="18" width="38.0952" height="26.6667" rx="1" fill="white"/>
<path d="M51.9746 37.8965H45.8281V40.1813H51.9746V37.8965Z" fill="#339B96"/>
<path d="M20.564 19.9062V23.499L22.1334 23.0147V21.4745H53.5226V41.4845H28.5439L28.4624 43.0551H55.0933V19.9062H20.564Z" fill="#339B96"/>
<path d="M27.5635 28.4996C27.5635 30.9849 25.5488 32.9996 23.0635 32.9996C20.5783 32.9996 18.5636 30.9849 18.5636 28.4996C18.5636 26.0143 20.5783 23.9996 23.0635 23.9996C25.5488 23.9996 27.5635 26.0143 27.5635 28.4996Z" fill="white" stroke="#339B96" stroke-width="0.3"/>
<path d="M26.8617 54.7518V54.9018H27.0117H27.3119L29.0443 55.2791V56.7285H27.6176L25.7768 56.4263L25.612 56.3993L25.6027 56.566L25.5936 56.7285H23.8305V54.9611V54.7543V46.4775V46.3275H23.6805H22.5114H22.3614V46.4775V54.7543V54.9611V56.7285H20.6014L20.5916 56.5654L20.5816 56.3994L20.4176 56.4263L18.5755 56.7285H17.15V55.2792L18.8812 54.9043H19.1851H19.3351V54.7543V46.4775V45.6964V44.638V44.488H19.1851H19.0846L19.0064 42.8957L18.9994 42.753H18.8566H17.4135L17.6453 34.6749L21.2103 34.0088L22.8682 35.9974L22.9815 36.1333L23.097 35.9993L24.8248 33.9952H27.3718H27.4084L27.4408 33.9784L31.1059 32.0792L34.6379 30.2491L34.9849 30.9189L35.0632 31.0698L35.2032 30.9734L35.9638 30.4496L36.0341 30.7505L35.3053 31.2545L35.1966 31.3297L35.2575 31.447L35.5533 32.017L27.6678 36.1027L27.5914 36.1423L27.587 36.2282L27.1624 44.4867H27.0117H26.8617V44.6367V45.6952V46.4763V54.7518Z" fill="white" stroke="#339B96" stroke-width="0.3"/>
<path d="M39.7788 28.2305H35.4931C35.3037 28.2305 35.122 28.3057 34.988 28.4397C34.8541 28.5736 34.7788 28.7553 34.7788 28.9448V33.2305C34.7788 33.4199 34.8541 33.6016 34.988 33.7355C35.122 33.8695 35.3037 33.9448 35.4931 33.9448H39.7788C39.9682 33.9448 40.1499 33.8695 40.2839 33.7355C40.4178 33.6016 40.4931 33.4199 40.4931 33.2305V28.9448C40.4931 28.7553 40.4178 28.5736 40.2839 28.4397C40.1499 28.3057 39.9682 28.2305 39.7788 28.2305ZM36.5645 32.5162V29.659L39.0645 31.0876L36.5645 32.5162Z" fill="#339B96"/>
</svg>
