<svg width="70" height="70" viewBox="0 0 70 70" fill="none" xmlns="http://www.w3.org/2000/svg">
<path d="M35 70C54.33 70 70 54.33 70 35C70 15.67 54.33 0 35 0C15.67 0 0 15.67 0 35C0 54.33 15.67 70 35 70Z" fill="#D95975"/>
<path d="M42.0551 33.8425C42.0551 38.5827 38.8582 40.126 34.9999 40.126C31.1417 40.126 27.9448 38.5827 27.9448 33.8425C27.9448 29.1024 31.0866 22.874 34.9999 22.874C38.9133 22.874 42.0551 29.1024 42.0551 33.8425Z" fill="#F9B54C"/>
<path d="M42.386 32.7951L42.0001 52.362L39.7403 58.7557L35.7718 69.9998C35.5513 69.9998 35.386 69.9998 35.1655 69.9998C35.1104 69.9998 35.0001 69.9998 34.8899 69.9998C34.8348 69.9998 34.7245 69.9998 34.6143 69.9998C34.3938 69.9998 34.1734 69.9998 34.008 69.9998L30.0395 58.9762L26.7324 49.7164V34.7793L27.8899 32.0234L27.945 32.0786L28.3308 32.4644L32.6852 36.9841L33.4568 37.7557L34.8348 36.9841L34.8899 36.929L36.1025 36.2675L41.449 33.236L41.945 32.9604L42.386 32.7951Z" fill="#E6E9EE"/>
<path d="M32.5747 36.9844L31.1416 38.9135L32.9605 41.3387H37.0392L38.8581 38.9135L37.4251 36.9844H32.5747Z" fill="#F1543F"/>
<path d="M40.7326 64.7631L38.7483 67.0229L36.1578 69.9442C36.0475 69.9442 35.9373 69.9442 35.8271 69.9442C35.6066 69.9442 35.4412 69.9442 35.2208 69.9442C35.1656 69.9442 35.0554 69.9442 34.9452 69.9442C34.8901 69.9442 34.7798 69.9442 34.6696 69.9442C34.4491 69.9442 34.2286 69.9442 34.0633 69.9442C33.953 69.9442 33.8428 69.9442 33.7877 69.9442L31.1971 67.0229L29.2129 64.7631L29.4885 63.1647L30.1499 58.9206L31.0869 52.8576L32.9058 41.3379H36.9845L38.8586 52.8576L39.7956 58.7552L40.5121 63.1647L40.7326 64.7631Z" fill="#FF7058"/>
<path d="M20.4488 56.6617C19.9527 57.0475 19.4567 60.9058 18.9055 66.0869C18.8504 66.0869 18.7952 66.0317 18.7952 66.0317C15.8189 64.4884 13.1181 62.5042 10.6929 60.1892C11.5748 48.6144 12.4015 38.9688 12.4015 38.9688C12.4015 38.9688 12.4015 38.9688 12.4015 39.0239L20.4488 56.6617Z" fill="#324A5E"/>
<path d="M34.7243 70.0005C34.5038 70.0005 34.2834 70.0005 34.118 70.0005C34.0078 70.0005 33.8975 70.0005 33.8424 70.0005C33.4566 70.0005 33.1259 70.0005 32.7401 69.9454C27.7794 69.6147 23.0944 68.2919 18.9605 66.1423C18.9054 66.1423 18.8503 66.0871 18.8503 66.0871C16.7558 52.2525 12.7873 39.9612 12.5117 39.0793C12.5117 39.0793 12.5117 39.0793 12.5117 39.0241C22.8188 36.8194 28.1101 30.2604 28.6613 29.4887C28.6613 29.4336 28.7164 29.4336 28.7164 29.4336C28.7164 29.4887 28.7164 29.5438 28.6613 29.5989C28.496 30.3155 28.3857 31.3076 28.3857 32.5202C28.3857 33.6777 28.4409 35.0005 28.6062 36.4887C28.6062 36.7643 28.6613 37.0399 28.6613 37.3706C29.1023 41.9454 30.0944 47.5675 31.0865 52.8588C32.7952 61.843 34.6692 69.8352 34.6692 69.8352C34.7243 69.8903 34.7243 69.9454 34.7243 70.0005Z" fill="#2B3B4E"/>
<path d="M34.7243 70C34.5038 70 34.2833 70 34.118 70C34.0077 70 33.8975 70 33.8424 70C33.4566 70 33.1258 70 32.74 69.9449C32.244 69.0079 31.7479 68.0708 31.2518 67.0787C30.6455 65.8661 30.0943 64.5433 29.5432 63.2205C25.1888 52.9134 22.2676 40.9527 22.2676 40.9527C23.1495 41.063 25.5195 39.9606 25.5195 39.9606L22.2676 36.1575C25.74 35.2756 28.1652 30.6456 28.7164 29.5984C28.7715 29.4882 28.8266 29.433 28.8266 29.3779C28.8266 29.433 28.8266 29.4882 28.7715 29.5433C28.6062 30.2598 28.4959 31.2519 28.4959 32.4645C28.4959 33.622 28.551 34.9449 28.7164 36.433C28.7164 36.7086 28.7715 36.9842 28.7715 37.3149C29.2125 41.8897 30.2046 47.5118 31.1967 52.8031C32.9054 61.7874 34.7794 69.7795 34.7794 69.7795C34.7243 69.8897 34.7243 69.9449 34.7243 70Z" fill="#ACB3BA"/>
<path d="M59.3072 60.1892C56.9371 62.5042 54.1812 64.4884 51.2048 66.0317C51.1497 66.0317 51.0946 66.0869 51.0946 66.0869C50.5985 60.8506 50.0473 57.0475 49.5513 56.6617L57.5434 39.0239C57.5434 39.0239 57.5434 39.0239 57.5434 38.9688C57.5434 38.9688 58.4253 48.6695 59.3072 60.1892Z" fill="#2B3B4E"/>
<path d="M57.5431 38.969C57.5431 39.0241 57.5431 39.0241 57.5431 38.969C57.2675 39.906 53.299 52.1974 51.2045 66.032C51.1494 66.032 51.0943 66.0871 51.0943 66.0871C46.9053 68.2367 42.2203 69.6147 37.3148 69.8903C36.9289 69.8903 36.5982 69.9454 36.2124 69.9454C36.1022 69.9454 35.9919 69.9454 35.8817 69.9454C35.6612 69.9454 35.4959 69.9454 35.2754 69.9454C35.2754 69.8903 35.2754 69.8352 35.2754 69.8352C35.2754 69.8352 37.1494 61.843 38.8581 52.8588C39.8502 47.5675 40.7872 41.8903 41.2833 37.3706C41.2833 37.095 41.3384 36.8194 41.3384 36.5438C41.4486 35.3864 41.5037 34.284 41.5589 33.347C41.614 31.7486 41.5037 30.4808 41.2833 29.5989C41.2833 29.5438 41.2833 29.4887 41.2281 29.4336C41.2281 29.4336 41.2281 29.4336 41.2833 29.4887C41.7793 30.095 47.0707 36.7643 57.5431 38.969Z" fill="#324A5E"/>
<path d="M47.7872 40.9528C47.7872 40.9528 44.8659 52.8584 40.5116 63.2206C39.9604 64.5434 39.3541 65.8111 38.803 67.0788C38.3069 68.071 37.8108 69.0631 37.3148 69.945C36.9289 69.945 36.5982 70.0001 36.2124 70.0001C36.1022 70.0001 35.9919 70.0001 35.8817 70.0001C35.6612 70.0001 35.4959 70.0001 35.2754 70.0001C35.2754 69.945 35.2754 69.8899 35.2754 69.8899C35.2754 69.8899 37.1494 61.8977 38.8581 52.9135C39.8502 47.6221 40.7872 41.945 41.2833 37.4253C41.2833 37.1497 41.3384 36.8741 41.3384 36.5985C41.4486 35.441 41.5037 34.3387 41.5589 33.4017C41.614 31.8032 41.5037 30.5355 41.2833 29.6536C41.2833 29.5985 41.2833 29.5434 41.2281 29.4883C41.2281 29.4883 41.2833 29.5434 41.2833 29.6536C41.7793 30.6458 44.2596 35.3308 47.7321 36.2127L44.5352 39.9607C44.5352 39.9607 46.9053 41.0631 47.7872 40.9528Z" fill="#CED5E0"/>
<path d="M41.2283 29.3779C41.2283 29.3779 42.7717 32.8504 35 36.9291L38.5276 42.1653C38.5276 42.2205 44.0945 34.2834 41.2283 29.3779Z" fill="white"/>
<path d="M28.7718 29.3779C28.7718 29.3779 27.2284 32.8504 35.0001 36.9291L31.4725 42.1653C31.4725 42.2205 25.9056 34.2834 28.7718 29.3779Z" fill="white"/>
<path d="M44.2044 17.9686C44.2044 24.8033 40.0705 33.7324 34.9996 33.7324C29.9288 33.7324 25.7949 24.8033 25.7949 17.9686C25.7949 11.134 29.9288 8.98438 34.9996 8.98438C40.0705 8.98438 44.2044 11.134 44.2044 17.9686Z" fill="#FFD05B"/>
<path d="M46.2438 21.2755C45.6926 22.5432 44.6453 23.3149 43.9288 23.0393C43.2123 22.7637 43.0469 21.5511 43.5981 20.2834C44.1493 19.0156 45.1965 18.244 45.9131 18.5196C46.6847 18.7401 46.795 20.0078 46.2438 21.2755Z" fill="#FFD05B"/>
<path d="M23.7556 21.2755C24.3068 22.5432 25.354 23.3149 26.0706 23.0393C26.7871 22.7637 26.9525 21.5511 26.4013 20.2834C25.8501 19.0156 24.8029 18.244 24.0863 18.5196C23.3147 18.7401 23.2044 20.0078 23.7556 21.2755Z" fill="#FFD05B"/>
<path d="M34.9449 11.4096C37.6457 9.92145 43.9292 7.82697 43.9292 21.3309C43.9292 21.3309 49.9922 5.84271 40.7323 5.62224C40.7323 5.62224 34.2284 -0.991932 25.7953 8.65374L27.1182 7.99232C27.1182 7.99232 20.3386 11.9608 26.126 21.3309C26.126 21.3309 25.1339 7.77185 32.63 11.4648C33.3465 11.8506 34.2284 11.7955 34.9449 11.4096Z" fill="#324A5E"/>
<path d="M42.6615 22.2675H37.1497C36.5434 22.2675 36.0474 21.7715 36.0474 21.1652V19.1258C36.0474 18.5195 36.5434 18.0234 37.1497 18.0234H42.6615C43.2678 18.0234 43.7639 18.5195 43.7639 19.1258V21.1652C43.7639 21.7715 43.2678 22.2675 42.6615 22.2675Z" stroke="#2C9984" stroke-width="1.549" stroke-miterlimit="10"/>
<path d="M32.8505 22.2675H27.3387C26.7324 22.2675 26.2363 21.7715 26.2363 21.1652V19.1258C26.2363 18.5195 26.7324 18.0234 27.3387 18.0234H32.8505C33.4568 18.0234 33.9529 18.5195 33.9529 19.1258V21.1652C33.8977 21.7715 33.4017 22.2675 32.8505 22.2675Z" stroke="#2C9984" stroke-width="1.549" stroke-miterlimit="10"/>
<path d="M33.9531 19.7318C33.9531 19.1255 34.4492 18.6846 35.0004 18.6846C35.5516 18.6846 36.0476 19.1806 36.0476 19.7318" stroke="#2C9984" stroke-width="1.549" stroke-miterlimit="10" stroke-linecap="round"/>
</svg>
