<svg width="5" height="25" viewBox="0 0 5 25" fill="none" xmlns="http://www.w3.org/2000/svg">
<path d="M1.28308e-06 2.38095C1.28308e-06 1.91005 0.139642 1.44971 0.401264 1.05817C0.662886 0.666622 1.03474 0.361449 1.4698 0.18124C1.90486 0.00103162 2.38359 -0.0461192 2.84545 0.0457504C3.30731 0.13762 3.73156 0.364384 4.06454 0.697366C4.39752 1.03035 4.62429 1.45459 4.71615 1.91645C4.80802 2.37831 4.76087 2.85704 4.58066 3.2921C4.40046 3.72717 4.09528 4.09902 3.70374 4.36064C3.31219 4.62226 2.85186 4.76191 2.38095 4.76191C1.74949 4.76191 1.14388 4.51106 0.697366 4.06454C0.250851 3.61803 1.28308e-06 3.01242 1.28308e-06 2.38095ZM2.38095 10.119C1.91004 10.119 1.44971 10.2587 1.05817 10.5203C0.666622 10.7819 0.361449 11.1538 0.18124 11.5888C0.00103162 12.0239 -0.0461191 12.5026 0.0457504 12.9645C0.13762 13.4264 0.364384 13.8506 0.697366 14.1836C1.03035 14.5166 1.45459 14.7433 1.91645 14.8352C2.37831 14.9271 2.85704 14.8799 3.2921 14.6997C3.72717 14.5195 4.09902 14.2143 4.36064 13.8228C4.62226 13.4312 4.7619 12.9709 4.7619 12.5C4.7619 11.8685 4.51105 11.2629 4.06454 10.8164C3.61802 10.3699 3.01242 10.119 2.38095 10.119ZM2.38095 20.2381C1.91004 20.2381 1.44971 20.3777 1.05817 20.6394C0.666622 20.901 0.361449 21.2728 0.18124 21.7079C0.00103162 22.143 -0.0461191 22.6217 0.0457504 23.0835C0.13762 23.5454 0.364384 23.9697 0.697366 24.3026C1.03035 24.6356 1.45459 24.8624 1.91645 24.9543C2.37831 25.0461 2.85704 24.999 3.2921 24.8188C3.72717 24.6386 4.09902 24.3334 4.36064 23.9418C4.62226 23.5503 4.7619 23.09 4.7619 22.619C4.7619 21.9876 4.51105 21.382 4.06454 20.9355C3.61802 20.4889 3.01242 20.2381 2.38095 20.2381Z" fill="#323C47"/>
</svg>
