<svg width="17" height="17" viewBox="0 0 17 17" fill="none" xmlns="http://www.w3.org/2000/svg">
<path d="M5.98016 15.9997C1.87899 15.9997 1 15.1207 1 11.0195" stroke="#EDBD58" stroke-linecap="round"/>
<path d="M16.0007 11.0195C16.0007 15.1207 15.1216 15.9997 11.0205 15.9997" stroke="#EDBD58" stroke-linecap="round"/>
<path d="M11.0205 1C15.1216 1 16.0007 1.87899 16.0007 5.98016" stroke="#EDBD58" stroke-linecap="round"/>
<path d="M1 5.98016C1 1.87899 1.87899 1 5.98016 1" stroke="#EDBD58" stroke-linecap="round"/>
<path d="M8.27359 8.39875C9.76442 8.39875 10.973 7.1902 10.973 5.69937C10.973 4.20855 9.76442 3 8.27359 3C6.78277 3 5.57422 4.20855 5.57422 5.69937C5.57422 7.1902 6.78277 8.39875 8.27359 8.39875Z" fill="#EDBD58"/>
<path d="M12.5475 13.6381C12.5006 11.0594 10.6069 8.98438 8.27375 8.98438C5.94063 8.98438 4.04625 11.06 4 13.6381H12.5475Z" fill="#EDBD58"/>
</svg>
