<svg width="51" height="50" viewBox="0 0 51 50" fill="none" xmlns="http://www.w3.org/2000/svg">
<rect width="50" height="50" rx="25" fill="#339B96"/>
<circle cx="41.1304" cy="9.13043" r="9.13043" fill="#EDBD58"/>
<path d="M38.3465 12.3385C39.7225 11.4425 40.7545 10.6185 41.4425 9.86652C42.1385 9.10652 42.4865 8.39852 42.4865 7.74252C42.4865 7.22252 42.3665 6.83452 42.1265 6.57852C41.8945 6.32252 41.5425 6.19451 41.0705 6.19451C40.7665 6.19451 40.4865 6.28252 40.2305 6.45852C39.9825 6.62652 39.7785 6.85852 39.6185 7.15452C39.4665 7.45052 39.3785 7.78652 39.3545 8.16252C39.0585 8.13052 38.8305 8.03052 38.6705 7.86252C38.5105 7.68652 38.4305 7.46252 38.4305 7.19052C38.4305 6.77452 38.5545 6.40652 38.8025 6.08651C39.0505 5.76652 39.3985 5.51852 39.8465 5.34252C40.3025 5.16652 40.8265 5.07852 41.4185 5.07852C41.9305 5.07852 42.3825 5.17452 42.7745 5.36651C43.1665 5.55051 43.4705 5.81452 43.6865 6.15852C43.9025 6.50252 44.0105 6.89452 44.0105 7.33452C44.0105 7.87852 43.8545 8.42252 43.5425 8.96652C43.2385 9.51052 42.7505 10.0945 42.0785 10.7185C41.4145 11.3425 40.5185 12.0505 39.3905 12.8425L38.3465 12.3385ZM42.7745 13.8385C42.3185 13.8385 41.8585 13.7865 41.3945 13.6825C40.9305 13.5785 40.2985 13.3825 39.4985 13.0945L39.4625 13.0825C39.2305 13.3225 39.0185 13.4905 38.8265 13.5865C38.6425 13.6905 38.4425 13.7425 38.2265 13.7425C38.0105 13.7425 37.8265 13.6705 37.6745 13.5265C37.5305 13.3825 37.4585 13.2065 37.4585 12.9985C37.4585 12.6545 37.5985 12.3745 37.8785 12.1585C38.1585 11.9425 38.5105 11.8345 38.9345 11.8345C39.1425 11.8345 39.3945 11.8705 39.6905 11.9425C39.9865 12.0065 40.3505 12.1025 40.7825 12.2305C41.2945 12.3745 41.6985 12.4825 41.9945 12.5545C42.2905 12.6185 42.5505 12.6505 42.7745 12.6505L44.0945 11.9305C44.2065 12.1065 44.2825 12.2545 44.3225 12.3745C44.3705 12.4945 44.3945 12.6105 44.3945 12.7225C44.3945 12.9305 44.3225 13.1225 44.1785 13.2985C44.0345 13.4665 43.8385 13.5985 43.5905 13.6945C43.3425 13.7905 43.0705 13.8385 42.7745 13.8385Z" fill="white"/>
<path fill-rule="evenodd" clip-rule="evenodd" d="M23.9517 13.1851C24.8353 13.6299 24.9942 14.5957 24.9942 15.1848V35.8162C24.9942 36.4066 24.8339 37.3702 23.9516 37.8145C23.015 38.2865 22.1422 37.7554 21.6984 37.3568L14.9356 31.2788H12.499C11.1189 31.2788 10 30.1599 10 28.7798L10 22.2978C10 20.9176 11.1189 19.7987 12.499 19.7987H14.9314L21.6984 13.6441C22.1407 13.2467 23.0138 12.7129 23.9517 13.1851ZM22.4952 16.2974L16.2553 21.9726C16.0253 22.1818 15.7255 22.2978 15.4146 22.2978H12.499L12.499 28.7798H15.4146C15.723 28.7798 16.0205 28.8937 16.2498 29.0999L22.4952 34.7129V16.2974Z" fill="white"/>
<path d="M29.2701 16.5523L29.2701 16.5523C29.1588 16.951 29.3919 17.3644 29.7905 17.4757L29.2701 16.5523ZM29.2701 16.5523C29.3813 16.1536 29.7947 15.9205 30.1935 16.0318L29.2701 16.5523ZM30.1934 34.9689L30.1935 34.9689C34.1362 33.8687 36.9891 30.0171 36.9891 25.5003C36.9891 20.9836 34.1362 17.132 30.1935 16.0318L30.1934 34.9689ZM30.1934 34.9689C29.7947 35.0802 29.3813 34.8471 29.2701 34.4485C29.1588 34.0496 29.3919 33.6362 29.7905 33.525L29.7905 33.525M30.1934 34.9689L29.7905 33.525M29.7905 33.525C33.0324 32.6204 35.4901 29.4009 35.4901 25.5003M29.7905 33.525L35.4901 25.5003M35.4901 25.5003C35.4901 21.5998 33.0324 18.3803 29.7905 17.4757L35.4901 25.5003Z" stroke="white"/>
<path d="M29.1 20.5546C28.4388 20.357 27.7425 20.7327 27.5449 21.3939C27.3472 22.055 27.7229 22.7513 28.3842 22.949C29.2046 23.1942 29.9916 24.152 29.9916 25.5003C29.9916 26.8487 29.2046 27.8064 28.3842 28.0517C27.7229 28.2494 27.3472 28.9456 27.5449 29.6069C27.7425 30.268 28.4388 30.6437 29.1 30.446C31.1537 29.832 32.4906 27.759 32.4906 25.5003C32.4906 23.2417 31.1537 21.1687 29.1 20.5546Z" fill="white"/>
</svg>
