<svg width="51" height="50" viewBox="0 0 51 50" fill="none" xmlns="http://www.w3.org/2000/svg">
<rect width="50" height="50" rx="25" fill="#339B96"/>
<circle cx="41.1304" cy="9.13043" r="9.13043" fill="#EDBD58"/>
<path d="M40.4153 14.872C39.7353 14.872 39.2273 14.78 38.8913 14.596C38.5633 14.412 38.3993 14.136 38.3993 13.768C38.3993 13.536 38.4913 13.344 38.6753 13.192C38.8673 13.04 39.0993 12.964 39.3713 12.964C39.6113 12.964 39.8473 13.052 40.0793 13.228C40.3113 13.404 40.5033 13.644 40.6553 13.948C41.1353 13.948 41.5753 13.856 41.9753 13.672C42.3753 13.488 42.6913 13.236 42.9233 12.916C43.1553 12.596 43.2713 12.244 43.2713 11.86C43.2713 11.516 43.1753 11.192 42.9833 10.888C42.7993 10.576 42.5753 10.38 42.3113 10.3C41.7833 10.652 41.3353 10.828 40.9673 10.828C40.7513 10.828 40.5673 10.764 40.4153 10.636C40.2713 10.5 40.1993 10.336 40.1993 10.144C40.1993 9.864 40.3193 9.64 40.5593 9.472C40.8073 9.304 41.1313 9.22 41.5313 9.22C42.1553 9.22 42.7153 9.332 43.2113 9.556C43.7073 9.772 44.0953 10.072 44.3753 10.456C44.6553 10.84 44.7953 11.276 44.7953 11.764C44.7953 12.356 44.6073 12.888 44.2313 13.36C43.8553 13.832 43.3313 14.2 42.6593 14.464C41.9953 14.736 41.2473 14.872 40.4153 14.872ZM41.5553 9.592C42.1233 9.384 42.5793 9.068 42.9233 8.644C43.2673 8.22 43.4393 7.76 43.4393 7.264C43.4393 6.744 43.3233 6.356 43.0913 6.1C42.8593 5.844 42.5073 5.716 42.0353 5.716C41.7153 5.716 41.4193 5.804 41.1473 5.98C40.8833 6.148 40.6633 6.384 40.4873 6.688C40.3193 6.984 40.2233 7.316 40.1993 7.684C39.9113 7.644 39.6833 7.54 39.5153 7.372C39.3553 7.204 39.2753 6.984 39.2753 6.712C39.2753 6.296 39.4033 5.928 39.6593 5.608C39.9153 5.288 40.2793 5.04 40.7513 4.864C41.2233 4.688 41.7673 4.6 42.3833 4.6C42.8793 4.6 43.3233 4.696 43.7153 4.888C44.1073 5.08 44.4113 5.348 44.6273 5.692C44.8513 6.036 44.9633 6.424 44.9633 6.856C44.9633 7.424 44.7713 7.98 44.3873 8.524C44.0113 9.06 43.4673 9.552 42.7553 10L41.5553 9.592Z" fill="white"/>
<path fill-rule="evenodd" clip-rule="evenodd" d="M23.9517 13.1851C24.8353 13.6299 24.9942 14.5957 24.9942 15.1848V35.8162C24.9942 36.4066 24.8339 37.3702 23.9516 37.8145C23.015 38.2865 22.1422 37.7554 21.6984 37.3568L14.9356 31.2788H12.499C11.1189 31.2788 10 30.1599 10 28.7798L10 22.2978C10 20.9176 11.1189 19.7987 12.499 19.7987H14.9314L21.6984 13.6441C22.1407 13.2467 23.0138 12.7129 23.9517 13.1851ZM22.4952 16.2974L16.2553 21.9726C16.0253 22.1818 15.7255 22.2978 15.4146 22.2978H12.499L12.499 28.7798H15.4146C15.723 28.7798 16.0205 28.8937 16.2498 29.0999L22.4952 34.7129V16.2974Z" fill="white"/>
<path d="M28.7885 16.4179C28.9739 15.7532 29.6631 15.3647 30.3279 15.5502C34.5048 16.7157 37.4891 20.7785 37.4891 25.5003C37.4891 30.2223 34.5048 34.285 30.3279 35.4505C29.6631 35.6361 28.9739 35.2475 28.7885 34.5828C28.603 33.9181 28.9915 33.2289 29.6561 33.0434C32.6648 32.2039 34.9901 29.1948 34.9901 25.5003C34.9901 21.8059 32.6648 18.7968 29.6561 17.9573C28.9915 17.7718 28.603 17.0826 28.7885 16.4179Z" fill="white"/>
<path d="M29.1 20.5546C28.4388 20.357 27.7425 20.7327 27.5449 21.3939C27.3472 22.055 27.7229 22.7513 28.3842 22.949C29.2046 23.1942 29.9916 24.152 29.9916 25.5003C29.9916 26.8487 29.2046 27.8064 28.3842 28.0517C27.7229 28.2494 27.3472 28.9456 27.5449 29.6069C27.7425 30.268 28.4388 30.6437 29.1 30.446C31.1537 29.832 32.4906 27.759 32.4906 25.5003C32.4906 23.2417 31.1537 21.1687 29.1 20.5546Z" fill="white"/>
</svg>
