<svg width="15" height="25" viewBox="0 0 15 25" fill="none" xmlns="http://www.w3.org/2000/svg">
<path fill-rule="evenodd" clip-rule="evenodd" d="M13.9517 0.185109C14.8353 0.629899 14.9942 1.59569 14.9942 2.18479V22.8162C14.9942 23.4066 14.8339 24.3702 13.9516 24.8145C13.015 25.2865 12.1422 24.7554 11.6984 24.3568L4.93561 18.2788H2.49905C1.11887 18.2788 1.25121e-05 17.1599 1.25121e-05 15.7798L0 9.29775C0 7.91757 1.11886 6.79872 2.49903 6.79872H4.93136L11.6984 0.644107C12.1407 0.24671 13.0138 -0.287071 13.9517 0.185109ZM12.4952 3.29744L6.25531 8.97261C6.02529 9.18182 5.72553 9.29775 5.41458 9.29775H2.49903L2.49905 15.7798H5.41458C5.72298 15.7798 6.02046 15.8937 6.24982 16.0999L12.4952 21.7129V3.29744Z" fill="white"/>
</svg>
