<svg width="19" height="21" viewBox="0 0 19 21" fill="none" xmlns="http://www.w3.org/2000/svg">
<path d="M9.13043 0.130859C4.80824 0.130859 1.30439 3.63472 1.30439 7.95694V12.6341L0.38207 13.5564C0.00902661 13.9294 -0.10256 14.4904 0.0993266 14.9779C0.301214 15.4653 0.776831 15.783 1.30439 15.783H16.9565C17.4841 15.783 17.9597 15.4653 18.1616 14.9779C18.3635 14.4904 18.2519 13.9294 17.8788 13.5564L16.9565 12.6341V7.95694C16.9565 3.63472 13.4527 0.130859 9.13043 0.130859Z" fill="#67748E"/>
<path d="M9.13082 21C6.96971 21 5.21777 19.2481 5.21777 17.0869H13.0439C13.0439 19.2481 11.292 21 9.13082 21Z" fill="#67748E"/>
</svg>
