<svg width="20" height="19" viewBox="0 0 20 19" fill="none" xmlns="http://www.w3.org/2000/svg">
<path d="M19.6901 4.28751C20.0103 4.74538 20.0824 5.26349 19.9062 5.84185L16.6036 16.7584C16.4515 17.2725 16.1452 17.7042 15.6849 18.0536C15.2245 18.4031 14.7341 18.5778 14.2137 18.5778H3.12877C2.51228 18.5778 1.9178 18.3629 1.34534 17.9331C0.772881 17.5034 0.374562 16.9752 0.150382 16.3487C-0.0417727 15.8105 -0.0497791 15.3004 0.126362 14.8184C0.126362 14.7863 0.138372 14.6779 0.162391 14.4931C0.186411 14.3084 0.202423 14.1598 0.21043 14.0473C0.218436 13.983 0.206427 13.8967 0.174401 13.7882C0.142375 13.6798 0.130366 13.6015 0.138372 13.5533C0.154385 13.4649 0.186411 13.3806 0.234449 13.3003C0.282488 13.2199 0.348541 13.1255 0.432608 13.0171C0.516676 12.9087 0.582729 12.8143 0.630767 12.7339C0.814915 12.4287 0.99506 12.0612 1.1712 11.6315C1.34734 11.2017 1.46744 10.8342 1.53149 10.529C1.55551 10.4486 1.55751 10.3281 1.5375 10.1675C1.51748 10.0068 1.51548 9.89437 1.53149 9.83011C1.55551 9.74175 1.62356 9.62929 1.73565 9.49273C1.84774 9.35618 1.9158 9.2638 1.93982 9.2156C2.10795 8.92642 2.27609 8.55692 2.44422 8.10708C2.61236 7.65725 2.71244 7.29577 2.74446 7.02266C2.75247 6.95037 2.74246 6.82184 2.71444 6.63709C2.68642 6.45233 2.68842 6.33988 2.72045 6.29971C2.75247 6.19529 2.84054 6.07279 2.98466 5.93221C3.12877 5.79164 3.21684 5.70127 3.24887 5.66111C3.40099 5.45226 3.57113 5.11287 3.75928 4.64296C3.94743 4.17304 4.05752 3.78546 4.08954 3.48022C4.09755 3.41595 4.08554 3.31354 4.05352 3.17296C4.02149 3.03239 4.01348 2.92596 4.0295 2.85366C4.04551 2.7894 4.08154 2.7171 4.13758 2.63678C4.19363 2.55645 4.26569 2.46407 4.35376 2.35965C4.44183 2.25522 4.50988 2.17088 4.55792 2.10662C4.62197 2.01022 4.68803 1.88772 4.75608 1.73912C4.82413 1.59051 4.88418 1.44994 4.93622 1.3174C4.98827 1.18486 5.05232 1.04027 5.12838 0.883629C5.20444 0.72699 5.2825 0.598466 5.36257 0.498057C5.44263 0.397647 5.54872 0.303262 5.68082 0.214902C5.81293 0.126542 5.95704 0.0803534 6.11317 0.0763371C6.2693 0.0723207 6.45945 0.0944108 6.68363 0.142607L6.67162 0.178755C6.97586 0.10646 7.18003 0.0703125 7.28411 0.0703125H16.4234C17.0159 0.0703125 17.4723 0.29523 17.7925 0.745064C18.1128 1.1949 18.1849 1.71703 18.0087 2.31145L14.7181 13.228C14.4298 14.1839 14.1436 14.8004 13.8594 15.0775C13.5752 15.3546 13.0607 15.4932 12.3162 15.4932H1.87977C1.6636 15.4932 1.51147 15.5534 1.4234 15.6739C1.33533 15.8025 1.33133 15.9752 1.41139 16.192C1.60355 16.7543 2.18001 17.0355 3.14078 17.0355H14.2257C14.4579 17.0355 14.6821 16.9732 14.8982 16.8487C15.1144 16.7242 15.2545 16.5575 15.3186 16.3487L18.9215 4.4562C18.9775 4.27948 18.9975 4.05054 18.9815 3.7694C19.2857 3.88989 19.5219 4.06259 19.6901 4.28751ZM6.91181 4.31161C6.87979 4.41603 6.88779 4.5064 6.93583 4.58271C6.98387 4.65902 7.06393 4.69718 7.17602 4.69718H14.4779C14.582 4.69718 14.6841 4.65902 14.7841 4.58271C14.8842 4.5064 14.9503 4.41603 14.9823 4.31161L15.2345 3.54046C15.2665 3.43604 15.2585 3.34567 15.2105 3.26936C15.1624 3.19305 15.0824 3.15489 14.9703 3.15489H7.66842C7.56433 3.15489 7.46225 3.19305 7.36217 3.26936C7.26209 3.34567 7.19604 3.43604 7.16401 3.54046L6.91181 4.31161ZM5.91501 7.39618C5.88299 7.50061 5.89099 7.59098 5.93903 7.66729C5.98707 7.7436 6.06713 7.78176 6.17922 7.78176H13.4811C13.5852 7.78176 13.6873 7.7436 13.7873 7.66729C13.8874 7.59098 13.9535 7.50061 13.9855 7.39618L14.2377 6.62504C14.2697 6.52061 14.2617 6.43024 14.2137 6.35393C14.1656 6.27762 14.0856 6.23947 13.9735 6.23947H6.67162C6.56753 6.23947 6.46545 6.27762 6.36537 6.35393C6.26529 6.43024 6.19924 6.52061 6.16721 6.62504L5.91501 7.39618Z" fill="white"/>
</svg>
