<svg width="36" height="36" viewBox="0 0 36 36" fill="none" xmlns="http://www.w3.org/2000/svg">
<circle cx="18" cy="18" r="18" fill="#EDBD58"/>
<path fill-rule="evenodd" clip-rule="evenodd" d="M16.1627 23.6197L22.3132 15.666C22.6474 15.2371 22.7663 14.7412 22.6549 14.2363C22.5583 13.7773 22.276 13.3408 21.8526 13.0097L20.8201 12.1895C19.9213 11.4747 18.8071 11.5499 18.1683 12.3701L17.4775 13.2663C17.3883 13.3785 17.4106 13.544 17.522 13.6343C17.522 13.6343 19.2676 15.0339 19.3048 15.064C19.4236 15.1769 19.5128 15.3274 19.5351 15.508C19.5722 15.8616 19.3271 16.1927 18.9631 16.2379C18.7922 16.2605 18.6288 16.2078 18.51 16.11L16.6752 14.6502C16.5861 14.5832 16.4524 14.5975 16.3781 14.6878L12.0178 20.3314C11.7355 20.6851 11.639 21.1441 11.7355 21.588L12.2927 24.0035C12.3224 24.1314 12.4338 24.2217 12.5675 24.2217L15.0188 24.1916C15.4645 24.1841 15.8804 23.9809 16.1627 23.6197ZM19.5948 22.8676H23.5918C23.9818 22.8676 24.299 23.1889 24.299 23.5839C24.299 23.9797 23.9818 24.3003 23.5918 24.3003H19.5948C19.2048 24.3003 18.8876 23.9797 18.8876 23.5839C18.8876 23.1889 19.2048 22.8676 19.5948 22.8676Z" fill="white"/>
</svg>
