<svg width="29" height="29" viewBox="0 0 29 29" fill="none" xmlns="http://www.w3.org/2000/svg">
<path fill-rule="evenodd" clip-rule="evenodd" d="M28.667 14.167C28.667 21.8989 22.3989 28.167 14.667 28.167C6.935 28.167 0.666992 21.8989 0.666992 14.167C0.666992 6.435 6.935 0.166992 14.667 0.166992C22.3989 0.166992 28.667 6.435 28.667 14.167ZM16.4353 13.7985C16.4353 15.0217 15.4479 16.0091 14.2249 16.0091C13.0017 16.0091 12.0143 15.0217 12.0143 13.7985V9.37752C12.0143 8.15436 13.0017 7.16699 14.2249 7.16699C15.4479 7.16699 16.4353 8.15436 16.4353 9.37752V13.7985ZM14.2249 8.6407C13.8196 8.6407 13.4881 8.97228 13.4881 9.37755V13.7987C13.4881 14.2038 13.8196 14.5355 14.2249 14.5355C14.6375 14.5355 14.9617 14.2112 14.9617 13.7987V9.37755C14.9617 8.97228 14.63 8.6407 14.2249 8.6407ZM19.3828 13.7985H18.1302C18.1302 16.0091 16.2585 17.5564 14.2249 17.5564C12.1912 17.5564 10.3196 16.0091 10.3196 13.7985H9.06699C9.06699 16.3112 11.0712 18.3891 13.4881 18.7502V21.167H14.9617V18.7502C17.3785 18.3891 19.3828 16.3112 19.3828 13.7985Z" fill="#EDBD58"/>
</svg>
