<svg width="80" height="80" viewBox="0 0 80 80" fill="none" xmlns="http://www.w3.org/2000/svg">
<path d="M6.66667 6.66667V20H0V6.66667C0 4.89856 0.702379 3.20286 1.95262 1.95262C3.20286 0.702379 4.89856 0 6.66667 0L20 0V6.66667H6.66667ZM73.3333 0C75.1014 0 76.7971 0.702379 78.0474 1.95262C79.2976 3.20286 80 4.89856 80 6.66667V20H73.3333V6.66667H60V0H73.3333ZM6.66667 60V73.3333H20V80H6.66667C4.89856 80 3.20286 79.2976 1.95262 78.0474C0.702379 76.7971 0 75.1014 0 73.3333V60H6.66667ZM73.3333 73.3333V60H80V73.3333C80 75.1014 79.2976 76.7971 78.0474 78.0474C76.7971 79.2976 75.1014 80 73.3333 80H60V73.3333H73.3333Z" fill="#EDBD58" fill-opacity="0.6"/>
</svg>
