<svg width="20" height="20" viewBox="0 0 20 20" fill="none" xmlns="http://www.w3.org/2000/svg">
<path d="M10.0056 12.8569C11.5835 12.8569 12.8627 11.5777 12.8627 9.99972C12.8627 8.42176 11.5835 7.14258 10.0056 7.14258C8.42762 7.14258 7.14844 8.42176 7.14844 9.99972C7.14844 11.5777 8.42762 12.8569 10.0056 12.8569Z" fill="#FF0000"/>
<path d="M10 0C4.5 0 0 4.5 0 10C0 15.5 4.5 20 10 20C15.5 20 20 15.5 20 10C20 4.5 15.5 0 10 0ZM10 14.2857C7.64286 14.2857 5.71429 12.3571 5.71429 10C5.71429 7.64286 7.64286 5.71429 10 5.71429C12.3571 5.71429 14.2857 7.64286 14.2857 10C14.2857 12.3571 12.3571 14.2857 10 14.2857Z" fill="white"/>
</svg>
