<svg width="20" height="22" viewBox="0 0 20 22" fill="none" xmlns="http://www.w3.org/2000/svg">
<path d="M18.5714 0.0703125H1.42857C1.04969 0.0703125 0.686328 0.193229 0.418419 0.412021C0.15051 0.630814 0 0.92756 0 1.23698V19.9036C0 20.2131 0.15051 20.5098 0.418419 20.7286C0.686328 20.9474 1.04969 21.0703 1.42857 21.0703H18.5714C18.9503 21.0703 19.3137 20.9474 19.5816 20.7286C19.8495 20.5098 20 20.2131 20 19.9036V1.23698C20 0.92756 19.8495 0.630814 19.5816 0.412021C19.3137 0.193229 18.9503 0.0703125 18.5714 0.0703125ZM5.71429 17.5505C5.71429 17.8599 5.56378 18.1566 5.29587 18.3754C5.02796 18.5942 4.66459 18.7171 4.28571 18.7171C3.90683 18.7171 3.54347 18.5942 3.27556 18.3754C3.00765 18.1566 2.85714 17.8599 2.85714 17.5505V15.2171C2.85714 14.9077 3.00765 14.611 3.27556 14.3922C3.54347 14.1734 3.90683 14.0505 4.28571 14.0505C4.66459 14.0505 5.02796 14.1734 5.29587 14.3922C5.56378 14.611 5.71429 14.9077 5.71429 15.2171V17.5505ZM2.85714 6.48698C2.85714 5.71343 3.23342 4.97157 3.90319 4.42458C4.57296 3.8776 5.48137 3.57031 6.42857 3.57031V6.48698H10C10 7.26053 9.62373 8.00239 8.95395 8.54937C8.28418 9.09635 7.37577 9.40365 6.42857 9.40365C5.48137 9.40365 4.57296 9.09635 3.90319 8.54937C3.23342 8.00239 2.85714 7.26053 2.85714 6.48698ZM11.4286 17.533C11.4286 17.8424 11.2781 18.1391 11.0102 18.3579C10.7422 18.5767 10.3789 18.6996 10 18.6996C9.62112 18.6996 9.25776 18.5767 8.98985 18.3579C8.72194 18.1391 8.57143 17.8424 8.57143 17.533V11.6996C8.57143 11.3902 8.72194 11.0935 8.98985 10.8747C9.25776 10.6559 9.62112 10.533 10 10.533C10.3789 10.533 10.7422 10.6559 11.0102 10.8747C11.2781 11.0935 11.4286 11.3902 11.4286 11.6996V17.533ZM7.85714 5.32031V2.40365C8.80435 2.40365 9.71275 2.71094 10.3825 3.25792C11.0523 3.8049 11.4286 4.54676 11.4286 5.32031H7.85714ZM17.1429 17.5703C17.1429 17.8797 16.9923 18.1765 16.7244 18.3953C16.4565 18.6141 16.0932 18.737 15.7143 18.737C15.3354 18.737 14.972 18.6141 14.7041 18.3953C14.4362 18.1765 14.2857 17.8797 14.2857 17.5703V4.73698C14.2857 4.42756 14.4362 4.13081 14.7041 3.91202C14.972 3.69323 15.3354 3.57031 15.7143 3.57031C16.0932 3.57031 16.4565 3.69323 16.7244 3.91202C16.9923 4.13081 17.1429 4.42756 17.1429 4.73698V17.5703Z" fill="white"/>
</svg>
