<svg width="20" height="14" viewBox="0 0 20 14" fill="none" xmlns="http://www.w3.org/2000/svg">
<path d="M10.0002 7.98469C11.491 7.98469 12.6995 6.77614 12.6995 5.28531C12.6995 3.79449 11.491 2.58594 10.0002 2.58594C8.50933 2.58594 7.30078 3.79449 7.30078 5.28531C7.30078 6.77614 8.50933 7.98469 10.0002 7.98469Z" fill="white"/>
<path d="M14.2741 13.2241C14.2272 10.6453 12.3334 8.57031 10.0003 8.57031C7.66719 8.57031 5.77281 10.6459 5.72656 13.2241H14.2741Z" fill="white"/>
<path d="M3.20977 4.16172C4.32987 4.16172 5.23789 3.2537 5.23789 2.13359C5.23789 1.01349 4.32987 0.105469 3.20977 0.105469C2.08966 0.105469 1.18164 1.01349 1.18164 2.13359C1.18164 3.2537 2.08966 4.16172 3.20977 4.16172Z" fill="white"/>
<path d="M6.42188 8.09781C6.38687 6.16094 4.96438 4.60156 3.21063 4.60156C1.45688 4.60156 0.035 6.16094 0 8.09781H6.42188Z" fill="white"/>
<path d="M16.7879 4.16172C17.908 4.16172 18.816 3.2537 18.816 2.13359C18.816 1.01349 17.908 0.105469 16.7879 0.105469C15.6678 0.105469 14.7598 1.01349 14.7598 2.13359C14.7598 3.2537 15.6678 4.16172 16.7879 4.16172Z" fill="white"/>
<path d="M20.0006 8.09781C19.9656 6.16094 18.5431 4.60156 16.7894 4.60156C15.0356 4.60156 13.6137 6.16094 13.5781 8.09781H20.0006Z" fill="white"/>
</svg>
