<svg width="20" height="14" viewBox="0 0 20 14" fill="none" xmlns="http://www.w3.org/2000/svg">
<path d="M19.8738 11.8687C20.0509 12.3116 20.0642 12.8067 19.7666 13.2018C19.4389 13.6376 18.8206 13.7094 18.3157 13.7085C12.7057 13.6908 7.09363 13.6908 1.47949 13.7085C0.879814 13.7085 0.216358 13.4755 0.0622304 12.8369C-0.0139475 12.5286 -0.0334391 12.1114 0.0799419 11.8093C0.188008 11.5215 0.43426 11.3151 0.646849 11.1078C0.918786 10.8421 1.21375 10.6073 1.49189 10.3513C1.62511 10.2422 1.731 10.1034 1.80112 9.94606C1.87125 9.78875 1.90367 9.61723 1.89581 9.44517C1.87721 6.84981 1.88518 4.25356 1.88607 1.65819C1.88607 0.555387 2.43969 0 3.54338 0H16.4157C17.4246 0 18.073 0.657257 18.073 1.65731C18.073 3.03737 18.073 4.41714 18.073 5.7966C18.073 6.48634 18.073 7.17607 18.073 7.86581C18.073 8.21126 18.073 8.55584 18.073 8.90129C18.073 9.15906 18.0331 9.42657 18.0898 9.68167C18.2572 10.439 19.0766 10.7597 19.5434 11.3133C19.6822 11.4798 19.7938 11.6672 19.8738 11.8687ZM9.98041 9.97133H16.2164C16.7966 9.97133 16.8293 9.93944 16.8293 9.38139C16.8293 6.86102 16.8293 4.34036 16.8293 1.81941C16.8293 1.27199 16.7966 1.23922 16.2553 1.23922H3.69573C3.16426 1.23922 3.12706 1.27465 3.12706 1.82472C3.12706 4.33092 3.12706 6.83681 3.12706 9.34241C3.12706 9.93678 3.16072 9.97133 3.74711 9.97133H9.98041ZM11.7874 11.8138C11.4907 11.4187 11.217 11.1353 10.6882 11.1937C10.174 11.2416 9.65657 11.2416 9.14245 11.1937C8.64287 11.1556 8.43382 11.471 8.18226 11.8093L11.7874 11.8138Z" fill="white"/>
<path d="M9.98061 9.97235H3.74554C3.16003 9.97235 3.12549 9.9378 3.12549 9.34343C3.12549 6.83783 3.12549 4.33193 3.12549 1.82574C3.12549 1.27566 3.15915 1.24023 3.69417 1.24023H16.2555C16.7968 1.24023 16.8295 1.27301 16.8295 1.82043C16.8295 4.34138 16.8295 6.86204 16.8295 9.38241C16.8295 9.94045 16.7968 9.97235 16.2166 9.97235H9.98061ZM7.17797 7.02532C6.94147 6.68961 6.73065 6.39376 6.52338 6.09613C6.16906 5.58326 5.16723 5.51063 4.72788 5.96415C4.46215 6.23609 4.37357 6.56826 4.37357 6.93852C4.37357 7.61615 4.38862 8.29466 4.36471 8.97583C4.35496 9.27789 4.46303 9.34786 4.74294 9.34432C5.92193 9.33192 7.1018 9.32217 8.2799 9.34432C8.66344 9.35318 8.75025 9.22828 8.72722 8.87308C8.69622 8.39032 8.71925 7.90403 8.71925 7.41861C8.98717 7.69054 9.21584 7.99851 9.39865 8.33364C9.45413 8.44684 9.5406 8.54198 9.64801 8.608C9.75542 8.67401 9.87935 8.70818 10.0054 8.70655C10.6095 8.70655 11.2136 8.70655 11.8177 8.70655C12.0923 8.70655 12.3652 8.5914 12.397 8.32477C12.4431 7.9306 12.7124 7.75256 12.9631 7.53643C13.5433 7.03595 14.127 6.53991 14.7028 6.03058C14.8011 5.942 15.019 5.86848 14.8976 5.6993C14.7763 5.53011 14.6319 5.71436 14.5309 5.78788C13.8187 6.28451 13.1101 6.78793 12.405 7.29815C12.3221 7.3684 12.2262 7.42148 12.1226 7.45433C12.019 7.48717 11.91 7.49912 11.8018 7.48948C11.4637 7.46157 11.1239 7.46157 10.7858 7.48948C10.4882 7.50808 10.2924 7.4381 10.1657 7.13516C10.0299 6.82536 9.86876 6.52732 9.68387 6.24406C9.19138 5.44685 8.30824 5.41673 7.77677 6.16965L7.17797 7.02532ZM8.71571 3.41751C8.71758 3.21508 8.67948 3.01427 8.6036 2.82659C8.52772 2.63892 8.41556 2.46806 8.27353 2.32381C8.1315 2.17956 7.96241 2.06476 7.77593 1.98598C7.58945 1.9072 7.38927 1.86599 7.18683 1.86471C6.76991 1.86706 6.37097 2.03481 6.07766 2.33111C5.78434 2.62742 5.62064 3.02804 5.62253 3.44496C5.62552 3.64752 5.66851 3.84748 5.74902 4.03337C5.82952 4.21926 5.94597 4.3874 6.09166 4.52815C6.23735 4.6689 6.40941 4.77948 6.59796 4.85353C6.78651 4.92759 6.98784 4.96365 7.19038 4.95966C8.05933 4.96232 8.71305 4.30064 8.71571 3.42105V3.41751ZM13.0924 3.10305C13.8143 3.10305 14.5371 3.09862 15.259 3.10305C15.4681 3.10305 15.5903 3.0623 15.5921 2.81516C15.5939 2.56803 15.4885 2.48388 15.2475 2.48477C13.8179 2.49126 12.3882 2.49126 10.9585 2.48477C10.722 2.48477 10.6148 2.54589 10.6104 2.8072C10.6104 3.09153 10.7521 3.10748 10.97 3.10571C11.6751 3.09862 12.3838 3.10305 13.0924 3.10305ZM13.7124 4.34315C14.2271 4.34315 14.7417 4.34315 15.2564 4.34315C15.4619 4.34315 15.5903 4.30684 15.593 4.05793C15.5956 3.80902 15.4884 3.72665 15.2493 3.72842C14.22 3.7355 13.1907 3.7355 12.1614 3.72842C11.9311 3.72842 11.8611 3.81699 11.8585 4.04464C11.8585 4.28203 11.9471 4.34847 12.1685 4.34315C12.6778 4.33695 13.1925 4.34581 13.7071 4.34581L13.7124 4.34315Z" fill="#339B96"/>
<path d="M11.7873 11.8138H8.18213C8.43635 11.4755 8.64274 11.1601 9.14232 11.1982C9.65645 11.246 10.1739 11.246 10.688 11.1982C11.2168 11.1353 11.4906 11.4188 11.7873 11.8138Z" fill="#339B96"/>
<path d="M7.17751 7.02456L7.78339 6.16358C8.31486 5.41066 9.20065 5.44166 9.69049 6.23798C9.87433 6.5225 10.0343 6.82173 10.1688 7.13263C10.2919 7.43557 10.4877 7.50554 10.7889 7.48694C11.127 7.45904 11.4668 7.45904 11.8049 7.48694C11.9131 7.49659 12.0221 7.48464 12.1257 7.45179C12.2292 7.41895 12.3252 7.36586 12.4081 7.29561C13.1114 6.78658 13.82 6.28316 14.534 5.78534C14.6385 5.71271 14.7714 5.51961 14.9007 5.69677C15.03 5.87392 14.8042 5.94213 14.7058 6.02805C14.1301 6.53295 13.5463 7.02899 12.9661 7.53389C12.7837 7.69156 12.5923 7.82797 12.4834 8.04233C12.4386 8.12971 12.4104 8.22461 12.4001 8.32225C12.3682 8.58798 12.0954 8.70225 11.8208 8.70402C11.2167 8.70402 10.6126 8.70402 10.0085 8.70402C9.88243 8.70565 9.75849 8.67147 9.65108 8.60546C9.54368 8.53945 9.45721 8.44431 9.40173 8.3311C9.21892 7.99598 8.99025 7.688 8.72233 7.41608C8.72233 7.90149 8.6993 8.39045 8.7303 8.87055C8.75333 9.22487 8.66652 9.35064 8.28298 9.34178C7.10488 9.31521 5.92501 9.32495 4.74602 9.34178C4.46611 9.34178 4.35804 9.27535 4.36779 8.9733C4.3917 8.29567 4.37576 7.61716 4.37664 6.93598C4.37664 6.57015 4.46522 6.23798 4.73096 5.96162C5.17385 5.50809 6.17037 5.58073 6.52646 6.0936C6.73019 6.39654 6.941 6.69239 7.17751 7.02456Z" fill="white"/>
<path d="M8.71527 3.42193C8.71527 4.30151 8.05889 4.9632 7.18993 4.96408C6.9874 4.96807 6.78607 4.93201 6.59752 4.85795C6.40897 4.7839 6.23691 4.67332 6.09122 4.53257C5.94553 4.39182 5.82908 4.22368 5.74858 4.03779C5.66807 3.8519 5.62508 3.65194 5.62209 3.44939C5.6202 3.03246 5.7839 2.63184 6.07722 2.33554C6.37053 2.03923 6.76947 1.87148 7.18639 1.86914C7.38882 1.87041 7.58901 1.91162 7.77549 1.9904C7.96196 2.06918 8.13106 2.18398 8.27309 2.32823C8.41512 2.47248 8.52728 2.64334 8.60316 2.83102C8.67904 3.0187 8.71713 3.2195 8.71527 3.42193Z" fill="white"/>
<path d="M13.092 3.10336C12.3834 3.10336 11.6748 3.09894 10.9661 3.10336C10.7482 3.10336 10.603 3.08919 10.6065 2.80485C10.6109 2.54355 10.7181 2.48155 10.9546 2.48243C12.3843 2.48893 13.8139 2.48893 15.2436 2.48243C15.4845 2.48243 15.5908 2.55949 15.5882 2.81283C15.5855 3.06616 15.4642 3.10248 15.2551 3.10071C14.5332 3.09362 13.8104 3.10071 13.0885 3.10071L13.092 3.10336Z" fill="white"/>
<path d="M13.707 4.34523C13.1924 4.34523 12.6778 4.33637 12.1631 4.34523C11.939 4.35055 11.8504 4.28411 11.8531 4.04672C11.8531 3.82262 11.9257 3.72872 12.156 3.73049C13.1853 3.73581 14.2146 3.73581 15.2439 3.73049C15.483 3.73049 15.5911 3.8049 15.5876 4.06001C15.584 4.31512 15.4565 4.34789 15.251 4.34523C14.7363 4.3408 14.2217 4.34523 13.707 4.34523Z" fill="white"/>
</svg>
