<svg width="36" height="36" viewBox="0 0 36 36" fill="none" xmlns="http://www.w3.org/2000/svg">
<circle opacity="0.1" cx="18" cy="18" r="18" fill="#233A85"/>
<path fill-rule="evenodd" clip-rule="evenodd" d="M16.1637 23.6197L22.3141 15.666C22.6484 15.2371 22.7673 14.7412 22.6558 14.2363C22.5593 13.7773 22.277 13.3408 21.8536 13.0097L20.8211 12.1895C19.9223 11.4747 18.8081 11.5499 18.1693 12.3701L17.4784 13.2663C17.3893 13.3785 17.4116 13.544 17.523 13.6343C17.523 13.6343 19.2686 15.0339 19.3058 15.064C19.4246 15.1769 19.5137 15.3274 19.536 15.508C19.5732 15.8616 19.328 16.1927 18.9641 16.2379C18.7932 16.2605 18.6298 16.2078 18.511 16.11L16.6762 14.6502C16.5871 14.5832 16.4534 14.5975 16.3791 14.6878L12.0188 20.3314C11.7365 20.6851 11.64 21.1441 11.7365 21.588L12.2936 24.0035C12.3233 24.1314 12.4348 24.2217 12.5685 24.2217L15.0197 24.1916C15.4654 24.1841 15.8814 23.9809 16.1637 23.6197ZM19.5957 22.8676H23.5928C23.9828 22.8676 24.2999 23.1889 24.2999 23.5839C24.2999 23.9797 23.9828 24.3003 23.5928 24.3003H19.5957C19.2058 24.3003 18.8886 23.9797 18.8886 23.5839C18.8886 23.1889 19.2058 22.8676 19.5957 22.8676Z" fill="#233A85"/>
</svg>
